G04*
G04 #@! TF.GenerationSoftware,Altium Limited,Altium Designer,24.2.2 (26)*
G04*
G04 Layer_Color=2752767*
%FSLAX44Y44*%
%MOMM*%
G71*
G04*
G04 #@! TF.SameCoordinates,1E054471-4286-4940-991A-2DB9724D60F8*
G04*
G04*
G04 #@! TF.FilePolarity,Positive*
G04*
G01*
G75*
%ADD12C,0.1270*%
%ADD107C,0.1693*%
D12*
X454660Y447040D02*
Y444500D01*
X459740D01*
Y447040D01*
X462280D01*
Y452120D01*
X459740D01*
Y454660D01*
X454660D01*
Y452120D01*
X452120D01*
Y447040D01*
X454660D01*
Y472440D02*
Y469900D01*
X459740D01*
Y472440D01*
X462280D01*
Y477520D01*
X459740D01*
Y480060D01*
X454660D01*
Y477520D01*
X452120D01*
Y472440D01*
X454660D01*
Y497840D02*
Y495300D01*
X459740D01*
Y497840D01*
X462280D01*
Y502920D01*
X459740D01*
Y505460D01*
X454660D01*
Y502920D01*
X452120D01*
Y497840D01*
X454660D01*
X235460Y56660D02*
X230380Y66820D01*
X240540D01*
X235460Y56660D01*
X293260D02*
X288180Y66820D01*
X298340D01*
X293260Y56660D01*
X455930Y177800D02*
Y175260D01*
X461010D01*
Y177800D01*
X463550D01*
Y182880D01*
X461010D01*
Y185420D01*
X455930D01*
Y182880D01*
X453390D01*
Y177800D01*
X455930D01*
Y152400D02*
Y149860D01*
X461010D01*
Y152400D01*
X463550D01*
Y157480D01*
X461010D01*
Y160020D01*
X455930D01*
Y157480D01*
X453390D01*
Y152400D01*
X455930D01*
Y127000D02*
Y124460D01*
X461010D01*
Y127000D01*
X463550D01*
Y132080D01*
X461010D01*
Y134620D01*
X455930D01*
Y132080D01*
X453390D01*
Y127000D01*
X455930D01*
X421640Y177800D02*
Y175260D01*
X426720D01*
Y177800D01*
X429260D01*
Y182880D01*
X426720D01*
Y185420D01*
X421640D01*
Y182880D01*
X419100D01*
Y177800D01*
X421640D01*
Y152400D02*
Y149860D01*
X426720D01*
Y152400D01*
X429260D01*
Y157480D01*
X426720D01*
Y160020D01*
X421640D01*
Y157480D01*
X419100D01*
Y152400D01*
X421640D01*
Y127000D02*
Y124460D01*
X426720D01*
Y127000D01*
X429260D01*
Y132080D01*
X426720D01*
Y134620D01*
X421640D01*
Y132080D01*
X419100D01*
Y127000D01*
X421640D01*
X49530Y473710D02*
Y483870D01*
X59690D01*
Y473710D01*
X49530D01*
Y499110D02*
Y509270D01*
X59690D01*
Y499110D01*
X49530D01*
Y524510D02*
Y534670D01*
X59690D01*
Y524510D01*
X49530D01*
X217170Y336550D02*
X219710Y341630D01*
X217170Y346710D01*
X222250Y344170D01*
X227330Y346710D01*
X224790Y341630D01*
X227330Y336550D01*
X222250Y339090D01*
X217170Y336550D01*
X236220D02*
X238760Y341630D01*
X236220Y346710D01*
X241300Y344170D01*
X246380Y346710D01*
X243840Y341630D01*
X246380Y336550D01*
X241300Y339090D01*
X236220Y336550D01*
X275590Y119380D02*
X278130Y124460D01*
X275590Y129540D01*
X280670Y127000D01*
X285750Y129540D01*
X283210Y124460D01*
X285750Y119380D01*
X280670Y121920D01*
X275590Y119380D01*
X237490Y95250D02*
X240030Y100330D01*
X237490Y105410D01*
X242570Y102870D01*
X247650Y105410D01*
X245110Y100330D01*
X247650Y95250D01*
X242570Y97790D01*
X237490Y95250D01*
X275590D02*
X278130Y100330D01*
X275590Y105410D01*
X280670Y102870D01*
X285750Y105410D01*
X283210Y100330D01*
X285750Y95250D01*
X280670Y97790D01*
X275590Y95250D01*
X311150Y167640D02*
X313690Y172720D01*
X311150Y177800D01*
X316230Y175260D01*
X321310Y177800D01*
X318770Y172720D01*
X321310Y167640D01*
X316230Y170180D01*
X311150Y167640D01*
Y153670D02*
X313690Y158750D01*
X311150Y163830D01*
X316230Y161290D01*
X321310Y163830D01*
X318770Y158750D01*
X321310Y153670D01*
X316230Y156210D01*
X311150Y153670D01*
X342900Y619760D02*
X345440Y624840D01*
X342900Y629920D01*
X347980Y627380D01*
X353060Y629920D01*
X350520Y624840D01*
X353060Y619760D01*
X347980Y622300D01*
X342900Y619760D01*
X312860Y481110D02*
X315400Y486190D01*
X312860Y491270D01*
X317940Y488730D01*
X323020Y491270D01*
X320480Y486190D01*
X323020Y481110D01*
X317940Y483650D01*
X312860Y481110D01*
X300860D02*
X303400Y486190D01*
X300860Y491270D01*
X305940Y488730D01*
X311020Y491270D01*
X308480Y486190D01*
X311020Y481110D01*
X305940Y483650D01*
X300860Y481110D01*
Y493110D02*
X303400Y498190D01*
X300860Y503270D01*
X305940Y500730D01*
X311020Y503270D01*
X308480Y498190D01*
X311020Y493110D01*
X305940Y495650D01*
X300860Y493110D01*
X324860Y481110D02*
X327400Y486190D01*
X324860Y491270D01*
X329940Y488730D01*
X335020Y491270D01*
X332480Y486190D01*
X335020Y481110D01*
X329940Y483650D01*
X324860Y481110D01*
Y493110D02*
X327400Y498190D01*
X324860Y503270D01*
X329940Y500730D01*
X335020Y503270D01*
X332480Y498190D01*
X335020Y493110D01*
X329940Y495650D01*
X324860Y493110D01*
Y505110D02*
X327400Y510190D01*
X324860Y515270D01*
X329940Y512730D01*
X335020Y515270D01*
X332480Y510190D01*
X335020Y505110D01*
X329940Y507650D01*
X324860Y505110D01*
X288860Y481110D02*
X291400Y486190D01*
X288860Y491270D01*
X293940Y488730D01*
X299020Y491270D01*
X296480Y486190D01*
X299020Y481110D01*
X293940Y483650D01*
X288860Y481110D01*
X312860Y505110D02*
X315400Y510190D01*
X312860Y515270D01*
X317940Y512730D01*
X323020Y515270D01*
X320480Y510190D01*
X323020Y505110D01*
X317940Y507650D01*
X312860Y505110D01*
X288860Y493110D02*
X291400Y498190D01*
X288860Y503270D01*
X293940Y500730D01*
X299020Y503270D01*
X296480Y498190D01*
X299020Y493110D01*
X293940Y495650D01*
X288860Y493110D01*
Y505110D02*
X291400Y510190D01*
X288860Y515270D01*
X293940Y512730D01*
X299020Y515270D01*
X296480Y510190D01*
X299020Y505110D01*
X293940Y507650D01*
X288860Y505110D01*
X300860D02*
X303400Y510190D01*
X300860Y515270D01*
X305940Y512730D01*
X311020Y515270D01*
X308480Y510190D01*
X311020Y505110D01*
X305940Y507650D01*
X300860Y505110D01*
X312860Y493110D02*
X315400Y498190D01*
X312860Y503270D01*
X317940Y500730D01*
X323020Y503270D01*
X320480Y498190D01*
X323020Y493110D01*
X317940Y495650D01*
X312860Y493110D01*
X320040Y289560D02*
X322580Y294640D01*
X320040Y299720D01*
X325120Y297180D01*
X330200Y299720D01*
X327660Y294640D01*
X330200Y289560D01*
X325120Y292100D01*
X320040Y289560D01*
X386080Y405130D02*
X388620Y410210D01*
X386080Y415290D01*
X391160Y412750D01*
X396240Y415290D01*
X393700Y410210D01*
X396240Y405130D01*
X391160Y407670D01*
X386080Y405130D01*
X339090D02*
X341630Y410210D01*
X339090Y415290D01*
X344170Y412750D01*
X349250Y415290D01*
X346710Y410210D01*
X349250Y405130D01*
X344170Y407670D01*
X339090Y405130D01*
X450484Y603638D02*
X453024Y608717D01*
X450484Y613797D01*
X455564Y611258D01*
X460644Y613797D01*
X458104Y608717D01*
X460644Y603638D01*
X455564Y606177D01*
X450484Y603638D01*
X376842Y506280D02*
X379382Y511360D01*
X376842Y516440D01*
X381922Y513900D01*
X387002Y516440D01*
X384462Y511360D01*
X387002Y506280D01*
X381922Y508820D01*
X376842Y506280D01*
X49307Y668054D02*
X51847Y673134D01*
X49307Y678214D01*
X54387Y675674D01*
X59467Y678214D01*
X56927Y673134D01*
X59467Y668054D01*
X54387Y670594D01*
X49307Y668054D01*
X148768Y473648D02*
X151308Y478728D01*
X148768Y483808D01*
X153848Y481268D01*
X158928Y483808D01*
X156388Y478728D01*
X158928Y473648D01*
X153848Y476188D01*
X148768Y473648D01*
X2540Y668020D02*
X5080Y673100D01*
X2540Y678180D01*
X7620Y675640D01*
X12700Y678180D01*
X10160Y673100D01*
X12700Y668020D01*
X7620Y670560D01*
X2540Y668020D01*
X275208Y426769D02*
X277748Y431849D01*
X275208Y436929D01*
X280288Y434389D01*
X285368Y436929D01*
X282828Y431849D01*
X285368Y426769D01*
X280288Y429309D01*
X275208Y426769D01*
X283210Y416560D02*
X285750Y421640D01*
X283210Y426720D01*
X288290Y424180D01*
X293370Y426720D01*
X290830Y421640D01*
X293370Y416560D01*
X288290Y419100D01*
X283210Y416560D01*
X226060Y346710D02*
X228600Y351790D01*
X226060Y356870D01*
X231140Y354330D01*
X236220Y356870D01*
X233680Y351790D01*
X236220Y346710D01*
X231140Y349250D01*
X226060Y346710D01*
X379730Y284480D02*
X382270Y289560D01*
X379730Y294640D01*
X384810Y292100D01*
X389890Y294640D01*
X387350Y289560D01*
X389890Y284480D01*
X384810Y287020D01*
X379730Y284480D01*
X154940Y206796D02*
X157480Y211876D01*
X154940Y216956D01*
X160020Y214416D01*
X165100Y216956D01*
X162560Y211876D01*
X165100Y206796D01*
X160020Y209336D01*
X154940Y206796D01*
X346710Y240030D02*
X349250Y245110D01*
X346710Y250190D01*
X351790Y247650D01*
X356870Y250190D01*
X354330Y245110D01*
X356870Y240030D01*
X351790Y242570D01*
X346710Y240030D01*
X372110D02*
X374650Y245110D01*
X372110Y250190D01*
X377190Y247650D01*
X382270Y250190D01*
X379730Y245110D01*
X382270Y240030D01*
X377190Y242570D01*
X372110Y240030D01*
X321310D02*
X323850Y245110D01*
X321310Y250190D01*
X326390Y247650D01*
X331470Y250190D01*
X328930Y245110D01*
X331470Y240030D01*
X326390Y242570D01*
X321310Y240030D01*
D107*
X29210Y232410D02*
G03*
X29210Y232410I-5080J0D01*
G01*
Y257810D02*
G03*
X29210Y257810I-5080J0D01*
G01*
Y283210D02*
G03*
X29210Y283210I-5080J0D01*
G01*
Y308610D02*
G03*
X29210Y308610I-5080J0D01*
G01*
Y334010D02*
G03*
X29210Y334010I-5080J0D01*
G01*
Y359410D02*
G03*
X29210Y359410I-5080J0D01*
G01*
Y384810D02*
G03*
X29210Y384810I-5080J0D01*
G01*
Y410210D02*
G03*
X29210Y410210I-5080J0D01*
G01*
X511810Y232410D02*
G03*
X511810Y232410I-5080J0D01*
G01*
Y207010D02*
G03*
X511810Y207010I-5080J0D01*
G01*
Y181610D02*
G03*
X511810Y181610I-5080J0D01*
G01*
Y156210D02*
G03*
X511810Y156210I-5080J0D01*
G01*
Y130810D02*
G03*
X511810Y130810I-5080J0D01*
G01*
Y105410D02*
G03*
X511810Y105410I-5080J0D01*
G01*
Y80010D02*
G03*
X511810Y80010I-5080J0D01*
G01*
Y54610D02*
G03*
X511810Y54610I-5080J0D01*
G01*
X29210Y52070D02*
G03*
X29210Y52070I-5080J0D01*
G01*
Y77470D02*
G03*
X29210Y77470I-5080J0D01*
G01*
Y102870D02*
G03*
X29210Y102870I-5080J0D01*
G01*
Y128270D02*
G03*
X29210Y128270I-5080J0D01*
G01*
Y153670D02*
G03*
X29210Y153670I-5080J0D01*
G01*
Y179070D02*
G03*
X29210Y179070I-5080J0D01*
G01*
X511810Y501650D02*
G03*
X511810Y501650I-5080J0D01*
G01*
Y476250D02*
G03*
X511810Y476250I-5080J0D01*
G01*
Y450850D02*
G03*
X511810Y450850I-5080J0D01*
G01*
Y425450D02*
G03*
X511810Y425450I-5080J0D01*
G01*
Y400050D02*
G03*
X511810Y400050I-5080J0D01*
G01*
Y374650D02*
G03*
X511810Y374650I-5080J0D01*
G01*
Y349250D02*
G03*
X511810Y349250I-5080J0D01*
G01*
Y323850D02*
G03*
X511810Y323850I-5080J0D01*
G01*
Y298450D02*
G03*
X511810Y298450I-5080J0D01*
G01*
Y273050D02*
G03*
X511810Y273050I-5080J0D01*
G01*
M02*
