G04*
G04 #@! TF.GenerationSoftware,Altium Limited,Altium Designer,24.2.2 (26)*
G04*
G04 Layer_Color=8421504*
%FSLAX44Y44*%
%MOMM*%
G71*
G04*
G04 #@! TF.SameCoordinates,D9C0422A-5697-4C54-BB13-8CA43C25D237*
G04*
G04*
G04 #@! TF.FilePolarity,Positive*
G04*
G01*
G75*
%ADD22O,2.2000X1.6000*%
G04:AMPARAMS|DCode=23|XSize=2mm|YSize=2mm|CornerRadius=0.3mm|HoleSize=0mm|Usage=FLASHONLY|Rotation=0.000|XOffset=0mm|YOffset=0mm|HoleType=Round|Shape=RoundedRectangle|*
%AMROUNDEDRECTD23*
21,1,2.0000,1.4000,0,0,0.0*
21,1,1.4000,2.0000,0,0,0.0*
1,1,0.6000,0.7000,-0.7000*
1,1,0.6000,-0.7000,-0.7000*
1,1,0.6000,-0.7000,0.7000*
1,1,0.6000,0.7000,0.7000*
%
%ADD23ROUNDEDRECTD23*%
G04:AMPARAMS|DCode=24|XSize=0.6mm|YSize=1.8mm|CornerRadius=0.15mm|HoleSize=0mm|Usage=FLASHONLY|Rotation=0.000|XOffset=0mm|YOffset=0mm|HoleType=Round|Shape=RoundedRectangle|*
%AMROUNDEDRECTD24*
21,1,0.6000,1.5000,0,0,0.0*
21,1,0.3000,1.8000,0,0,0.0*
1,1,0.3000,0.1500,-0.7500*
1,1,0.3000,-0.1500,-0.7500*
1,1,0.3000,-0.1500,0.7500*
1,1,0.3000,0.1500,0.7500*
%
%ADD24ROUNDEDRECTD24*%
G04:AMPARAMS|DCode=25|XSize=0.3mm|YSize=1.8mm|CornerRadius=0.075mm|HoleSize=0mm|Usage=FLASHONLY|Rotation=0.000|XOffset=0mm|YOffset=0mm|HoleType=Round|Shape=RoundedRectangle|*
%AMROUNDEDRECTD25*
21,1,0.3000,1.6500,0,0,0.0*
21,1,0.1500,1.8000,0,0,0.0*
1,1,0.1500,0.0750,-0.8250*
1,1,0.1500,-0.0750,-0.8250*
1,1,0.1500,-0.0750,0.8250*
1,1,0.1500,0.0750,0.8250*
%
%ADD25ROUNDEDRECTD25*%
%ADD26R,1.9000X1.5000*%
%ADD27R,2.0000X1.2000*%
%ADD28R,1.2000X1.2000*%
%ADD29R,1.2000X1.2000*%
%ADD30O,2.3000X0.7000*%
%ADD31R,1.0000X0.5500*%
%ADD32R,1.0000X0.5500*%
%ADD33R,1.3000X0.6000*%
%ADD34R,0.6000X1.3000*%
%ADD35O,2.5000X0.7000*%
%ADD36O,0.7000X2.5000*%
%ADD37R,6.0000X2.0000*%
%ADD38R,1.0000X1.1000*%
%ADD39R,1.0000X3.0000*%
%ADD40R,1.0000X1.0500*%
%ADD41R,1.0500X2.2000*%
%ADD42R,1.2000X2.0000*%
%ADD43R,2.6000X2.2000*%
%ADD44R,2.2000X2.0000*%
G04:AMPARAMS|DCode=45|XSize=1mm|YSize=2mm|CornerRadius=0.25mm|HoleSize=0mm|Usage=FLASHONLY|Rotation=90.000|XOffset=0mm|YOffset=0mm|HoleType=Round|Shape=RoundedRectangle|*
%AMROUNDEDRECTD45*
21,1,1.0000,1.5000,0,0,90.0*
21,1,0.5000,2.0000,0,0,90.0*
1,1,0.5000,0.7500,0.2500*
1,1,0.5000,0.7500,-0.2500*
1,1,0.5000,-0.7500,-0.2500*
1,1,0.5000,-0.7500,0.2500*
%
%ADD45ROUNDEDRECTD45*%
%ADD46R,0.9000X1.0000*%
%ADD47R,1.8000X1.3000*%
%ADD48R,1.4000X1.5000*%
%ADD49R,1.3000X1.8000*%
D22*
X62790Y71755D02*
D03*
X132790D02*
D03*
X62790Y27940D02*
D03*
X132790D02*
D03*
X62790Y115570D02*
D03*
X132790D02*
D03*
D23*
X315360Y27940D02*
D03*
X213360D02*
D03*
X315360Y66940D02*
D03*
X213360Y66940D02*
D03*
D24*
X296610Y77438D02*
D03*
X232360D02*
D03*
X240360D02*
D03*
X288610D02*
D03*
D25*
X246888D02*
D03*
X251897D02*
D03*
X256906D02*
D03*
X261915D02*
D03*
X266925D02*
D03*
X271934D02*
D03*
X276943D02*
D03*
X281952D02*
D03*
D26*
X349250Y77730D02*
D03*
Y46730D02*
D03*
D27*
X300960Y104140D02*
D03*
X328960D02*
D03*
X104110Y427990D02*
D03*
X132110D02*
D03*
X104110Y403860D02*
D03*
X132110D02*
D03*
X424150Y275590D02*
D03*
X452150D02*
D03*
D28*
X297094Y127000D02*
D03*
X318094D02*
D03*
X254594Y209550D02*
D03*
X233594D02*
D03*
X145374Y243840D02*
D03*
X124374D02*
D03*
X448904Y231140D02*
D03*
X427904D02*
D03*
X448904Y252730D02*
D03*
X427904D02*
D03*
X76150Y170180D02*
D03*
X55150D02*
D03*
X156260Y185420D02*
D03*
X177260D02*
D03*
X416610Y546100D02*
D03*
X437610D02*
D03*
X477570D02*
D03*
X498570D02*
D03*
D29*
X425450Y99600D02*
D03*
Y78600D02*
D03*
X444562Y99600D02*
D03*
Y78600D02*
D03*
X463673Y99600D02*
D03*
Y78600D02*
D03*
X82550Y672170D02*
D03*
Y651170D02*
D03*
X20320Y672170D02*
D03*
Y651170D02*
D03*
X426720Y672170D02*
D03*
Y651170D02*
D03*
X486410Y672170D02*
D03*
Y651170D02*
D03*
X199390Y203876D02*
D03*
Y224876D02*
D03*
X343535Y372786D02*
D03*
Y393786D02*
D03*
X391160Y372786D02*
D03*
Y393786D02*
D03*
X295910Y372786D02*
D03*
Y393786D02*
D03*
X486410Y607650D02*
D03*
Y628650D02*
D03*
X426720Y607650D02*
D03*
Y628650D02*
D03*
X95250Y170180D02*
D03*
Y149180D02*
D03*
X177800Y204470D02*
D03*
Y225470D02*
D03*
X179070Y242570D02*
D03*
Y263570D02*
D03*
X82550Y628650D02*
D03*
Y607650D02*
D03*
X20320Y628650D02*
D03*
Y607650D02*
D03*
X397510Y568960D02*
D03*
X397510Y589960D02*
D03*
X457200Y568960D02*
D03*
Y589960D02*
D03*
D30*
X290930Y147320D02*
D03*
Y160020D02*
D03*
Y172720D02*
D03*
Y185420D02*
D03*
X239930Y147320D02*
D03*
Y160020D02*
D03*
Y172720D02*
D03*
Y185420D02*
D03*
D31*
X137460Y210820D02*
D03*
Y201320D02*
D03*
X111460D02*
D03*
Y210820D02*
D03*
X137460Y220320D02*
D03*
D32*
X111460Y220320D02*
D03*
D33*
X136570Y159410D02*
D03*
X115570Y149910D02*
D03*
Y168910D02*
D03*
D34*
X426720Y588350D02*
D03*
X436220Y567350D02*
D03*
X417220D02*
D03*
X486410Y589620D02*
D03*
X495910Y568620D02*
D03*
X476910D02*
D03*
D35*
X180740Y489400D02*
D03*
Y500400D02*
D03*
Y511400D02*
D03*
Y522400D02*
D03*
Y533400D02*
D03*
Y544400D02*
D03*
Y555400D02*
D03*
Y566400D02*
D03*
Y577400D02*
D03*
X357740D02*
D03*
Y566400D02*
D03*
Y555400D02*
D03*
Y544400D02*
D03*
Y533400D02*
D03*
Y522400D02*
D03*
Y511400D02*
D03*
Y489400D02*
D03*
D36*
X203240Y612400D02*
D03*
X214240D02*
D03*
X225240D02*
D03*
X236240D02*
D03*
X247240D02*
D03*
X258240D02*
D03*
X269240D02*
D03*
X280240D02*
D03*
X291240D02*
D03*
X302240D02*
D03*
X313240D02*
D03*
X324240D02*
D03*
X335240D02*
D03*
Y454400D02*
D03*
X324240D02*
D03*
X313240D02*
D03*
X302240D02*
D03*
X291240D02*
D03*
X280240D02*
D03*
X269240D02*
D03*
X258240D02*
D03*
X247240D02*
D03*
X236240D02*
D03*
X225240D02*
D03*
X214240D02*
D03*
X203240D02*
D03*
D37*
X115570Y338070D02*
D03*
Y274070D02*
D03*
D38*
X377190Y228020D02*
D03*
X351790D02*
D03*
X326390D02*
D03*
X377190Y346020D02*
D03*
X351790D02*
D03*
X326390D02*
D03*
D39*
X404790Y287020D02*
D03*
X298790D02*
D03*
D40*
X302260Y650240D02*
D03*
X203200Y650240D02*
D03*
D41*
X317010Y665240D02*
D03*
X287510D02*
D03*
X217950Y665240D02*
D03*
X188450D02*
D03*
D42*
X373380Y596870D02*
D03*
Y624870D02*
D03*
X163830Y427960D02*
D03*
Y455960D02*
D03*
D43*
X79140Y370840D02*
D03*
X129140D02*
D03*
D44*
X60960Y207250D02*
D03*
Y237250D02*
D03*
D45*
X13970Y477520D02*
D03*
Y503555D02*
D03*
Y529590D02*
D03*
D46*
X272580Y393700D02*
D03*
X259080D02*
D03*
X203600Y375920D02*
D03*
X190100D02*
D03*
X272580D02*
D03*
X259080D02*
D03*
X203600Y393700D02*
D03*
X190100D02*
D03*
X238090D02*
D03*
X224590D02*
D03*
X238090Y375920D02*
D03*
X224590D02*
D03*
D47*
X90170Y238020D02*
D03*
Y209020D02*
D03*
D48*
X160180Y160020D02*
D03*
X180180D02*
D03*
D49*
X137690Y453390D02*
D03*
X108690Y453390D02*
D03*
X137690Y478790D02*
D03*
X108690D02*
D03*
X137690Y505460D02*
D03*
X108690D02*
D03*
M02*
