G04*
G04 #@! TF.GenerationSoftware,Altium Limited,Altium Designer,24.2.2 (26)*
G04*
G04 Layer_Color=8388736*
%FSLAX44Y44*%
%MOMM*%
G71*
G04*
G04 #@! TF.SameCoordinates,92E383DB-29FE-4B3A-A1A2-949DC4B90B9B*
G04*
G04*
G04 #@! TF.FilePolarity,Negative*
G04*
G01*
G75*
%ADD50R,1.4032X1.4032*%
%ADD51O,2.4000X1.8000*%
G04:AMPARAMS|DCode=52|XSize=2.2032mm|YSize=2.2032mm|CornerRadius=0.4016mm|HoleSize=0mm|Usage=FLASHONLY|Rotation=0.000|XOffset=0mm|YOffset=0mm|HoleType=Round|Shape=RoundedRectangle|*
%AMROUNDEDRECTD52*
21,1,2.2032,1.4000,0,0,0.0*
21,1,1.4000,2.2032,0,0,0.0*
1,1,0.8032,0.7000,-0.7000*
1,1,0.8032,-0.7000,-0.7000*
1,1,0.8032,-0.7000,0.7000*
1,1,0.8032,0.7000,0.7000*
%
%ADD52ROUNDEDRECTD52*%
G04:AMPARAMS|DCode=53|XSize=0.75mm|YSize=1.95mm|CornerRadius=0.225mm|HoleSize=0mm|Usage=FLASHONLY|Rotation=0.000|XOffset=0mm|YOffset=0mm|HoleType=Round|Shape=RoundedRectangle|*
%AMROUNDEDRECTD53*
21,1,0.7500,1.5000,0,0,0.0*
21,1,0.3000,1.9500,0,0,0.0*
1,1,0.4500,0.1500,-0.7500*
1,1,0.4500,-0.1500,-0.7500*
1,1,0.4500,-0.1500,0.7500*
1,1,0.4500,0.1500,0.7500*
%
%ADD53ROUNDEDRECTD53*%
G04:AMPARAMS|DCode=54|XSize=0.45mm|YSize=1.95mm|CornerRadius=0.15mm|HoleSize=0mm|Usage=FLASHONLY|Rotation=0.000|XOffset=0mm|YOffset=0mm|HoleType=Round|Shape=RoundedRectangle|*
%AMROUNDEDRECTD54*
21,1,0.4500,1.6500,0,0,0.0*
21,1,0.1500,1.9500,0,0,0.0*
1,1,0.3000,0.0750,-0.8250*
1,1,0.3000,-0.0750,-0.8250*
1,1,0.3000,-0.0750,0.8250*
1,1,0.3000,0.0750,0.8250*
%
%ADD54ROUNDEDRECTD54*%
%ADD55R,2.1032X1.7032*%
%ADD56R,2.2032X1.4032*%
%ADD57R,1.4032X1.4032*%
%ADD58O,2.5032X0.9032*%
%ADD59R,1.2032X0.7532*%
%ADD60R,1.2032X0.7532*%
%ADD61R,1.5032X0.8032*%
%ADD62R,0.8032X1.5032*%
%ADD63O,2.7032X0.9032*%
%ADD64O,0.9032X2.7032*%
%ADD65R,6.2032X2.2032*%
%ADD66R,1.2032X1.3032*%
%ADD67R,1.2032X3.2032*%
%ADD68R,1.2032X1.2532*%
%ADD69R,1.2532X2.4032*%
%ADD70R,1.4032X2.2032*%
%ADD71R,2.8032X2.4032*%
%ADD72R,2.4032X2.2032*%
G04:AMPARAMS|DCode=73|XSize=1.2032mm|YSize=2.2032mm|CornerRadius=0.3516mm|HoleSize=0mm|Usage=FLASHONLY|Rotation=90.000|XOffset=0mm|YOffset=0mm|HoleType=Round|Shape=RoundedRectangle|*
%AMROUNDEDRECTD73*
21,1,1.2032,1.5000,0,0,90.0*
21,1,0.5000,2.2032,0,0,90.0*
1,1,0.7032,0.7500,0.2500*
1,1,0.7032,0.7500,-0.2500*
1,1,0.7032,-0.7500,-0.2500*
1,1,0.7032,-0.7500,0.2500*
%
%ADD73ROUNDEDRECTD73*%
%ADD74R,1.1032X1.2032*%
%ADD75R,2.0032X1.5032*%
%ADD76R,1.6032X1.7032*%
%ADD77R,1.5032X2.0032*%
%ADD78C,0.9032*%
%ADD79O,3.2032X1.7032*%
%ADD80R,3.2032X1.7032*%
%ADD81R,1.8032X1.8032*%
%ADD82C,1.8032*%
%ADD83O,2.6032X2.0032*%
%ADD84R,2.6032X2.0032*%
%ADD85R,1.9812X1.8542*%
%ADD86O,1.9812X1.8542*%
%ADD87C,1.2032*%
D50*
X270460Y278130D02*
D03*
X249460D02*
D03*
X270460Y255270D02*
D03*
X249460D02*
D03*
X227670Y278130D02*
D03*
X206670D02*
D03*
Y255270D02*
D03*
X227670D02*
D03*
X297094Y127000D02*
D03*
X318094D02*
D03*
X254594Y209550D02*
D03*
X233594D02*
D03*
X145374Y243840D02*
D03*
X124374D02*
D03*
X448904Y231140D02*
D03*
X427904D02*
D03*
X448904Y252730D02*
D03*
X427904D02*
D03*
X76150Y170180D02*
D03*
X55150D02*
D03*
X156260Y185420D02*
D03*
X177260D02*
D03*
X416610Y546100D02*
D03*
X437610D02*
D03*
X477570D02*
D03*
X498570D02*
D03*
D51*
X62790Y71755D02*
D03*
X132790D02*
D03*
X62790Y27940D02*
D03*
X132790D02*
D03*
X62790Y115570D02*
D03*
X132790D02*
D03*
D52*
X315360Y27940D02*
D03*
X213360D02*
D03*
X315360Y66940D02*
D03*
X213360Y66940D02*
D03*
D53*
X296610Y77438D02*
D03*
X232360D02*
D03*
X240360D02*
D03*
X288610D02*
D03*
D54*
X246888D02*
D03*
X251897D02*
D03*
X256906D02*
D03*
X261915D02*
D03*
X266925D02*
D03*
X271934D02*
D03*
X276943D02*
D03*
X281952D02*
D03*
D55*
X349250Y77730D02*
D03*
Y46730D02*
D03*
D56*
X300960Y104140D02*
D03*
X328960D02*
D03*
X104110Y427990D02*
D03*
X132110D02*
D03*
X104110Y403860D02*
D03*
X132110D02*
D03*
X424150Y275590D02*
D03*
X452150D02*
D03*
D57*
X425450Y99600D02*
D03*
Y78600D02*
D03*
X444562Y99600D02*
D03*
Y78600D02*
D03*
X463673Y99600D02*
D03*
Y78600D02*
D03*
X82550Y672170D02*
D03*
Y651170D02*
D03*
X20320Y672170D02*
D03*
Y651170D02*
D03*
X426720Y672170D02*
D03*
Y651170D02*
D03*
X486410Y672170D02*
D03*
Y651170D02*
D03*
X199390Y203876D02*
D03*
Y224876D02*
D03*
X343535Y372786D02*
D03*
Y393786D02*
D03*
X391160Y372786D02*
D03*
Y393786D02*
D03*
X295910Y372786D02*
D03*
Y393786D02*
D03*
X486410Y607650D02*
D03*
Y628650D02*
D03*
X426720Y607650D02*
D03*
Y628650D02*
D03*
X95250Y170180D02*
D03*
Y149180D02*
D03*
X177800Y204470D02*
D03*
Y225470D02*
D03*
X179070Y242570D02*
D03*
Y263570D02*
D03*
X82550Y628650D02*
D03*
Y607650D02*
D03*
X20320Y628650D02*
D03*
Y607650D02*
D03*
X397510Y568960D02*
D03*
X397510Y589960D02*
D03*
X457200Y568960D02*
D03*
Y589960D02*
D03*
D58*
X290930Y147320D02*
D03*
Y160020D02*
D03*
Y172720D02*
D03*
Y185420D02*
D03*
X239930Y147320D02*
D03*
Y160020D02*
D03*
Y172720D02*
D03*
Y185420D02*
D03*
D59*
X137460Y210820D02*
D03*
Y201320D02*
D03*
X111460D02*
D03*
Y210820D02*
D03*
X137460Y220320D02*
D03*
D60*
X111460Y220320D02*
D03*
D61*
X136570Y159410D02*
D03*
X115570Y149910D02*
D03*
Y168910D02*
D03*
D62*
X426720Y588350D02*
D03*
X436220Y567350D02*
D03*
X417220D02*
D03*
X486410Y589620D02*
D03*
X495910Y568620D02*
D03*
X476910D02*
D03*
D63*
X180740Y489400D02*
D03*
Y500400D02*
D03*
Y511400D02*
D03*
Y522400D02*
D03*
Y533400D02*
D03*
Y544400D02*
D03*
Y555400D02*
D03*
Y566400D02*
D03*
Y577400D02*
D03*
X357740D02*
D03*
Y566400D02*
D03*
Y555400D02*
D03*
Y544400D02*
D03*
Y533400D02*
D03*
Y522400D02*
D03*
Y511400D02*
D03*
Y489400D02*
D03*
D64*
X203240Y612400D02*
D03*
X214240D02*
D03*
X225240D02*
D03*
X236240D02*
D03*
X247240D02*
D03*
X258240D02*
D03*
X269240D02*
D03*
X280240D02*
D03*
X291240D02*
D03*
X302240D02*
D03*
X313240D02*
D03*
X324240D02*
D03*
X335240D02*
D03*
Y454400D02*
D03*
X324240D02*
D03*
X313240D02*
D03*
X302240D02*
D03*
X291240D02*
D03*
X280240D02*
D03*
X269240D02*
D03*
X258240D02*
D03*
X247240D02*
D03*
X236240D02*
D03*
X225240D02*
D03*
X214240D02*
D03*
X203240D02*
D03*
D65*
X115570Y338070D02*
D03*
Y274070D02*
D03*
D66*
X377190Y228020D02*
D03*
X351790D02*
D03*
X326390D02*
D03*
X377190Y346020D02*
D03*
X351790D02*
D03*
X326390D02*
D03*
D67*
X404790Y287020D02*
D03*
X298790D02*
D03*
D68*
X302260Y650240D02*
D03*
X203200Y650240D02*
D03*
D69*
X317010Y665240D02*
D03*
X287510D02*
D03*
X217950Y665240D02*
D03*
X188450D02*
D03*
D70*
X373380Y596870D02*
D03*
Y624870D02*
D03*
X163830Y427960D02*
D03*
Y455960D02*
D03*
D71*
X79140Y370840D02*
D03*
X129140D02*
D03*
D72*
X60960Y207250D02*
D03*
Y237250D02*
D03*
D73*
X13970Y477520D02*
D03*
Y503555D02*
D03*
Y529590D02*
D03*
D74*
X272580Y393700D02*
D03*
X259080D02*
D03*
X203600Y375920D02*
D03*
X190100D02*
D03*
X272580D02*
D03*
X259080D02*
D03*
X203600Y393700D02*
D03*
X190100D02*
D03*
X238090D02*
D03*
X224590D02*
D03*
X238090Y375920D02*
D03*
X224590D02*
D03*
D75*
X90170Y238020D02*
D03*
Y209020D02*
D03*
D76*
X160180Y160020D02*
D03*
X180180D02*
D03*
D77*
X137690Y453390D02*
D03*
X108690Y453390D02*
D03*
X137690Y478790D02*
D03*
X108690D02*
D03*
X137690Y505460D02*
D03*
X108690D02*
D03*
D78*
X235460Y61740D02*
D03*
X293260D02*
D03*
D79*
X506730Y207010D02*
D03*
X24130Y232410D02*
D03*
Y257810D02*
D03*
Y283210D02*
D03*
Y308610D02*
D03*
Y334010D02*
D03*
Y359410D02*
D03*
Y384810D02*
D03*
X506730Y181610D02*
D03*
Y156210D02*
D03*
Y130810D02*
D03*
Y105410D02*
D03*
Y80010D02*
D03*
Y54610D02*
D03*
X24130Y52070D02*
D03*
Y77470D02*
D03*
Y102870D02*
D03*
Y128270D02*
D03*
Y153670D02*
D03*
X506730Y476250D02*
D03*
Y450850D02*
D03*
Y425450D02*
D03*
Y400050D02*
D03*
Y374650D02*
D03*
Y349250D02*
D03*
Y323850D02*
D03*
Y298450D02*
D03*
Y273050D02*
D03*
D80*
Y232410D02*
D03*
X24130Y410210D02*
D03*
Y179070D02*
D03*
X506730Y501650D02*
D03*
D81*
X457200Y449580D02*
D03*
D82*
Y474980D02*
D03*
Y500380D02*
D03*
D83*
X458470Y180340D02*
D03*
Y129540D02*
D03*
X424180Y180340D02*
D03*
Y129540D02*
D03*
D84*
X458470Y154940D02*
D03*
X424180D02*
D03*
D85*
X54610Y478790D02*
D03*
D86*
Y504190D02*
D03*
Y529590D02*
D03*
D87*
X222250Y341630D02*
D03*
X241300D02*
D03*
M02*
