G04*
G04 #@! TF.GenerationSoftware,Altium Limited,Altium Designer,24.2.2 (26)*
G04*
G04 Layer_Color=8421504*
%FSLAX44Y44*%
%MOMM*%
G71*
G04*
G04 #@! TF.SameCoordinates,D4777117-7EC2-4350-9FDB-5EFC8E967FA0*
G04*
G04*
G04 #@! TF.FilePolarity,Positive*
G04*
G01*
G75*
%ADD21R,1.0000X0.5500*%
%ADD22R,1.0000X0.5500*%
%ADD23O,2.2000X1.6000*%
%ADD24R,1.3000X0.6000*%
%ADD25R,0.6000X1.3000*%
%ADD26O,2.5000X0.7000*%
%ADD27O,0.7000X2.5000*%
%ADD28R,6.0000X2.0000*%
%ADD29R,1.0000X1.1000*%
%ADD30R,1.0000X3.0000*%
%ADD31R,1.0000X1.0500*%
%ADD32R,1.0500X2.2000*%
%ADD33R,1.2000X1.2000*%
%ADD34R,1.2000X2.0000*%
%ADD35R,2.0000X1.2000*%
%ADD36R,2.6000X2.2000*%
%ADD37R,2.2000X2.0000*%
%ADD38R,1.2000X1.2000*%
G04:AMPARAMS|DCode=39|XSize=1mm|YSize=2mm|CornerRadius=0.25mm|HoleSize=0mm|Usage=FLASHONLY|Rotation=90.000|XOffset=0mm|YOffset=0mm|HoleType=Round|Shape=RoundedRectangle|*
%AMROUNDEDRECTD39*
21,1,1.0000,1.5000,0,0,90.0*
21,1,0.5000,2.0000,0,0,90.0*
1,1,0.5000,0.7500,0.2500*
1,1,0.5000,0.7500,-0.2500*
1,1,0.5000,-0.7500,-0.2500*
1,1,0.5000,-0.7500,0.2500*
%
%ADD39ROUNDEDRECTD39*%
%ADD40R,0.9000X1.0000*%
%ADD41R,1.8000X1.3000*%
%ADD42R,1.4000X1.5000*%
%ADD43R,1.3000X1.8000*%
D21*
X137460Y210820D02*
D03*
Y201320D02*
D03*
X111460D02*
D03*
Y210820D02*
D03*
X137460Y220320D02*
D03*
D22*
X111460Y220320D02*
D03*
D23*
X105970Y78740D02*
D03*
X175970D02*
D03*
D24*
X179750Y125120D02*
D03*
X158750Y115620D02*
D03*
Y134620D02*
D03*
D25*
X426720Y588350D02*
D03*
X436220Y567350D02*
D03*
X417220D02*
D03*
X486410Y589620D02*
D03*
X495910Y568620D02*
D03*
X476910D02*
D03*
D26*
X180740Y489400D02*
D03*
Y500400D02*
D03*
Y511400D02*
D03*
Y522400D02*
D03*
Y533400D02*
D03*
Y544400D02*
D03*
Y555400D02*
D03*
Y566400D02*
D03*
Y577400D02*
D03*
X357740D02*
D03*
Y566400D02*
D03*
Y555400D02*
D03*
Y544400D02*
D03*
Y533400D02*
D03*
Y522400D02*
D03*
Y511400D02*
D03*
Y489400D02*
D03*
D27*
X203240Y612400D02*
D03*
X214240D02*
D03*
X225240D02*
D03*
X236240D02*
D03*
X247240D02*
D03*
X258240D02*
D03*
X269240D02*
D03*
X280240D02*
D03*
X291240D02*
D03*
X302240D02*
D03*
X313240D02*
D03*
X324240D02*
D03*
X335240D02*
D03*
Y454400D02*
D03*
X324240D02*
D03*
X313240D02*
D03*
X302240D02*
D03*
X291240D02*
D03*
X280240D02*
D03*
X269240D02*
D03*
X258240D02*
D03*
X247240D02*
D03*
X236240D02*
D03*
X225240D02*
D03*
X214240D02*
D03*
X203240D02*
D03*
D28*
X115570Y338070D02*
D03*
Y274070D02*
D03*
D29*
X377190Y228020D02*
D03*
X351790D02*
D03*
X326390D02*
D03*
X377190Y346020D02*
D03*
X351790D02*
D03*
X326390D02*
D03*
D30*
X404790Y287020D02*
D03*
X298790D02*
D03*
D31*
X302260Y650240D02*
D03*
X203200Y650240D02*
D03*
D32*
X317010Y665240D02*
D03*
X287510D02*
D03*
X217950Y665240D02*
D03*
X188450D02*
D03*
D33*
X82550Y672170D02*
D03*
Y651170D02*
D03*
X20320Y672170D02*
D03*
Y651170D02*
D03*
X426720Y672170D02*
D03*
Y651170D02*
D03*
X486410Y672170D02*
D03*
Y651170D02*
D03*
X199390Y203876D02*
D03*
Y224876D02*
D03*
X343535Y372786D02*
D03*
Y393786D02*
D03*
X391160Y372786D02*
D03*
Y393786D02*
D03*
X295910Y372786D02*
D03*
Y393786D02*
D03*
X486410Y607650D02*
D03*
Y628650D02*
D03*
X426720Y607650D02*
D03*
Y628650D02*
D03*
X138430Y135890D02*
D03*
Y114890D02*
D03*
X177800Y204470D02*
D03*
Y225470D02*
D03*
X179070Y242570D02*
D03*
Y263570D02*
D03*
X82550Y628650D02*
D03*
Y607650D02*
D03*
X20320Y628650D02*
D03*
Y607650D02*
D03*
X397510Y568960D02*
D03*
X397510Y589960D02*
D03*
X457200Y568960D02*
D03*
Y589960D02*
D03*
X410210Y372110D02*
D03*
Y393110D02*
D03*
X362585Y372110D02*
D03*
Y393110D02*
D03*
X314960Y372110D02*
D03*
Y393110D02*
D03*
D34*
X373380Y596870D02*
D03*
Y624870D02*
D03*
X163830Y427960D02*
D03*
Y455960D02*
D03*
D35*
X104110Y427990D02*
D03*
X132110D02*
D03*
X104110Y403860D02*
D03*
X132110D02*
D03*
X424150Y275590D02*
D03*
X452150D02*
D03*
D36*
X79140Y370840D02*
D03*
X129140D02*
D03*
D37*
X60960Y207250D02*
D03*
Y237250D02*
D03*
D38*
X145374Y243840D02*
D03*
X124374D02*
D03*
X448904Y231140D02*
D03*
X427904D02*
D03*
X448904Y252730D02*
D03*
X427904D02*
D03*
X119330Y135890D02*
D03*
X98330D02*
D03*
X156260Y185420D02*
D03*
X177260D02*
D03*
X416610Y546100D02*
D03*
X437610D02*
D03*
X477570D02*
D03*
X498570D02*
D03*
X416610Y471170D02*
D03*
X437610Y471170D02*
D03*
X416610Y489585D02*
D03*
X437610D02*
D03*
X416610Y508000D02*
D03*
X437610Y508000D02*
D03*
D39*
X13970Y477520D02*
D03*
Y503555D02*
D03*
Y529590D02*
D03*
D40*
X272580Y393700D02*
D03*
X259080D02*
D03*
X203600Y375920D02*
D03*
X190100D02*
D03*
X272580D02*
D03*
X259080D02*
D03*
X203600Y393700D02*
D03*
X190100D02*
D03*
X238090D02*
D03*
X224590D02*
D03*
X238090Y375920D02*
D03*
X224590D02*
D03*
D41*
X90170Y238020D02*
D03*
Y209020D02*
D03*
D42*
X160180Y160020D02*
D03*
X180180D02*
D03*
D43*
X137690Y453390D02*
D03*
X108690Y453390D02*
D03*
X137690Y478790D02*
D03*
X108690D02*
D03*
X137690Y505460D02*
D03*
X108690D02*
D03*
M02*
