G04*
G04 #@! TF.GenerationSoftware,Altium Limited,Altium Designer,24.2.2 (26)*
G04*
G04 Layer_Physical_Order=1*
G04 Layer_Color=255*
%FSLAX44Y44*%
%MOMM*%
G71*
G04*
G04 #@! TF.SameCoordinates,1E054471-4286-4940-991A-2DB9724D60F8*
G04*
G04*
G04 #@! TF.FilePolarity,Positive*
G04*
G01*
G75*
%ADD14C,0.2000*%
%ADD15C,0.3000*%
G04:AMPARAMS|DCode=22|XSize=2mm|YSize=2mm|CornerRadius=0.3mm|HoleSize=0mm|Usage=FLASHONLY|Rotation=0.000|XOffset=0mm|YOffset=0mm|HoleType=Round|Shape=RoundedRectangle|*
%AMROUNDEDRECTD22*
21,1,2.0000,1.4000,0,0,0.0*
21,1,1.4000,2.0000,0,0,0.0*
1,1,0.6000,0.7000,-0.7000*
1,1,0.6000,-0.7000,-0.7000*
1,1,0.6000,-0.7000,0.7000*
1,1,0.6000,0.7000,0.7000*
%
%ADD22ROUNDEDRECTD22*%
G04:AMPARAMS|DCode=23|XSize=0.6mm|YSize=1.8mm|CornerRadius=0.15mm|HoleSize=0mm|Usage=FLASHONLY|Rotation=0.000|XOffset=0mm|YOffset=0mm|HoleType=Round|Shape=RoundedRectangle|*
%AMROUNDEDRECTD23*
21,1,0.6000,1.5000,0,0,0.0*
21,1,0.3000,1.8000,0,0,0.0*
1,1,0.3000,0.1500,-0.7500*
1,1,0.3000,-0.1500,-0.7500*
1,1,0.3000,-0.1500,0.7500*
1,1,0.3000,0.1500,0.7500*
%
%ADD23ROUNDEDRECTD23*%
G04:AMPARAMS|DCode=24|XSize=0.3mm|YSize=1.8mm|CornerRadius=0.075mm|HoleSize=0mm|Usage=FLASHONLY|Rotation=0.000|XOffset=0mm|YOffset=0mm|HoleType=Round|Shape=RoundedRectangle|*
%AMROUNDEDRECTD24*
21,1,0.3000,1.6500,0,0,0.0*
21,1,0.1500,1.8000,0,0,0.0*
1,1,0.1500,0.0750,-0.8250*
1,1,0.1500,-0.0750,-0.8250*
1,1,0.1500,-0.0750,0.8250*
1,1,0.1500,0.0750,0.8250*
%
%ADD24ROUNDEDRECTD24*%
%ADD25R,1.9000X1.5000*%
%ADD26R,2.0000X1.2000*%
%ADD27R,1.2000X1.2000*%
%ADD28R,1.2000X1.2000*%
%ADD29O,2.3000X0.7000*%
%ADD30R,1.0000X0.5500*%
%ADD31R,1.0000X0.5500*%
%ADD32O,2.2000X1.6000*%
%ADD33R,1.3000X0.6000*%
%ADD34R,0.6000X1.3000*%
%ADD35O,2.5000X0.7000*%
%ADD36O,0.7000X2.5000*%
%ADD37R,6.0000X2.0000*%
%ADD38R,1.0000X1.1000*%
%ADD39R,1.0000X3.0000*%
%ADD40R,1.0000X1.0500*%
%ADD41R,1.0500X2.2000*%
%ADD42R,1.2000X2.0000*%
%ADD43R,2.6000X2.2000*%
%ADD44R,2.2000X2.0000*%
G04:AMPARAMS|DCode=45|XSize=1mm|YSize=2mm|CornerRadius=0.25mm|HoleSize=0mm|Usage=FLASHONLY|Rotation=90.000|XOffset=0mm|YOffset=0mm|HoleType=Round|Shape=RoundedRectangle|*
%AMROUNDEDRECTD45*
21,1,1.0000,1.5000,0,0,90.0*
21,1,0.5000,2.0000,0,0,90.0*
1,1,0.5000,0.7500,0.2500*
1,1,0.5000,0.7500,-0.2500*
1,1,0.5000,-0.7500,-0.2500*
1,1,0.5000,-0.7500,0.2500*
%
%ADD45ROUNDEDRECTD45*%
%ADD46R,0.9000X1.0000*%
%ADD47R,1.8000X1.3000*%
%ADD48R,1.4000X1.5000*%
%ADD49R,1.3000X1.8000*%
%ADD60O,2.4000X1.8000*%
%ADD88C,0.4000*%
%ADD89C,0.5000*%
%ADD90C,0.7000*%
%ADD91R,1.6000X1.6000*%
%ADD92C,1.6000*%
%ADD93C,0.7000*%
%ADD94R,2.4000X1.8000*%
%ADD95O,3.0000X1.5000*%
%ADD96R,3.0000X1.5000*%
%ADD97R,1.7780X1.6510*%
%ADD98O,1.7780X1.6510*%
%ADD99C,1.0000*%
%ADD100C,0.8000*%
G36*
X120650Y613410D02*
X187960Y613410D01*
X187960Y613410D01*
X188710Y613410D01*
X190183Y613117D01*
X191569Y612543D01*
X192817Y611709D01*
X193879Y610647D01*
X194713Y609399D01*
X195287Y608013D01*
X195580Y606540D01*
X195580Y605790D01*
X195580Y599440D01*
X195678Y598449D01*
X196436Y596618D01*
X197838Y595216D01*
X199669Y594458D01*
X200660Y594360D01*
X330200D01*
X330200Y594360D01*
X330950Y594360D01*
X332423Y594067D01*
X333809Y593493D01*
X335057Y592659D01*
X336119Y591597D01*
X336953Y590349D01*
X337527Y588963D01*
X337820Y587490D01*
X337820Y586740D01*
Y474980D01*
X199390D01*
Y577850D01*
X199389Y577850D01*
X199268Y579089D01*
X198320Y581378D01*
X196568Y583130D01*
X194279Y584078D01*
X193040Y584200D01*
X163830Y584200D01*
Y584200D01*
X162591Y584078D01*
X160302Y583130D01*
X158550Y581378D01*
X157602Y579089D01*
X157480Y577850D01*
X157480Y518891D01*
X121381D01*
X121380Y518890D01*
X120495Y518803D01*
X118858Y518125D01*
X117605Y516873D01*
X116927Y515236D01*
X116840Y514350D01*
Y401320D01*
X116840Y401320D01*
X116840Y400319D01*
X116449Y398356D01*
X115683Y396507D01*
X114572Y394843D01*
X113156Y393428D01*
X111493Y392316D01*
X109643Y391550D01*
X107681Y391160D01*
X106680Y391160D01*
X96520D01*
X96519Y391160D01*
X95529Y391062D01*
X93698Y390304D01*
X92296Y388903D01*
X91538Y387072D01*
X91440Y386081D01*
Y360680D01*
X78740Y360680D01*
X78740Y360680D01*
X78244Y360631D01*
X77329Y360252D01*
X76628Y359552D01*
X76249Y358636D01*
X76200Y358141D01*
Y260349D01*
Y260348D01*
X76243Y259477D01*
X76583Y257768D01*
X77250Y256158D01*
X78218Y254709D01*
X79450Y253477D01*
X80899Y252509D01*
X82509Y251842D01*
X84219Y251503D01*
X85090Y251460D01*
X102870D01*
X102870Y251460D01*
X103628Y251460D01*
X105028Y250880D01*
X106100Y249809D01*
X106680Y248408D01*
X106680Y247650D01*
X106680Y234948D01*
Y234948D01*
X106753Y234205D01*
X107322Y232831D01*
X108373Y231781D01*
X109747Y231213D01*
X110490Y231140D01*
X114300D01*
X114300Y231140D01*
X114805Y231140D01*
X115739Y230754D01*
X116454Y230039D01*
X116840Y229105D01*
X116840Y228600D01*
X116840Y217170D01*
X104139D01*
X103634Y217170D01*
X102701Y217557D01*
X101986Y218271D01*
X101600Y219205D01*
X101600Y219710D01*
X101600Y219710D01*
X101551Y220205D01*
X101172Y221121D01*
X100471Y221822D01*
X99556Y222201D01*
X99060Y222250D01*
X50800Y222250D01*
X50799D01*
X49789Y222250D01*
X47922Y223023D01*
X46493Y224452D01*
X45720Y226320D01*
X45720Y227330D01*
X45720Y241300D01*
X45717Y241300D01*
X45644Y242043D01*
X45077Y243416D01*
X44026Y244468D01*
X42653Y245037D01*
X41910Y245110D01*
X10160Y245110D01*
X2121D01*
Y290411D01*
X2121Y291252D01*
X2764Y292807D01*
X3954Y293996D01*
X5509Y294640D01*
X6350Y294640D01*
X39370Y294640D01*
X39370D01*
X40609Y294762D01*
X42899Y295709D01*
X44651Y297461D01*
X45598Y299751D01*
X45720Y300990D01*
X45720Y396243D01*
X45720Y397118D01*
X46062Y398836D01*
X46732Y400453D01*
X47705Y401909D01*
X48943Y403147D01*
X50399Y404120D01*
X52017Y404789D01*
X53734Y405130D01*
X54610Y405130D01*
X72390Y405130D01*
X72390D01*
X73386Y405179D01*
X75340Y405567D01*
X77180Y406329D01*
X78836Y407435D01*
X80245Y408844D01*
X81351Y410500D01*
X82113Y412340D01*
X82501Y414294D01*
X82550Y415290D01*
X82550Y520700D01*
D01*
Y520700D01*
Y520700D01*
X82550Y521701D01*
X82940Y523664D01*
X83706Y525513D01*
X84818Y527177D01*
X86233Y528592D01*
X87897Y529704D01*
X89746Y530470D01*
X91709Y530860D01*
X92710Y530860D01*
X105410Y530860D01*
X105410D01*
X106281Y530903D01*
X107991Y531242D01*
X109601Y531909D01*
X111050Y532878D01*
X112282Y534110D01*
X113251Y535559D01*
X113918Y537169D01*
X114257Y538879D01*
X114300Y539750D01*
X114300Y586740D01*
Y607060D01*
X114300Y608323D01*
X115267Y610657D01*
X117053Y612444D01*
X119387Y613410D01*
X120650Y613410D01*
D02*
G37*
G36*
X146050Y327660D02*
X85090D01*
Y347980D01*
X111760D01*
X112503Y348053D01*
X113877Y348622D01*
X114928Y349673D01*
X115497Y351047D01*
X115570Y351790D01*
Y384810D01*
X115570Y385568D01*
X116150Y386968D01*
X117222Y388040D01*
X118622Y388620D01*
X119380Y388620D01*
Y388620D01*
X119875Y388669D01*
X120791Y389048D01*
X121492Y389749D01*
X121871Y390664D01*
X121920Y391160D01*
X121920Y391160D01*
Y434340D01*
X128270D01*
X128765Y434389D01*
X129681Y434768D01*
X130382Y435469D01*
X130761Y436384D01*
X130810Y436880D01*
X130810Y436880D01*
Y514937D01*
X146050D01*
Y327660D01*
D02*
G37*
G36*
X13970Y241300D02*
X36830Y241300D01*
X36830Y241300D01*
X37840Y241300D01*
X39708Y240527D01*
X41137Y239098D01*
X41910Y237230D01*
X41910Y236220D01*
X41910Y223520D01*
X42032Y222281D01*
X42980Y219992D01*
X44732Y218240D01*
X47021Y217292D01*
X48260Y217170D01*
X99060Y217170D01*
X99060Y208280D01*
Y208280D01*
X99109Y207784D01*
X99488Y206868D01*
X100189Y206168D01*
X101104Y205789D01*
X101600Y205740D01*
X115570D01*
X115570Y205740D01*
X116328Y205740D01*
X117728Y205160D01*
X118800Y204088D01*
X119380Y202688D01*
X119380Y201930D01*
X119380Y196850D01*
X119380Y196850D01*
X119380Y196344D01*
X118993Y195411D01*
X118279Y194697D01*
X117345Y194310D01*
X116840Y194310D01*
X54610D01*
X54610Y194310D01*
X53599Y194310D01*
X51732Y195083D01*
X50303Y196512D01*
X49530Y198379D01*
X49530Y199390D01*
X49530Y201930D01*
X49530Y201930D01*
X49457Y202673D01*
X48888Y204046D01*
X47837Y205098D01*
X46463Y205667D01*
X45720Y205740D01*
X16510Y205740D01*
X16510D01*
X15760Y205740D01*
X14287Y206033D01*
X12901Y206607D01*
X11652Y207441D01*
X10591Y208502D01*
X9757Y209750D01*
X9183Y211137D01*
X8890Y212609D01*
X8890Y213360D01*
X8890Y236220D01*
D01*
Y236220D01*
Y236220D01*
X8890Y237230D01*
X9663Y239098D01*
X11092Y240527D01*
X12959Y241300D01*
X13970Y241300D01*
D02*
G37*
G36*
X121920Y283210D02*
X146050D01*
Y262890D01*
X132079Y262889D01*
X131697Y262852D01*
X130990Y262559D01*
X130449Y262018D01*
X130156Y261311D01*
X130119Y260928D01*
X130119Y236220D01*
Y211399D01*
X130119Y211399D01*
X130119Y210778D01*
X129644Y209632D01*
X128766Y208755D01*
X127620Y208280D01*
X127000Y208280D01*
X106680D01*
Y213360D01*
X116840D01*
X117336Y213409D01*
X118251Y213788D01*
X118952Y214489D01*
X119331Y215404D01*
X119380Y215900D01*
Y233680D01*
X119380Y233680D01*
X119331Y234176D01*
X118952Y235091D01*
X118251Y235792D01*
X117336Y236171D01*
X116840Y236220D01*
X116840Y261620D01*
X116840Y261620D01*
X116791Y262115D01*
X116412Y263031D01*
X115711Y263732D01*
X114796Y264111D01*
X114300Y264160D01*
X86360Y264160D01*
Y283657D01*
X121920D01*
Y283210D01*
D02*
G37*
G36*
X320040Y149860D02*
X320798Y149860D01*
X322198Y149280D01*
X323270Y148208D01*
X323850Y146808D01*
X323850Y146050D01*
X323850Y134620D01*
X323899Y134124D01*
X324278Y133209D01*
X324979Y132508D01*
X325894Y132129D01*
X326390Y132080D01*
X328930D01*
Y132080D01*
X329688D01*
X331088Y131500D01*
X332160Y130428D01*
X332740Y129028D01*
Y128270D01*
Y114300D01*
Y114300D01*
X332813Y113556D01*
X333382Y112183D01*
X334433Y111132D01*
X335807Y110563D01*
X336550Y110490D01*
X354071D01*
X355938Y109717D01*
X357367Y108287D01*
X358140Y106420D01*
Y105410D01*
Y77470D01*
X340360D01*
X340360Y92710D01*
X340360Y92710D01*
X340262Y93701D01*
X339504Y95532D01*
X338102Y96934D01*
X336271Y97692D01*
X335280Y97790D01*
X318770Y97790D01*
Y129540D01*
X313690D01*
Y140970D01*
X313690Y140970D01*
X313617Y141713D01*
X313048Y143087D01*
X311997Y144138D01*
X310623Y144707D01*
X309880Y144780D01*
X286258Y144780D01*
X288290Y149860D01*
X320040D01*
X320040Y149860D01*
D02*
G37*
G36*
X291192Y69488D02*
Y69487D01*
X291259Y68815D01*
X291773Y67572D01*
X292725Y66621D01*
X293967Y66106D01*
X294640Y66040D01*
X297180D01*
X297180Y66040D01*
X297685Y66040D01*
X298619Y65653D01*
X299333Y64939D01*
X299720Y64005D01*
X299720Y63500D01*
X299720Y55880D01*
X299720Y55880D01*
X299793Y55141D01*
X300358Y53776D01*
X301403Y52732D01*
X302768Y52167D01*
X303506Y52094D01*
X358140D01*
Y40664D01*
X289560D01*
Y40640D01*
X229869Y40640D01*
X229869D01*
X229364Y40640D01*
X228431Y41027D01*
X227716Y41741D01*
X227330Y42675D01*
X227330Y43180D01*
X227330Y63501D01*
Y63501D01*
X227330Y64006D01*
X227717Y64940D01*
X228431Y65654D01*
X229365Y66041D01*
X229870Y66040D01*
X234950D01*
X235446Y66089D01*
X236362Y66468D01*
X237062Y67169D01*
X237441Y68084D01*
X237490Y68580D01*
X237490Y85090D01*
X242729D01*
Y68421D01*
Y68421D01*
X242775Y67956D01*
X243130Y67098D01*
X243787Y66441D01*
X244645Y66086D01*
X245110Y66040D01*
X245110Y66040D01*
X245615Y66040D01*
X246549Y65654D01*
X247263Y64939D01*
X247650Y64005D01*
X247650Y63500D01*
X247650Y58420D01*
Y58420D01*
X247699Y57924D01*
X248078Y57009D01*
X248779Y56308D01*
X249694Y55929D01*
X250190Y55880D01*
X276860Y55880D01*
X276860Y55880D01*
X277355Y55929D01*
X278271Y56308D01*
X278972Y57009D01*
X279351Y57924D01*
X279400Y58420D01*
X279400Y63500D01*
X279400Y63500D01*
X279400Y64005D01*
X279787Y64939D01*
X280501Y65653D01*
X281435Y66040D01*
X281940Y66040D01*
X283210Y66040D01*
X283210D01*
X283724Y66091D01*
X284675Y66484D01*
X285402Y67212D01*
X285796Y68162D01*
X285846Y68677D01*
X285847Y85090D01*
X291192D01*
Y69488D01*
D02*
G37*
G36*
X303530Y86360D02*
X320040Y86360D01*
X321303D01*
X323637Y85393D01*
X325423Y83607D01*
X326390Y81273D01*
Y80010D01*
X326390D01*
Y55880D01*
X306070Y55880D01*
X305565Y55880D01*
X304631Y56267D01*
X303917Y56981D01*
X303530Y57915D01*
X303530Y58420D01*
Y58420D01*
X303530Y64770D01*
X303457Y65513D01*
X302888Y66887D01*
X301837Y67938D01*
X300463Y68507D01*
X299720Y68580D01*
X299720Y68580D01*
X296675D01*
X295741Y68967D01*
X295027Y69681D01*
X294640Y70615D01*
Y71120D01*
X294640Y83820D01*
Y84325D01*
X294640Y84325D01*
Y132080D01*
X303530D01*
Y86360D01*
D02*
G37*
G36*
X213360Y86360D02*
X231140Y86360D01*
X231140Y86360D01*
X231898Y86360D01*
X233298Y85780D01*
X234370Y84708D01*
X234950Y83308D01*
X234950Y82550D01*
X234950Y71120D01*
X234950Y71120D01*
X234950Y70615D01*
X234563Y69681D01*
X233849Y68967D01*
X232915Y68580D01*
X228600D01*
X228600Y68580D01*
X227609Y68482D01*
X225778Y67724D01*
X224376Y66322D01*
X223618Y64491D01*
X223520Y63500D01*
X223520Y41910D01*
X223618Y40919D01*
X224376Y39088D01*
X225778Y37686D01*
X227609Y36928D01*
X228600Y36830D01*
X323850D01*
Y19050D01*
X222550D01*
X222550Y19050D01*
X222282Y18750D01*
X221632Y18276D01*
X220898Y17948D01*
X220112Y17780D01*
X208280D01*
X207820Y17780D01*
X206914Y17945D01*
X206053Y18271D01*
X205265Y18746D01*
X204920Y19050D01*
X204688Y19050D01*
Y19268D01*
X204688Y19268D01*
X204334Y19622D01*
X203778Y20454D01*
X203395Y21378D01*
X203200Y22360D01*
X203200Y22860D01*
Y76200D01*
X203200Y77201D01*
X203590Y79163D01*
X204356Y81012D01*
X205468Y82677D01*
X206883Y84092D01*
X208547Y85204D01*
X210396Y85969D01*
X212359Y86360D01*
X213360Y86360D01*
D02*
G37*
%LPC*%
G36*
X45720Y396243D02*
Y396243D01*
D01*
Y396243D01*
D02*
G37*
%LPD*%
D14*
X276860Y77438D02*
Y93626D01*
X246888Y77438D02*
Y94749D01*
X266860Y77438D02*
Y95250D01*
X271860Y77438D02*
Y180260D01*
X256860Y77438D02*
Y94078D01*
X271780Y77358D02*
X271860Y77438D01*
X261860Y63402D02*
Y77438D01*
X271780Y63402D02*
Y77358D01*
X270608Y62230D02*
X271780Y63402D01*
X263032Y62230D02*
X270608D01*
X261860Y63402D02*
X263032Y62230D01*
X258032Y95250D02*
X266860D01*
X256860Y94078D02*
X258032Y95250D01*
X266700Y185420D02*
X271860Y180260D01*
X239930Y185420D02*
X266700D01*
X242570Y99067D02*
Y100330D01*
Y99067D02*
X246888Y94749D01*
X280670Y97436D02*
Y99060D01*
X276860Y93626D02*
X280670Y97436D01*
X266860Y95250D02*
Y170278D01*
X239930Y172720D02*
X264418D01*
X266860Y170278D01*
D15*
X314960Y372110D02*
Y393110D01*
X313240Y394830D02*
X314960Y393110D01*
X347830Y631580D02*
X368880D01*
X326780D02*
X347830D01*
Y624990D02*
Y631580D01*
Y624990D02*
X347980Y624840D01*
X324240Y629040D02*
X326780Y631580D01*
X324240Y612400D02*
Y629040D01*
X368880Y631580D02*
X373380Y627080D01*
Y624870D02*
Y627080D01*
X13970Y529590D02*
X54610D01*
X54610Y478790D02*
X108690D01*
X54610Y478790D02*
X54610Y478790D01*
X325120Y344750D02*
X326390Y346020D01*
X325120Y294640D02*
Y344750D01*
X280288Y431849D02*
Y454400D01*
X280240D02*
X280288D01*
X455564Y591596D02*
X457200Y589960D01*
X455564Y591596D02*
Y608717D01*
X381883Y511400D02*
X381922Y511360D01*
X357740Y511400D02*
X381883D01*
X280240Y431897D02*
X280288Y431849D01*
X231140Y327379D02*
Y351790D01*
Y327379D02*
X231340Y327179D01*
X259080Y375920D02*
Y393700D01*
X203600Y375920D02*
Y393700D01*
X236240Y395550D02*
X238090Y393700D01*
X236240Y395550D02*
Y454400D01*
X224590Y393700D02*
X225240Y394350D01*
Y454400D01*
X224790Y360680D02*
Y375720D01*
X224590Y375920D02*
X224790Y375720D01*
X222250Y358140D02*
X224790Y360680D01*
X222250Y341630D02*
Y358140D01*
X238090Y359577D02*
X241300Y356367D01*
Y341630D02*
Y356367D01*
X238090Y359577D02*
Y375920D01*
Y393700D02*
X259080D01*
X238090Y375920D02*
X259080D01*
X203600D02*
X224590D01*
X203600Y393700D02*
X224590D01*
X314960Y361610D02*
Y372110D01*
Y361610D02*
X317755Y358815D01*
X323595D01*
X326390Y356020D01*
Y346020D02*
Y356020D01*
X314284Y372786D02*
X314960Y372110D01*
X295910Y372786D02*
X314284D01*
D22*
X315360Y27940D02*
D03*
X213360D02*
D03*
X315360Y66940D02*
D03*
X213360Y66940D02*
D03*
D23*
X296610Y77438D02*
D03*
X232360D02*
D03*
X240360D02*
D03*
X288610D02*
D03*
D24*
X246888D02*
D03*
X251897D02*
D03*
X256906D02*
D03*
X261915D02*
D03*
X266925D02*
D03*
X271934D02*
D03*
X276943D02*
D03*
X281952D02*
D03*
D25*
X349250Y77730D02*
D03*
Y46730D02*
D03*
D26*
X300960Y104140D02*
D03*
X328960D02*
D03*
X104110Y427990D02*
D03*
X132110D02*
D03*
X104110Y403860D02*
D03*
X132110D02*
D03*
X424150Y275590D02*
D03*
X452150D02*
D03*
D27*
X297094Y127000D02*
D03*
X318094D02*
D03*
X254594Y209550D02*
D03*
X233594D02*
D03*
X145374Y243840D02*
D03*
X124374D02*
D03*
X448904Y231140D02*
D03*
X427904D02*
D03*
X448904Y252730D02*
D03*
X427904D02*
D03*
X119330Y135890D02*
D03*
X98330D02*
D03*
X156260Y185420D02*
D03*
X177260D02*
D03*
X416610Y546100D02*
D03*
X437610D02*
D03*
X477570D02*
D03*
X498570D02*
D03*
D28*
X425450Y99600D02*
D03*
Y78600D02*
D03*
X444562Y99600D02*
D03*
Y78600D02*
D03*
X463673Y99600D02*
D03*
Y78600D02*
D03*
X82550Y672170D02*
D03*
Y651170D02*
D03*
X20320Y672170D02*
D03*
Y651170D02*
D03*
X426720Y672170D02*
D03*
Y651170D02*
D03*
X486410Y672170D02*
D03*
Y651170D02*
D03*
X199390Y203876D02*
D03*
Y224876D02*
D03*
X343535Y372786D02*
D03*
Y393786D02*
D03*
X391160Y372786D02*
D03*
Y393786D02*
D03*
X295910Y372786D02*
D03*
Y393786D02*
D03*
X486410Y607650D02*
D03*
Y628650D02*
D03*
X426720Y607650D02*
D03*
Y628650D02*
D03*
X138430Y135890D02*
D03*
Y114890D02*
D03*
X177800Y204470D02*
D03*
Y225470D02*
D03*
X179070Y242570D02*
D03*
Y263570D02*
D03*
X82550Y628650D02*
D03*
Y607650D02*
D03*
X20320Y628650D02*
D03*
Y607650D02*
D03*
X397510Y568960D02*
D03*
X397510Y589960D02*
D03*
X457200Y568960D02*
D03*
Y589960D02*
D03*
D29*
X290930Y147320D02*
D03*
Y160020D02*
D03*
Y172720D02*
D03*
Y185420D02*
D03*
X239930Y147320D02*
D03*
Y160020D02*
D03*
Y172720D02*
D03*
Y185420D02*
D03*
D30*
X137460Y210820D02*
D03*
Y201320D02*
D03*
X111460D02*
D03*
Y210820D02*
D03*
X137460Y220320D02*
D03*
D31*
X111460Y220320D02*
D03*
D32*
X105970Y78740D02*
D03*
X175970D02*
D03*
D33*
X179750Y125120D02*
D03*
X158750Y115620D02*
D03*
Y134620D02*
D03*
D34*
X426720Y588350D02*
D03*
X436220Y567350D02*
D03*
X417220D02*
D03*
X486410Y589620D02*
D03*
X495910Y568620D02*
D03*
X476910D02*
D03*
D35*
X180740Y489400D02*
D03*
Y500400D02*
D03*
Y511400D02*
D03*
Y522400D02*
D03*
Y533400D02*
D03*
Y544400D02*
D03*
Y555400D02*
D03*
Y566400D02*
D03*
Y577400D02*
D03*
X357740D02*
D03*
Y566400D02*
D03*
Y555400D02*
D03*
Y544400D02*
D03*
Y533400D02*
D03*
Y522400D02*
D03*
Y511400D02*
D03*
Y489400D02*
D03*
D36*
X203240Y612400D02*
D03*
X214240D02*
D03*
X225240D02*
D03*
X236240D02*
D03*
X247240D02*
D03*
X258240D02*
D03*
X269240D02*
D03*
X280240D02*
D03*
X291240D02*
D03*
X302240D02*
D03*
X313240D02*
D03*
X324240D02*
D03*
X335240D02*
D03*
Y454400D02*
D03*
X324240D02*
D03*
X313240D02*
D03*
X302240D02*
D03*
X291240D02*
D03*
X280240D02*
D03*
X269240D02*
D03*
X258240D02*
D03*
X247240D02*
D03*
X236240D02*
D03*
X225240D02*
D03*
X214240D02*
D03*
X203240D02*
D03*
D37*
X115570Y338070D02*
D03*
Y274070D02*
D03*
D38*
X377190Y228020D02*
D03*
X351790D02*
D03*
X326390D02*
D03*
X377190Y346020D02*
D03*
X351790D02*
D03*
X326390D02*
D03*
D39*
X404790Y287020D02*
D03*
X298790D02*
D03*
D40*
X302260Y650240D02*
D03*
X203200Y650240D02*
D03*
D41*
X317010Y665240D02*
D03*
X287510D02*
D03*
X217950Y665240D02*
D03*
X188450D02*
D03*
D42*
X373380Y596870D02*
D03*
Y624870D02*
D03*
X163830Y427960D02*
D03*
Y455960D02*
D03*
D43*
X79140Y370840D02*
D03*
X129140D02*
D03*
D44*
X60960Y207250D02*
D03*
Y237250D02*
D03*
D45*
X13970Y477520D02*
D03*
Y503555D02*
D03*
Y529590D02*
D03*
D46*
X272580Y393700D02*
D03*
X259080D02*
D03*
X203600Y375920D02*
D03*
X190100D02*
D03*
X272580D02*
D03*
X259080D02*
D03*
X203600Y393700D02*
D03*
X190100D02*
D03*
X238090D02*
D03*
X224590D02*
D03*
X238090Y375920D02*
D03*
X224590D02*
D03*
D47*
X90170Y238020D02*
D03*
Y209020D02*
D03*
D48*
X160180Y160020D02*
D03*
X180180D02*
D03*
D49*
X137690Y453390D02*
D03*
X108690Y453390D02*
D03*
X137690Y478790D02*
D03*
X108690D02*
D03*
X137690Y505460D02*
D03*
X108690D02*
D03*
D60*
X458470Y180340D02*
D03*
Y129540D02*
D03*
X424180Y180340D02*
D03*
Y129540D02*
D03*
D88*
X475297Y154940D02*
X477640Y157283D01*
Y512007D01*
X458470Y154940D02*
X475297D01*
X432752Y439738D02*
Y474980D01*
Y495497D01*
Y474980D02*
X457200D01*
Y500380D02*
Y514350D01*
X475297D01*
X402590D02*
X457200D01*
X475297D02*
X477640Y512007D01*
X402590Y514350D02*
Y523240D01*
X430409Y497840D02*
X432752Y495497D01*
X394970Y500183D02*
Y515817D01*
X397313Y497840D02*
X430409D01*
X394970Y500183D02*
X397313Y497840D01*
X443230Y381000D02*
X468630Y355600D01*
X432752Y439738D02*
X443230Y429260D01*
Y381000D02*
Y429260D01*
X466287Y201930D02*
X468630Y204273D01*
X400050Y201930D02*
X466287D01*
X468630Y204273D02*
Y355600D01*
X447040Y101600D02*
X458470D01*
X444562Y99600D02*
X458470D01*
X458470Y99600D02*
Y129540D01*
X458470Y99600D02*
X458470Y99600D01*
Y101600D02*
X461673D01*
X504625Y77905D02*
X506730Y80010D01*
X485140Y76200D02*
X486845Y77905D01*
X504625D01*
X446905Y63500D02*
X482797D01*
X485140Y65843D01*
Y76200D01*
X444562Y65843D02*
Y78600D01*
Y65843D02*
X446905Y63500D01*
X425450Y60960D02*
X431800Y54610D01*
X425450Y60960D02*
Y79280D01*
X431800Y54610D02*
X506730D01*
X424180Y101550D02*
Y129540D01*
X461673Y101600D02*
X463673Y99600D01*
X388387Y522400D02*
X394970Y515817D01*
Y196850D02*
X400050Y201930D01*
X394970Y157283D02*
Y196850D01*
Y157283D02*
X397313Y154940D01*
X424180D01*
X213360Y291027D02*
X215703Y293370D01*
X205258Y160020D02*
X213360Y168122D01*
X215703Y293370D02*
X280867D01*
X213360Y168122D02*
Y291027D01*
X291027Y209550D02*
X293370Y207207D01*
X254594Y209550D02*
X291027D01*
X290930Y185420D02*
X291984D01*
X293370Y186806D01*
Y207207D01*
X315534Y159446D02*
X316230Y158750D01*
X290930Y172720D02*
X316230D01*
X290930Y160020D02*
X291504Y159446D01*
X315534D01*
X326390Y216359D02*
X328733Y214016D01*
X326390Y216359D02*
Y228020D01*
X328733Y214016D02*
X363417D01*
X326390Y228020D02*
Y245110D01*
X391160Y363023D02*
Y372786D01*
X388817Y360680D02*
X391160Y363023D01*
X369570Y360680D02*
X388817D01*
X365760Y356870D02*
X369570Y360680D01*
X365760Y216359D02*
Y356870D01*
X363417Y214016D02*
X365760Y216359D01*
X280867Y293370D02*
X283210Y295713D01*
Y410407D01*
X180180Y125120D02*
Y160020D01*
X205258D01*
X180180Y82950D02*
Y125120D01*
X410210Y375129D02*
Y426720D01*
X407867Y372786D02*
X410210Y375129D01*
X391160Y372786D02*
X407867D01*
X343535D02*
X360242D01*
X362585Y375129D01*
Y419297D01*
X482672Y675909D02*
X486410Y672170D01*
X482672Y675909D02*
Y680917D01*
X480328Y683260D02*
X482672Y680917D01*
X426720Y683260D02*
X480328D01*
X85160Y79940D02*
X104770D01*
X4183Y92513D02*
Y245363D01*
Y92513D02*
X6526Y90170D01*
X74930D01*
X85160Y79940D01*
X175970Y78740D02*
X180180Y82950D01*
X298790Y286210D02*
X301790Y283210D01*
X332740D01*
X298790Y286210D02*
Y287020D01*
X332740Y283210D02*
X335630Y286100D01*
X330200Y361950D02*
Y391443D01*
X335630Y286100D02*
Y356520D01*
X330200Y361950D02*
X335630Y356520D01*
X332543Y393786D02*
X343535D01*
X330200Y391443D02*
X332543Y393786D01*
X341630Y370881D02*
X343535Y372786D01*
X341630Y262890D02*
X351790Y252730D01*
X341630Y262890D02*
Y370881D01*
X326583Y421640D02*
X360242D01*
X362585Y419297D01*
X324240Y423983D02*
Y454400D01*
Y423983D02*
X326583Y421640D01*
X337583Y431800D02*
X405130D01*
X410210Y426720D01*
X335240Y434143D02*
Y454400D01*
Y434143D02*
X337583Y431800D01*
X81586Y673134D02*
X82550Y672170D01*
X54387Y673134D02*
X81586D01*
X153786Y478790D02*
X153848Y478728D01*
X137690Y478790D02*
X153786D01*
X7620Y673100D02*
X19390D01*
X20320Y672170D01*
X291240Y425672D02*
Y454400D01*
X288290Y421640D02*
Y422722D01*
X291240Y425672D01*
X82550Y680917D02*
X84893Y683260D01*
X426720D01*
X82550Y672170D02*
Y680917D01*
X426720Y672170D02*
Y683260D01*
X269240Y417830D02*
Y454400D01*
X269240Y454400D01*
X269240Y417830D02*
X274320Y412750D01*
X280867D01*
X283210Y410407D01*
X36902Y199318D02*
X50800Y185420D01*
X6526Y199318D02*
X36902D01*
X50800Y185420D02*
X156260D01*
X16630Y257810D02*
X24130D01*
X402250Y289560D02*
X404790Y287020D01*
X384810Y289560D02*
X402250D01*
X59690Y153670D02*
X77470Y135890D01*
X24130Y153670D02*
X59690D01*
X77470Y135890D02*
X98330D01*
X137460Y210820D02*
X137988Y211348D01*
X159492D01*
X160020Y211876D01*
X155852Y201320D02*
X158408Y203876D01*
X177800Y185960D02*
Y203876D01*
X137460Y201320D02*
X155852D01*
X158408Y203876D02*
X177800D01*
Y204470D01*
Y203876D02*
X199390D01*
X177800Y225470D02*
X178394Y224876D01*
X199390D01*
X138430Y135890D02*
X139700Y134620D01*
X158750D01*
X119330Y135890D02*
X138430D01*
X357740Y522400D02*
X388387D01*
X392430Y533400D02*
X402590Y523240D01*
X357740Y533400D02*
X392430D01*
X351790Y245110D02*
Y252730D01*
Y228020D02*
Y245110D01*
X377190Y346020D02*
X401517D01*
X404790Y287020D02*
Y342747D01*
X401517Y346020D02*
X404790Y342747D01*
X313240Y394830D02*
Y454400D01*
X177800Y225470D02*
X179070Y226740D01*
Y242570D01*
X177260Y185420D02*
X177800Y185960D01*
X145374Y243840D02*
X146050Y243164D01*
Y233483D02*
Y243164D01*
X143707Y231140D02*
X146050Y233483D01*
X140773Y231140D02*
X143707D01*
X138430Y228797D02*
X140773Y231140D01*
X138430Y221070D02*
Y228797D01*
X137680Y220320D02*
X138430Y221070D01*
X137460Y220320D02*
X137680D01*
D89*
X477520Y144780D02*
X485140Y152400D01*
Y429515D02*
Y431800D01*
X302240Y427970D02*
Y485140D01*
X280670Y124460D02*
X297094D01*
X214240Y588010D02*
Y633340D01*
X297094Y124460D02*
Y127000D01*
X194310Y50800D02*
Y149471D01*
Y38489D02*
Y50800D01*
X209550D01*
Y49530D02*
Y50800D01*
X474591Y78600D02*
X477520Y81529D01*
Y144780D01*
X463673Y78600D02*
X474591D01*
X219321Y152400D02*
X222250Y155329D01*
Y162949D01*
X197239Y152400D02*
X219321D01*
X230094Y206050D02*
X233594Y209550D01*
X225179Y206050D02*
X230094D01*
X222250Y203121D02*
X225179Y206050D01*
X222250Y162949D02*
Y203121D01*
Y162949D02*
X224796Y160403D01*
X194310Y149471D02*
X197239Y152400D01*
X224796Y160403D02*
X239547D01*
X239930Y160020D01*
X108899Y35560D02*
X191381D01*
X194310Y38489D01*
X105970D02*
Y78740D01*
Y38489D02*
X108899Y35560D01*
X369880Y591820D02*
X373380Y595320D01*
Y596870D01*
X330200Y591820D02*
X369880D01*
X397510Y589960D02*
Y640961D01*
X394581Y643890D02*
X397510Y640961D01*
X53340Y477520D02*
X54610Y478790D01*
X13970Y477520D02*
X53340D01*
X14288Y503872D02*
X54292D01*
X13970Y503555D02*
X14288Y503872D01*
X54292D02*
X54610Y504190D01*
X138430Y114890D02*
X154520D01*
X108899D02*
X138430D01*
X105970Y111961D02*
X108899Y114890D01*
X105970Y78740D02*
Y111961D01*
X155250Y115620D02*
X158750D01*
X476740Y568790D02*
X477240Y568290D01*
X457370Y568790D02*
X476740D01*
X457200Y568960D02*
X457370Y568790D01*
X299720Y485140D02*
X302240D01*
X337820Y477520D02*
X364101D01*
X367030Y441229D02*
Y474591D01*
X364101Y477520D02*
X367030Y474591D01*
Y441229D02*
X369959Y438300D01*
X407822D01*
X424150Y275590D02*
Y421972D01*
X407822Y438300D02*
X424150Y421972D01*
X391160Y393786D02*
Y410210D01*
X343853Y411393D02*
X344170Y411710D01*
X343535Y393786D02*
X343853Y394104D01*
Y409893D01*
X313240Y639630D02*
X317500Y643890D01*
X313240Y612400D02*
Y639630D01*
X317500Y643890D02*
X394581D01*
X291240Y589280D02*
Y612400D01*
Y589280D02*
X292100D01*
X212090Y588010D02*
X214240D01*
X163830Y455960D02*
Y485896D01*
X166952Y489017D01*
X180357D01*
X180740Y489400D01*
X231340Y327179D02*
X269651D01*
X193029D02*
X231340D01*
X82550Y628650D02*
Y651170D01*
X20320Y628650D02*
Y651170D01*
X188450Y665240D02*
X217950D01*
X397510Y568960D02*
X416720D01*
X417220Y568460D01*
Y567350D02*
Y568460D01*
X496410Y548260D02*
Y568120D01*
X495910Y568620D02*
X496410Y568120D01*
Y548260D02*
X498570Y546100D01*
X477240Y546430D02*
Y568290D01*
Y546430D02*
X477570Y546100D01*
X436720Y546990D02*
Y566850D01*
X436220Y567350D02*
X436720Y566850D01*
X416610Y546100D02*
X416915Y546405D01*
Y567045D02*
X417220Y567350D01*
X416915Y546405D02*
Y567045D01*
X426720Y588350D02*
Y607650D01*
X486410Y589620D02*
Y607650D01*
Y628650D02*
Y651170D01*
X426720Y628650D02*
Y651170D01*
X287510Y665240D02*
X317010D01*
X291240Y612400D02*
Y634590D01*
X287510Y638320D02*
X291240Y634590D01*
X287510Y638320D02*
Y665240D01*
X188450Y591040D02*
Y665240D01*
X218440Y637540D02*
Y664750D01*
X217950Y665240D02*
X218440Y664750D01*
X214240Y633340D02*
X218440Y637540D01*
X302250Y612410D02*
Y650230D01*
X302260Y650240D01*
X302240Y612400D02*
X302250Y612410D01*
X203220Y612420D02*
Y650220D01*
X203200Y650240D02*
X203220Y650220D01*
X190100Y330108D02*
Y375920D01*
X272580Y330108D02*
Y375920D01*
X269651Y327179D02*
X272580Y330108D01*
X190100D02*
X193029Y327179D01*
X190100Y393700D02*
Y419981D01*
X187171Y422910D02*
X190100Y419981D01*
X297180Y395056D02*
Y422910D01*
X295910Y393786D02*
X297180Y395056D01*
Y422910D02*
X302240Y427970D01*
X295867Y393743D02*
X295910Y393786D01*
X272580Y393700D02*
X272623Y393743D01*
X272580Y375920D02*
Y393700D01*
Y375920D02*
X272580Y375920D01*
X190100D02*
Y393700D01*
X156260Y185420D02*
X158220Y183460D01*
Y161980D02*
Y183460D01*
Y161980D02*
X160180Y160020D01*
X154520Y114890D02*
X155250Y115620D01*
X407290Y275590D02*
X424150D01*
X404790Y278090D02*
X407290Y275590D01*
X404790Y252730D02*
Y278090D01*
Y287020D01*
Y234069D02*
Y252730D01*
X427904D01*
X407719Y231140D02*
X427904D01*
X404790Y234069D02*
X407719Y231140D01*
D90*
X485140Y152400D02*
Y426165D01*
Y431800D01*
X488489Y426165D02*
X505659D01*
X485140Y429515D02*
X488489Y426165D01*
X505659D02*
X506552Y425272D01*
X485140Y431800D02*
Y529590D01*
X441960D02*
X485140D01*
X493740D01*
X497840Y545370D02*
X498570Y546100D01*
X497840Y533690D02*
Y545370D01*
X493740Y529590D02*
X497840Y533690D01*
X436720Y546990D02*
X437850Y545860D01*
Y533700D02*
Y545860D01*
Y533700D02*
X441960Y529590D01*
X375630Y489400D02*
X379730Y485299D01*
Y451141D02*
Y485299D01*
X357740Y489400D02*
X375630D01*
X411480Y447040D02*
X433070Y425450D01*
X383830Y447040D02*
X411480D01*
X379730Y451141D02*
X383830Y447040D01*
X433070Y318770D02*
Y425450D01*
Y318770D02*
X449580Y302260D01*
X203240Y454400D02*
Y492760D01*
X203200D02*
X203240D01*
X137690Y500400D02*
X180740D01*
X137690Y511400D02*
X180740D01*
X81280Y589280D02*
X119380D01*
X24420D02*
X81280D01*
X82550Y590550D01*
Y607650D01*
X20320Y593381D02*
Y607650D01*
Y593381D02*
X24420Y589280D01*
X199140D02*
X203240Y585179D01*
X163830Y425410D02*
Y427960D01*
X187171Y422910D02*
X199140D01*
X166330D02*
X187171D01*
X203240Y427010D02*
Y454400D01*
X163830Y425410D02*
X166330Y422910D01*
X199140D02*
X203240Y427010D01*
X449580Y278090D02*
Y302260D01*
Y278090D02*
X452080Y275590D01*
X452150D01*
X451404D02*
X452150D01*
X448904Y273090D02*
X451404Y275590D01*
X448904Y252730D02*
Y273090D01*
Y231140D02*
Y252730D01*
Y216297D02*
Y231140D01*
X377190Y228020D02*
Y245110D01*
Y216297D02*
Y228020D01*
X446561Y213954D02*
X448904Y216297D01*
X379533Y213954D02*
X446561D01*
X377190Y216297D02*
X379533Y213954D01*
X140970Y577400D02*
X180740D01*
X140970Y575310D02*
Y577400D01*
X142240Y566400D02*
X180740D01*
X142240Y565150D02*
Y566400D01*
X143510Y533400D02*
Y533400D01*
Y533400D02*
X180740D01*
X149860Y522400D02*
X180740D01*
X149860D02*
Y523240D01*
X173990Y368300D02*
X179070Y363220D01*
Y263570D02*
Y363220D01*
X142240Y368300D02*
X173990D01*
X137690Y500400D02*
Y505460D01*
Y511400D01*
D91*
X457200Y449580D02*
D03*
D92*
Y474980D02*
D03*
Y500380D02*
D03*
D93*
X235460Y61740D02*
D03*
X293260D02*
D03*
D94*
X458470Y154940D02*
D03*
X424180D02*
D03*
D95*
X24130Y232410D02*
D03*
Y257810D02*
D03*
Y283210D02*
D03*
Y308610D02*
D03*
Y334010D02*
D03*
Y359410D02*
D03*
Y384810D02*
D03*
X506730Y207010D02*
D03*
Y181610D02*
D03*
Y156210D02*
D03*
Y130810D02*
D03*
Y105410D02*
D03*
Y80010D02*
D03*
Y54610D02*
D03*
X24130Y52070D02*
D03*
Y77470D02*
D03*
Y102870D02*
D03*
Y128270D02*
D03*
Y153670D02*
D03*
X506730Y476250D02*
D03*
Y450850D02*
D03*
Y425450D02*
D03*
Y400050D02*
D03*
Y374650D02*
D03*
Y349250D02*
D03*
Y323850D02*
D03*
Y298450D02*
D03*
Y273050D02*
D03*
D96*
X24130Y410210D02*
D03*
X506730Y232410D02*
D03*
X24130Y179070D02*
D03*
X506730Y501650D02*
D03*
D97*
X54610Y478790D02*
D03*
D98*
Y504190D02*
D03*
Y529590D02*
D03*
D99*
X222250Y341630D02*
D03*
X241300D02*
D03*
D100*
X280670Y124460D02*
D03*
X242570Y100330D02*
D03*
X280670D02*
D03*
X316230Y172720D02*
D03*
Y158750D02*
D03*
X347980Y624840D02*
D03*
X317940Y486190D02*
D03*
X305940D02*
D03*
Y498190D02*
D03*
X329940Y486190D02*
D03*
Y498190D02*
D03*
Y510190D02*
D03*
X293940Y486190D02*
D03*
X317940Y510190D02*
D03*
X293940Y498190D02*
D03*
Y510190D02*
D03*
X305940D02*
D03*
X317940Y498190D02*
D03*
X325120Y294640D02*
D03*
X391160Y410210D02*
D03*
X344170D02*
D03*
X455564Y608717D02*
D03*
X381922Y511360D02*
D03*
X54387Y673134D02*
D03*
X153848Y478728D02*
D03*
X7620Y673100D02*
D03*
X280288Y431849D02*
D03*
X288290Y421640D02*
D03*
X231140Y351790D02*
D03*
X384810Y289560D02*
D03*
X160020Y211876D02*
D03*
X351790Y245110D02*
D03*
X377190D02*
D03*
X326390D02*
D03*
M02*
