G04*
G04 #@! TF.GenerationSoftware,Altium Limited,Altium Designer,24.2.2 (26)*
G04*
G04 Layer_Color=128*
%FSLAX44Y44*%
%MOMM*%
G71*
G04*
G04 #@! TF.SameCoordinates,92E383DB-29FE-4B3A-A1A2-949DC4B90B9B*
G04*
G04*
G04 #@! TF.FilePolarity,Positive*
G04*
G01*
G75*
%ADD13C,0.1270*%
D13*
X231960Y61740D02*
X238960D01*
X235460Y58240D02*
Y65240D01*
X289760Y61740D02*
X296760D01*
X293260Y58240D02*
Y65240D01*
X501730Y207010D02*
X511730D01*
X506730Y202010D02*
Y212010D01*
X501730Y232410D02*
X511730D01*
X506730Y227410D02*
Y237410D01*
X451700Y449580D02*
X462700D01*
X457200Y444080D02*
Y455080D01*
X451700Y474980D02*
X462700D01*
X457200Y469480D02*
Y480480D01*
X451700Y500380D02*
X462700D01*
X457200Y494880D02*
Y505880D01*
X452970Y180340D02*
X463970D01*
X458470Y174840D02*
Y185840D01*
X452970Y154940D02*
X463970D01*
X458470Y149440D02*
Y160440D01*
X452970Y129540D02*
X463970D01*
X458470Y124040D02*
Y135040D01*
X418680Y180340D02*
X429680D01*
X424180Y174840D02*
Y185840D01*
X418680Y154940D02*
X429680D01*
X424180Y149440D02*
Y160440D01*
X418680Y129540D02*
X429680D01*
X424180Y124040D02*
Y135040D01*
X19130Y232410D02*
X29130D01*
X24130Y227410D02*
Y237410D01*
X19130Y257810D02*
X29130D01*
X24130Y252810D02*
Y262810D01*
X19130Y283210D02*
X29130D01*
X24130Y278210D02*
Y288210D01*
X19130Y308610D02*
X29130D01*
X24130Y303610D02*
Y313610D01*
X19130Y334010D02*
X29130D01*
X24130Y329010D02*
Y339010D01*
X19130Y359410D02*
X29130D01*
X24130Y354410D02*
Y364410D01*
X19130Y384810D02*
X29130D01*
X24130Y379810D02*
Y389810D01*
X19130Y410210D02*
X29130D01*
X24130Y405210D02*
Y415210D01*
X501730Y181610D02*
X511730D01*
X506730Y176610D02*
Y186610D01*
X501730Y156210D02*
X511730D01*
X506730Y151210D02*
Y161210D01*
X501730Y130810D02*
X511730D01*
X506730Y125810D02*
Y135810D01*
X501730Y105410D02*
X511730D01*
X506730Y100410D02*
Y110410D01*
X501730Y80010D02*
X511730D01*
X506730Y75010D02*
Y85010D01*
X501730Y54610D02*
X511730D01*
X506730Y49610D02*
Y59610D01*
X19130Y52070D02*
X29130D01*
X24130Y47070D02*
Y57070D01*
X19130Y77470D02*
X29130D01*
X24130Y72470D02*
Y82470D01*
X19130Y102870D02*
X29130D01*
X24130Y97870D02*
Y107870D01*
X19130Y128270D02*
X29130D01*
X24130Y123270D02*
Y133270D01*
X19130Y153670D02*
X29130D01*
X24130Y148670D02*
Y158670D01*
X19130Y179070D02*
X29130D01*
X24130Y174070D02*
Y184070D01*
X501730Y501650D02*
X511730D01*
X506730Y496650D02*
Y506650D01*
X501730Y476250D02*
X511730D01*
X506730Y471250D02*
Y481250D01*
X501730Y450850D02*
X511730D01*
X506730Y445850D02*
Y455850D01*
X501730Y425450D02*
X511730D01*
X506730Y420450D02*
Y430450D01*
X501730Y400050D02*
X511730D01*
X506730Y395050D02*
Y405050D01*
X501730Y374650D02*
X511730D01*
X506730Y369650D02*
Y379650D01*
X501730Y349250D02*
X511730D01*
X506730Y344250D02*
Y354250D01*
X501730Y323850D02*
X511730D01*
X506730Y318850D02*
Y328850D01*
X501730Y298450D02*
X511730D01*
X506730Y293450D02*
Y303450D01*
X501730Y273050D02*
X511730D01*
X506730Y268050D02*
Y278050D01*
X50610Y478790D02*
X58610D01*
X54610Y474790D02*
Y482790D01*
X50610Y504190D02*
X58610D01*
X54610Y500190D02*
Y508190D01*
X50610Y529590D02*
X58610D01*
X54610Y525590D02*
Y533590D01*
X219750Y341630D02*
X224750D01*
X222250Y339130D02*
Y344130D01*
X238800Y341630D02*
X243800D01*
X241300Y339130D02*
Y344130D01*
X268010Y297180D02*
X273010D01*
X270510Y294680D02*
Y299680D01*
X268010Y241300D02*
X273010D01*
X270510Y238800D02*
Y243800D01*
X62270Y93980D02*
X67270D01*
X64770Y91480D02*
Y96480D01*
X278170Y124460D02*
X283170D01*
X280670Y121960D02*
Y126960D01*
X240070Y100330D02*
X245070D01*
X242570Y97830D02*
Y102830D01*
X278170Y100330D02*
X283170D01*
X280670Y97830D02*
Y102830D01*
X313730Y172720D02*
X318730D01*
X316230Y170220D02*
Y175220D01*
X313730Y158750D02*
X318730D01*
X316230Y156250D02*
Y161250D01*
X345480Y624840D02*
X350480D01*
X347980Y622340D02*
Y627340D01*
X315440Y486190D02*
X320440D01*
X317940Y483690D02*
Y488690D01*
X303440Y486190D02*
X308440D01*
X305940Y483690D02*
Y488690D01*
X303440Y498190D02*
X308440D01*
X305940Y495690D02*
Y500690D01*
X327440Y486190D02*
X332440D01*
X329940Y483690D02*
Y488690D01*
X327440Y498190D02*
X332440D01*
X329940Y495690D02*
Y500690D01*
X327440Y510190D02*
X332440D01*
X329940Y507690D02*
Y512690D01*
X291440Y486190D02*
X296440D01*
X293940Y483690D02*
Y488690D01*
X315440Y510190D02*
X320440D01*
X317940Y507690D02*
Y512690D01*
X291440Y498190D02*
X296440D01*
X293940Y495690D02*
Y500690D01*
X291440Y510190D02*
X296440D01*
X293940Y507690D02*
Y512690D01*
X303440Y510190D02*
X308440D01*
X305940Y507690D02*
Y512690D01*
X315440Y498190D02*
X320440D01*
X317940Y495690D02*
Y500690D01*
X322620Y294640D02*
X327620D01*
X325120Y292140D02*
Y297140D01*
X388660Y410210D02*
X393660D01*
X391160Y407710D02*
Y412710D01*
X341670Y410210D02*
X346670D01*
X344170Y407710D02*
Y412710D01*
X453064Y608717D02*
X458064D01*
X455564Y606217D02*
Y611217D01*
X379422Y511360D02*
X384422D01*
X381922Y508860D02*
Y513860D01*
X51887Y673134D02*
X56887D01*
X54387Y670634D02*
Y675634D01*
X151348Y478728D02*
X156348D01*
X153848Y476228D02*
Y481228D01*
X5120Y673100D02*
X10120D01*
X7620Y670600D02*
Y675600D01*
X277788Y431849D02*
X282788D01*
X280288Y429349D02*
Y434349D01*
X285790Y421640D02*
X290790D01*
X288290Y419140D02*
Y424140D01*
X228640Y351790D02*
X233640D01*
X231140Y349290D02*
Y354290D01*
X382310Y289560D02*
X387310D01*
X384810Y287060D02*
Y292060D01*
X349290Y245110D02*
X354290D01*
X351790Y242610D02*
Y247610D01*
X374690Y245110D02*
X379690D01*
X377190Y242610D02*
Y247610D01*
X323890Y245110D02*
X328890D01*
X326390Y242610D02*
Y247610D01*
M02*
