G04*
G04 #@! TF.GenerationSoftware,Altium Limited,Altium Designer,24.2.2 (26)*
G04*
G04 Layer_Physical_Order=1*
G04 Layer_Color=255*
%FSLAX44Y44*%
%MOMM*%
G71*
G04*
G04 #@! TF.SameCoordinates,D9C0422A-5697-4C54-BB13-8CA43C25D237*
G04*
G04*
G04 #@! TF.FilePolarity,Positive*
G04*
G01*
G75*
%ADD14C,0.3000*%
%ADD15C,0.2000*%
%ADD22O,2.2000X1.6000*%
G04:AMPARAMS|DCode=23|XSize=2mm|YSize=2mm|CornerRadius=0.3mm|HoleSize=0mm|Usage=FLASHONLY|Rotation=0.000|XOffset=0mm|YOffset=0mm|HoleType=Round|Shape=RoundedRectangle|*
%AMROUNDEDRECTD23*
21,1,2.0000,1.4000,0,0,0.0*
21,1,1.4000,2.0000,0,0,0.0*
1,1,0.6000,0.7000,-0.7000*
1,1,0.6000,-0.7000,-0.7000*
1,1,0.6000,-0.7000,0.7000*
1,1,0.6000,0.7000,0.7000*
%
%ADD23ROUNDEDRECTD23*%
G04:AMPARAMS|DCode=24|XSize=0.6mm|YSize=1.8mm|CornerRadius=0.15mm|HoleSize=0mm|Usage=FLASHONLY|Rotation=0.000|XOffset=0mm|YOffset=0mm|HoleType=Round|Shape=RoundedRectangle|*
%AMROUNDEDRECTD24*
21,1,0.6000,1.5000,0,0,0.0*
21,1,0.3000,1.8000,0,0,0.0*
1,1,0.3000,0.1500,-0.7500*
1,1,0.3000,-0.1500,-0.7500*
1,1,0.3000,-0.1500,0.7500*
1,1,0.3000,0.1500,0.7500*
%
%ADD24ROUNDEDRECTD24*%
G04:AMPARAMS|DCode=25|XSize=0.3mm|YSize=1.8mm|CornerRadius=0.075mm|HoleSize=0mm|Usage=FLASHONLY|Rotation=0.000|XOffset=0mm|YOffset=0mm|HoleType=Round|Shape=RoundedRectangle|*
%AMROUNDEDRECTD25*
21,1,0.3000,1.6500,0,0,0.0*
21,1,0.1500,1.8000,0,0,0.0*
1,1,0.1500,0.0750,-0.8250*
1,1,0.1500,-0.0750,-0.8250*
1,1,0.1500,-0.0750,0.8250*
1,1,0.1500,0.0750,0.8250*
%
%ADD25ROUNDEDRECTD25*%
%ADD26R,1.9000X1.5000*%
%ADD27R,2.0000X1.2000*%
%ADD28R,1.2000X1.2000*%
%ADD29R,1.2000X1.2000*%
%ADD30O,2.3000X0.7000*%
%ADD31R,1.0000X0.5500*%
%ADD32R,1.0000X0.5500*%
%ADD33R,1.3000X0.6000*%
%ADD34R,0.6000X1.3000*%
%ADD35O,2.5000X0.7000*%
%ADD36O,0.7000X2.5000*%
%ADD37R,6.0000X2.0000*%
%ADD38R,1.0000X1.1000*%
%ADD39R,1.0000X3.0000*%
%ADD40R,1.0000X1.0500*%
%ADD41R,1.0500X2.2000*%
%ADD42R,1.2000X2.0000*%
%ADD43R,2.6000X2.2000*%
%ADD44R,2.2000X2.0000*%
G04:AMPARAMS|DCode=45|XSize=1mm|YSize=2mm|CornerRadius=0.25mm|HoleSize=0mm|Usage=FLASHONLY|Rotation=90.000|XOffset=0mm|YOffset=0mm|HoleType=Round|Shape=RoundedRectangle|*
%AMROUNDEDRECTD45*
21,1,1.0000,1.5000,0,0,90.0*
21,1,0.5000,2.0000,0,0,90.0*
1,1,0.5000,0.7500,0.2500*
1,1,0.5000,0.7500,-0.2500*
1,1,0.5000,-0.7500,-0.2500*
1,1,0.5000,-0.7500,0.2500*
%
%ADD45ROUNDEDRECTD45*%
%ADD46R,0.9000X1.0000*%
%ADD47R,1.8000X1.3000*%
%ADD48R,1.4000X1.5000*%
%ADD49R,1.3000X1.8000*%
%ADD50O,2.4000X1.8000*%
%ADD88C,0.5000*%
%ADD89C,0.4000*%
%ADD90C,0.7000*%
%ADD91R,1.6000X1.6000*%
%ADD92C,1.6000*%
%ADD93C,0.7000*%
%ADD94R,2.4000X1.8000*%
%ADD95O,3.0000X1.5000*%
%ADD96R,3.0000X1.5000*%
%ADD97R,1.7780X1.6510*%
%ADD98O,1.7780X1.6510*%
%ADD99C,1.0000*%
%ADD100C,0.8000*%
G36*
X484679Y680384D02*
X484742Y679487D01*
X484796Y679122D01*
X484866Y678813D01*
X484951Y678561D01*
X485052Y678364D01*
X485169Y678223D01*
X485301Y678138D01*
X485449Y678109D01*
X480440Y678139D01*
X480484Y678167D01*
X480524Y678251D01*
X480558Y678390D01*
X480588Y678584D01*
X480635Y679139D01*
X480669Y680389D01*
X480672Y680917D01*
X484672D01*
X484679Y680384D01*
D02*
G37*
G36*
X84558Y680383D02*
X84620Y679485D01*
X84674Y679120D01*
X84744Y678811D01*
X84830Y678558D01*
X84931Y678362D01*
X85048Y678221D01*
X85180Y678137D01*
X85327Y678109D01*
X79773D01*
X79920Y678137D01*
X80052Y678221D01*
X80169Y678362D01*
X80270Y678558D01*
X80356Y678811D01*
X80426Y679120D01*
X80480Y679485D01*
X80519Y679906D01*
X80550Y680917D01*
X84550D01*
X84558Y680383D01*
D02*
G37*
G36*
X432720Y681260D02*
X431960Y681220D01*
X431280Y681100D01*
X430680Y680900D01*
X430160Y680620D01*
X429720Y680260D01*
X429360Y679820D01*
X429117Y679369D01*
X429220Y679117D01*
X429440Y678754D01*
X429700Y678472D01*
X430000Y678270D01*
X430340Y678149D01*
X430720Y678109D01*
X428776D01*
X428760Y678020D01*
X428720Y677260D01*
X424720D01*
X424680Y678020D01*
X424664Y678109D01*
X422720D01*
X423100Y678149D01*
X423440Y678270D01*
X423740Y678472D01*
X424000Y678754D01*
X424220Y679117D01*
X424323Y679369D01*
X424080Y679820D01*
X423720Y680260D01*
X423280Y680620D01*
X422760Y680900D01*
X422160Y681100D01*
X421480Y681220D01*
X420720Y681260D01*
X426720Y685260D01*
X432720Y681260D01*
D02*
G37*
G36*
X14381Y669100D02*
X14341Y669480D01*
X14220Y669820D01*
X14018Y670120D01*
X13736Y670380D01*
X13373Y670600D01*
X12930Y670780D01*
X12406Y670920D01*
X12014Y670985D01*
X11936Y670972D01*
X11621Y670900D01*
X11334Y670812D01*
X11077Y670708D01*
X10848Y670588D01*
X10648Y670452D01*
X10477Y670300D01*
Y671097D01*
X10351Y671100D01*
Y675100D01*
X10477Y675103D01*
Y675900D01*
X10648Y675748D01*
X10848Y675612D01*
X11077Y675492D01*
X11334Y675388D01*
X11621Y675300D01*
X11936Y675228D01*
X12014Y675215D01*
X12406Y675280D01*
X12930Y675420D01*
X13373Y675600D01*
X13736Y675820D01*
X14018Y676080D01*
X14220Y676380D01*
X14341Y676720D01*
X14381Y677100D01*
Y669100D01*
D02*
G37*
G36*
X57414Y675782D02*
X57614Y675646D01*
X57843Y675526D01*
X58101Y675422D01*
X58387Y675334D01*
X58702Y675262D01*
X59046Y675206D01*
X59419Y675166D01*
X60251Y675134D01*
Y671134D01*
X59820Y671126D01*
X59046Y671062D01*
X58702Y671006D01*
X58387Y670934D01*
X58101Y670846D01*
X57843Y670742D01*
X57614Y670622D01*
X57414Y670486D01*
X57243Y670334D01*
Y675934D01*
X57414Y675782D01*
D02*
G37*
G36*
X76611Y669134D02*
X76571Y669514D01*
X76450Y669854D01*
X76248Y670154D01*
X75966Y670414D01*
X75603Y670634D01*
X75160Y670814D01*
X74636Y670954D01*
X74032Y671054D01*
X73346Y671114D01*
X72580Y671134D01*
Y675134D01*
X73346Y675154D01*
X74032Y675214D01*
X74636Y675314D01*
X75160Y675454D01*
X75603Y675634D01*
X75966Y675854D01*
X76248Y676114D01*
X76450Y676414D01*
X76571Y676754D01*
X76611Y677134D01*
Y669134D01*
D02*
G37*
G36*
X311791Y660240D02*
X311740Y660715D01*
X311590Y661140D01*
X311341Y661515D01*
X310991Y661840D01*
X310541Y662115D01*
X309991Y662340D01*
X309340Y662515D01*
X308591Y662640D01*
X307740Y662715D01*
X306791Y662740D01*
Y667740D01*
X307740Y667765D01*
X308591Y667840D01*
X309340Y667965D01*
X309991Y668140D01*
X310541Y668365D01*
X310991Y668640D01*
X311341Y668965D01*
X311590Y669340D01*
X311740Y669765D01*
X311791Y670240D01*
Y660240D01*
D02*
G37*
G36*
X292749Y669765D02*
X292900Y669340D01*
X293152Y668965D01*
X293504Y668640D01*
X293957Y668365D01*
X294510Y668140D01*
X295164Y667965D01*
X295919Y667840D01*
X296774Y667765D01*
X297729Y667740D01*
Y662740D01*
X296774Y662715D01*
X295919Y662640D01*
X295164Y662515D01*
X294510Y662340D01*
X293957Y662115D01*
X293504Y661840D01*
X293152Y661515D01*
X292900Y661140D01*
X292749Y660715D01*
X292699Y660240D01*
Y670240D01*
X292749Y669765D01*
D02*
G37*
G36*
X212731Y660240D02*
X212680Y660715D01*
X212530Y661140D01*
X212281Y661515D01*
X211931Y661840D01*
X211481Y662115D01*
X210931Y662340D01*
X210280Y662515D01*
X209531Y662640D01*
X208680Y662715D01*
X207731Y662740D01*
Y667740D01*
X208680Y667765D01*
X209531Y667840D01*
X210280Y667965D01*
X210931Y668140D01*
X211481Y668365D01*
X211931Y668640D01*
X212281Y668965D01*
X212530Y669340D01*
X212680Y669765D01*
X212731Y670240D01*
Y660240D01*
D02*
G37*
G36*
X193689Y669765D02*
X193840Y669340D01*
X194092Y668965D01*
X194444Y668640D01*
X194897Y668365D01*
X195450Y668140D01*
X196104Y667965D01*
X196859Y667840D01*
X197714Y667765D01*
X198669Y667740D01*
Y662740D01*
X197714Y662715D01*
X196859Y662640D01*
X196104Y662515D01*
X195450Y662340D01*
X194897Y662115D01*
X194444Y661840D01*
X194092Y661515D01*
X193840Y661140D01*
X193689Y660715D01*
X193639Y660240D01*
Y670240D01*
X193689Y669765D01*
D02*
G37*
G36*
X292035Y654251D02*
X291610Y654100D01*
X291235Y653848D01*
X290910Y653496D01*
X290635Y653043D01*
X290410Y652490D01*
X290235Y651836D01*
X290110Y651081D01*
X290035Y650226D01*
X290010Y649270D01*
X285010D01*
X284985Y650226D01*
X284910Y651081D01*
X284785Y651836D01*
X284610Y652490D01*
X284385Y653043D01*
X284110Y653496D01*
X283785Y653848D01*
X283410Y654100D01*
X282985Y654251D01*
X282510Y654301D01*
X292510D01*
X292035Y654251D01*
D02*
G37*
G36*
X223169Y654270D02*
X222746Y654221D01*
X222367Y654071D01*
X222033Y653820D01*
X221743Y653471D01*
X221497Y653020D01*
X221297Y652470D01*
X221141Y651821D01*
X221029Y651070D01*
X220962Y650220D01*
X220940Y649270D01*
X215940D01*
X215915Y650225D01*
X215840Y651079D01*
X215715Y651833D01*
X215540Y652486D01*
X215315Y653039D01*
X215040Y653492D01*
X214715Y653845D01*
X214340Y654097D01*
X213915Y654249D01*
X213440Y654301D01*
X223169Y654270D01*
D02*
G37*
G36*
X192975Y654251D02*
X192550Y654100D01*
X192175Y653848D01*
X191850Y653496D01*
X191575Y653043D01*
X191350Y652490D01*
X191175Y651836D01*
X191050Y651081D01*
X190975Y650226D01*
X190950Y649270D01*
X185950D01*
X185925Y650226D01*
X185850Y651081D01*
X185725Y651836D01*
X185550Y652490D01*
X185325Y653043D01*
X185050Y653496D01*
X184725Y653848D01*
X184350Y654100D01*
X183925Y654251D01*
X183450Y654301D01*
X193450D01*
X192975Y654251D01*
D02*
G37*
G36*
X490935Y645151D02*
X490510Y645001D01*
X490135Y644751D01*
X489810Y644400D01*
X489535Y643951D01*
X489310Y643400D01*
X489135Y642750D01*
X489010Y642001D01*
X488935Y641151D01*
X488910Y640201D01*
X483910D01*
X483885Y641151D01*
X483810Y642001D01*
X483685Y642750D01*
X483510Y643400D01*
X483285Y643951D01*
X483010Y644400D01*
X482685Y644751D01*
X482310Y645001D01*
X481885Y645151D01*
X481410Y645201D01*
X491410D01*
X490935Y645151D01*
D02*
G37*
G36*
X431245D02*
X430820Y645001D01*
X430445Y644751D01*
X430120Y644400D01*
X429845Y643951D01*
X429620Y643400D01*
X429445Y642750D01*
X429320Y642001D01*
X429245Y641151D01*
X429220Y640201D01*
X424220D01*
X424195Y641151D01*
X424120Y642001D01*
X423995Y642750D01*
X423820Y643400D01*
X423595Y643951D01*
X423320Y644400D01*
X422995Y644751D01*
X422620Y645001D01*
X422195Y645151D01*
X421720Y645201D01*
X431720D01*
X431245Y645151D01*
D02*
G37*
G36*
X87075D02*
X86650Y645001D01*
X86275Y644751D01*
X85950Y644400D01*
X85675Y643951D01*
X85450Y643400D01*
X85275Y642750D01*
X85150Y642001D01*
X85075Y641151D01*
X85050Y640201D01*
X80050D01*
X80025Y641151D01*
X79950Y642001D01*
X79825Y642750D01*
X79650Y643400D01*
X79425Y643951D01*
X79150Y644400D01*
X78825Y644751D01*
X78450Y645001D01*
X78025Y645151D01*
X77550Y645201D01*
X87550D01*
X87075Y645151D01*
D02*
G37*
G36*
X24845Y645151D02*
X24420Y645001D01*
X24045Y644751D01*
X23720Y644400D01*
X23445Y643951D01*
X23220Y643400D01*
X23045Y642750D01*
X22920Y642001D01*
X22845Y641151D01*
X22820Y640201D01*
X17820D01*
X17795Y641151D01*
X17720Y642001D01*
X17595Y642750D01*
X17420Y643400D01*
X17195Y643951D01*
X16920Y644400D01*
X16595Y644751D01*
X16220Y645001D01*
X15795Y645151D01*
X15320Y645201D01*
X25320D01*
X24845Y645151D01*
D02*
G37*
G36*
X306758Y644970D02*
X306337Y644820D01*
X305965Y644570D01*
X305643Y644221D01*
X305370Y643771D01*
X305147Y643221D01*
X304973Y642570D01*
X304849Y641821D01*
X304775Y640971D01*
X304750Y640021D01*
X299750D01*
X299725Y640971D01*
X299652Y641821D01*
X299529Y642570D01*
X299356Y643221D01*
X299135Y643771D01*
X298865Y644221D01*
X298545Y644570D01*
X298176Y644820D01*
X297758Y644970D01*
X297290Y645021D01*
X307229D01*
X306758Y644970D01*
D02*
G37*
G36*
X207704Y644970D02*
X207288Y644820D01*
X206920Y644570D01*
X206602Y644221D01*
X206332Y643771D01*
X206112Y643221D01*
X205940Y642570D01*
X205818Y641821D01*
X205745Y640971D01*
X205720Y640021D01*
X200720D01*
X200695Y640971D01*
X200620Y641821D01*
X200496Y642570D01*
X200322Y643221D01*
X200098Y643771D01*
X199824Y644221D01*
X199500Y644570D01*
X199127Y644820D01*
X198703Y644970D01*
X198230Y645021D01*
X208169D01*
X207704Y644970D01*
D02*
G37*
G36*
X488935Y638670D02*
X489010Y637820D01*
X489135Y637070D01*
X489310Y636419D01*
X489535Y635869D01*
X489810Y635420D01*
X490135Y635070D01*
X490510Y634819D01*
X490935Y634669D01*
X491410Y634619D01*
X481410D01*
X481885Y634669D01*
X482310Y634819D01*
X482685Y635070D01*
X483010Y635420D01*
X483285Y635869D01*
X483510Y636419D01*
X483685Y637070D01*
X483810Y637820D01*
X483885Y638670D01*
X483910Y639619D01*
X488910D01*
X488935Y638670D01*
D02*
G37*
G36*
X429245D02*
X429320Y637820D01*
X429445Y637070D01*
X429620Y636419D01*
X429845Y635869D01*
X430120Y635420D01*
X430445Y635070D01*
X430820Y634819D01*
X431245Y634669D01*
X431720Y634619D01*
X421720D01*
X422195Y634669D01*
X422620Y634819D01*
X422995Y635070D01*
X423320Y635420D01*
X423595Y635869D01*
X423820Y636419D01*
X423995Y637070D01*
X424120Y637820D01*
X424195Y638670D01*
X424220Y639619D01*
X429220D01*
X429245Y638670D01*
D02*
G37*
G36*
X85075D02*
X85150Y637820D01*
X85275Y637070D01*
X85450Y636419D01*
X85675Y635869D01*
X85950Y635420D01*
X86275Y635070D01*
X86650Y634819D01*
X87075Y634669D01*
X87550Y634619D01*
X77550D01*
X78025Y634669D01*
X78450Y634819D01*
X78825Y635070D01*
X79150Y635420D01*
X79425Y635869D01*
X79650Y636419D01*
X79825Y637070D01*
X79950Y637820D01*
X80025Y638670D01*
X80050Y639619D01*
X85050D01*
X85075Y638670D01*
D02*
G37*
G36*
X22845D02*
X22920Y637820D01*
X23045Y637070D01*
X23220Y636419D01*
X23445Y635869D01*
X23720Y635420D01*
X24045Y635070D01*
X24420Y634819D01*
X24845Y634669D01*
X25320Y634619D01*
X15320D01*
X15795Y634669D01*
X16220Y634819D01*
X16595Y635070D01*
X16920Y635420D01*
X17195Y635869D01*
X17420Y636419D01*
X17595Y637070D01*
X17720Y637820D01*
X17795Y638670D01*
X17820Y639619D01*
X22820D01*
X22845Y638670D01*
D02*
G37*
G36*
X367411Y628580D02*
X367380Y628865D01*
X367290Y629120D01*
X367141Y629345D01*
X366931Y629540D01*
X366660Y629705D01*
X366330Y629840D01*
X365941Y629945D01*
X365490Y630020D01*
X364981Y630065D01*
X364411Y630080D01*
Y633080D01*
X364981Y633095D01*
X365490Y633140D01*
X365941Y633215D01*
X366330Y633320D01*
X366660Y633455D01*
X366931Y633620D01*
X367141Y633815D01*
X367290Y634040D01*
X367380Y634295D01*
X367411Y634580D01*
Y628580D01*
D02*
G37*
G36*
X352330Y630080D02*
X351760Y630050D01*
X351250Y629960D01*
X350800Y629810D01*
X350410Y629600D01*
X350080Y629330D01*
X349810Y629000D01*
X349786Y628955D01*
X349813Y628898D01*
X349987Y628600D01*
X350188Y628318D01*
X350416Y628051D01*
X350671Y627800D01*
X349378Y627751D01*
X349360Y627650D01*
X349330Y627080D01*
X346330D01*
X346301Y627635D01*
X345075Y627589D01*
X345313Y627861D01*
X345527Y628146D01*
X345715Y628443D01*
X345878Y628753D01*
X345924Y628862D01*
X345850Y629000D01*
X345580Y629330D01*
X345250Y629600D01*
X344860Y629810D01*
X344410Y629960D01*
X343900Y630050D01*
X343330Y630080D01*
X347830Y633080D01*
X352330Y630080D01*
D02*
G37*
G36*
X325755Y626705D02*
X325873Y625309D01*
X325976Y624742D01*
X326109Y624262D01*
X326271Y623869D01*
X326463Y623564D01*
X326684Y623346D01*
X326935Y623215D01*
X327216Y623171D01*
X321264D01*
X321544Y623215D01*
X321795Y623346D01*
X322017Y623564D01*
X322209Y623869D01*
X322371Y624262D01*
X322504Y624742D01*
X322607Y625309D01*
X322681Y625964D01*
X322725Y626705D01*
X322740Y627534D01*
X325740D01*
X325755Y626705D01*
D02*
G37*
G36*
X315745Y627884D02*
X316000Y623952D01*
X316080Y623599D01*
X316170Y623331D01*
X316271Y623150D01*
X310209D01*
X310310Y623331D01*
X310400Y623599D01*
X310480Y623952D01*
X310549Y624392D01*
X310655Y625531D01*
X310735Y627884D01*
X310740Y628841D01*
X315740D01*
X315745Y627884D01*
D02*
G37*
G36*
X304750Y628828D02*
X304755Y627872D01*
X305005Y623946D01*
X305083Y623594D01*
X305172Y623329D01*
X305271Y623150D01*
X299209D01*
X299312Y623334D01*
X299404Y623604D01*
X299485Y623959D01*
X299555Y624401D01*
X299664Y625542D01*
X299745Y627897D01*
X299750Y628854D01*
X304750Y628828D01*
D02*
G37*
G36*
X293745Y627884D02*
X294000Y623952D01*
X294080Y623599D01*
X294170Y623331D01*
X294271Y623150D01*
X288209D01*
X288310Y623331D01*
X288400Y623599D01*
X288480Y623952D01*
X288549Y624392D01*
X288655Y625531D01*
X288735Y627884D01*
X288740Y628841D01*
X293740D01*
X293745Y627884D01*
D02*
G37*
G36*
X216745D02*
X217000Y623952D01*
X217080Y623599D01*
X217170Y623331D01*
X217271Y623150D01*
X211210D01*
X211310Y623331D01*
X211401Y623599D01*
X211480Y623952D01*
X211549Y624392D01*
X211655Y625531D01*
X211735Y627884D01*
X211740Y628841D01*
X216740D01*
X216745Y627884D01*
D02*
G37*
G36*
X205726Y627910D02*
X205990Y623966D01*
X206073Y623608D01*
X206166Y623336D01*
X206271Y623150D01*
X200210D01*
X200307Y623326D01*
X200393Y623589D01*
X200470Y623939D01*
X200536Y624376D01*
X200638Y625509D01*
X200715Y627859D01*
X200720Y628815D01*
X205720Y628867D01*
X205726Y627910D01*
D02*
G37*
G36*
X458117Y605599D02*
X457896Y605323D01*
X457701Y605033D01*
X457532Y604729D01*
X457389Y604411D01*
X457272Y604079D01*
X457181Y603732D01*
X457116Y603372D01*
X457077Y602998D01*
X457064Y602609D01*
X454064D01*
X454051Y602998D01*
X454012Y603372D01*
X453947Y603732D01*
X453856Y604079D01*
X453739Y604411D01*
X453596Y604729D01*
X453427Y605033D01*
X453232Y605323D01*
X453011Y605599D01*
X452764Y605861D01*
X458364D01*
X458117Y605599D01*
D02*
G37*
G36*
X490935Y601661D02*
X490510Y601510D01*
X490135Y601258D01*
X489810Y600906D01*
X489535Y600453D01*
X489310Y599900D01*
X489135Y599246D01*
X489016Y598526D01*
X489140Y596539D01*
X489211Y596289D01*
X489290Y596139D01*
X489380Y596090D01*
X483441D01*
X483530Y596139D01*
X483610Y596289D01*
X483680Y596539D01*
X483741Y596889D01*
X483793Y597340D01*
X483836Y598196D01*
X483810Y598492D01*
X483685Y599246D01*
X483510Y599900D01*
X483285Y600453D01*
X483010Y600906D01*
X482685Y601258D01*
X482310Y601510D01*
X481885Y601661D01*
X481410Y601711D01*
X491410D01*
X490935Y601661D01*
D02*
G37*
G36*
X294170Y601469D02*
X294080Y601201D01*
X294000Y600848D01*
X293931Y600408D01*
X293825Y599269D01*
X293745Y596916D01*
X293740Y595959D01*
X288740D01*
X288735Y596916D01*
X288480Y600848D01*
X288400Y601201D01*
X288310Y601469D01*
X288209Y601650D01*
X294271D01*
X294170Y601469D01*
D02*
G37*
G36*
X217170D02*
X217080Y601201D01*
X217000Y600848D01*
X216931Y600408D01*
X216825Y599269D01*
X216745Y596916D01*
X216740Y595959D01*
X211740D01*
X211735Y596916D01*
X211480Y600848D01*
X211401Y601201D01*
X211310Y601469D01*
X211210Y601650D01*
X217271D01*
X217170Y601469D01*
D02*
G37*
G36*
X457079Y598354D02*
X457124Y597839D01*
X457199Y597384D01*
X457304Y596990D01*
X457439Y596657D01*
X457604Y596384D01*
X457799Y596172D01*
X458024Y596020D01*
X458279Y595929D01*
X458564Y595899D01*
X452564D01*
X452849Y595929D01*
X453104Y596020D01*
X453329Y596172D01*
X453524Y596384D01*
X453689Y596657D01*
X453824Y596990D01*
X453929Y597384D01*
X454004Y597839D01*
X454049Y598354D01*
X454064Y598929D01*
X457064D01*
X457079Y598354D01*
D02*
G37*
G36*
X400035Y599974D02*
X400110Y599118D01*
X400235Y598364D01*
X400410Y597710D01*
X400635Y597157D01*
X400910Y596704D01*
X401235Y596352D01*
X401610Y596100D01*
X402035Y595949D01*
X402510Y595899D01*
X392510D01*
X392985Y595949D01*
X393410Y596100D01*
X393785Y596352D01*
X394110Y596704D01*
X394385Y597157D01*
X394610Y597710D01*
X394785Y598364D01*
X394910Y599118D01*
X394985Y599974D01*
X395010Y600929D01*
X400010D01*
X400035Y599974D01*
D02*
G37*
G36*
X431245Y601661D02*
X430820Y601510D01*
X430445Y601258D01*
X430120Y600906D01*
X429845Y600453D01*
X429620Y599900D01*
X429445Y599246D01*
X429320Y598492D01*
X429278Y598015D01*
X429450Y595270D01*
X429520Y595019D01*
X429600Y594869D01*
X429689Y594819D01*
X423750D01*
X423840Y594869D01*
X423919Y595019D01*
X423990Y595270D01*
X424051Y595620D01*
X424103Y596069D01*
X424187Y597731D01*
X424120Y598492D01*
X423995Y599246D01*
X423820Y599900D01*
X423595Y600453D01*
X423320Y600906D01*
X422995Y601258D01*
X422620Y601510D01*
X422195Y601661D01*
X421720Y601711D01*
X431720D01*
X431245Y601661D01*
D02*
G37*
G36*
X88050Y601610D02*
X87631Y601400D01*
X87260Y601050D01*
X86939Y600560D01*
X86667Y599930D01*
X86445Y599160D01*
X86272Y598251D01*
X86149Y597201D01*
X86075Y596011D01*
X86050Y594680D01*
X79050D01*
X79025Y596011D01*
X78828Y598251D01*
X78655Y599160D01*
X78433Y599930D01*
X78161Y600560D01*
X77840Y601050D01*
X77470Y601400D01*
X77050Y601610D01*
X76581Y601680D01*
X88519D01*
X88050Y601610D01*
D02*
G37*
G36*
X25820D02*
X25401Y601400D01*
X25030Y601050D01*
X24709Y600560D01*
X24437Y599930D01*
X24215Y599160D01*
X24042Y598251D01*
X23919Y597201D01*
X23845Y596011D01*
X23820Y594680D01*
X16820D01*
X16795Y596011D01*
X16598Y598251D01*
X16425Y599160D01*
X16203Y599930D01*
X15931Y600560D01*
X15610Y601050D01*
X15239Y601400D01*
X14820Y601610D01*
X14351Y601680D01*
X26290D01*
X25820Y601610D01*
D02*
G37*
G36*
X367411Y586900D02*
X367360Y587360D01*
X367211Y587771D01*
X366960Y588134D01*
X366610Y588449D01*
X366161Y588715D01*
X365611Y588933D01*
X364961Y589102D01*
X364211Y589223D01*
X363360Y589296D01*
X362411Y589320D01*
Y594320D01*
X363360Y594345D01*
X364211Y594420D01*
X364961Y594545D01*
X365611Y594720D01*
X366161Y594945D01*
X366610Y595220D01*
X366960Y595545D01*
X367211Y595920D01*
X367360Y596345D01*
X367411Y596820D01*
Y586900D01*
D02*
G37*
G36*
X414281Y563960D02*
X414229Y564435D01*
X414077Y564860D01*
X413825Y565235D01*
X413472Y565560D01*
X413019Y565835D01*
X412466Y566060D01*
X411813Y566235D01*
X411059Y566360D01*
X410205Y566435D01*
X409250Y566460D01*
Y571460D01*
X410201Y571484D01*
X411050Y571554D01*
X411800Y571672D01*
X412450Y571838D01*
X413000Y572050D01*
X413451Y572309D01*
X413801Y572616D01*
X414050Y572970D01*
X414201Y573371D01*
X414250Y573820D01*
X414281Y563960D01*
D02*
G37*
G36*
X403499Y573485D02*
X403650Y573060D01*
X403902Y572685D01*
X404254Y572360D01*
X404707Y572085D01*
X405260Y571860D01*
X405914Y571685D01*
X406669Y571560D01*
X407524Y571485D01*
X408479Y571460D01*
Y566460D01*
X407524Y566435D01*
X406669Y566360D01*
X405914Y566235D01*
X405260Y566060D01*
X404707Y565835D01*
X404254Y565560D01*
X403902Y565235D01*
X403650Y564860D01*
X403499Y564435D01*
X403449Y563960D01*
Y573960D01*
X403499Y573485D01*
D02*
G37*
G36*
X473971Y563790D02*
X473921Y564265D01*
X473770Y564690D01*
X473518Y565065D01*
X473166Y565390D01*
X472713Y565665D01*
X472160Y565890D01*
X471506Y566065D01*
X470751Y566190D01*
X469896Y566265D01*
X468941Y566290D01*
Y571290D01*
X469896Y571315D01*
X470751Y571390D01*
X471506Y571515D01*
X472160Y571690D01*
X472713Y571915D01*
X473166Y572190D01*
X473518Y572515D01*
X473770Y572890D01*
X473921Y573315D01*
X473971Y573790D01*
Y563790D01*
D02*
G37*
G36*
X463189Y573315D02*
X463340Y572890D01*
X463592Y572515D01*
X463944Y572190D01*
X464397Y571915D01*
X464950Y571690D01*
X465604Y571515D01*
X466358Y571390D01*
X467214Y571315D01*
X468170Y571290D01*
Y566290D01*
X467214Y566265D01*
X466358Y566190D01*
X465604Y566065D01*
X464950Y565890D01*
X464397Y565665D01*
X463944Y565390D01*
X463592Y565065D01*
X463340Y564690D01*
X463189Y564265D01*
X463139Y563790D01*
Y573790D01*
X463189Y573315D01*
D02*
G37*
G36*
X498885Y562100D02*
X498890Y561950D01*
X498910Y557150D01*
X493910D01*
X493900Y558101D01*
X493755Y560350D01*
X493668Y560900D01*
X493561Y561351D01*
X493435Y561701D01*
X493289Y561950D01*
X493125Y562100D01*
X492940Y562150D01*
X498880D01*
X498885Y562100D01*
D02*
G37*
G36*
X479853D02*
X479829Y561950D01*
X479808Y561701D01*
X479753Y559701D01*
X479740Y557150D01*
X474740D01*
X474732Y558101D01*
X474540Y560900D01*
X474452Y561351D01*
X474348Y561701D01*
X474228Y561950D01*
X474092Y562100D01*
X473941Y562150D01*
X479879D01*
X479853Y562100D01*
D02*
G37*
G36*
X498935Y556115D02*
X499010Y555261D01*
X499135Y554508D01*
X499310Y553854D01*
X499535Y553301D01*
X499810Y552848D01*
X500135Y552495D01*
X500510Y552243D01*
X500935Y552091D01*
X501410Y552039D01*
X492601Y552070D01*
X492849Y552119D01*
X493072Y552270D01*
X493268Y552519D01*
X493439Y552869D01*
X493583Y553320D01*
X493700Y553870D01*
X493792Y554520D01*
X493858Y555270D01*
X493910Y557070D01*
X498910D01*
X498935Y556115D01*
D02*
G37*
G36*
X479765Y556114D02*
X479840Y555258D01*
X479965Y554504D01*
X480140Y553850D01*
X480365Y553297D01*
X480640Y552844D01*
X480965Y552492D01*
X481340Y552240D01*
X481765Y552089D01*
X482240Y552039D01*
X472240D01*
X472715Y552089D01*
X473140Y552240D01*
X473515Y552492D01*
X473840Y552844D01*
X474115Y553297D01*
X474340Y553850D01*
X474515Y554504D01*
X474640Y555258D01*
X474715Y556114D01*
X474740Y557070D01*
X479740D01*
X479765Y556114D01*
D02*
G37*
G36*
X439195Y560830D02*
X439201Y560681D01*
X439215Y557070D01*
X439220D01*
X439245Y556114D01*
X439320Y555258D01*
X439445Y554504D01*
X439620Y553850D01*
X439845Y553297D01*
X440120Y552844D01*
X440445Y552492D01*
X440820Y552240D01*
X441245Y552089D01*
X441720Y552039D01*
X431720D01*
X432195Y552089D01*
X432620Y552240D01*
X432995Y552492D01*
X433320Y552844D01*
X433595Y553297D01*
X433820Y553850D01*
X433995Y554504D01*
X434120Y555258D01*
X434195Y556114D01*
X434211Y556735D01*
X434210Y556830D01*
X434065Y559081D01*
X433978Y559631D01*
X433871Y560080D01*
X433745Y560430D01*
X433600Y560681D01*
X433435Y560830D01*
X433251Y560881D01*
X439189D01*
X439195Y560830D01*
D02*
G37*
G36*
X420042D02*
X419911Y560681D01*
X419795Y560430D01*
X419694Y560080D01*
X419609Y559631D01*
X419539Y559081D01*
X419446Y557681D01*
X419427Y556598D01*
X419440Y556114D01*
X419515Y555258D01*
X419640Y554504D01*
X419815Y553850D01*
X420040Y553297D01*
X420315Y552844D01*
X420640Y552492D01*
X421015Y552240D01*
X421440Y552089D01*
X421915Y552039D01*
X411915D01*
X412390Y552089D01*
X412815Y552240D01*
X413190Y552492D01*
X413515Y552844D01*
X413790Y553297D01*
X414015Y553850D01*
X414190Y554504D01*
X414315Y555258D01*
X414390Y556114D01*
X414398Y556407D01*
X414250Y560881D01*
X420190D01*
X420042Y560830D01*
D02*
G37*
G36*
X443156Y540066D02*
X442777Y539873D01*
X442442Y539552D01*
X442152Y539102D01*
X441907Y538523D01*
X441706Y537816D01*
X441550Y536980D01*
X441439Y536015D01*
X441372Y534922D01*
X441349Y533700D01*
X434350D01*
X434322Y534922D01*
X434106Y536980D01*
X433916Y537816D01*
X433672Y538523D01*
X433374Y539102D01*
X433022Y539552D01*
X432616Y539873D01*
X432155Y540066D01*
X431641Y540131D01*
X443579D01*
X443156Y540066D01*
D02*
G37*
G36*
X503721Y540095D02*
X503222Y539900D01*
X502781Y539575D01*
X502398Y539122D01*
X502075Y538540D01*
X501810Y537828D01*
X501605Y536987D01*
X501458Y536017D01*
X501369Y534919D01*
X501340Y533690D01*
X494340D01*
X494323Y534914D01*
X494183Y536975D01*
X494062Y537812D01*
X493905Y538521D01*
X493714Y539100D01*
X493488Y539551D01*
X493227Y539873D01*
X492931Y540066D01*
X492601Y540131D01*
X504280Y540161D01*
X503721Y540095D01*
D02*
G37*
G36*
X368782Y536235D02*
X369123Y536060D01*
X369512Y535905D01*
X369949Y535771D01*
X370434Y535658D01*
X370966Y535565D01*
X372176Y535441D01*
X372854Y535410D01*
X373579Y535400D01*
Y531400D01*
X372854Y531390D01*
X370966Y531235D01*
X370434Y531142D01*
X369949Y531029D01*
X369512Y530895D01*
X369123Y530740D01*
X368782Y530565D01*
X368490Y530369D01*
Y536431D01*
X368782Y536235D01*
D02*
G37*
G36*
X46320Y526599D02*
X46285Y526882D01*
X46181Y527136D01*
X46008Y527359D01*
X45766Y527553D01*
X45454Y527717D01*
X45074Y527851D01*
X44624Y527956D01*
X44104Y528030D01*
X43516Y528075D01*
X42858Y528090D01*
Y531090D01*
X43516Y531105D01*
X44104Y531150D01*
X44624Y531224D01*
X45074Y531329D01*
X45454Y531463D01*
X45766Y531627D01*
X46008Y531821D01*
X46181Y532044D01*
X46285Y532298D01*
X46320Y532581D01*
Y526599D01*
D02*
G37*
G36*
X23890Y532300D02*
X23984Y532046D01*
X24140Y531822D01*
X24359Y531628D01*
X24641Y531464D01*
X24985Y531329D01*
X25392Y531225D01*
X25861Y531150D01*
X26393Y531105D01*
X26988Y531090D01*
Y528090D01*
X26393Y528075D01*
X25861Y528030D01*
X25392Y527956D01*
X24985Y527851D01*
X24641Y527716D01*
X24359Y527552D01*
X24140Y527358D01*
X23984Y527134D01*
X23890Y526880D01*
X23859Y526596D01*
Y532584D01*
X23890Y532300D01*
D02*
G37*
G36*
X368782Y525235D02*
X369123Y525060D01*
X369512Y524905D01*
X369949Y524771D01*
X370434Y524658D01*
X370966Y524565D01*
X372176Y524441D01*
X372854Y524410D01*
X373579Y524400D01*
Y520400D01*
X372854Y520390D01*
X370966Y520235D01*
X370434Y520142D01*
X369949Y520029D01*
X369512Y519895D01*
X369123Y519740D01*
X368782Y519565D01*
X368490Y519369D01*
Y525431D01*
X368782Y525235D01*
D02*
G37*
G36*
X493740Y526090D02*
X492771Y526020D01*
X491904Y525810D01*
X491139Y525460D01*
X490476Y524970D01*
X489915Y524340D01*
X489456Y523570D01*
X489099Y522660D01*
X488844Y521610D01*
X488691Y520420D01*
X488640Y519090D01*
X481640D01*
X481570Y520420D01*
X481360Y521610D01*
X481010Y522660D01*
X480520Y523570D01*
X479890Y524340D01*
X479120Y524970D01*
X478210Y525460D01*
X477160Y525810D01*
X475970Y526020D01*
X474640Y526090D01*
X485140Y533090D01*
X493740Y526090D01*
D02*
G37*
G36*
X379038Y508589D02*
X378779Y508838D01*
X378505Y509061D01*
X378217Y509258D01*
X377915Y509428D01*
X377598Y509572D01*
X377267Y509690D01*
X376921Y509782D01*
X376562Y509847D01*
X376187Y509887D01*
X375798Y509900D01*
X375831Y512900D01*
X376219Y512913D01*
X376593Y512952D01*
X376954Y513016D01*
X377301Y513106D01*
X377634Y513222D01*
X377953Y513364D01*
X378259Y513531D01*
X378551Y513725D01*
X378829Y513944D01*
X379094Y514188D01*
X379038Y508589D01*
D02*
G37*
G36*
X368555Y514095D02*
X368686Y513844D01*
X368904Y513623D01*
X369209Y513431D01*
X369602Y513269D01*
X370082Y513136D01*
X370649Y513033D01*
X371303Y512959D01*
X372045Y512915D01*
X372874Y512900D01*
Y509900D01*
X372045Y509885D01*
X370649Y509767D01*
X370082Y509664D01*
X369602Y509531D01*
X369209Y509369D01*
X368904Y509177D01*
X368686Y508955D01*
X368555Y508705D01*
X368511Y508424D01*
Y514376D01*
X368555Y514095D01*
D02*
G37*
G36*
X463200Y512350D02*
X462440Y512310D01*
X461760Y512190D01*
X461160Y511990D01*
X460640Y511710D01*
X460200Y511350D01*
X459840Y510910D01*
X459656Y510569D01*
X459776Y510247D01*
X460100Y509566D01*
X460496Y508880D01*
X460964Y508190D01*
X461504Y507496D01*
X462116Y506797D01*
X462800Y506093D01*
X451600D01*
X452284Y506797D01*
X453436Y508190D01*
X453904Y508880D01*
X454300Y509566D01*
X454624Y510247D01*
X454744Y510569D01*
X454560Y510910D01*
X454200Y511350D01*
X453760Y511710D01*
X453240Y511990D01*
X452640Y512190D01*
X451960Y512310D01*
X451200Y512350D01*
X457200Y516350D01*
X463200Y512350D01*
D02*
G37*
G36*
X23483Y507557D02*
X23790Y507309D01*
X24172Y507089D01*
X24627Y506899D01*
X25158Y506738D01*
X25762Y506607D01*
X26441Y506504D01*
X27195Y506431D01*
X28925Y506372D01*
X28988Y501372D01*
X28150Y501352D01*
X27371Y501289D01*
X26651Y501184D01*
X25989Y501037D01*
X25386Y500848D01*
X24841Y500617D01*
X24356Y500345D01*
X23928Y500030D01*
X23560Y499673D01*
X23250Y499275D01*
Y507835D01*
X23483Y507557D01*
D02*
G37*
G36*
X47723Y498892D02*
X47635Y499363D01*
X47422Y499785D01*
X47084Y500157D01*
X46623Y500480D01*
X46036Y500752D01*
X45325Y500976D01*
X44489Y501149D01*
X43529Y501273D01*
X42444Y501348D01*
X41235Y501372D01*
X41042Y506372D01*
X42236Y506397D01*
X44238Y506596D01*
X45047Y506769D01*
X45727Y506993D01*
X46279Y507266D01*
X46702Y507588D01*
X46997Y507960D01*
X47164Y508382D01*
X47202Y508853D01*
X47723Y498892D01*
D02*
G37*
G36*
X56477Y480508D02*
X56672Y480462D01*
X56961Y480422D01*
X57820Y480357D01*
X61610Y480290D01*
Y477290D01*
X56377Y477021D01*
Y480559D01*
X56477Y480508D01*
D02*
G37*
G36*
X146050Y514782D02*
X146679Y514825D01*
X151159Y514900D01*
Y507900D01*
X149826Y507865D01*
X148632Y507760D01*
X147578Y507585D01*
X146665Y507340D01*
X146050Y507089D01*
Y504710D01*
X146665Y504460D01*
X147578Y504215D01*
X148632Y504040D01*
X149825Y503935D01*
X151159Y503900D01*
Y496900D01*
X149830Y496896D01*
X146050Y496675D01*
Y480984D01*
X146104Y480970D01*
X146708Y480870D01*
X147394Y480810D01*
X148102Y480792D01*
X148451Y480798D01*
X149226Y480860D01*
X149570Y480915D01*
X149886Y480985D01*
X150173Y481072D01*
X150432Y481173D01*
X150662Y481290D01*
X150863Y481423D01*
X151035Y481572D01*
X150948Y475973D01*
X150778Y476128D01*
X150580Y476267D01*
X150352Y476390D01*
X150095Y476496D01*
X149810Y476586D01*
X149495Y476659D01*
X149152Y476716D01*
X148780Y476757D01*
X148033Y476787D01*
X147394Y476770D01*
X146708Y476710D01*
X146104Y476610D01*
X146050Y476596D01*
Y327660D01*
X85090D01*
Y347980D01*
X111760D01*
X112503Y348053D01*
X113877Y348622D01*
X114928Y349673D01*
X115497Y351047D01*
X115570Y351790D01*
Y384810D01*
X115570Y385568D01*
X116150Y386968D01*
X117222Y388040D01*
X118622Y388620D01*
X119380Y388620D01*
Y388620D01*
X119875Y388669D01*
X120791Y389048D01*
X121492Y389749D01*
X121871Y390664D01*
X121920Y391160D01*
X121920Y391160D01*
Y434340D01*
X128270D01*
X128765Y434389D01*
X129681Y434768D01*
X130382Y435469D01*
X130761Y436384D01*
X130810Y436880D01*
X130810Y436880D01*
Y514937D01*
X146050D01*
Y514782D01*
D02*
G37*
G36*
X63469Y481505D02*
X63560Y481250D01*
X63712Y481025D01*
X63924Y480830D01*
X64197Y480665D01*
X64530Y480530D01*
X64924Y480425D01*
X65378Y480350D01*
X65894Y480305D01*
X66469Y480290D01*
Y477290D01*
X65894Y477275D01*
X65378Y477230D01*
X64924Y477155D01*
X64530Y477050D01*
X64197Y476915D01*
X63924Y476750D01*
X63712Y476555D01*
X63560Y476330D01*
X63469Y476075D01*
X63439Y475790D01*
Y481790D01*
X63469Y481505D01*
D02*
G37*
G36*
X120650Y613410D02*
X187960Y613410D01*
X187960Y613410D01*
X188710Y613410D01*
X190183Y613117D01*
X191569Y612543D01*
X192817Y611709D01*
X193879Y610647D01*
X194713Y609399D01*
X195287Y608013D01*
X195580Y606540D01*
X195580Y605790D01*
X195580Y599440D01*
X195678Y598449D01*
X196436Y596618D01*
X197838Y595216D01*
X199669Y594458D01*
X200660Y594360D01*
X330200D01*
X330200Y594360D01*
X330950Y594360D01*
X332423Y594067D01*
X333809Y593493D01*
X335057Y592659D01*
X336119Y591597D01*
X336953Y590349D01*
X337527Y588963D01*
X337820Y587490D01*
X337820Y586740D01*
Y474980D01*
X199390D01*
Y577850D01*
X199389Y577850D01*
X199268Y579089D01*
X198320Y581378D01*
X196568Y583130D01*
X194279Y584078D01*
X193040Y584200D01*
X163830Y584200D01*
Y584200D01*
X162591Y584078D01*
X160302Y583130D01*
X158550Y581378D01*
X157602Y579089D01*
X157480Y577850D01*
X157480Y518891D01*
X121381D01*
X121380Y518890D01*
X120495Y518803D01*
X118858Y518125D01*
X117605Y516873D01*
X116927Y515236D01*
X116840Y514350D01*
Y401320D01*
X116840Y401320D01*
X116840Y400319D01*
X116449Y398356D01*
X115683Y396507D01*
X114572Y394843D01*
X113156Y393428D01*
X111493Y392316D01*
X109643Y391550D01*
X107681Y391160D01*
X106680Y391160D01*
X96520D01*
X96519Y391160D01*
X95529Y391062D01*
X93698Y390304D01*
X92296Y388903D01*
X91538Y387072D01*
X91440Y386081D01*
Y360680D01*
X78740Y360680D01*
X78740Y360680D01*
X78244Y360631D01*
X77329Y360252D01*
X76628Y359552D01*
X76249Y358636D01*
X76200Y358141D01*
Y260349D01*
Y260348D01*
X76243Y259477D01*
X76583Y257768D01*
X77250Y256158D01*
X78218Y254709D01*
X79450Y253477D01*
X80899Y252509D01*
X82509Y251842D01*
X84219Y251503D01*
X85090Y251460D01*
X102870D01*
X102870Y251460D01*
X103628Y251460D01*
X105028Y250880D01*
X106100Y249809D01*
X106680Y248408D01*
X106680Y247650D01*
X106680Y234948D01*
Y234948D01*
X106753Y234205D01*
X107322Y232831D01*
X108373Y231781D01*
X109747Y231213D01*
X110490Y231140D01*
X114300D01*
X114300Y231140D01*
X114805Y231140D01*
X115739Y230754D01*
X116454Y230039D01*
X116840Y229105D01*
X116840Y228600D01*
X116840Y217170D01*
X104139D01*
X103634Y217170D01*
X102701Y217557D01*
X101986Y218271D01*
X101600Y219205D01*
X101600Y219710D01*
X101600Y219710D01*
X101551Y220205D01*
X101172Y221121D01*
X100471Y221822D01*
X99556Y222201D01*
X99060Y222250D01*
X50800Y222250D01*
X50799D01*
X49789Y222250D01*
X47922Y223023D01*
X46493Y224452D01*
X45720Y226320D01*
X45720Y227330D01*
X45720Y241300D01*
X45717Y241300D01*
X45644Y242043D01*
X45077Y243416D01*
X44026Y244468D01*
X42653Y245037D01*
X41910Y245110D01*
X10160Y245110D01*
X2121D01*
Y290411D01*
X2121Y291252D01*
X2764Y292807D01*
X3954Y293996D01*
X5509Y294640D01*
X6350Y294640D01*
X39370Y294640D01*
X39370D01*
X40609Y294762D01*
X42899Y295709D01*
X44651Y297461D01*
X45598Y299751D01*
X45720Y300990D01*
X45720Y396243D01*
X45720Y397118D01*
X46062Y398836D01*
X46732Y400453D01*
X47705Y401909D01*
X48943Y403147D01*
X50399Y404120D01*
X52017Y404789D01*
X53734Y405130D01*
X54610Y405130D01*
X72390Y405130D01*
X72390D01*
X73386Y405179D01*
X75340Y405567D01*
X77180Y406329D01*
X78836Y407435D01*
X80245Y408844D01*
X81351Y410500D01*
X82113Y412340D01*
X82501Y414294D01*
X82550Y415290D01*
X82550Y520700D01*
D01*
Y520700D01*
Y520700D01*
X82550Y521701D01*
X82940Y523664D01*
X83706Y525513D01*
X84818Y527177D01*
X86233Y528592D01*
X87897Y529704D01*
X89746Y530470D01*
X91709Y530860D01*
X92710Y530860D01*
X105410Y530860D01*
X105410D01*
X106281Y530903D01*
X107991Y531242D01*
X109601Y531909D01*
X111050Y532878D01*
X112282Y534110D01*
X113251Y535559D01*
X113918Y537169D01*
X114257Y538879D01*
X114300Y539750D01*
X114300Y586740D01*
Y607060D01*
X114300Y608323D01*
X115267Y610657D01*
X117053Y612444D01*
X119387Y613410D01*
X120650Y613410D01*
D02*
G37*
G36*
X23522Y481462D02*
X23861Y481160D01*
X24266Y480892D01*
X24739Y480661D01*
X25280Y480465D01*
X25887Y480305D01*
X26561Y480180D01*
X27303Y480091D01*
X28112Y480038D01*
X28988Y480020D01*
Y475020D01*
X28112Y475002D01*
X26561Y474860D01*
X25887Y474735D01*
X25280Y474575D01*
X24739Y474379D01*
X24266Y474148D01*
X23861Y473881D01*
X23522Y473578D01*
X23250Y473240D01*
Y481800D01*
X23522Y481462D01*
D02*
G37*
G36*
X45781Y472520D02*
X45731Y472995D01*
X45580Y473420D01*
X45328Y473795D01*
X44976Y474120D01*
X44523Y474395D01*
X43970Y474620D01*
X43316Y474795D01*
X42561Y474920D01*
X41706Y474995D01*
X40750Y475020D01*
Y480020D01*
X41706Y480045D01*
X42561Y480120D01*
X43316Y480245D01*
X43970Y480420D01*
X44523Y480645D01*
X44976Y480920D01*
X45328Y481245D01*
X45580Y481620D01*
X45731Y482045D01*
X45781Y482520D01*
Y472520D01*
D02*
G37*
G36*
X451487Y469380D02*
X450783Y470064D01*
X449390Y471216D01*
X448700Y471684D01*
X448014Y472080D01*
X447333Y472404D01*
X446657Y472656D01*
X445985Y472836D01*
X445317Y472944D01*
X444654Y472980D01*
Y476980D01*
X445317Y477016D01*
X445985Y477124D01*
X446657Y477304D01*
X447333Y477556D01*
X448014Y477880D01*
X448700Y478276D01*
X449390Y478744D01*
X450084Y479284D01*
X450783Y479896D01*
X451487Y480580D01*
Y469380D01*
D02*
G37*
G36*
X434793Y480220D02*
X434912Y479540D01*
X435112Y478940D01*
X435392Y478420D01*
X435752Y477980D01*
X436193Y477620D01*
X436712Y477340D01*
X437313Y477140D01*
X437993Y477020D01*
X438753Y476980D01*
Y472980D01*
X437993Y472940D01*
X437313Y472820D01*
X436712Y472620D01*
X436193Y472340D01*
X435752Y471980D01*
X435392Y471540D01*
X435112Y471020D01*
X434912Y470420D01*
X434793Y469740D01*
X434753Y468980D01*
X430752Y474980D01*
X434753Y480980D01*
X434793Y480220D01*
D02*
G37*
G36*
X166355Y469974D02*
X166430Y469118D01*
X166555Y468364D01*
X166730Y467710D01*
X166955Y467157D01*
X167230Y466704D01*
X167555Y466352D01*
X167930Y466100D01*
X168355Y465949D01*
X168830Y465899D01*
X158830D01*
X159305Y465949D01*
X159730Y466100D01*
X160105Y466352D01*
X160430Y466704D01*
X160705Y467157D01*
X160930Y467710D01*
X161105Y468364D01*
X161230Y469118D01*
X161305Y469974D01*
X161330Y470929D01*
X166330D01*
X166355Y469974D01*
D02*
G37*
G36*
X304745Y469884D02*
X305000Y465952D01*
X305080Y465599D01*
X305170Y465331D01*
X305271Y465150D01*
X299209D01*
X299310Y465331D01*
X299400Y465599D01*
X299480Y465952D01*
X299549Y466392D01*
X299655Y467531D01*
X299735Y469884D01*
X299740Y470841D01*
X304740D01*
X304745Y469884D01*
D02*
G37*
G36*
X238936Y443585D02*
X238685Y443454D01*
X238463Y443236D01*
X238271Y442931D01*
X238109Y442538D01*
X237976Y442058D01*
X237873Y441491D01*
X237799Y440836D01*
X237755Y440095D01*
X237740Y439266D01*
X234740D01*
X234725Y440095D01*
X234607Y441491D01*
X234504Y442058D01*
X234371Y442538D01*
X234209Y442931D01*
X234017Y443236D01*
X233796Y443454D01*
X233545Y443585D01*
X233264Y443629D01*
X239216D01*
X238936Y443585D01*
D02*
G37*
G36*
X227936D02*
X227685Y443454D01*
X227463Y443236D01*
X227271Y442931D01*
X227109Y442538D01*
X226976Y442058D01*
X226873Y441491D01*
X226799Y440836D01*
X226755Y440095D01*
X226740Y439266D01*
X223740D01*
X223725Y440095D01*
X223607Y441491D01*
X223504Y442058D01*
X223371Y442538D01*
X223209Y442931D01*
X223017Y443236D01*
X222796Y443454D01*
X222545Y443585D01*
X222264Y443629D01*
X228216D01*
X227936Y443585D01*
D02*
G37*
G36*
X282989Y443259D02*
X282737Y442857D01*
X282515Y442446D01*
X282322Y442025D01*
X282159Y441593D01*
X282026Y441152D01*
X281922Y440700D01*
X281848Y440239D01*
X281803Y439767D01*
X281788Y439286D01*
X278788Y439246D01*
X278773Y440070D01*
X278655Y441458D01*
X278552Y442021D01*
X278419Y442496D01*
X278257Y442885D01*
X278065Y443186D01*
X277844Y443400D01*
X277593Y443526D01*
X277313Y443566D01*
X283271Y443650D01*
X282989Y443259D01*
D02*
G37*
G36*
X338075Y443358D02*
X337900Y443017D01*
X337745Y442628D01*
X337611Y442191D01*
X337498Y441706D01*
X337405Y441174D01*
X337281Y439963D01*
X337250Y439286D01*
X337240Y438561D01*
X333240D01*
X333230Y439286D01*
X333075Y441174D01*
X332982Y441706D01*
X332869Y442191D01*
X332735Y442628D01*
X332580Y443017D01*
X332405Y443358D01*
X332209Y443650D01*
X338270D01*
X338075Y443358D01*
D02*
G37*
G36*
X327075D02*
X326899Y443017D01*
X326745Y442628D01*
X326611Y442191D01*
X326498Y441706D01*
X326405Y441174D01*
X326281Y439963D01*
X326250Y439286D01*
X326240Y438561D01*
X322240D01*
X322230Y439286D01*
X322075Y441174D01*
X321982Y441706D01*
X321869Y442191D01*
X321735Y442628D01*
X321580Y443017D01*
X321405Y443358D01*
X321209Y443650D01*
X327271D01*
X327075Y443358D01*
D02*
G37*
G36*
X316075D02*
X315900Y443017D01*
X315745Y442628D01*
X315611Y442191D01*
X315498Y441706D01*
X315405Y441174D01*
X315281Y439963D01*
X315250Y439286D01*
X315240Y438561D01*
X311240D01*
X311230Y439286D01*
X311075Y441174D01*
X310982Y441706D01*
X310869Y442191D01*
X310735Y442628D01*
X310580Y443017D01*
X310405Y443358D01*
X310209Y443650D01*
X316271D01*
X316075Y443358D01*
D02*
G37*
G36*
X294075D02*
X293900Y443017D01*
X293745Y442628D01*
X293611Y442191D01*
X293498Y441706D01*
X293405Y441174D01*
X293281Y439963D01*
X293250Y439286D01*
X293240Y438561D01*
X289240D01*
X289230Y439286D01*
X289075Y441174D01*
X288982Y441706D01*
X288869Y442191D01*
X288735Y442628D01*
X288580Y443017D01*
X288405Y443358D01*
X288209Y443650D01*
X294271D01*
X294075Y443358D01*
D02*
G37*
G36*
X272075D02*
X271900Y443017D01*
X271745Y442628D01*
X271611Y442191D01*
X271498Y441706D01*
X271405Y441174D01*
X271281Y439963D01*
X271250Y439286D01*
X271240Y438561D01*
X267240D01*
X267230Y439286D01*
X267075Y441174D01*
X266982Y441706D01*
X266869Y442191D01*
X266735Y442628D01*
X266580Y443017D01*
X266405Y443358D01*
X266209Y443650D01*
X272271D01*
X272075Y443358D01*
D02*
G37*
G36*
X305170Y443469D02*
X305080Y443201D01*
X305000Y442848D01*
X304931Y442408D01*
X304825Y441269D01*
X304745Y438916D01*
X304740Y437959D01*
X299740D01*
X299735Y438916D01*
X299480Y442848D01*
X299400Y443201D01*
X299310Y443469D01*
X299209Y443650D01*
X305271D01*
X305170Y443469D01*
D02*
G37*
G36*
X281801Y437569D02*
X281840Y437194D01*
X281905Y436834D01*
X281996Y436488D01*
X282113Y436156D01*
X282256Y435837D01*
X282425Y435533D01*
X282620Y435243D01*
X282841Y434967D01*
X283088Y434706D01*
X277488D01*
X277735Y434967D01*
X277956Y435243D01*
X278151Y435533D01*
X278320Y435837D01*
X278463Y436156D01*
X278580Y436488D01*
X278671Y436834D01*
X278736Y437194D01*
X278775Y437569D01*
X278788Y437957D01*
X281788D01*
X281801Y437569D01*
D02*
G37*
G36*
X190672Y423176D02*
X190713Y423087D01*
X190777Y422980D01*
X190864Y422856D01*
X191106Y422556D01*
X191441Y422187D01*
X191868Y421749D01*
X188332Y418213D01*
X188104Y418438D01*
X187225Y419217D01*
X187101Y419304D01*
X186994Y419368D01*
X186905Y419409D01*
X186833Y419426D01*
X190655Y423248D01*
X190672Y423176D01*
D02*
G37*
G36*
X169841Y429245D02*
X170053Y428650D01*
X170406Y428125D01*
X170898Y427670D01*
X171531Y427285D01*
X172304Y426970D01*
X173218Y426725D01*
X174271Y426550D01*
X175465Y426445D01*
X176800Y426410D01*
Y419410D01*
X175469Y419396D01*
X172320Y419183D01*
X171549Y419055D01*
X170919Y418899D01*
X170429Y418714D01*
X170079Y418502D01*
X169869Y418260D01*
X169799Y417990D01*
X169769Y429910D01*
X169841Y429245D01*
D02*
G37*
G36*
X393903Y407274D02*
X393852Y407153D01*
X393807Y406990D01*
X393768Y406786D01*
X393735Y406540D01*
X393687Y405924D01*
X393661Y404725D01*
X393685Y403806D01*
X393760Y402956D01*
X393885Y402206D01*
X394060Y401555D01*
X394285Y401006D01*
X394560Y400555D01*
X394885Y400205D01*
X395260Y399955D01*
X395685Y399805D01*
X396160Y399756D01*
X386160D01*
X386635Y399805D01*
X387060Y399955D01*
X387435Y400205D01*
X387760Y400555D01*
X388035Y401006D01*
X388260Y401555D01*
X388435Y402206D01*
X388560Y402956D01*
X388635Y403806D01*
X388660Y404742D01*
X388657Y405141D01*
X388552Y406786D01*
X388513Y406990D01*
X388468Y407153D01*
X388417Y407274D01*
X388360Y407353D01*
X393960D01*
X393903Y407274D01*
D02*
G37*
G36*
X346734Y407140D02*
X346662Y407056D01*
X346597Y406931D01*
X346540Y406765D01*
X346490Y406558D01*
X346448Y406310D01*
X346387Y405692D01*
X346356Y404910D01*
X346354Y404683D01*
X346377Y403806D01*
X346452Y402956D01*
X346577Y402206D01*
X346753Y401555D01*
X346978Y401006D01*
X347253Y400555D01*
X347578Y400205D01*
X347952Y399955D01*
X348377Y399805D01*
X348853Y399756D01*
X338853D01*
X339328Y399805D01*
X339753Y399955D01*
X340127Y400205D01*
X340452Y400555D01*
X340728Y401006D01*
X340952Y401555D01*
X341128Y402206D01*
X341253Y402956D01*
X341328Y403806D01*
X341353Y404756D01*
X343450D01*
X341353Y404971D01*
X341351Y405426D01*
X341224Y407406D01*
X341190Y407517D01*
X341152Y407585D01*
X346734Y407140D01*
D02*
G37*
G36*
X299702Y403806D02*
X299768Y402956D01*
X299878Y402206D01*
X300032Y401555D01*
X300230Y401006D01*
X300472Y400555D01*
X300758Y400205D01*
X301088Y399955D01*
X301462Y399805D01*
X301880Y399756D01*
X292180D01*
X292655Y399805D01*
X293080Y399955D01*
X293455Y400205D01*
X293780Y400555D01*
X294055Y401006D01*
X294280Y401555D01*
X294455Y402206D01*
X294580Y402956D01*
X294655Y403806D01*
X294680Y404756D01*
X299680D01*
X299702Y403806D01*
D02*
G37*
G36*
X192620Y402719D02*
X192777Y401119D01*
X192915Y400470D01*
X193092Y399920D01*
X193309Y399469D01*
X193565Y399119D01*
X193860Y398870D01*
X194195Y398719D01*
X194569Y398670D01*
X185630D01*
X186005Y398719D01*
X186339Y398870D01*
X186635Y399119D01*
X186891Y399469D01*
X187108Y399920D01*
X187285Y400470D01*
X187423Y401119D01*
X187521Y401870D01*
X187580Y402719D01*
X187600Y403670D01*
X192600D01*
X192620Y402719D01*
D02*
G37*
G36*
X237755Y401095D02*
X237800Y400581D01*
X237875Y400127D01*
X237980Y399734D01*
X238115Y399401D01*
X238280Y399128D01*
X238475Y398915D01*
X238700Y398763D01*
X238955Y398671D01*
X239240Y398639D01*
X233620Y398670D01*
X233833Y398699D01*
X234023Y398789D01*
X234191Y398940D01*
X234337Y399150D01*
X234460Y399420D01*
X234561Y399749D01*
X234639Y400140D01*
X234695Y400589D01*
X234729Y401100D01*
X234740Y401670D01*
X237740D01*
X237755Y401095D01*
D02*
G37*
G36*
X226755Y401094D02*
X226800Y400578D01*
X226875Y400124D01*
X226980Y399730D01*
X227115Y399397D01*
X227280Y399124D01*
X227475Y398912D01*
X227700Y398760D01*
X227955Y398669D01*
X228240Y398639D01*
X222240D01*
X222525Y398669D01*
X222780Y398760D01*
X223005Y398912D01*
X223200Y399124D01*
X223365Y399397D01*
X223500Y399730D01*
X223605Y400124D01*
X223680Y400578D01*
X223725Y401094D01*
X223740Y401670D01*
X226740D01*
X226755Y401094D01*
D02*
G37*
G36*
X315239Y395014D02*
X315264Y394976D01*
X315304Y394924D01*
X315431Y394779D01*
X316021Y394171D01*
X313899Y392049D01*
X313033Y392841D01*
X315229Y395037D01*
X315239Y395014D01*
D02*
G37*
G36*
X254611Y390700D02*
X254580Y390985D01*
X254491Y391240D01*
X254340Y391465D01*
X254130Y391660D01*
X253860Y391825D01*
X253531Y391960D01*
X253141Y392065D01*
X252691Y392140D01*
X252181Y392185D01*
X251611Y392200D01*
Y395200D01*
X252181Y395215D01*
X252691Y395260D01*
X253141Y395335D01*
X253531Y395440D01*
X253860Y395575D01*
X254130Y395740D01*
X254340Y395935D01*
X254491Y396160D01*
X254580Y396415D01*
X254611Y396700D01*
Y390700D01*
D02*
G37*
G36*
X242559Y396415D02*
X242650Y396160D01*
X242802Y395935D01*
X243014Y395740D01*
X243287Y395575D01*
X243620Y395440D01*
X244014Y395335D01*
X244468Y395260D01*
X244984Y395215D01*
X245560Y395200D01*
Y392200D01*
X244984Y392185D01*
X244468Y392140D01*
X244014Y392065D01*
X243620Y391960D01*
X243287Y391825D01*
X243014Y391660D01*
X242802Y391465D01*
X242650Y391240D01*
X242559Y390985D01*
X242529Y390700D01*
Y396700D01*
X242559Y396415D01*
D02*
G37*
G36*
X220121Y390700D02*
X220091Y390985D01*
X220000Y391240D01*
X219851Y391465D01*
X219641Y391660D01*
X219370Y391825D01*
X219041Y391960D01*
X218650Y392065D01*
X218200Y392140D01*
X217691Y392185D01*
X217120Y392200D01*
Y395200D01*
X217691Y395215D01*
X218200Y395260D01*
X218650Y395335D01*
X219041Y395440D01*
X219370Y395575D01*
X219641Y395740D01*
X219851Y395935D01*
X220000Y396160D01*
X220091Y396415D01*
X220121Y396700D01*
Y390700D01*
D02*
G37*
G36*
X208069Y396415D02*
X208160Y396160D01*
X208312Y395935D01*
X208524Y395740D01*
X208797Y395575D01*
X209130Y395440D01*
X209524Y395335D01*
X209979Y395260D01*
X210494Y395215D01*
X211070Y395200D01*
Y392200D01*
X210494Y392185D01*
X209979Y392140D01*
X209524Y392065D01*
X209130Y391960D01*
X208797Y391825D01*
X208524Y391660D01*
X208312Y391465D01*
X208160Y391240D01*
X208069Y390985D01*
X208039Y390700D01*
Y396700D01*
X208069Y396415D01*
D02*
G37*
G36*
X337596Y389786D02*
X337556Y390166D01*
X337435Y390506D01*
X337233Y390806D01*
X336951Y391066D01*
X336588Y391286D01*
X336145Y391466D01*
X335621Y391606D01*
X335017Y391706D01*
X334331Y391766D01*
X333565Y391786D01*
Y395786D01*
X334331Y395806D01*
X335017Y395866D01*
X335621Y395966D01*
X336145Y396106D01*
X336588Y396286D01*
X336951Y396506D01*
X337233Y396766D01*
X337435Y397066D01*
X337556Y397406D01*
X337596Y397786D01*
Y389786D01*
D02*
G37*
G36*
X261795Y388731D02*
X261540Y388640D01*
X261315Y388488D01*
X261120Y388276D01*
X260955Y388003D01*
X260820Y387670D01*
X260715Y387276D01*
X260640Y386822D01*
X260595Y386306D01*
X260580Y385731D01*
X257580D01*
X257565Y386306D01*
X257520Y386822D01*
X257445Y387276D01*
X257340Y387670D01*
X257205Y388003D01*
X257040Y388276D01*
X256845Y388488D01*
X256620Y388640D01*
X256365Y388731D01*
X256080Y388761D01*
X262080D01*
X261795Y388731D01*
D02*
G37*
G36*
X206315D02*
X206060Y388640D01*
X205835Y388488D01*
X205640Y388276D01*
X205475Y388003D01*
X205340Y387670D01*
X205235Y387276D01*
X205160Y386822D01*
X205115Y386306D01*
X205100Y385731D01*
X202100D01*
X202085Y386306D01*
X202040Y386822D01*
X201965Y387276D01*
X201860Y387670D01*
X201725Y388003D01*
X201560Y388276D01*
X201365Y388488D01*
X201140Y388640D01*
X200885Y388731D01*
X200600Y388761D01*
X206600D01*
X206315Y388731D01*
D02*
G37*
G36*
X276675Y388680D02*
X276340Y388531D01*
X276045Y388280D01*
X275789Y387930D01*
X275572Y387481D01*
X275395Y386931D01*
X275257Y386281D01*
X275159Y385531D01*
X275110Y384832D01*
X275257Y383340D01*
X275395Y382690D01*
X275572Y382140D01*
X275789Y381689D01*
X276045Y381339D01*
X276340Y381090D01*
X276675Y380939D01*
X277050Y380890D01*
X268111D01*
X268485Y380939D01*
X268820Y381090D01*
X269115Y381339D01*
X269371Y381689D01*
X269588Y382140D01*
X269765Y382690D01*
X269903Y383340D01*
X270001Y384090D01*
X270050Y384788D01*
X269903Y386281D01*
X269765Y386931D01*
X269588Y387481D01*
X269371Y387930D01*
X269115Y388280D01*
X268820Y388531D01*
X268485Y388680D01*
X268110Y388731D01*
X277050D01*
X276675Y388680D01*
D02*
G37*
G36*
X194195D02*
X193860Y388531D01*
X193565Y388280D01*
X193309Y387930D01*
X193092Y387481D01*
X192915Y386931D01*
X192777Y386281D01*
X192679Y385531D01*
X192630Y384832D01*
X192777Y383340D01*
X192915Y382690D01*
X193092Y382140D01*
X193309Y381689D01*
X193565Y381339D01*
X193860Y381090D01*
X194195Y380939D01*
X194569Y380890D01*
X185630D01*
X186005Y380939D01*
X186339Y381090D01*
X186635Y381339D01*
X186891Y381689D01*
X187108Y382140D01*
X187285Y382690D01*
X187423Y383340D01*
X187521Y384090D01*
X187570Y384788D01*
X187423Y386281D01*
X187285Y386931D01*
X187108Y387481D01*
X186891Y387930D01*
X186635Y388280D01*
X186339Y388531D01*
X186005Y388680D01*
X185630Y388731D01*
X194569D01*
X194195Y388680D01*
D02*
G37*
G36*
X260595Y383314D02*
X260640Y382799D01*
X260715Y382344D01*
X260820Y381950D01*
X260955Y381617D01*
X261120Y381344D01*
X261315Y381132D01*
X261540Y380980D01*
X261795Y380889D01*
X262080Y380859D01*
X256080D01*
X256365Y380889D01*
X256620Y380980D01*
X256845Y381132D01*
X257040Y381344D01*
X257205Y381617D01*
X257340Y381950D01*
X257445Y382344D01*
X257520Y382799D01*
X257565Y383314D01*
X257580Y383890D01*
X260580D01*
X260595Y383314D01*
D02*
G37*
G36*
X205115D02*
X205160Y382799D01*
X205235Y382344D01*
X205340Y381950D01*
X205475Y381617D01*
X205640Y381344D01*
X205835Y381132D01*
X206060Y380980D01*
X206315Y380889D01*
X206600Y380859D01*
X200600D01*
X200885Y380889D01*
X201140Y380980D01*
X201365Y381132D01*
X201560Y381344D01*
X201725Y381617D01*
X201860Y381950D01*
X201965Y382344D01*
X202040Y382799D01*
X202085Y383314D01*
X202100Y383890D01*
X205100D01*
X205115Y383314D01*
D02*
G37*
G36*
X254611Y372920D02*
X254580Y373205D01*
X254491Y373460D01*
X254340Y373685D01*
X254130Y373880D01*
X253860Y374045D01*
X253531Y374180D01*
X253141Y374285D01*
X252691Y374360D01*
X252181Y374405D01*
X251611Y374420D01*
Y377420D01*
X252181Y377435D01*
X252691Y377480D01*
X253141Y377555D01*
X253531Y377660D01*
X253860Y377795D01*
X254130Y377960D01*
X254340Y378155D01*
X254491Y378380D01*
X254580Y378635D01*
X254611Y378920D01*
Y372920D01*
D02*
G37*
G36*
X242559Y378635D02*
X242650Y378380D01*
X242802Y378155D01*
X243014Y377960D01*
X243287Y377795D01*
X243620Y377660D01*
X244014Y377555D01*
X244468Y377480D01*
X244984Y377435D01*
X245560Y377420D01*
Y374420D01*
X244984Y374405D01*
X244468Y374360D01*
X244014Y374285D01*
X243620Y374180D01*
X243287Y374045D01*
X243014Y373880D01*
X242802Y373685D01*
X242650Y373460D01*
X242559Y373205D01*
X242529Y372920D01*
Y378920D01*
X242559Y378635D01*
D02*
G37*
G36*
X220121Y372920D02*
X220091Y373205D01*
X220000Y373460D01*
X219851Y373685D01*
X219641Y373880D01*
X219370Y374045D01*
X219041Y374180D01*
X218650Y374285D01*
X218200Y374360D01*
X217691Y374405D01*
X217120Y374420D01*
Y377420D01*
X217691Y377435D01*
X218200Y377480D01*
X218650Y377555D01*
X219041Y377660D01*
X219370Y377795D01*
X219641Y377960D01*
X219851Y378155D01*
X220000Y378380D01*
X220091Y378635D01*
X220121Y378920D01*
Y372920D01*
D02*
G37*
G36*
X208069Y378635D02*
X208160Y378380D01*
X208312Y378155D01*
X208524Y377960D01*
X208797Y377795D01*
X209130Y377660D01*
X209524Y377555D01*
X209979Y377480D01*
X210494Y377435D01*
X211070Y377420D01*
Y374420D01*
X210494Y374405D01*
X209979Y374360D01*
X209524Y374285D01*
X209130Y374180D01*
X208797Y374045D01*
X208524Y373880D01*
X208312Y373685D01*
X208160Y373460D01*
X208069Y373205D01*
X208039Y372920D01*
Y378920D01*
X208069Y378635D01*
D02*
G37*
G36*
X301879Y375501D02*
X301970Y375246D01*
X302122Y375021D01*
X302334Y374826D01*
X302607Y374661D01*
X302940Y374526D01*
X303334Y374421D01*
X303789Y374346D01*
X304304Y374301D01*
X304879Y374286D01*
Y371286D01*
X304304Y371271D01*
X303789Y371226D01*
X303334Y371151D01*
X302940Y371046D01*
X302607Y370911D01*
X302334Y370746D01*
X302122Y370551D01*
X301970Y370326D01*
X301879Y370071D01*
X301849Y369786D01*
Y375786D01*
X301879Y375501D01*
D02*
G37*
G36*
X397139Y376406D02*
X397260Y376066D01*
X397462Y375766D01*
X397744Y375506D01*
X398107Y375286D01*
X398550Y375106D01*
X399074Y374966D01*
X399678Y374866D01*
X400364Y374806D01*
X401129Y374786D01*
Y370786D01*
X400364Y370766D01*
X399678Y370706D01*
X399074Y370606D01*
X398550Y370466D01*
X398107Y370286D01*
X397744Y370066D01*
X397462Y369806D01*
X397260Y369506D01*
X397139Y369166D01*
X397099Y368786D01*
Y376786D01*
X397139Y376406D01*
D02*
G37*
G36*
X349514D02*
X349635Y376066D01*
X349837Y375766D01*
X350119Y375506D01*
X350482Y375286D01*
X350925Y375106D01*
X351449Y374966D01*
X352053Y374866D01*
X352739Y374806D01*
X353504Y374786D01*
Y370786D01*
X352739Y370766D01*
X352053Y370706D01*
X351449Y370606D01*
X350925Y370466D01*
X350482Y370286D01*
X350119Y370066D01*
X349837Y369806D01*
X349635Y369506D01*
X349514Y369166D01*
X349474Y368786D01*
Y376786D01*
X349514Y376406D01*
D02*
G37*
G36*
X240805Y370951D02*
X240550Y370860D01*
X240325Y370708D01*
X240130Y370496D01*
X239965Y370223D01*
X239830Y369890D01*
X239725Y369496D01*
X239650Y369041D01*
X239605Y368526D01*
X239590Y367951D01*
X236590D01*
X236575Y368526D01*
X236530Y369041D01*
X236455Y369496D01*
X236350Y369890D01*
X236215Y370223D01*
X236050Y370496D01*
X235855Y370708D01*
X235630Y370860D01*
X235375Y370951D01*
X235090Y370981D01*
X241090D01*
X240805Y370951D01*
D02*
G37*
G36*
X227505D02*
X227250Y370860D01*
X227025Y370708D01*
X226830Y370496D01*
X226665Y370223D01*
X226530Y369890D01*
X226425Y369496D01*
X226350Y369041D01*
X226305Y368526D01*
X226290Y367951D01*
X223290D01*
X223275Y368526D01*
X223230Y369041D01*
X223155Y369496D01*
X223050Y369890D01*
X222915Y370223D01*
X222750Y370496D01*
X222555Y370708D01*
X222330Y370860D01*
X222075Y370951D01*
X221790Y370981D01*
X227790D01*
X227505Y370951D01*
D02*
G37*
G36*
X276675Y370900D02*
X276341Y370751D01*
X276045Y370500D01*
X275789Y370150D01*
X275572Y369701D01*
X275395Y369151D01*
X275257Y368501D01*
X275159Y367751D01*
X275100Y366900D01*
X275080Y365951D01*
X270080D01*
X270060Y366900D01*
X269903Y368501D01*
X269765Y369151D01*
X269588Y369701D01*
X269371Y370150D01*
X269115Y370500D01*
X268820Y370751D01*
X268485Y370900D01*
X268111Y370951D01*
X277050D01*
X276675Y370900D01*
D02*
G37*
G36*
X194195D02*
X193860Y370751D01*
X193565Y370500D01*
X193309Y370150D01*
X193092Y369701D01*
X192915Y369151D01*
X192777Y368501D01*
X192679Y367751D01*
X192620Y366900D01*
X192600Y365951D01*
X187600D01*
X187580Y366900D01*
X187423Y368501D01*
X187285Y369151D01*
X187108Y369701D01*
X186891Y370150D01*
X186635Y370500D01*
X186339Y370751D01*
X186005Y370900D01*
X185630Y370951D01*
X194569D01*
X194195Y370900D01*
D02*
G37*
G36*
X394613Y366809D02*
X394308Y366694D01*
X394039Y366503D01*
X393806Y366235D01*
X393608Y365891D01*
X393447Y365470D01*
X393321Y364973D01*
X393232Y364400D01*
X393178Y363750D01*
X393160Y363023D01*
X389160D01*
X389142Y363750D01*
X389088Y364400D01*
X388999Y364973D01*
X388873Y365470D01*
X388712Y365891D01*
X388514Y366235D01*
X388281Y366503D01*
X388012Y366694D01*
X387707Y366809D01*
X387367Y366847D01*
X394953D01*
X394613Y366809D01*
D02*
G37*
G36*
X345250Y366807D02*
X344910Y366686D01*
X344610Y366484D01*
X344350Y366202D01*
X344130Y365839D01*
X343950Y365396D01*
X343810Y364872D01*
X343710Y364268D01*
X343650Y363582D01*
X343630Y362817D01*
X339630D01*
X339610Y363582D01*
X339550Y364268D01*
X339450Y364872D01*
X339310Y365396D01*
X339130Y365839D01*
X338910Y366202D01*
X338650Y366484D01*
X338350Y366686D01*
X338010Y366807D01*
X337630Y366847D01*
X345630D01*
X345250Y366807D01*
D02*
G37*
G36*
X327905Y353914D02*
X327950Y353399D01*
X328025Y352944D01*
X328130Y352550D01*
X328265Y352217D01*
X328430Y351944D01*
X328625Y351732D01*
X328850Y351580D01*
X329105Y351489D01*
X329390Y351459D01*
X323390D01*
X323675Y351489D01*
X323930Y351580D01*
X324155Y351732D01*
X324350Y351944D01*
X324515Y352217D01*
X324650Y352550D01*
X324755Y352944D01*
X324830Y353399D01*
X324875Y353914D01*
X324890Y354490D01*
X327890D01*
X327905Y353914D01*
D02*
G37*
G36*
X233693Y348671D02*
X233472Y348396D01*
X233277Y348106D01*
X233108Y347802D01*
X232965Y347483D01*
X232848Y347151D01*
X232757Y346805D01*
X232692Y346445D01*
X232653Y346070D01*
X232640Y345682D01*
X229640D01*
X229627Y346070D01*
X229588Y346445D01*
X229523Y346805D01*
X229432Y347151D01*
X229315Y347483D01*
X229172Y347802D01*
X229003Y348106D01*
X228808Y348396D01*
X228587Y348671D01*
X228340Y348933D01*
X233940D01*
X233693Y348671D01*
D02*
G37*
G36*
X242820Y348955D02*
X242880Y348515D01*
X242980Y348082D01*
X243120Y347653D01*
X243300Y347231D01*
X243520Y346814D01*
X243780Y346402D01*
X244080Y345996D01*
X244420Y345596D01*
X244800Y345201D01*
X237800D01*
X238180Y345596D01*
X238520Y345996D01*
X238820Y346402D01*
X239080Y346814D01*
X239300Y347231D01*
X239480Y347653D01*
X239620Y348082D01*
X239720Y348515D01*
X239780Y348955D01*
X239800Y349400D01*
X242800D01*
X242820Y348955D01*
D02*
G37*
G36*
X223770D02*
X223830Y348515D01*
X223930Y348082D01*
X224070Y347653D01*
X224250Y347231D01*
X224470Y346814D01*
X224730Y346402D01*
X225030Y345996D01*
X225370Y345596D01*
X225750Y345201D01*
X218750D01*
X219130Y345596D01*
X219470Y345996D01*
X219770Y346402D01*
X220030Y346814D01*
X220250Y347231D01*
X220430Y347653D01*
X220570Y348082D01*
X220670Y348515D01*
X220730Y348955D01*
X220750Y349400D01*
X223750D01*
X223770Y348955D01*
D02*
G37*
G36*
X382169Y349640D02*
X382290Y349300D01*
X382492Y349000D01*
X382774Y348740D01*
X383137Y348520D01*
X383580Y348340D01*
X384104Y348200D01*
X384709Y348100D01*
X385394Y348040D01*
X386160Y348020D01*
Y344020D01*
X385394Y344000D01*
X384709Y343940D01*
X384104Y343840D01*
X383580Y343700D01*
X383137Y343520D01*
X382774Y343300D01*
X382492Y343040D01*
X382290Y342740D01*
X382169Y342400D01*
X382129Y342020D01*
Y350020D01*
X382169Y349640D01*
D02*
G37*
G36*
X327835Y340521D02*
X327580Y340430D01*
X327355Y340280D01*
X327160Y340070D01*
X326995Y339800D01*
X326860Y339470D01*
X326755Y339081D01*
X326680Y338630D01*
X326635Y338120D01*
X326620Y337551D01*
X323620D01*
X323605Y338120D01*
X323560Y338630D01*
X323485Y339081D01*
X323380Y339470D01*
X323245Y339800D01*
X323080Y340070D01*
X322885Y340280D01*
X322660Y340430D01*
X322405Y340521D01*
X322120Y340550D01*
X328120D01*
X327835Y340521D01*
D02*
G37*
G36*
X406810Y305224D02*
X406870Y304538D01*
X406970Y303934D01*
X407110Y303410D01*
X407290Y302967D01*
X407510Y302604D01*
X407770Y302322D01*
X408070Y302120D01*
X408410Y301999D01*
X408790Y301959D01*
X400790D01*
X401170Y301999D01*
X401510Y302120D01*
X401810Y302322D01*
X402070Y302604D01*
X402290Y302967D01*
X402470Y303410D01*
X402610Y303934D01*
X402710Y304538D01*
X402770Y305224D01*
X402790Y305989D01*
X406790D01*
X406810Y305224D01*
D02*
G37*
G36*
X326633Y300360D02*
X326672Y299985D01*
X326737Y299625D01*
X326828Y299279D01*
X326945Y298947D01*
X327088Y298629D01*
X327257Y298324D01*
X327452Y298034D01*
X327673Y297759D01*
X327920Y297497D01*
X322320D01*
X322567Y297759D01*
X322788Y298034D01*
X322983Y298324D01*
X323152Y298629D01*
X323295Y298947D01*
X323412Y299279D01*
X323503Y299625D01*
X323568Y299985D01*
X323607Y300360D01*
X323620Y300748D01*
X326620D01*
X326633Y300360D01*
D02*
G37*
G36*
X387838Y292208D02*
X388038Y292072D01*
X388267Y291952D01*
X388524Y291848D01*
X388811Y291760D01*
X389126Y291688D01*
X389470Y291632D01*
X389842Y291592D01*
X390674Y291560D01*
Y287560D01*
X390244Y287552D01*
X389470Y287488D01*
X389126Y287432D01*
X388811Y287360D01*
X388524Y287272D01*
X388267Y287168D01*
X388038Y287048D01*
X387838Y286912D01*
X387667Y286760D01*
Y292360D01*
X387838Y292208D01*
D02*
G37*
G36*
X399851Y285560D02*
X399811Y285940D01*
X399690Y286280D01*
X399488Y286580D01*
X399206Y286840D01*
X398843Y287060D01*
X398400Y287240D01*
X397876Y287380D01*
X397271Y287480D01*
X396586Y287540D01*
X395821Y287560D01*
Y291560D01*
X396586Y291580D01*
X397271Y291640D01*
X397876Y291740D01*
X398400Y291880D01*
X398843Y292060D01*
X399206Y292280D01*
X399488Y292540D01*
X399690Y292840D01*
X399811Y293180D01*
X399851Y293560D01*
Y285560D01*
D02*
G37*
G36*
X453115Y287229D02*
X453220Y286040D01*
X453395Y284989D01*
X453640Y284079D01*
X453955Y283309D01*
X454340Y282680D01*
X454795Y282190D01*
X455320Y281840D01*
X455915Y281630D01*
X456580Y281560D01*
X442580D01*
X443245Y281630D01*
X443840Y281840D01*
X444365Y282190D01*
X444820Y282680D01*
X445205Y283309D01*
X445520Y284079D01*
X445765Y284989D01*
X445940Y286040D01*
X446045Y287229D01*
X446080Y288559D01*
X453080D01*
X453115Y287229D01*
D02*
G37*
G36*
X426675Y285609D02*
X426750Y284760D01*
X426875Y284009D01*
X427050Y283360D01*
X427275Y282810D01*
X427550Y282360D01*
X427875Y282010D01*
X428250Y281759D01*
X428675Y281609D01*
X429150Y281560D01*
X419150D01*
X419625Y281609D01*
X420050Y281759D01*
X420425Y282010D01*
X420750Y282360D01*
X421025Y282810D01*
X421250Y283360D01*
X421425Y284009D01*
X421550Y284760D01*
X421625Y285609D01*
X421650Y286560D01*
X426650D01*
X426675Y285609D01*
D02*
G37*
G36*
X303769Y286830D02*
X303890Y286490D01*
X304092Y286190D01*
X304374Y285930D01*
X304737Y285710D01*
X305180Y285530D01*
X305704Y285390D01*
X306308Y285290D01*
X306994Y285230D01*
X307759Y285210D01*
Y281210D01*
X306994Y281190D01*
X306308Y281130D01*
X305704Y281030D01*
X305180Y280890D01*
X304737Y280710D01*
X304374Y280490D01*
X304092Y280230D01*
X303890Y279930D01*
X303769Y279590D01*
X303729Y279210D01*
Y287210D01*
X303769Y286830D01*
D02*
G37*
G36*
X414211Y278104D02*
X414759Y278090D01*
Y273090D01*
X414211Y273084D01*
Y270590D01*
X414161Y271065D01*
X414010Y271490D01*
X413758Y271865D01*
X413406Y272190D01*
X412953Y272465D01*
X412400Y272690D01*
X411746Y272865D01*
X411477Y272910D01*
X411009Y272830D01*
X410560Y272716D01*
X410210Y272581D01*
X409959Y272425D01*
X409809Y272248D01*
X409759Y272050D01*
X409290Y272001D01*
X408871Y271850D01*
X408500Y271600D01*
X408179Y271250D01*
X407907Y270800D01*
X407685Y270250D01*
X407512Y269601D01*
X407389Y268850D01*
X407315Y268001D01*
X407290Y267050D01*
X402290D01*
X402265Y268001D01*
X402191Y268850D01*
X402068Y269601D01*
X401895Y270250D01*
X401673Y270800D01*
X401401Y271250D01*
X401080Y271600D01*
X400709Y271850D01*
X400290Y272001D01*
X399821Y272050D01*
X409759D01*
X409756Y273075D01*
X409180Y273090D01*
Y278090D01*
X409738Y278105D01*
X409729Y280590D01*
X409781Y280115D01*
X409933Y279690D01*
X410186Y279315D01*
X410538Y278990D01*
X410991Y278715D01*
X411544Y278490D01*
X411972Y278375D01*
X412400Y278490D01*
X412953Y278715D01*
X413406Y278990D01*
X413758Y279315D01*
X414010Y279690D01*
X414161Y280115D01*
X414211Y280590D01*
Y278104D01*
D02*
G37*
G36*
X182595Y275210D02*
X182792Y272969D01*
X182965Y272059D01*
X183187Y271290D01*
X183459Y270660D01*
X183780Y270170D01*
X184151Y269820D01*
X184570Y269610D01*
X185040Y269540D01*
X173100D01*
X173570Y269610D01*
X173990Y269820D01*
X174360Y270170D01*
X174681Y270660D01*
X174953Y271290D01*
X175175Y272059D01*
X175348Y272969D01*
X175471Y274020D01*
X175545Y275210D01*
X175570Y276539D01*
X182570D01*
X182595Y275210D01*
D02*
G37*
G36*
X455239Y269579D02*
X454644Y269367D01*
X454119Y269015D01*
X453664Y268522D01*
X453279Y267889D01*
X452964Y267116D01*
X452719Y266203D01*
X452544Y265149D01*
X452452Y264104D01*
X452626Y262129D01*
X452799Y261220D01*
X453021Y260450D01*
X453293Y259820D01*
X453614Y259329D01*
X453984Y258979D01*
X454404Y258769D01*
X454874Y258699D01*
X442934D01*
X443404Y258769D01*
X443824Y258979D01*
X444194Y259329D01*
X444515Y259820D01*
X444787Y260450D01*
X445009Y261220D01*
X445182Y262129D01*
X445305Y263179D01*
X445361Y264080D01*
X445275Y265140D01*
X445114Y266190D01*
X444888Y267101D01*
X444598Y267871D01*
X444244Y268500D01*
X443825Y268990D01*
X443341Y269340D01*
X442793Y269550D01*
X442180Y269620D01*
X455904Y269651D01*
X455239Y269579D01*
D02*
G37*
G36*
X353798Y250544D02*
X353862Y249770D01*
X353918Y249426D01*
X353990Y249111D01*
X354078Y248824D01*
X354182Y248567D01*
X354302Y248338D01*
X354438Y248138D01*
X354590Y247967D01*
X348990D01*
X349142Y248138D01*
X349278Y248338D01*
X349398Y248567D01*
X349502Y248824D01*
X349590Y249111D01*
X349662Y249426D01*
X349718Y249770D01*
X349758Y250142D01*
X349790Y250974D01*
X353790D01*
X353798Y250544D01*
D02*
G37*
G36*
X421935Y247730D02*
X421884Y248205D01*
X421735Y248630D01*
X421484Y249005D01*
X421134Y249330D01*
X420685Y249605D01*
X420135Y249830D01*
X419484Y250005D01*
X418735Y250130D01*
X417884Y250205D01*
X416935Y250230D01*
Y255230D01*
X417884Y255255D01*
X418735Y255330D01*
X419484Y255455D01*
X420135Y255630D01*
X420685Y255855D01*
X421134Y256130D01*
X421484Y256455D01*
X421735Y256830D01*
X421884Y257255D01*
X421935Y257730D01*
Y247730D01*
D02*
G37*
G36*
X407340Y259280D02*
X407490Y258430D01*
X407740Y257680D01*
X408090Y257030D01*
X408540Y256480D01*
X409090Y256030D01*
X409740Y255680D01*
X410490Y255430D01*
X411340Y255280D01*
X412290Y255230D01*
Y250230D01*
X411340Y250180D01*
X410490Y250030D01*
X409740Y249780D01*
X409090Y249430D01*
X408540Y248980D01*
X408090Y248430D01*
X407740Y247780D01*
X407490Y247030D01*
X407340Y246180D01*
X407290Y245230D01*
X402290Y252730D01*
X407290Y260230D01*
X407340Y259280D01*
D02*
G37*
G36*
X354438Y242082D02*
X354302Y241882D01*
X354182Y241653D01*
X354078Y241396D01*
X353990Y241109D01*
X353918Y240794D01*
X353862Y240450D01*
X353822Y240078D01*
X353790Y239246D01*
X349790D01*
X349782Y239676D01*
X349718Y240450D01*
X349662Y240794D01*
X349590Y241109D01*
X349502Y241396D01*
X349398Y241653D01*
X349278Y241882D01*
X349142Y242082D01*
X348990Y242253D01*
X354590D01*
X354438Y242082D01*
D02*
G37*
G36*
X329038D02*
X328902Y241882D01*
X328782Y241653D01*
X328678Y241396D01*
X328590Y241109D01*
X328518Y240794D01*
X328462Y240450D01*
X328422Y240078D01*
X328390Y239246D01*
X324390D01*
X324382Y239676D01*
X324318Y240450D01*
X324262Y240794D01*
X324190Y241109D01*
X324102Y241396D01*
X323998Y241653D01*
X323878Y241882D01*
X323742Y242082D01*
X323590Y242253D01*
X329190D01*
X329038Y242082D01*
D02*
G37*
G36*
X454404Y246691D02*
X453984Y246481D01*
X453614Y246131D01*
X453293Y245641D01*
X453021Y245011D01*
X452799Y244240D01*
X452626Y243330D01*
X452503Y242281D01*
X452490Y242081D01*
X452626Y240539D01*
X452799Y239629D01*
X453021Y238860D01*
X453293Y238230D01*
X453614Y237740D01*
X453984Y237390D01*
X454404Y237180D01*
X454874Y237110D01*
X442934D01*
X443404Y237180D01*
X443824Y237390D01*
X444194Y237740D01*
X444515Y238230D01*
X444787Y238860D01*
X445009Y239629D01*
X445182Y240539D01*
X445305Y241590D01*
X445318Y241789D01*
X445182Y243330D01*
X445009Y244240D01*
X444787Y245011D01*
X444515Y245641D01*
X444194Y246131D01*
X443824Y246481D01*
X443404Y246691D01*
X442934Y246761D01*
X454874D01*
X454404Y246691D01*
D02*
G37*
G36*
X13970Y241300D02*
X36830Y241300D01*
X36830Y241300D01*
X37840Y241300D01*
X39708Y240527D01*
X41137Y239098D01*
X41910Y237230D01*
X41910Y236220D01*
X41910Y223520D01*
X42032Y222281D01*
X42980Y219992D01*
X44732Y218240D01*
X47021Y217292D01*
X48260Y217170D01*
X99060Y217170D01*
X99060Y208280D01*
Y208280D01*
X99109Y207784D01*
X99488Y206868D01*
X100189Y206168D01*
X101104Y205789D01*
X101600Y205740D01*
X115570D01*
X115570Y205740D01*
X116328Y205740D01*
X117728Y205160D01*
X118800Y204088D01*
X119380Y202688D01*
X119380Y201930D01*
X119380Y196850D01*
X119380Y196850D01*
X119380Y196344D01*
X118993Y195411D01*
X118279Y194697D01*
X117345Y194310D01*
X116840Y194310D01*
X54610D01*
X54610Y194310D01*
X53599Y194310D01*
X51732Y195083D01*
X50303Y196512D01*
X49530Y198379D01*
X49530Y199390D01*
X49530Y201930D01*
X49530Y201930D01*
X49457Y202673D01*
X48888Y204046D01*
X47837Y205098D01*
X46463Y205667D01*
X45720Y205740D01*
X16510Y205740D01*
X16510D01*
X15760Y205740D01*
X14287Y206033D01*
X12901Y206607D01*
X11652Y207441D01*
X10591Y208502D01*
X9757Y209750D01*
X9183Y211137D01*
X8890Y212609D01*
X8890Y213360D01*
X8890Y236220D01*
D01*
Y236220D01*
Y236220D01*
X8890Y237230D01*
X9663Y239098D01*
X11092Y240527D01*
X12959Y241300D01*
X13970Y241300D01*
D02*
G37*
G36*
X149670Y237861D02*
X149330Y237740D01*
X149030Y237538D01*
X148770Y237256D01*
X148550Y236893D01*
X148370Y236450D01*
X148230Y235926D01*
X148130Y235322D01*
X148070Y234636D01*
X148050Y233871D01*
X144050D01*
X144030Y234636D01*
X143970Y235322D01*
X143870Y235926D01*
X143730Y236450D01*
X143550Y236893D01*
X143330Y237256D01*
X143070Y237538D01*
X142770Y237740D01*
X142430Y237861D01*
X142050Y237901D01*
X150050D01*
X149670Y237861D01*
D02*
G37*
G36*
X380705Y239160D02*
X380925Y236010D01*
X381057Y235240D01*
X381219Y234610D01*
X381410Y234119D01*
X381631Y233769D01*
X381880Y233559D01*
X382160Y233489D01*
X372220D01*
X372500Y233559D01*
X372749Y233769D01*
X372970Y234119D01*
X373161Y234610D01*
X373323Y235240D01*
X373455Y236010D01*
X373558Y236919D01*
X373675Y239160D01*
X373690Y240490D01*
X380690D01*
X380705Y239160D01*
D02*
G37*
G36*
X353810Y236724D02*
X353870Y236038D01*
X353970Y235434D01*
X354110Y234910D01*
X354290Y234467D01*
X354510Y234104D01*
X354770Y233822D01*
X355070Y233620D01*
X355410Y233499D01*
X355790Y233459D01*
X347790D01*
X348170Y233499D01*
X348510Y233620D01*
X348810Y233822D01*
X349070Y234104D01*
X349290Y234467D01*
X349470Y234910D01*
X349610Y235434D01*
X349710Y236038D01*
X349770Y236724D01*
X349790Y237489D01*
X353790D01*
X353810Y236724D01*
D02*
G37*
G36*
X328410D02*
X328470Y236038D01*
X328570Y235434D01*
X328710Y234910D01*
X328890Y234467D01*
X329110Y234104D01*
X329370Y233822D01*
X329670Y233620D01*
X330010Y233499D01*
X330390Y233459D01*
X322390D01*
X322770Y233499D01*
X323110Y233620D01*
X323410Y233822D01*
X323670Y234104D01*
X323890Y234467D01*
X324070Y234910D01*
X324210Y235434D01*
X324310Y236038D01*
X324370Y236724D01*
X324390Y237489D01*
X328390D01*
X328410Y236724D01*
D02*
G37*
G36*
X182690Y236560D02*
X182350Y236441D01*
X182050Y236241D01*
X181790Y235961D01*
X181570Y235600D01*
X181390Y235161D01*
X181250Y234641D01*
X181150Y234041D01*
X181148Y234015D01*
X181150Y233988D01*
X181250Y233384D01*
X181390Y232860D01*
X181570Y232417D01*
X181790Y232054D01*
X182050Y231772D01*
X182350Y231570D01*
X182690Y231449D01*
X183070Y231409D01*
X175070D01*
X175450Y231449D01*
X175790Y231570D01*
X176090Y231772D01*
X176350Y232054D01*
X176570Y232417D01*
X176750Y232860D01*
X176890Y233384D01*
X176990Y233988D01*
X176992Y234015D01*
X176990Y234041D01*
X176890Y234641D01*
X176750Y235161D01*
X176570Y235600D01*
X176350Y235961D01*
X176090Y236241D01*
X175790Y236441D01*
X175450Y236560D01*
X175070Y236600D01*
X183070D01*
X182690Y236560D01*
D02*
G37*
G36*
X421935Y226140D02*
X421884Y226615D01*
X421735Y227040D01*
X421484Y227415D01*
X421134Y227740D01*
X420685Y228015D01*
X420135Y228240D01*
X419484Y228415D01*
X418735Y228540D01*
X417884Y228615D01*
X416935Y228640D01*
Y233640D01*
X417884Y233665D01*
X418735Y233740D01*
X419484Y233865D01*
X420135Y234040D01*
X420685Y234265D01*
X421134Y234540D01*
X421484Y234865D01*
X421735Y235240D01*
X421884Y235665D01*
X421935Y236140D01*
Y226140D01*
D02*
G37*
G36*
X140450Y226280D02*
X140510Y225599D01*
X140610Y225000D01*
X140750Y224480D01*
X140930Y224040D01*
X141150Y223680D01*
X141410Y223400D01*
X141710Y223200D01*
X142050Y223080D01*
X142430Y223040D01*
X134430Y223009D01*
X134810Y223051D01*
X135150Y223173D01*
X135450Y223375D01*
X135710Y223658D01*
X135930Y224021D01*
X136110Y224464D01*
X136250Y224987D01*
X136350Y225591D01*
X136410Y226275D01*
X136430Y227040D01*
X140430D01*
X140450Y226280D01*
D02*
G37*
G36*
X193451Y220876D02*
X193411Y221256D01*
X193290Y221596D01*
X193088Y221896D01*
X192806Y222156D01*
X192443Y222376D01*
X192000Y222556D01*
X191476Y222696D01*
X190872Y222796D01*
X190186Y222856D01*
X189421Y222876D01*
Y226876D01*
X190186Y226896D01*
X190872Y226956D01*
X191476Y227056D01*
X192000Y227196D01*
X192443Y227376D01*
X192806Y227596D01*
X193088Y227856D01*
X193290Y228156D01*
X193411Y228496D01*
X193451Y228876D01*
Y220876D01*
D02*
G37*
G36*
X183779Y228496D02*
X183900Y228156D01*
X184102Y227856D01*
X184384Y227596D01*
X184747Y227376D01*
X185190Y227196D01*
X185714Y227056D01*
X186318Y226956D01*
X187004Y226896D01*
X187769Y226876D01*
Y222876D01*
X187004Y222856D01*
X186318Y222796D01*
X185714Y222696D01*
X185190Y222556D01*
X184747Y222376D01*
X184384Y222156D01*
X184102Y221896D01*
X183900Y221596D01*
X183779Y221256D01*
X183739Y220876D01*
Y228876D01*
X183779Y228496D01*
D02*
G37*
G36*
X330010Y222511D02*
X329670Y222390D01*
X329370Y222190D01*
X329110Y221910D01*
X328890Y221551D01*
X328710Y221110D01*
X328570Y220590D01*
X328470Y219991D01*
X328410Y219310D01*
X328390Y218550D01*
X324390D01*
X324370Y219310D01*
X324310Y219991D01*
X324210Y220590D01*
X324070Y221110D01*
X323890Y221551D01*
X323670Y221910D01*
X323410Y222190D01*
X323110Y222390D01*
X322770Y222511D01*
X322390Y222551D01*
X330390D01*
X330010Y222511D01*
D02*
G37*
G36*
X454404Y225100D02*
X453984Y224890D01*
X453614Y224541D01*
X453293Y224051D01*
X453021Y223421D01*
X452799Y222651D01*
X452626Y221740D01*
X452503Y220690D01*
X452429Y219501D01*
X452404Y218171D01*
X445404D01*
X445379Y219501D01*
X445182Y221740D01*
X445009Y222651D01*
X444787Y223421D01*
X444515Y224051D01*
X444194Y224541D01*
X443824Y224890D01*
X443404Y225100D01*
X442934Y225170D01*
X454874D01*
X454404Y225100D01*
D02*
G37*
G36*
X381880Y222488D02*
X381631Y222300D01*
X381410Y221988D01*
X381219Y221550D01*
X381057Y220987D01*
X380925Y220299D01*
X380822Y219486D01*
X380705Y217485D01*
X380690Y216297D01*
X373690D01*
X373675Y217485D01*
X373455Y220299D01*
X373323Y220987D01*
X373161Y221550D01*
X372970Y221988D01*
X372749Y222300D01*
X372500Y222488D01*
X372220Y222551D01*
X382160D01*
X381880Y222488D01*
D02*
G37*
G36*
X121920Y283210D02*
X146050D01*
Y262890D01*
X132079Y262889D01*
X131697Y262852D01*
X130990Y262559D01*
X130449Y262018D01*
X130156Y261311D01*
X130119Y260928D01*
X130119Y236220D01*
Y215208D01*
X130118Y215208D01*
X130119Y214526D01*
X129852Y213188D01*
X129330Y211927D01*
X128572Y210792D01*
X127607Y209827D01*
X126472Y209069D01*
X125211Y208546D01*
X123872Y208280D01*
X123190Y208280D01*
X106680D01*
Y213360D01*
X116840D01*
X117336Y213409D01*
X118251Y213788D01*
X118952Y214489D01*
X119331Y215404D01*
X119380Y215900D01*
Y233680D01*
X119380Y233680D01*
X119331Y234175D01*
X118952Y235091D01*
X118251Y235792D01*
X117336Y236171D01*
X116840Y236220D01*
X116840Y261620D01*
X116840Y261620D01*
X116791Y262115D01*
X116412Y263031D01*
X115711Y263732D01*
X114796Y264111D01*
X114300Y264160D01*
X86360Y264160D01*
Y283657D01*
X121920D01*
Y283210D01*
D02*
G37*
G36*
X132491Y208100D02*
X132477Y208106D01*
X132437Y208112D01*
X132370Y208117D01*
X131409Y208132D01*
X131155Y208132D01*
Y210132D01*
X131409Y210136D01*
X132010Y210186D01*
X132157Y210216D01*
X132277Y210253D01*
X132370Y210297D01*
X132437Y210347D01*
X132477Y210404D01*
X132491Y210468D01*
Y208100D01*
D02*
G37*
G36*
X260573Y213170D02*
X260694Y212830D01*
X260896Y212530D01*
X261178Y212270D01*
X261541Y212050D01*
X261984Y211870D01*
X262508Y211730D01*
X263113Y211630D01*
X263798Y211570D01*
X264564Y211550D01*
Y207550D01*
X263798Y207530D01*
X263113Y207470D01*
X262508Y207370D01*
X261984Y207230D01*
X261541Y207050D01*
X261178Y206830D01*
X260896Y206570D01*
X260694Y206270D01*
X260573Y205930D01*
X260533Y205550D01*
Y213550D01*
X260573Y213170D01*
D02*
G37*
G36*
X193451Y199876D02*
X193411Y200256D01*
X193290Y200596D01*
X193088Y200896D01*
X192806Y201156D01*
X192443Y201376D01*
X192000Y201556D01*
X191476Y201696D01*
X190872Y201796D01*
X190186Y201856D01*
X189421Y201876D01*
Y205876D01*
X190186Y205896D01*
X190872Y205956D01*
X191476Y206056D01*
X192000Y206196D01*
X192443Y206376D01*
X192806Y206596D01*
X193088Y206856D01*
X193290Y207156D01*
X193411Y207496D01*
X193451Y207876D01*
Y199876D01*
D02*
G37*
G36*
X183779Y207496D02*
X183900Y207156D01*
X184102Y206856D01*
X184384Y206596D01*
X184747Y206376D01*
X185190Y206196D01*
X185714Y206056D01*
X186318Y205956D01*
X187004Y205896D01*
X187769Y205876D01*
Y201876D01*
X187004Y201856D01*
X186318Y201796D01*
X185714Y201696D01*
X185190Y201556D01*
X184747Y201376D01*
X184384Y201156D01*
X184102Y200896D01*
X183900Y200596D01*
X183779Y200256D01*
X183739Y199876D01*
Y207876D01*
X183779Y207496D01*
D02*
G37*
G36*
X171861Y199876D02*
X171821Y200256D01*
X171700Y200596D01*
X171498Y200896D01*
X171216Y201156D01*
X170853Y201376D01*
X170410Y201556D01*
X169886Y201696D01*
X169281Y201796D01*
X168596Y201856D01*
X167830Y201876D01*
Y205876D01*
X168596Y205896D01*
X169281Y205956D01*
X169886Y206056D01*
X170410Y206196D01*
X170853Y206376D01*
X171216Y206596D01*
X171498Y206856D01*
X171700Y207156D01*
X171821Y207496D01*
X171861Y207876D01*
Y199876D01*
D02*
G37*
G36*
X142470Y203903D02*
X142590Y203780D01*
X142790Y203673D01*
X143070Y203579D01*
X143430Y203500D01*
X143870Y203435D01*
X144990Y203349D01*
X146430Y203320D01*
Y199320D01*
X145670Y199313D01*
X143430Y199140D01*
X143070Y199061D01*
X142790Y198967D01*
X142590Y198860D01*
X142470Y198737D01*
X142430Y198600D01*
Y204040D01*
X142470Y203903D01*
D02*
G37*
G36*
X181420Y198461D02*
X181080Y198340D01*
X180780Y198141D01*
X180520Y197861D01*
X180300Y197500D01*
X180120Y197061D01*
X179980Y196541D01*
X179880Y195940D01*
X179820Y195261D01*
X179812Y194943D01*
X179820Y194624D01*
X179880Y193939D01*
X179980Y193334D01*
X180120Y192810D01*
X180300Y192367D01*
X180520Y192004D01*
X180780Y191722D01*
X181080Y191520D01*
X181420Y191399D01*
X181800Y191359D01*
X173800D01*
X174180Y191399D01*
X174520Y191520D01*
X174820Y191722D01*
X175080Y192004D01*
X175300Y192367D01*
X175480Y192810D01*
X175620Y193334D01*
X175720Y193939D01*
X175780Y194624D01*
X175788Y194943D01*
X175780Y195261D01*
X175720Y195940D01*
X175620Y196541D01*
X175480Y197061D01*
X175300Y197500D01*
X175080Y197861D01*
X174820Y198141D01*
X174520Y198340D01*
X174180Y198461D01*
X173800Y198500D01*
X181800D01*
X181420Y198461D01*
D02*
G37*
G36*
X295390Y192154D02*
X295450Y191469D01*
X295550Y190864D01*
X295690Y190340D01*
X295870Y189897D01*
X296090Y189534D01*
X296350Y189252D01*
X296650Y189050D01*
X296990Y188929D01*
X297370Y188889D01*
X289370D01*
X289750Y188929D01*
X290090Y189050D01*
X290390Y189252D01*
X290650Y189534D01*
X290870Y189897D01*
X291050Y190340D01*
X291190Y190864D01*
X291290Y191469D01*
X291350Y192154D01*
X291370Y192920D01*
X295370D01*
X295390Y192154D01*
D02*
G37*
G36*
X250770Y187215D02*
X250846Y187048D01*
X250972Y186901D01*
X251149Y186773D01*
X251376Y186665D01*
X251654Y186577D01*
X251982Y186508D01*
X252362Y186459D01*
X252791Y186430D01*
X253271Y186420D01*
Y184420D01*
X252791Y184410D01*
X251982Y184332D01*
X251654Y184263D01*
X251376Y184175D01*
X251149Y184067D01*
X250972Y183939D01*
X250846Y183792D01*
X250770Y183625D01*
X250744Y183439D01*
Y187401D01*
X250770Y187215D01*
D02*
G37*
G36*
X150290Y181420D02*
X150251Y181800D01*
X150131Y182140D01*
X149930Y182440D01*
X149650Y182700D01*
X149291Y182920D01*
X148850Y183100D01*
X148330Y183240D01*
X147731Y183340D01*
X147051Y183400D01*
X146291Y183420D01*
Y187420D01*
X147051Y187440D01*
X147731Y187500D01*
X148330Y187600D01*
X148850Y187740D01*
X149291Y187920D01*
X149650Y188140D01*
X149930Y188400D01*
X150131Y188700D01*
X150251Y189040D01*
X150290Y189420D01*
Y181420D01*
D02*
G37*
G36*
X162229Y179450D02*
X161943Y179401D01*
X161686Y179251D01*
X161460Y179000D01*
X161263Y178650D01*
X161097Y178200D01*
X160961Y177651D01*
X160856Y177001D01*
X160780Y176250D01*
X160720Y174450D01*
X155720D01*
X155695Y175405D01*
X155620Y176259D01*
X155495Y177013D01*
X155320Y177666D01*
X155095Y178219D01*
X154820Y178672D01*
X154495Y179025D01*
X154120Y179277D01*
X153695Y179429D01*
X153220Y179481D01*
X162229Y179450D01*
D02*
G37*
G36*
X89311Y166180D02*
X89271Y166560D01*
X89150Y166900D01*
X88948Y167200D01*
X88666Y167460D01*
X88303Y167680D01*
X87860Y167860D01*
X87336Y168000D01*
X86732Y168100D01*
X86046Y168160D01*
X85702Y168169D01*
X85359Y168160D01*
X84679Y168100D01*
X84080Y168000D01*
X83560Y167860D01*
X83119Y167680D01*
X82760Y167460D01*
X82479Y167200D01*
X82280Y166900D01*
X82160Y166560D01*
X82120Y166180D01*
Y174180D01*
X82160Y173800D01*
X82280Y173460D01*
X82479Y173160D01*
X82760Y172900D01*
X83119Y172680D01*
X83560Y172500D01*
X84080Y172360D01*
X84679Y172260D01*
X85359Y172200D01*
X85702Y172191D01*
X86046Y172200D01*
X86732Y172260D01*
X87336Y172360D01*
X87860Y172500D01*
X88303Y172680D01*
X88666Y172900D01*
X88948Y173160D01*
X89150Y173460D01*
X89271Y173800D01*
X89311Y174180D01*
Y166180D01*
D02*
G37*
G36*
X250770Y174515D02*
X250846Y174348D01*
X250972Y174201D01*
X251149Y174073D01*
X251376Y173965D01*
X251654Y173877D01*
X251982Y173808D01*
X252362Y173759D01*
X252791Y173730D01*
X253271Y173720D01*
Y171720D01*
X252791Y171710D01*
X251982Y171632D01*
X251654Y171563D01*
X251376Y171475D01*
X251149Y171367D01*
X250972Y171239D01*
X250846Y171092D01*
X250770Y170925D01*
X250744Y170739D01*
Y174701D01*
X250770Y174515D01*
D02*
G37*
G36*
X313373Y169920D02*
X313202Y170072D01*
X313002Y170208D01*
X312773Y170328D01*
X312516Y170432D01*
X312229Y170520D01*
X311914Y170592D01*
X311570Y170648D01*
X311198Y170688D01*
X310366Y170720D01*
Y174720D01*
X310796Y174728D01*
X311570Y174792D01*
X311914Y174848D01*
X312229Y174920D01*
X312516Y175008D01*
X312773Y175112D01*
X313002Y175232D01*
X313202Y175368D01*
X313373Y175520D01*
Y169920D01*
D02*
G37*
G36*
X300972Y175555D02*
X301313Y175380D01*
X301702Y175225D01*
X302139Y175091D01*
X302624Y174978D01*
X303156Y174885D01*
X304366Y174761D01*
X305044Y174730D01*
X305769Y174720D01*
Y170720D01*
X305044Y170710D01*
X303156Y170555D01*
X302624Y170462D01*
X302139Y170349D01*
X301702Y170215D01*
X301313Y170060D01*
X300972Y169885D01*
X300680Y169689D01*
Y175751D01*
X300972Y175555D01*
D02*
G37*
G36*
X160745Y171534D02*
X160820Y170679D01*
X160945Y169924D01*
X161120Y169270D01*
X161345Y168717D01*
X161620Y168264D01*
X161945Y167912D01*
X162320Y167660D01*
X162745Y167509D01*
X163220Y167459D01*
X153220D01*
X153695Y167509D01*
X154120Y167660D01*
X154495Y167912D01*
X154820Y168264D01*
X155095Y168717D01*
X155320Y169270D01*
X155495Y169924D01*
X155620Y170679D01*
X155695Y171534D01*
X155720Y172489D01*
X160720D01*
X160745Y171534D01*
D02*
G37*
G36*
X101229Y172530D02*
X101350Y172190D01*
X101552Y171890D01*
X101834Y171630D01*
X102197Y171410D01*
X102640Y171230D01*
X103164Y171090D01*
X103769Y170990D01*
X104454Y170930D01*
X105180Y170911D01*
X105861Y170920D01*
X107661Y171065D01*
X108101Y171152D01*
X108461Y171259D01*
X108741Y171385D01*
X108940Y171530D01*
X109060Y171695D01*
X109101Y171880D01*
Y165940D01*
X109060Y166125D01*
X108940Y166290D01*
X108741Y166435D01*
X108461Y166561D01*
X108101Y166668D01*
X107661Y166755D01*
X107141Y166823D01*
X105861Y166900D01*
X105180Y166909D01*
X104454Y166890D01*
X103769Y166830D01*
X103164Y166730D01*
X102640Y166590D01*
X102197Y166410D01*
X101834Y166190D01*
X101552Y165930D01*
X101350Y165630D01*
X101229Y165290D01*
X101189Y164910D01*
Y172910D01*
X101229Y172530D01*
D02*
G37*
G36*
X301110Y162746D02*
X301565Y162473D01*
X302045Y162232D01*
X302550Y162024D01*
X303079Y161847D01*
X303633Y161703D01*
X304211Y161590D01*
X304814Y161510D01*
X305442Y161462D01*
X306095Y161446D01*
X305275Y157446D01*
X304509Y157441D01*
X301343Y157222D01*
X301054Y157154D01*
X300833Y157076D01*
X300680Y156989D01*
Y163051D01*
X301110Y162746D01*
D02*
G37*
G36*
X230180Y156989D02*
X229912Y157163D01*
X229584Y157318D01*
X229196Y157455D01*
X228748Y157574D01*
X228239Y157674D01*
X227042Y157821D01*
X226354Y157866D01*
X224796Y157903D01*
X224988Y162903D01*
X230180Y163051D01*
Y156989D01*
D02*
G37*
G36*
X312930Y156490D02*
X312783Y156671D01*
X312605Y156834D01*
X312395Y156977D01*
X312154Y157102D01*
X311882Y157207D01*
X311578Y157293D01*
X311243Y157360D01*
X310876Y157408D01*
X310478Y157436D01*
X310049Y157446D01*
X310875Y161446D01*
X311310Y161452D01*
X312439Y161535D01*
X312756Y161586D01*
X313044Y161647D01*
X313303Y161720D01*
X313533Y161803D01*
X313733Y161898D01*
X313904Y162004D01*
X312930Y156490D01*
D02*
G37*
G36*
X187190Y163640D02*
X187309Y163300D01*
X187509Y163000D01*
X187789Y162740D01*
X188150Y162520D01*
X188589Y162340D01*
X189109Y162200D01*
X189709Y162100D01*
X190389Y162040D01*
X191150Y162020D01*
Y158020D01*
X190389Y158000D01*
X189709Y157940D01*
X189109Y157840D01*
X188589Y157700D01*
X188150Y157520D01*
X187789Y157300D01*
X187509Y157040D01*
X187309Y156740D01*
X187190Y156400D01*
X187150Y156020D01*
Y164020D01*
X187190Y163640D01*
D02*
G37*
G36*
X140190Y156431D02*
X139850Y156310D01*
X139550Y156108D01*
X139290Y155826D01*
X139070Y155463D01*
X138890Y155020D01*
X138750Y154496D01*
X138650Y153891D01*
X138590Y153206D01*
X138570Y152441D01*
X134570D01*
X134550Y153206D01*
X134490Y153891D01*
X134390Y154496D01*
X134250Y155020D01*
X134070Y155463D01*
X133850Y155826D01*
X133590Y156108D01*
X133290Y156310D01*
X132950Y156431D01*
X132570Y156471D01*
X140570D01*
X140190Y156431D01*
D02*
G37*
G36*
X470449Y158560D02*
X470570Y158220D01*
X470772Y157920D01*
X471054Y157660D01*
X471417Y157440D01*
X471860Y157260D01*
X472384Y157120D01*
X472989Y157020D01*
X473674Y156960D01*
X474440Y156940D01*
Y152940D01*
X473674Y152920D01*
X472989Y152860D01*
X472384Y152760D01*
X471860Y152620D01*
X471417Y152440D01*
X471054Y152220D01*
X470772Y151960D01*
X470570Y151660D01*
X470449Y151320D01*
X470409Y150940D01*
Y158940D01*
X470449Y158560D01*
D02*
G37*
G36*
X412241Y150940D02*
X412201Y151320D01*
X412080Y151660D01*
X411878Y151960D01*
X411596Y152220D01*
X411233Y152440D01*
X410790Y152620D01*
X410266Y152760D01*
X409661Y152860D01*
X408976Y152920D01*
X408210Y152940D01*
Y156940D01*
X408976Y156960D01*
X409661Y157020D01*
X410266Y157120D01*
X410790Y157260D01*
X411233Y157440D01*
X411596Y157660D01*
X411878Y157920D01*
X412080Y158220D01*
X412201Y158560D01*
X412241Y158940D01*
Y150940D01*
D02*
G37*
G36*
X183800Y152541D02*
X183460Y152420D01*
X183160Y152218D01*
X182900Y151936D01*
X182680Y151573D01*
X182500Y151130D01*
X182360Y150606D01*
X182260Y150001D01*
X182200Y149316D01*
X182180Y148551D01*
X178180D01*
X178160Y149316D01*
X178100Y150001D01*
X178000Y150606D01*
X177860Y151130D01*
X177680Y151573D01*
X177460Y151936D01*
X177200Y152218D01*
X176900Y152420D01*
X176560Y152541D01*
X176180Y152581D01*
X184180D01*
X183800Y152541D01*
D02*
G37*
G36*
X101239Y153705D02*
X101390Y153280D01*
X101642Y152905D01*
X101994Y152580D01*
X102447Y152305D01*
X103000Y152080D01*
X103654Y151905D01*
X104409Y151780D01*
X105240Y151707D01*
X107301Y151872D01*
X107851Y151980D01*
X108301Y152112D01*
X108651Y152268D01*
X108900Y152448D01*
X109051Y152652D01*
X109101Y152879D01*
Y146940D01*
X109051Y146891D01*
X108900Y146847D01*
X108651Y146808D01*
X108301Y146774D01*
X106650Y146703D01*
X106220Y146699D01*
Y146680D01*
X105264Y146655D01*
X104409Y146580D01*
X103654Y146455D01*
X103000Y146280D01*
X102447Y146055D01*
X101994Y145780D01*
X101642Y145455D01*
X101390Y145080D01*
X101239Y144655D01*
X101189Y144180D01*
Y154180D01*
X101239Y153705D01*
D02*
G37*
G36*
X89311Y144180D02*
X89261Y144655D01*
X89110Y145080D01*
X88858Y145455D01*
X88506Y145780D01*
X88053Y146055D01*
X87500Y146280D01*
X86846Y146455D01*
X86091Y146580D01*
X85236Y146655D01*
X84281Y146680D01*
Y151680D01*
X85236Y151705D01*
X86091Y151780D01*
X86846Y151905D01*
X87500Y152080D01*
X88053Y152305D01*
X88506Y152580D01*
X88858Y152905D01*
X89110Y153280D01*
X89261Y153705D01*
X89311Y154180D01*
Y144180D01*
D02*
G37*
G36*
X138610Y141130D02*
X138730Y140450D01*
X138930Y139850D01*
X139210Y139330D01*
X139570Y138890D01*
X140010Y138530D01*
X140530Y138250D01*
X141130Y138050D01*
X141810Y137930D01*
X142570Y137890D01*
Y133890D01*
X141810Y133850D01*
X141130Y133730D01*
X140530Y133530D01*
X140010Y133250D01*
X139570Y132890D01*
X139210Y132450D01*
X138930Y131930D01*
X138730Y131330D01*
X138610Y130650D01*
X138570Y129890D01*
X134570Y135890D01*
X138570Y141890D01*
X138610Y141130D01*
D02*
G37*
G36*
X291124Y121031D02*
X291075Y121207D01*
X290924Y121365D01*
X290674Y121504D01*
X290324Y121625D01*
X289874Y121728D01*
X289324Y121811D01*
X287924Y121923D01*
X286141Y121960D01*
X285739Y121957D01*
X284094Y121852D01*
X283890Y121813D01*
X283727Y121768D01*
X283606Y121717D01*
X283527Y121660D01*
Y127260D01*
X283606Y127203D01*
X283727Y127152D01*
X283890Y127107D01*
X284094Y127068D01*
X284340Y127035D01*
X284956Y126987D01*
X286155Y126961D01*
X287075Y126985D01*
X287924Y127060D01*
X288675Y127185D01*
X289324Y127360D01*
X289874Y127585D01*
X290324Y127860D01*
X290674Y128185D01*
X290924Y128560D01*
X291075Y128985D01*
X291124Y129460D01*
Y121031D01*
D02*
G37*
G36*
X138570Y127055D02*
X138590Y126154D01*
X138748Y124611D01*
X138887Y123969D01*
X139065Y123414D01*
X139283Y122945D01*
X139541Y122563D01*
X139838Y122266D01*
X140174Y122057D01*
X140551Y121933D01*
X132570Y123548D01*
X132950Y123515D01*
X133290Y123579D01*
X133590Y123740D01*
X133850Y123998D01*
X134070Y124353D01*
X134250Y124804D01*
X134390Y125353D01*
X134490Y125998D01*
X134550Y126739D01*
X134570Y127578D01*
X138570Y127055D01*
D02*
G37*
G36*
X65315Y127568D02*
X65390Y126664D01*
X65514Y125867D01*
X65689Y125176D01*
X65913Y124591D01*
X66187Y124113D01*
X66511Y123741D01*
X66884Y123475D01*
X67308Y123315D01*
X67781Y123262D01*
X57799D01*
X58272Y123315D01*
X58696Y123475D01*
X59069Y123741D01*
X59393Y124113D01*
X59667Y124591D01*
X59891Y125176D01*
X60066Y125867D01*
X60190Y126664D01*
X60265Y127568D01*
X60290Y128578D01*
X65290D01*
X65315Y127568D01*
D02*
G37*
G36*
X462088Y120615D02*
X461748Y120491D01*
X461449Y120284D01*
X461189Y119995D01*
X460969Y119624D01*
X460789Y119170D01*
X460650Y118633D01*
X460550Y118013D01*
X460490Y117312D01*
X460470Y116527D01*
X456470D01*
X456450Y117312D01*
X456390Y118013D01*
X456290Y118633D01*
X456151Y119170D01*
X455971Y119624D01*
X455751Y119995D01*
X455491Y120284D01*
X455192Y120491D01*
X454852Y120615D01*
X454473Y120656D01*
X462467D01*
X462088Y120615D01*
D02*
G37*
G36*
X427798D02*
X427458Y120491D01*
X427159Y120284D01*
X426899Y119995D01*
X426679Y119624D01*
X426499Y119170D01*
X426360Y118633D01*
X426260Y118013D01*
X426200Y117312D01*
X426180Y116527D01*
X422180D01*
X422160Y117312D01*
X422100Y118013D01*
X422000Y118633D01*
X421861Y119170D01*
X421681Y119624D01*
X421461Y119995D01*
X421202Y120284D01*
X420902Y120491D01*
X420562Y120615D01*
X420183Y120656D01*
X428177D01*
X427798Y120615D01*
D02*
G37*
G36*
X71714Y120515D02*
X71937Y120093D01*
X72285Y119721D01*
X72759Y119398D01*
X73358Y119125D01*
X74081Y118902D01*
X74930Y118729D01*
X75904Y118604D01*
X77003Y118530D01*
X78228Y118505D01*
X78492Y113505D01*
X77289Y113480D01*
X75275Y113282D01*
X74463Y113108D01*
X73781Y112885D01*
X73231Y112612D01*
X72810Y112290D01*
X72519Y111918D01*
X72359Y111496D01*
X72330Y111025D01*
X71616Y120986D01*
X71714Y120515D01*
D02*
G37*
G36*
X53886Y110249D02*
X53762Y110626D01*
X53546Y110962D01*
X53239Y111259D01*
X52841Y111517D01*
X52352Y111735D01*
X51772Y111913D01*
X51100Y112052D01*
X50338Y112151D01*
X49484Y112210D01*
X48539Y112230D01*
X47847Y116230D01*
X48764Y116250D01*
X50284Y116409D01*
X50886Y116549D01*
X51384Y116728D01*
X51776Y116947D01*
X52064Y117206D01*
X52247Y117504D01*
X52325Y117843D01*
X52298Y118221D01*
X53886Y110249D01*
D02*
G37*
G36*
X426200Y108809D02*
X426260Y108130D01*
X426360Y107529D01*
X426500Y107009D01*
X426680Y106569D01*
X426900Y106209D01*
X427160Y105929D01*
X427460Y105730D01*
X427800Y105610D01*
X428180Y105569D01*
X420180D01*
X420560Y105610D01*
X420900Y105730D01*
X421200Y105929D01*
X421460Y106209D01*
X421680Y106569D01*
X421860Y107009D01*
X422000Y107529D01*
X422100Y108130D01*
X422160Y108809D01*
X422180Y109570D01*
X426180D01*
X426200Y108809D01*
D02*
G37*
G36*
X460490Y108809D02*
X460550Y108130D01*
X460650Y107529D01*
X460790Y107009D01*
X460970Y106569D01*
X461190Y106209D01*
X461450Y105929D01*
X461750Y105730D01*
X462090Y105610D01*
X462470Y105569D01*
X457704D01*
X457712Y103391D01*
X457734Y103600D01*
Y95600D01*
X457694Y95980D01*
X457573Y96320D01*
X457371Y96620D01*
X457089Y96880D01*
X456726Y97100D01*
X456283Y97280D01*
X455759Y97420D01*
X455155Y97520D01*
X454469Y97580D01*
X454117Y97589D01*
X453765Y97580D01*
X453080Y97520D01*
X452476Y97420D01*
X451952Y97280D01*
X451508Y97100D01*
X451146Y96880D01*
X450863Y96620D01*
X450662Y96320D01*
X450541Y95980D01*
X450501Y95600D01*
Y103600D01*
X450523Y103391D01*
X450531Y105569D01*
X450571Y105195D01*
X450691Y104860D01*
X450891Y104565D01*
X451171Y104309D01*
X451531Y104092D01*
X451971Y103915D01*
X452491Y103777D01*
X453091Y103679D01*
X453771Y103620D01*
X454117Y103611D01*
X454464Y103620D01*
X455144Y103679D01*
X455744Y103777D01*
X456264Y103915D01*
X456704Y104092D01*
X457064Y104309D01*
X457344Y104565D01*
X457544Y104860D01*
X457664Y105195D01*
X457704Y105569D01*
X457469Y105610D01*
X457259Y105730D01*
X457075Y105929D01*
X456914Y106209D01*
X456778Y106569D01*
X456667Y107009D01*
X456581Y107529D01*
X456519Y108130D01*
X456470Y109570D01*
X460470D01*
X460490Y108809D01*
D02*
G37*
G36*
X246369Y98955D02*
X246315Y98532D01*
X246296Y98130D01*
X246313Y97748D01*
X246366Y97386D01*
X246455Y97045D01*
X246580Y96724D01*
X246741Y96422D01*
X246937Y96142D01*
X247170Y95881D01*
X245420Y94803D01*
X245196Y95005D01*
X244940Y95199D01*
X244651Y95384D01*
X244330Y95559D01*
X243976Y95726D01*
X243589Y95883D01*
X242717Y96171D01*
X242233Y96301D01*
X241716Y96422D01*
X246460Y99398D01*
X246369Y98955D01*
D02*
G37*
G36*
X282506Y96776D02*
X282071Y96547D01*
X280275Y95454D01*
X279992Y95246D01*
X279501Y94842D01*
X279294Y94646D01*
X276983Y95163D01*
X277226Y95435D01*
X277421Y95714D01*
X277568Y96002D01*
X277668Y96299D01*
X277719Y96603D01*
X277722Y96916D01*
X277677Y97237D01*
X277584Y97566D01*
X277443Y97904D01*
X277253Y98250D01*
X282506Y96776D01*
D02*
G37*
G36*
X267860Y95250D02*
X265860Y92250D01*
X265840Y92630D01*
X265780Y92970D01*
X265680Y93270D01*
X265540Y93530D01*
X265360Y93750D01*
X265140Y93930D01*
X264880Y94070D01*
X264580Y94170D01*
X264240Y94230D01*
X263860Y94250D01*
Y96250D01*
X264240Y96270D01*
X264580Y96330D01*
X264880Y96430D01*
X265140Y96570D01*
X265360Y96750D01*
X265540Y96970D01*
X265680Y97230D01*
X265780Y97530D01*
X265840Y97870D01*
X265860Y98250D01*
X267860Y95250D01*
D02*
G37*
G36*
X67131Y90751D02*
X67048Y90667D01*
X66975Y90542D01*
X66909Y90377D01*
X66853Y90170D01*
X66805Y89923D01*
X66766Y89635D01*
X66713Y88936D01*
X66696Y88074D01*
X61696Y89021D01*
X61589Y91555D01*
X67131Y90751D01*
D02*
G37*
G36*
X221821Y93980D02*
X216821Y86480D01*
X216771Y87430D01*
X216621Y88280D01*
X216371Y89030D01*
X216021Y89680D01*
X215571Y90230D01*
X215021Y90680D01*
X214371Y91030D01*
X213621Y91280D01*
X212771Y91430D01*
X211821Y91480D01*
Y96480D01*
X212771Y96530D01*
X213621Y96680D01*
X214371Y96930D01*
X215021Y97280D01*
X215571Y97730D01*
X216021Y98280D01*
X216371Y98930D01*
X216621Y99680D01*
X216771Y100530D01*
X216821Y101480D01*
X221821Y93980D01*
D02*
G37*
G36*
X164980Y91480D02*
X164030Y91430D01*
X163180Y91280D01*
X162430Y91030D01*
X161780Y90680D01*
X161230Y90230D01*
X160780Y89680D01*
X160430Y89030D01*
X160180Y88280D01*
X160030Y87430D01*
X159980Y86480D01*
X154980D01*
X154930Y87430D01*
X154780Y88280D01*
X154530Y89030D01*
X154180Y89680D01*
X153730Y90230D01*
X153180Y90680D01*
X152530Y91030D01*
X151780Y91280D01*
X150930Y91430D01*
X149980Y91480D01*
X157480Y96480D01*
X164980Y91480D01*
D02*
G37*
G36*
X277865Y88066D02*
X277906Y87475D01*
X277942Y87206D01*
X278044Y86723D01*
X278110Y86507D01*
X278187Y86310D01*
X278274Y86130D01*
X278370Y85969D01*
X275515D01*
X275581Y86085D01*
X275639Y86228D01*
X275691Y86398D01*
X275736Y86594D01*
X275774Y86818D01*
X275829Y87343D01*
X275857Y87975D01*
X275860Y88331D01*
X277860Y88388D01*
X277865Y88066D01*
D02*
G37*
G36*
X272865Y88062D02*
X272940Y87199D01*
X272985Y86948D01*
X273041Y86716D01*
X273106Y86502D01*
X273181Y86306D01*
X273266Y86128D01*
X273361Y85969D01*
X270506D01*
X270573Y86088D01*
X270633Y86233D01*
X270686Y86404D01*
X270733Y86602D01*
X270772Y86826D01*
X270828Y87352D01*
X270856Y87983D01*
X270860Y88337D01*
X272860Y88386D01*
X272865Y88062D01*
D02*
G37*
G36*
X267865Y88058D02*
X267939Y87192D01*
X267983Y86941D01*
X268037Y86709D01*
X268101Y86496D01*
X268175Y86301D01*
X268259Y86125D01*
X268352Y85969D01*
X265497D01*
X265566Y86090D01*
X265628Y86238D01*
X265682Y86411D01*
X265729Y86609D01*
X265769Y86834D01*
X265827Y87360D01*
X265856Y87990D01*
X265860Y88343D01*
X267860Y88385D01*
X267865Y88058D01*
D02*
G37*
G36*
X257865Y88050D02*
X257936Y87178D01*
X257979Y86926D01*
X258031Y86695D01*
X258092Y86484D01*
X258163Y86292D01*
X258244Y86121D01*
X258334Y85969D01*
X255479D01*
X255551Y86095D01*
X255616Y86247D01*
X255673Y86423D01*
X255723Y86625D01*
X255765Y86851D01*
X255826Y87378D01*
X255856Y88005D01*
X255860Y88355D01*
X257860Y88381D01*
X257865Y88050D01*
D02*
G37*
G36*
X247892Y88031D02*
X247957Y87141D01*
X247995Y86890D01*
X248098Y86454D01*
X248162Y86270D01*
X248235Y86108D01*
X248316Y85969D01*
X245460D01*
X245542Y86108D01*
X245614Y86270D01*
X245679Y86454D01*
X245734Y86660D01*
X245781Y86889D01*
X245849Y87415D01*
X245871Y87711D01*
X245888Y88372D01*
X247888Y88372D01*
X247892Y88031D01*
D02*
G37*
G36*
X66696Y84674D02*
X66721Y83618D01*
X66795Y82669D01*
X66920Y81828D01*
X67094Y81094D01*
X67317Y80468D01*
X67591Y79948D01*
X67914Y79536D01*
X68287Y79232D01*
X68709Y79034D01*
X69182Y78944D01*
X59199Y79674D01*
X59673Y79692D01*
X60098Y79819D01*
X60472Y80056D01*
X60797Y80401D01*
X61072Y80855D01*
X61297Y81419D01*
X61471Y82091D01*
X61596Y82873D01*
X61671Y83763D01*
X61696Y84763D01*
X66696Y84674D01*
D02*
G37*
G36*
X320040Y149860D02*
X320798Y149860D01*
X322198Y149280D01*
X323270Y148208D01*
X323850Y146808D01*
X323850Y146050D01*
X323850Y134620D01*
X323899Y134124D01*
X324278Y133209D01*
X324979Y132508D01*
X325894Y132129D01*
X326390Y132080D01*
X328930D01*
Y132080D01*
X329688D01*
X331088Y131500D01*
X332160Y130428D01*
X332740Y129028D01*
Y128270D01*
Y114300D01*
Y114300D01*
X332813Y113556D01*
X333382Y112183D01*
X334433Y111132D01*
X335807Y110563D01*
X336550Y110490D01*
X354071D01*
X355938Y109717D01*
X357367Y108287D01*
X358140Y106420D01*
Y105410D01*
Y77470D01*
X340360D01*
X340360Y92710D01*
X340360Y92710D01*
X340262Y93701D01*
X339504Y95532D01*
X338102Y96934D01*
X336271Y97692D01*
X335280Y97790D01*
X318770Y97790D01*
Y129540D01*
X313690D01*
Y140970D01*
X313690Y140970D01*
X313617Y141713D01*
X313048Y143087D01*
X311997Y144138D01*
X310623Y144707D01*
X309880Y144780D01*
X286258Y144780D01*
X288290Y149860D01*
X320040D01*
X320040Y149860D01*
D02*
G37*
G36*
X494914Y73929D02*
X494725Y74304D01*
X494446Y74640D01*
X494077Y74937D01*
X493617Y75194D01*
X493066Y75411D01*
X492425Y75589D01*
X491693Y75727D01*
X490871Y75826D01*
X489958Y75886D01*
X488954Y75905D01*
X487735Y79905D01*
X488680Y79925D01*
X490227Y80084D01*
X490829Y80224D01*
X491315Y80403D01*
X491688Y80622D01*
X491945Y80881D01*
X492087Y81180D01*
X492115Y81518D01*
X492029Y81896D01*
X494914Y73929D01*
D02*
G37*
G36*
X469662Y83083D02*
X469811Y82667D01*
X470060Y82300D01*
X470409Y81981D01*
X470857Y81712D01*
X471405Y81492D01*
X472052Y81320D01*
X472799Y81198D01*
X473645Y81124D01*
X474591Y81100D01*
Y76100D01*
X473645Y76076D01*
X472799Y76002D01*
X472052Y75880D01*
X471405Y75708D01*
X470857Y75488D01*
X470409Y75219D01*
X470060Y74900D01*
X469811Y74533D01*
X469662Y74117D01*
X469612Y73652D01*
Y83548D01*
X469662Y83083D01*
D02*
G37*
G36*
X37231Y81979D02*
X37426Y81558D01*
X37752Y81186D01*
X38208Y80863D01*
X38794Y80590D01*
X39510Y80367D01*
X40356Y80193D01*
X41333Y80069D01*
X42440Y79995D01*
X43677Y79970D01*
Y74970D01*
X42440Y74945D01*
X40356Y74747D01*
X39510Y74573D01*
X38794Y74350D01*
X38208Y74077D01*
X37752Y73755D01*
X37426Y73382D01*
X37231Y72961D01*
X37166Y72489D01*
Y82451D01*
X37231Y81979D01*
D02*
G37*
G36*
X448182Y72621D02*
X447842Y72500D01*
X447542Y72298D01*
X447282Y72016D01*
X447062Y71653D01*
X446882Y71210D01*
X446742Y70686D01*
X446642Y70081D01*
X446582Y69396D01*
X446562Y68630D01*
X442562D01*
X442542Y69396D01*
X442482Y70081D01*
X442382Y70686D01*
X442242Y71210D01*
X442062Y71653D01*
X441842Y72016D01*
X441582Y72298D01*
X441282Y72500D01*
X440942Y72621D01*
X440562Y72661D01*
X448562D01*
X448182Y72621D01*
D02*
G37*
G36*
X429070D02*
X428730Y72500D01*
X428430Y72298D01*
X428170Y72016D01*
X427950Y71653D01*
X427770Y71210D01*
X427630Y70686D01*
X427530Y70081D01*
X427470Y69396D01*
X427450Y68630D01*
X423450D01*
X423430Y69396D01*
X423370Y70081D01*
X423270Y70686D01*
X423130Y71210D01*
X422950Y71653D01*
X422730Y72016D01*
X422470Y72298D01*
X422170Y72500D01*
X421830Y72621D01*
X421450Y72661D01*
X429450D01*
X429070Y72621D01*
D02*
G37*
G36*
X142037Y76264D02*
X142228Y75843D01*
X142548Y75470D01*
X142995Y75148D01*
X143569Y74875D01*
X144272Y74652D01*
X145102Y74478D01*
X146060Y74354D01*
X147146Y74280D01*
X148360Y74255D01*
Y69255D01*
X147146Y69230D01*
X145102Y69032D01*
X144272Y68858D01*
X143569Y68635D01*
X142995Y68362D01*
X142548Y68039D01*
X142228Y67667D01*
X142037Y67246D01*
X141973Y66774D01*
Y76736D01*
X142037Y76264D01*
D02*
G37*
G36*
X263251Y68753D02*
X263169Y68579D01*
X263097Y68386D01*
X263034Y68174D01*
X262981Y67942D01*
X262937Y67691D01*
X262879Y67131D01*
X262865Y66822D01*
X262860Y66493D01*
X260860Y66527D01*
X260856Y66879D01*
X260767Y68033D01*
X260726Y68259D01*
X260678Y68459D01*
X260622Y68634D01*
X260558Y68783D01*
X260488Y68907D01*
X263343D01*
X263251Y68753D01*
D02*
G37*
G36*
X273251Y68726D02*
X273152Y68531D01*
X273065Y68323D01*
X272989Y68100D01*
X272925Y67864D01*
X272873Y67614D01*
X272832Y67349D01*
X272786Y66779D01*
X272780Y66474D01*
X270780Y66592D01*
X270777Y66958D01*
X270681Y68340D01*
X270646Y68527D01*
X270605Y68683D01*
X270558Y68810D01*
X270506Y68907D01*
X273361D01*
X273251Y68726D01*
D02*
G37*
G36*
X291192Y69488D02*
Y69487D01*
X291259Y68815D01*
X291773Y67572D01*
X292725Y66621D01*
X293967Y66106D01*
X294640Y66040D01*
X297180D01*
X297180Y66040D01*
X297685Y66040D01*
X298619Y65653D01*
X299333Y64939D01*
X299720Y64005D01*
X299720Y63500D01*
X299720Y55880D01*
X299720Y55880D01*
X299793Y55141D01*
X300358Y53776D01*
X301403Y52732D01*
X302768Y52167D01*
X303506Y52094D01*
X358140D01*
Y40664D01*
X289560D01*
Y40640D01*
X229869Y40640D01*
X229869D01*
X229364Y40640D01*
X228431Y41027D01*
X227716Y41741D01*
X227330Y42675D01*
X227330Y43180D01*
X227330Y63501D01*
Y63501D01*
X227330Y64006D01*
X227717Y64940D01*
X228431Y65654D01*
X229365Y66041D01*
X229870Y66040D01*
X234950D01*
X235446Y66089D01*
X236362Y66468D01*
X237062Y67169D01*
X237441Y68084D01*
X237490Y68580D01*
X237490Y85090D01*
X242729D01*
Y68421D01*
Y68421D01*
X242775Y67956D01*
X243130Y67098D01*
X243787Y66441D01*
X244645Y66086D01*
X245110Y66040D01*
X245110Y66040D01*
X245615Y66040D01*
X246549Y65654D01*
X247263Y64939D01*
X247650Y64005D01*
X247650Y63500D01*
X247650Y58420D01*
Y58420D01*
X247699Y57924D01*
X248078Y57009D01*
X248779Y56308D01*
X249694Y55929D01*
X250190Y55880D01*
X276860Y55880D01*
X276860Y55880D01*
X277355Y55929D01*
X278271Y56308D01*
X278972Y57009D01*
X279351Y57924D01*
X279400Y58420D01*
X279400Y63500D01*
X279400Y63500D01*
X279400Y64005D01*
X279787Y64939D01*
X280501Y65653D01*
X281435Y66040D01*
X281940Y66040D01*
X283210Y66040D01*
X283210D01*
X283724Y66091D01*
X284675Y66484D01*
X285402Y67212D01*
X285796Y68162D01*
X285846Y68677D01*
X285847Y85090D01*
X291192D01*
Y69488D01*
D02*
G37*
G36*
X303530Y86360D02*
X320040Y86360D01*
X321303D01*
X323637Y85393D01*
X325423Y83607D01*
X326390Y81273D01*
Y80010D01*
X326390D01*
Y55880D01*
X306070Y55880D01*
X305565Y55880D01*
X304631Y56267D01*
X303917Y56981D01*
X303530Y57915D01*
X303530Y58420D01*
Y58420D01*
X303530Y64770D01*
X303457Y65513D01*
X302888Y66887D01*
X301837Y67938D01*
X300463Y68507D01*
X299720Y68580D01*
X299720Y68580D01*
X296675D01*
X295741Y68967D01*
X295027Y69681D01*
X294640Y70615D01*
Y71120D01*
X294640Y83820D01*
Y84325D01*
X294640Y84325D01*
Y132080D01*
X303530D01*
Y86360D01*
D02*
G37*
G36*
X492925Y50624D02*
X492876Y51002D01*
X492729Y51339D01*
X492485Y51637D01*
X492142Y51895D01*
X491702Y52114D01*
X491163Y52292D01*
X490527Y52431D01*
X489793Y52531D01*
X488961Y52590D01*
X488031Y52610D01*
Y56610D01*
X488961Y56630D01*
X490527Y56789D01*
X491163Y56928D01*
X491702Y57106D01*
X492142Y57325D01*
X492485Y57583D01*
X492729Y57881D01*
X492876Y58218D01*
X492925Y58596D01*
Y50624D01*
D02*
G37*
G36*
X37231Y56579D02*
X37426Y56158D01*
X37752Y55785D01*
X38208Y55463D01*
X38794Y55190D01*
X39510Y54967D01*
X40356Y54793D01*
X41333Y54669D01*
X42440Y54595D01*
X43677Y54570D01*
Y49570D01*
X42440Y49545D01*
X40356Y49347D01*
X39510Y49173D01*
X38794Y48950D01*
X38208Y48677D01*
X37752Y48355D01*
X37426Y47982D01*
X37231Y47561D01*
X37166Y47089D01*
Y57051D01*
X37231Y56579D01*
D02*
G37*
G36*
X65315Y39938D02*
X65390Y39034D01*
X65514Y38237D01*
X65689Y37546D01*
X65913Y36961D01*
X66187Y36483D01*
X66511Y36111D01*
X66884Y35845D01*
X67308Y35685D01*
X67781Y35632D01*
X57799D01*
X58272Y35685D01*
X58696Y35845D01*
X59069Y36111D01*
X59393Y36483D01*
X59667Y36961D01*
X59891Y37546D01*
X60066Y38237D01*
X60190Y39034D01*
X60265Y39938D01*
X60290Y40948D01*
X65290D01*
X65315Y39938D01*
D02*
G37*
G36*
X142037Y32449D02*
X142228Y32028D01*
X142548Y31655D01*
X142995Y31333D01*
X143569Y31060D01*
X144272Y30837D01*
X145102Y30663D01*
X146060Y30539D01*
X147146Y30465D01*
X148360Y30440D01*
Y25440D01*
X147146Y25415D01*
X145102Y25217D01*
X144272Y25043D01*
X143569Y24820D01*
X142995Y24547D01*
X142548Y24225D01*
X142228Y23852D01*
X142037Y23431D01*
X141973Y22959D01*
Y32921D01*
X142037Y32449D01*
D02*
G37*
G36*
X213360Y86360D02*
X231140Y86360D01*
X231140Y86360D01*
X231898Y86360D01*
X233298Y85780D01*
X234370Y84708D01*
X234950Y83308D01*
X234950Y82550D01*
X234950Y71120D01*
X234950Y71120D01*
X234950Y70615D01*
X234563Y69681D01*
X233849Y68967D01*
X232915Y68580D01*
X228600D01*
X228600Y68580D01*
X227609Y68482D01*
X225778Y67724D01*
X224376Y66322D01*
X223618Y64491D01*
X223520Y63500D01*
X223520Y41910D01*
X223618Y40919D01*
X224376Y39088D01*
X225778Y37686D01*
X227609Y36928D01*
X228600Y36830D01*
X323850D01*
Y19050D01*
X222550D01*
X222550Y19050D01*
X222282Y18750D01*
X221632Y18276D01*
X220898Y17948D01*
X220112Y17780D01*
X208280D01*
X207820Y17780D01*
X206914Y17945D01*
X206053Y18271D01*
X205265Y18746D01*
X204920Y19050D01*
X204688Y19050D01*
Y19268D01*
X204688Y19268D01*
X204334Y19622D01*
X203778Y20454D01*
X203395Y21378D01*
X203200Y22360D01*
X203200Y22860D01*
Y76200D01*
X203200Y77201D01*
X203590Y79163D01*
X204356Y81012D01*
X205468Y82677D01*
X206883Y84092D01*
X208547Y85204D01*
X210396Y85969D01*
X212359Y86360D01*
X213360Y86360D01*
D02*
G37*
%LPC*%
G36*
X45720Y396243D02*
Y396243D01*
D01*
Y396243D01*
D02*
G37*
%LPD*%
D14*
X314960Y372110D02*
Y393110D01*
X313240Y394830D02*
X314960Y393110D01*
X347830Y631580D02*
X368880D01*
X326780D02*
X347830D01*
Y624990D02*
Y631580D01*
Y624990D02*
X347980Y624840D01*
X324240Y629040D02*
X326780Y631580D01*
X324240Y612400D02*
Y629040D01*
X368880Y631580D02*
X373380Y627080D01*
Y624870D02*
Y627080D01*
X13970Y529590D02*
X54610D01*
X54610Y478790D02*
X108690D01*
X54610Y478790D02*
X54610Y478790D01*
X325120Y344750D02*
X326390Y346020D01*
X325120Y294640D02*
Y344750D01*
X280288Y431849D02*
Y454400D01*
X280240D02*
X280288D01*
X455564Y591596D02*
X457200Y589960D01*
X455564Y591596D02*
Y608717D01*
X381883Y511400D02*
X381922Y511360D01*
X357740Y511400D02*
X381883D01*
X280240Y431897D02*
X280288Y431849D01*
X231140Y327379D02*
Y351790D01*
Y327379D02*
X231340Y327179D01*
X259080Y375920D02*
Y393700D01*
X203600Y375920D02*
Y393700D01*
X236240Y395550D02*
X238090Y393700D01*
X236240Y395550D02*
Y454400D01*
X224590Y393700D02*
X225240Y394350D01*
Y454400D01*
X224790Y360680D02*
Y375720D01*
X224590Y375920D02*
X224790Y375720D01*
X222250Y358140D02*
X224790Y360680D01*
X222250Y341630D02*
Y358140D01*
X238090Y359577D02*
X241300Y356367D01*
Y341630D02*
Y356367D01*
X238090Y359577D02*
Y375920D01*
Y393700D02*
X259080D01*
X238090Y375920D02*
X259080D01*
X203600D02*
X224590D01*
X203600Y393700D02*
X224590D01*
X314960Y361610D02*
Y372110D01*
Y361610D02*
X317755Y358815D01*
X323595D01*
X326390Y356020D01*
Y346020D02*
Y356020D01*
X314284Y372786D02*
X314960Y372110D01*
X295910Y372786D02*
X314284D01*
D15*
X123343Y201320D02*
X131155Y209132D01*
X135773D01*
X137460Y210820D01*
X111460Y201320D02*
X123343D01*
X276860Y77438D02*
Y93626D01*
X246888Y77438D02*
Y94749D01*
X266860Y77438D02*
Y95250D01*
X271860Y77438D02*
Y180260D01*
X256860Y77438D02*
Y94078D01*
X271780Y77358D02*
X271860Y77438D01*
X261860Y63402D02*
Y77438D01*
X271780Y63402D02*
Y77358D01*
X270608Y62230D02*
X271780Y63402D01*
X263032Y62230D02*
X270608D01*
X261860Y63402D02*
X263032Y62230D01*
X258032Y95250D02*
X266860D01*
X256860Y94078D02*
X258032Y95250D01*
X266700Y185420D02*
X271860Y180260D01*
X239930Y185420D02*
X266700D01*
X242570Y99067D02*
Y100330D01*
Y99067D02*
X246888Y94749D01*
X280670Y97436D02*
Y99060D01*
X276860Y93626D02*
X280670Y97436D01*
X266860Y95250D02*
Y170278D01*
X239930Y172720D02*
X264418D01*
X266860Y170278D01*
D22*
X62790Y71755D02*
D03*
X132790D02*
D03*
X62790Y27940D02*
D03*
X132790D02*
D03*
X62790Y115570D02*
D03*
X132790D02*
D03*
D23*
X315360Y27940D02*
D03*
X213360D02*
D03*
X315360Y66940D02*
D03*
X213360Y66940D02*
D03*
D24*
X296610Y77438D02*
D03*
X232360D02*
D03*
X240360D02*
D03*
X288610D02*
D03*
D25*
X246888D02*
D03*
X251897D02*
D03*
X256906D02*
D03*
X261915D02*
D03*
X266925D02*
D03*
X271934D02*
D03*
X276943D02*
D03*
X281952D02*
D03*
D26*
X349250Y77730D02*
D03*
Y46730D02*
D03*
D27*
X300960Y104140D02*
D03*
X328960D02*
D03*
X104110Y427990D02*
D03*
X132110D02*
D03*
X104110Y403860D02*
D03*
X132110D02*
D03*
X424150Y275590D02*
D03*
X452150D02*
D03*
D28*
X297094Y127000D02*
D03*
X318094D02*
D03*
X254594Y209550D02*
D03*
X233594D02*
D03*
X145374Y243840D02*
D03*
X124374D02*
D03*
X448904Y231140D02*
D03*
X427904D02*
D03*
X448904Y252730D02*
D03*
X427904D02*
D03*
X76150Y170180D02*
D03*
X55150D02*
D03*
X156260Y185420D02*
D03*
X177260D02*
D03*
X416610Y546100D02*
D03*
X437610D02*
D03*
X477570D02*
D03*
X498570D02*
D03*
D29*
X425450Y99600D02*
D03*
Y78600D02*
D03*
X444562Y99600D02*
D03*
Y78600D02*
D03*
X463673Y99600D02*
D03*
Y78600D02*
D03*
X82550Y672170D02*
D03*
Y651170D02*
D03*
X20320Y672170D02*
D03*
Y651170D02*
D03*
X426720Y672170D02*
D03*
Y651170D02*
D03*
X486410Y672170D02*
D03*
Y651170D02*
D03*
X199390Y203876D02*
D03*
Y224876D02*
D03*
X343535Y372786D02*
D03*
Y393786D02*
D03*
X391160Y372786D02*
D03*
Y393786D02*
D03*
X295910Y372786D02*
D03*
Y393786D02*
D03*
X486410Y607650D02*
D03*
Y628650D02*
D03*
X426720Y607650D02*
D03*
Y628650D02*
D03*
X95250Y170180D02*
D03*
Y149180D02*
D03*
X177800Y204470D02*
D03*
Y225470D02*
D03*
X179070Y242570D02*
D03*
Y263570D02*
D03*
X82550Y628650D02*
D03*
Y607650D02*
D03*
X20320Y628650D02*
D03*
Y607650D02*
D03*
X397510Y568960D02*
D03*
X397510Y589960D02*
D03*
X457200Y568960D02*
D03*
Y589960D02*
D03*
D30*
X290930Y147320D02*
D03*
Y160020D02*
D03*
Y172720D02*
D03*
Y185420D02*
D03*
X239930Y147320D02*
D03*
Y160020D02*
D03*
Y172720D02*
D03*
Y185420D02*
D03*
D31*
X137460Y210820D02*
D03*
Y201320D02*
D03*
X111460D02*
D03*
Y210820D02*
D03*
X137460Y220320D02*
D03*
D32*
X111460Y220320D02*
D03*
D33*
X136570Y159410D02*
D03*
X115570Y149910D02*
D03*
Y168910D02*
D03*
D34*
X426720Y588350D02*
D03*
X436220Y567350D02*
D03*
X417220D02*
D03*
X486410Y589620D02*
D03*
X495910Y568620D02*
D03*
X476910D02*
D03*
D35*
X180740Y489400D02*
D03*
Y500400D02*
D03*
Y511400D02*
D03*
Y522400D02*
D03*
Y533400D02*
D03*
Y544400D02*
D03*
Y555400D02*
D03*
Y566400D02*
D03*
Y577400D02*
D03*
X357740D02*
D03*
Y566400D02*
D03*
Y555400D02*
D03*
Y544400D02*
D03*
Y533400D02*
D03*
Y522400D02*
D03*
Y511400D02*
D03*
Y489400D02*
D03*
D36*
X203240Y612400D02*
D03*
X214240D02*
D03*
X225240D02*
D03*
X236240D02*
D03*
X247240D02*
D03*
X258240D02*
D03*
X269240D02*
D03*
X280240D02*
D03*
X291240D02*
D03*
X302240D02*
D03*
X313240D02*
D03*
X324240D02*
D03*
X335240D02*
D03*
Y454400D02*
D03*
X324240D02*
D03*
X313240D02*
D03*
X302240D02*
D03*
X291240D02*
D03*
X280240D02*
D03*
X269240D02*
D03*
X258240D02*
D03*
X247240D02*
D03*
X236240D02*
D03*
X225240D02*
D03*
X214240D02*
D03*
X203240D02*
D03*
D37*
X115570Y338070D02*
D03*
Y274070D02*
D03*
D38*
X377190Y228020D02*
D03*
X351790D02*
D03*
X326390D02*
D03*
X377190Y346020D02*
D03*
X351790D02*
D03*
X326390D02*
D03*
D39*
X404790Y287020D02*
D03*
X298790D02*
D03*
D40*
X302260Y650240D02*
D03*
X203200Y650240D02*
D03*
D41*
X317010Y665240D02*
D03*
X287510D02*
D03*
X217950Y665240D02*
D03*
X188450D02*
D03*
D42*
X373380Y596870D02*
D03*
Y624870D02*
D03*
X163830Y427960D02*
D03*
Y455960D02*
D03*
D43*
X79140Y370840D02*
D03*
X129140D02*
D03*
D44*
X60960Y207250D02*
D03*
Y237250D02*
D03*
D45*
X13970Y477520D02*
D03*
Y503555D02*
D03*
Y529590D02*
D03*
D46*
X272580Y393700D02*
D03*
X259080D02*
D03*
X203600Y375920D02*
D03*
X190100D02*
D03*
X272580D02*
D03*
X259080D02*
D03*
X203600Y393700D02*
D03*
X190100D02*
D03*
X238090D02*
D03*
X224590D02*
D03*
X238090Y375920D02*
D03*
X224590D02*
D03*
D47*
X90170Y238020D02*
D03*
Y209020D02*
D03*
D48*
X160180Y160020D02*
D03*
X180180D02*
D03*
D49*
X137690Y453390D02*
D03*
X108690Y453390D02*
D03*
X137690Y478790D02*
D03*
X108690D02*
D03*
X137690Y505460D02*
D03*
X108690D02*
D03*
D50*
X458470Y180340D02*
D03*
Y129540D02*
D03*
X424180Y180340D02*
D03*
Y129540D02*
D03*
D88*
X24130Y179070D02*
X46260D01*
X55150Y170180D01*
X64196Y93406D02*
X64770Y93980D01*
X64196Y73161D02*
Y93406D01*
X62790Y71755D02*
X64196Y73161D01*
X62790Y27940D02*
Y46430D01*
X57150Y52070D02*
X62790Y46430D01*
X24130Y52070D02*
X57150D01*
X51361Y77470D02*
X57076Y71755D01*
X24130Y77470D02*
X51361D01*
X57076Y71755D02*
X62790D01*
X157480Y72390D02*
Y93980D01*
Y30869D02*
Y72390D01*
X156845Y71755D02*
X157480Y72390D01*
X132790Y71755D02*
X156845D01*
X157480Y93980D02*
X219321D01*
X103637D02*
X157480D01*
X132790Y27940D02*
X154551D01*
X157480Y30869D01*
X84587Y113030D02*
X103637Y93980D01*
X83790Y113030D02*
X84587D01*
X80815Y116005D02*
X83790Y113030D01*
X64895Y116005D02*
X80815D01*
X62790Y115570D02*
Y146251D01*
X65719Y149180D02*
X95250D01*
X62790Y146251D02*
X65719Y149180D01*
X219321Y93980D02*
Y152400D01*
Y72901D02*
Y93980D01*
X209550Y49530D02*
Y66940D01*
X213360D02*
X219321Y72901D01*
X477520Y144780D02*
X485140Y152400D01*
Y429515D02*
Y431800D01*
X302240Y427970D02*
Y485140D01*
X280670Y124460D02*
X297094D01*
X214240Y588010D02*
Y633340D01*
X297094Y124460D02*
Y127000D01*
X474591Y78600D02*
X477520Y81529D01*
Y144780D01*
X463673Y78600D02*
X474591D01*
X219321Y152400D02*
X222250Y155329D01*
Y162949D01*
X230094Y206050D02*
X233594Y209550D01*
X225179Y206050D02*
X230094D01*
X222250Y203121D02*
X225179Y206050D01*
X222250Y162949D02*
Y203121D01*
Y162949D02*
X224796Y160403D01*
X239547D01*
X239930Y160020D01*
X369880Y591820D02*
X373380Y595320D01*
Y596870D01*
X330200Y591820D02*
X369880D01*
X397510Y589960D02*
Y640961D01*
X394581Y643890D02*
X397510Y640961D01*
X53340Y477520D02*
X54610Y478790D01*
X13970Y477520D02*
X53340D01*
X14288Y503872D02*
X54292D01*
X13970Y503555D02*
X14288Y503872D01*
X54292D02*
X54610Y504190D01*
X95250Y149180D02*
X111340D01*
X112070Y149910D02*
X115570D01*
X476740Y568790D02*
X477240Y568290D01*
X457370Y568790D02*
X476740D01*
X457200Y568960D02*
X457370Y568790D01*
X299720Y485140D02*
X302240D01*
X337820Y477520D02*
X364101D01*
X367030Y441229D02*
Y474591D01*
X364101Y477520D02*
X367030Y474591D01*
Y441229D02*
X369959Y438300D01*
X407822D01*
X424150Y275590D02*
Y421972D01*
X407822Y438300D02*
X424150Y421972D01*
X391160Y393786D02*
Y410210D01*
X343853Y411393D02*
X344170Y411710D01*
X343535Y393786D02*
X343853Y394104D01*
Y409893D01*
X313240Y639630D02*
X317500Y643890D01*
X313240Y612400D02*
Y639630D01*
X317500Y643890D02*
X394581D01*
X291240Y589280D02*
Y612400D01*
Y589280D02*
X292100D01*
X212090Y588010D02*
X214240D01*
X163830Y455960D02*
Y485896D01*
X166952Y489017D01*
X180357D01*
X180740Y489400D01*
X231340Y327179D02*
X269651D01*
X193029D02*
X231340D01*
X82550Y628650D02*
Y651170D01*
X20320Y628650D02*
Y651170D01*
X188450Y665240D02*
X217950D01*
X397510Y568960D02*
X416720D01*
X417220Y568460D01*
Y567350D02*
Y568460D01*
X496410Y548260D02*
Y568120D01*
X495910Y568620D02*
X496410Y568120D01*
Y548260D02*
X498570Y546100D01*
X477240Y546430D02*
Y568290D01*
Y546430D02*
X477570Y546100D01*
X436720Y546990D02*
Y566850D01*
X436220Y567350D02*
X436720Y566850D01*
X416610Y546100D02*
X416915Y546405D01*
Y567045D02*
X417220Y567350D01*
X416915Y546405D02*
Y567045D01*
X426720Y588350D02*
Y607650D01*
X486410Y589620D02*
Y607650D01*
Y628650D02*
Y651170D01*
X426720Y628650D02*
Y651170D01*
X287510Y665240D02*
X317010D01*
X291240Y612400D02*
Y634590D01*
X287510Y638320D02*
X291240Y634590D01*
X287510Y638320D02*
Y665240D01*
X188450Y591040D02*
Y665240D01*
X218440Y637540D02*
Y664750D01*
X217950Y665240D02*
X218440Y664750D01*
X214240Y633340D02*
X218440Y637540D01*
X302250Y612410D02*
Y650230D01*
X302260Y650240D01*
X302240Y612400D02*
X302250Y612410D01*
X203220Y612420D02*
Y650220D01*
X203200Y650240D02*
X203220Y650220D01*
X190100Y330108D02*
Y375920D01*
X272580Y330108D02*
Y375920D01*
X269651Y327179D02*
X272580Y330108D01*
X190100D02*
X193029Y327179D01*
X190100Y393700D02*
Y419981D01*
X187171Y422910D02*
X190100Y419981D01*
X297180Y395056D02*
Y422910D01*
X295910Y393786D02*
X297180Y395056D01*
Y422910D02*
X302240Y427970D01*
X295867Y393743D02*
X295910Y393786D01*
X272580Y393700D02*
X272623Y393743D01*
X272580Y375920D02*
Y393700D01*
Y375920D02*
X272580Y375920D01*
X190100D02*
Y393700D01*
X156260Y185420D02*
X158220Y183460D01*
Y161980D02*
Y183460D01*
Y161980D02*
X160180Y160020D01*
X111340Y149180D02*
X112070Y149910D01*
X407290Y275590D02*
X424150D01*
X404790Y278090D02*
X407290Y275590D01*
X404790Y252730D02*
Y278090D01*
Y287020D01*
Y234069D02*
Y252730D01*
X427904D01*
X407719Y231140D02*
X427904D01*
X404790Y234069D02*
X407719Y231140D01*
D89*
X36533Y114230D02*
X61450D01*
X62790Y115570D01*
X4183Y116573D02*
Y245363D01*
Y116573D02*
X6526Y114230D01*
X11727D01*
X11867Y114370D01*
X36393D01*
X36533Y114230D01*
X136570Y119350D02*
Y135890D01*
X132790Y115570D02*
X136570Y119350D01*
X180180Y138233D02*
Y160020D01*
X177837Y135890D02*
X180180Y138233D01*
X136570Y135890D02*
X177837D01*
X180180Y160020D02*
X205258D01*
X136570Y135890D02*
Y159410D01*
X475297Y154940D02*
X477640Y157283D01*
Y512007D01*
X458470Y154940D02*
X475297D01*
X432752Y439738D02*
Y474980D01*
Y495497D01*
Y474980D02*
X457200D01*
Y500380D02*
Y514350D01*
X475297D01*
X402590D02*
X457200D01*
X475297D02*
X477640Y512007D01*
X402590Y514350D02*
Y523240D01*
X430409Y497840D02*
X432752Y495497D01*
X394970Y500183D02*
Y515817D01*
X397313Y497840D02*
X430409D01*
X394970Y500183D02*
X397313Y497840D01*
X443230Y381000D02*
X468630Y355600D01*
X432752Y439738D02*
X443230Y429260D01*
Y381000D02*
Y429260D01*
X466287Y201930D02*
X468630Y204273D01*
X400050Y201930D02*
X466287D01*
X468630Y204273D02*
Y355600D01*
X447040Y101600D02*
X458470D01*
X444562Y99600D02*
X458470D01*
X458470Y99600D02*
Y129540D01*
X458470Y99600D02*
X458470Y99600D01*
Y101600D02*
X461673D01*
X504625Y77905D02*
X506730Y80010D01*
X485140Y76200D02*
X486845Y77905D01*
X504625D01*
X446905Y63500D02*
X482797D01*
X485140Y65843D01*
Y76200D01*
X444562Y65843D02*
Y78600D01*
Y65843D02*
X446905Y63500D01*
X425450Y60960D02*
X431800Y54610D01*
X425450Y60960D02*
Y79280D01*
X431800Y54610D02*
X506730D01*
X424180Y101550D02*
Y129540D01*
X461673Y101600D02*
X463673Y99600D01*
X388387Y522400D02*
X394970Y515817D01*
Y196850D02*
X400050Y201930D01*
X394970Y157283D02*
Y196850D01*
Y157283D02*
X397313Y154940D01*
X424180D01*
X213360Y291027D02*
X215703Y293370D01*
X205258Y160020D02*
X213360Y168122D01*
X215703Y293370D02*
X280867D01*
X213360Y168122D02*
Y291027D01*
X291027Y209550D02*
X293370Y207207D01*
X254594Y209550D02*
X291027D01*
X290930Y185420D02*
X291984D01*
X293370Y186806D01*
Y207207D01*
X315534Y159446D02*
X316230Y158750D01*
X290930Y172720D02*
X316230D01*
X290930Y160020D02*
X291504Y159446D01*
X315534D01*
X326390Y216359D02*
X328733Y214016D01*
X326390Y216359D02*
Y228020D01*
X328733Y214016D02*
X363417D01*
X326390Y228020D02*
Y245110D01*
X391160Y363023D02*
Y372786D01*
X388817Y360680D02*
X391160Y363023D01*
X369570Y360680D02*
X388817D01*
X365760Y356870D02*
X369570Y360680D01*
X365760Y216359D02*
Y356870D01*
X363417Y214016D02*
X365760Y216359D01*
X280867Y293370D02*
X283210Y295713D01*
Y410407D01*
X410210Y375129D02*
Y426720D01*
X407867Y372786D02*
X410210Y375129D01*
X391160Y372786D02*
X407867D01*
X343535D02*
X360242D01*
X362585Y375129D01*
Y419297D01*
X482672Y675909D02*
X486410Y672170D01*
X482672Y675909D02*
Y680917D01*
X480328Y683260D02*
X482672Y680917D01*
X426720Y683260D02*
X480328D01*
X298790Y286210D02*
X301790Y283210D01*
X332740D01*
X298790Y286210D02*
Y287020D01*
X332740Y283210D02*
X335630Y286100D01*
X330200Y361950D02*
Y391443D01*
X335630Y286100D02*
Y356520D01*
X330200Y361950D02*
X335630Y356520D01*
X332543Y393786D02*
X343535D01*
X330200Y391443D02*
X332543Y393786D01*
X341630Y370881D02*
X343535Y372786D01*
X341630Y262890D02*
X351790Y252730D01*
X341630Y262890D02*
Y370881D01*
X326583Y421640D02*
X360242D01*
X362585Y419297D01*
X324240Y423983D02*
Y454400D01*
Y423983D02*
X326583Y421640D01*
X337583Y431800D02*
X405130D01*
X410210Y426720D01*
X335240Y434143D02*
Y454400D01*
Y434143D02*
X337583Y431800D01*
X81586Y673134D02*
X82550Y672170D01*
X54387Y673134D02*
X81586D01*
X153786Y478790D02*
X153848Y478728D01*
X137690Y478790D02*
X153786D01*
X7620Y673100D02*
X19390D01*
X20320Y672170D01*
X291240Y425672D02*
Y454400D01*
X288290Y421640D02*
Y422722D01*
X291240Y425672D01*
X82550Y680917D02*
X84893Y683260D01*
X426720D01*
X82550Y672170D02*
Y680917D01*
X426720Y672170D02*
Y683260D01*
X269240Y417830D02*
Y454400D01*
X269240Y454400D01*
X269240Y417830D02*
X274320Y412750D01*
X280867D01*
X283210Y410407D01*
X36902Y199318D02*
X50800Y185420D01*
X6526Y199318D02*
X36902D01*
X50800Y185420D02*
X156260D01*
X16630Y257810D02*
X24130D01*
X402250Y289560D02*
X404790Y287020D01*
X384810Y289560D02*
X402250D01*
X155852Y201320D02*
X158408Y203876D01*
X177800Y185960D02*
Y203876D01*
X137460Y201320D02*
X155852D01*
X158408Y203876D02*
X177800D01*
Y204470D01*
Y203876D02*
X199390D01*
X177800Y225470D02*
X178394Y224876D01*
X199390D01*
X95250Y170180D02*
X96520Y168910D01*
X115570D01*
X76150Y170180D02*
X95250D01*
X357740Y522400D02*
X388387D01*
X392430Y533400D02*
X402590Y523240D01*
X357740Y533400D02*
X392430D01*
X351790Y245110D02*
Y252730D01*
Y228020D02*
Y245110D01*
X377190Y346020D02*
X401517D01*
X404790Y287020D02*
Y342747D01*
X401517Y346020D02*
X404790Y342747D01*
X313240Y394830D02*
Y454400D01*
X177800Y225470D02*
X179070Y226740D01*
Y242570D01*
X177260Y185420D02*
X177800Y185960D01*
X145374Y243840D02*
X146050Y243164D01*
Y233483D02*
Y243164D01*
X143707Y231140D02*
X146050Y233483D01*
X140773Y231140D02*
X143707D01*
X138430Y228797D02*
X140773Y231140D01*
X138430Y221070D02*
Y228797D01*
X137680Y220320D02*
X138430Y221070D01*
X137460Y220320D02*
X137680D01*
D90*
X485140Y152400D02*
Y431800D01*
X488489Y426165D02*
X505659D01*
X485140Y429515D02*
X488489Y426165D01*
X505659D02*
X506552Y425272D01*
X485140Y431800D02*
Y529590D01*
X441960D02*
X485140D01*
X493740D01*
X497840Y545370D02*
X498570Y546100D01*
X497840Y533690D02*
Y545370D01*
X493740Y529590D02*
X497840Y533690D01*
X436720Y546990D02*
X437850Y545860D01*
Y533700D02*
Y545860D01*
Y533700D02*
X441960Y529590D01*
X375630Y489400D02*
X379730Y485299D01*
Y451141D02*
Y485299D01*
X357740Y489400D02*
X375630D01*
X411480Y447040D02*
X433070Y425450D01*
X383830Y447040D02*
X411480D01*
X379730Y451141D02*
X383830Y447040D01*
X433070Y318770D02*
Y425450D01*
Y318770D02*
X449580Y302260D01*
X203240Y454400D02*
Y492760D01*
X203200D02*
X203240D01*
X137690Y500400D02*
X180740D01*
X137690Y511400D02*
X180740D01*
X81280Y589280D02*
X119380D01*
X24420D02*
X81280D01*
X82550Y590550D01*
Y607650D01*
X20320Y593381D02*
Y607650D01*
Y593381D02*
X24420Y589280D01*
X199140D02*
X203240Y585179D01*
X163830Y425410D02*
Y427960D01*
X187171Y422910D02*
X199140D01*
X166330D02*
X187171D01*
X203240Y427010D02*
Y454400D01*
X163830Y425410D02*
X166330Y422910D01*
X199140D02*
X203240Y427010D01*
X449580Y278090D02*
Y302260D01*
Y278090D02*
X452080Y275590D01*
X452150D01*
X451404D02*
X452150D01*
X448904Y273090D02*
X451404Y275590D01*
X448904Y252730D02*
Y273090D01*
Y231140D02*
Y252730D01*
Y216297D02*
Y231140D01*
X377190Y228020D02*
Y245110D01*
Y216297D02*
Y228020D01*
X446561Y213954D02*
X448904Y216297D01*
X379533Y213954D02*
X446561D01*
X377190Y216297D02*
X379533Y213954D01*
X140970Y577400D02*
X180740D01*
X140970Y575310D02*
Y577400D01*
X142240Y566400D02*
X180740D01*
X142240Y565150D02*
Y566400D01*
X143510Y533400D02*
Y533400D01*
Y533400D02*
X180740D01*
X149860Y522400D02*
X180740D01*
X149860D02*
Y523240D01*
X173990Y368300D02*
X179070Y363220D01*
Y263570D02*
Y363220D01*
X142240Y368300D02*
X173990D01*
X137690Y500400D02*
Y505460D01*
Y511400D01*
D91*
X457200Y449580D02*
D03*
D92*
Y474980D02*
D03*
Y500380D02*
D03*
D93*
X235460Y61740D02*
D03*
X293260D02*
D03*
D94*
X458470Y154940D02*
D03*
X424180D02*
D03*
D95*
X24130Y232410D02*
D03*
Y257810D02*
D03*
Y283210D02*
D03*
Y308610D02*
D03*
Y334010D02*
D03*
Y359410D02*
D03*
Y384810D02*
D03*
X506730Y207010D02*
D03*
Y181610D02*
D03*
Y156210D02*
D03*
Y130810D02*
D03*
Y105410D02*
D03*
Y80010D02*
D03*
Y54610D02*
D03*
X24130Y52070D02*
D03*
Y77470D02*
D03*
Y102870D02*
D03*
Y128270D02*
D03*
Y153670D02*
D03*
X506730Y476250D02*
D03*
Y450850D02*
D03*
Y425450D02*
D03*
Y400050D02*
D03*
Y374650D02*
D03*
Y349250D02*
D03*
Y323850D02*
D03*
Y298450D02*
D03*
Y273050D02*
D03*
D96*
X24130Y410210D02*
D03*
X506730Y232410D02*
D03*
X24130Y179070D02*
D03*
X506730Y501650D02*
D03*
D97*
X54610Y478790D02*
D03*
D98*
Y504190D02*
D03*
Y529590D02*
D03*
D99*
X222250Y341630D02*
D03*
X241300D02*
D03*
D100*
X64770Y93980D02*
D03*
X280670Y124460D02*
D03*
X242570Y100330D02*
D03*
X280670D02*
D03*
X316230Y172720D02*
D03*
Y158750D02*
D03*
X347980Y624840D02*
D03*
X317940Y486190D02*
D03*
X305940D02*
D03*
Y498190D02*
D03*
X329940Y486190D02*
D03*
Y498190D02*
D03*
Y510190D02*
D03*
X293940Y486190D02*
D03*
X317940Y510190D02*
D03*
X293940Y498190D02*
D03*
Y510190D02*
D03*
X305940D02*
D03*
X317940Y498190D02*
D03*
X325120Y294640D02*
D03*
X391160Y410210D02*
D03*
X344170D02*
D03*
X455564Y608717D02*
D03*
X381922Y511360D02*
D03*
X54387Y673134D02*
D03*
X153848Y478728D02*
D03*
X7620Y673100D02*
D03*
X280288Y431849D02*
D03*
X288290Y421640D02*
D03*
X231140Y351790D02*
D03*
X384810Y289560D02*
D03*
X351790Y245110D02*
D03*
X377190D02*
D03*
X326390D02*
D03*
M02*
