G04*
G04 #@! TF.GenerationSoftware,Altium Limited,Altium Designer,24.2.2 (26)*
G04*
G04 Layer_Physical_Order=2*
G04 Layer_Color=16711680*
%FSLAX44Y44*%
%MOMM*%
G71*
G04*
G04 #@! TF.SameCoordinates,D4777117-7EC2-4350-9FDB-5EFC8E967FA0*
G04*
G04*
G04 #@! TF.FilePolarity,Positive*
G04*
G01*
G75*
%ADD15C,0.3000*%
%ADD38R,1.2000X1.2000*%
%ADD76C,0.5000*%
%ADD77C,0.4000*%
%ADD79O,2.0320X1.7780*%
%ADD80O,3.0000X1.5000*%
%ADD81R,3.0000X1.5000*%
%ADD82R,1.7780X1.6510*%
%ADD83O,1.7780X1.6510*%
%ADD84C,1.0000*%
%ADD85C,1.6000*%
%ADD86R,1.6000X1.6000*%
%ADD87C,0.8000*%
%ADD88R,0.6000X1.6000*%
%ADD89R,0.7000X0.4000*%
G36*
X435609Y412750D02*
X516890D01*
X517640D01*
X519113Y413043D01*
X520499Y413617D01*
X521747Y414451D01*
X522809Y415513D01*
X523643Y416761D01*
X524217Y418147D01*
X524510Y419619D01*
Y420370D01*
X524510D01*
X524510Y431800D01*
X524510Y433063D01*
X523543Y435397D01*
X521757Y437183D01*
X519422Y438149D01*
X518159Y438149D01*
X518160Y438150D01*
X459740D01*
X458993Y438187D01*
X457528Y438478D01*
X456148Y439049D01*
X454906Y439879D01*
X453850Y440935D01*
X453020Y442177D01*
X452448Y443557D01*
X452157Y445022D01*
X452120Y445769D01*
X452120Y445770D01*
X452120Y482823D01*
X452120Y484084D01*
X451617Y486556D01*
X450630Y488878D01*
X449201Y490957D01*
X447385Y492709D01*
X445257Y494063D01*
X442901Y494966D01*
X440412Y495380D01*
X439152Y495335D01*
X439152Y495336D01*
X436880Y495255D01*
X377235D01*
X376484Y495291D01*
X375010Y495585D01*
X373622Y496160D01*
X372373Y496995D01*
X371310Y498057D01*
X370475Y499306D01*
X369900Y500695D01*
X369607Y502169D01*
X369570Y502920D01*
Y502920D01*
X369570Y508000D01*
X369570Y509126D01*
X369131Y511334D01*
X368269Y513414D01*
X367018Y515286D01*
X365426Y516878D01*
X363554Y518129D01*
X361474Y518990D01*
X359265Y519430D01*
X358140Y519429D01*
X358140Y519430D01*
X290830Y519430D01*
X289820Y519430D01*
X287952Y518657D01*
X286523Y517228D01*
X285750Y515360D01*
X285750Y514350D01*
Y514350D01*
Y483870D01*
Y482994D01*
X286092Y481277D01*
X286762Y479659D01*
X287735Y478203D01*
X288973Y476965D01*
X290429Y475992D01*
X292047Y475322D01*
X293764Y474980D01*
X294640D01*
Y474980D01*
X334010Y474980D01*
X335255Y474919D01*
X337697Y474433D01*
X339997Y473480D01*
X342067Y472097D01*
X343827Y470337D01*
X345210Y468267D01*
X346163Y465967D01*
X346649Y463525D01*
X346710Y462280D01*
X346710Y462280D01*
Y435610D01*
X346710Y434859D01*
X347003Y433387D01*
X347577Y432001D01*
X348411Y430752D01*
X349472Y429691D01*
X350720Y428857D01*
X352107Y428283D01*
X353579Y427990D01*
X354330Y427990D01*
X354330D01*
X425450Y427990D01*
X426441Y427892D01*
X428273Y427134D01*
X429674Y425732D01*
X430432Y423901D01*
X430530Y422910D01*
X430530Y422910D01*
Y417830D01*
X430530Y416820D01*
X431303Y414953D01*
X432732Y413523D01*
X434599Y412750D01*
X435609Y412750D01*
X435609D01*
D02*
G37*
D15*
X282046Y596838D02*
X346223D01*
X347980Y598596D01*
Y624840D01*
X280288Y595081D02*
X282046Y596838D01*
X280288Y431849D02*
Y595081D01*
X55880Y528320D02*
X127000D01*
X54610Y529590D02*
X55880Y528320D01*
X280033Y431594D02*
X280288Y431849D01*
X132567Y431594D02*
X280033D01*
X130810Y433352D02*
X132567Y431594D01*
X130810Y433352D02*
Y524510D01*
X127000Y528320D02*
X130810Y524510D01*
X325120Y294640D02*
X325195Y294715D01*
X351755D01*
X455930Y607939D02*
X456188Y608197D01*
X455564Y608717D02*
X456084Y608197D01*
X456188D01*
X455930Y513117D02*
Y607939D01*
X454173Y511360D02*
X455930Y513117D01*
X381922Y511360D02*
X454173D01*
X231470Y352120D02*
Y387430D01*
X231140Y351790D02*
X231470Y352120D01*
Y387430D02*
X231800Y387760D01*
X241300Y341630D02*
Y365760D01*
X222250Y341630D02*
X222275Y341655D01*
Y365735D01*
X222300Y365760D01*
X372110Y281790D02*
X393213D01*
X394970Y283547D02*
Y313203D01*
X393213Y281790D02*
X394970Y283547D01*
X393213Y314960D02*
X394970Y313203D01*
X373330Y314960D02*
X393213D01*
X351755Y294715D02*
X352330Y295290D01*
Y314960D01*
X360680Y261620D02*
Y292100D01*
X351790Y252730D02*
X360680Y261620D01*
Y292100D02*
X363370Y294790D01*
X351790Y245110D02*
Y252730D01*
X363370Y294790D02*
X372200D01*
D38*
X373330Y314960D02*
D03*
X352330D02*
D03*
D76*
X326390Y486566D02*
X326465Y486640D01*
X316619Y410210D02*
X344170D01*
X313690Y413139D02*
X316619Y410210D01*
X313690Y413139D02*
Y485140D01*
X326390Y421640D02*
X388231D01*
X326390D02*
Y485035D01*
X391160Y410210D02*
Y418711D01*
X388231Y421640D02*
X391160Y418711D01*
D77*
X59243Y549910D02*
X124460D01*
X54387Y554767D02*
X59243Y549910D01*
X124460D02*
X139700Y534670D01*
X54387Y554767D02*
Y673134D01*
X121723Y421640D02*
X288290D01*
X119380Y423983D02*
X121723Y421640D01*
X119380Y423983D02*
Y501847D01*
X117037Y504190D02*
X119380Y501847D01*
X54610Y504190D02*
X117037D01*
X5130Y235973D02*
Y669528D01*
X7620Y672018D01*
Y673100D01*
X142043Y478728D02*
X153848D01*
X139700Y481071D02*
X142043Y478728D01*
X139700Y481071D02*
Y534670D01*
X5130Y235973D02*
X8693Y232410D01*
X24130D01*
X372200Y288290D02*
X382458D01*
X383728Y289560D02*
X384810D01*
X382458Y288290D02*
X383728Y289560D01*
X372110Y265430D02*
Y281790D01*
X24130Y179070D02*
X25400Y180340D01*
Y209533D02*
X27743Y211876D01*
X160020D01*
X25400Y180340D02*
Y209533D01*
X372110Y265430D02*
X377190Y260350D01*
Y245110D02*
Y260350D01*
X372200Y294790D02*
X372396D01*
X326390Y279447D02*
X328733Y281790D01*
X351700D01*
X326390Y245110D02*
Y279447D01*
D79*
X473710Y92710D02*
D03*
Y118110D02*
D03*
X443230Y92710D02*
D03*
Y118110D02*
D03*
D80*
X24130Y232410D02*
D03*
Y257810D02*
D03*
Y283210D02*
D03*
Y308610D02*
D03*
Y334010D02*
D03*
Y359410D02*
D03*
Y384810D02*
D03*
X506730Y207010D02*
D03*
Y181610D02*
D03*
Y156210D02*
D03*
Y130810D02*
D03*
Y105410D02*
D03*
Y80010D02*
D03*
Y54610D02*
D03*
X24130Y52070D02*
D03*
Y77470D02*
D03*
Y102870D02*
D03*
Y128270D02*
D03*
Y153670D02*
D03*
X506730Y476250D02*
D03*
Y450850D02*
D03*
Y425450D02*
D03*
Y400050D02*
D03*
Y374650D02*
D03*
Y349250D02*
D03*
Y323850D02*
D03*
Y298450D02*
D03*
Y273050D02*
D03*
D81*
X24130Y410210D02*
D03*
X506730Y232410D02*
D03*
X24130Y179070D02*
D03*
X506730Y501650D02*
D03*
D82*
X54610Y478790D02*
D03*
D83*
Y504190D02*
D03*
Y529590D02*
D03*
D84*
X222250Y341630D02*
D03*
X241300D02*
D03*
D85*
X412750Y118110D02*
D03*
D86*
Y92710D02*
D03*
D87*
X347980Y624840D02*
D03*
X317940Y486190D02*
D03*
X305940D02*
D03*
Y498190D02*
D03*
X329940Y486190D02*
D03*
Y498190D02*
D03*
Y510190D02*
D03*
X293940Y486190D02*
D03*
X317940Y510190D02*
D03*
X293940Y498190D02*
D03*
Y510190D02*
D03*
X305940D02*
D03*
X317940Y498190D02*
D03*
X325120Y294640D02*
D03*
X391160Y410210D02*
D03*
X344170D02*
D03*
X455564Y608717D02*
D03*
X381922Y511360D02*
D03*
X54387Y673134D02*
D03*
X153848Y478728D02*
D03*
X7620Y673100D02*
D03*
X280288Y431849D02*
D03*
X288290Y421640D02*
D03*
X231140Y351790D02*
D03*
X384810Y289560D02*
D03*
X160020Y211876D02*
D03*
X351790Y245110D02*
D03*
X377190D02*
D03*
X326390D02*
D03*
D88*
X231800Y387760D02*
D03*
X222300Y365760D02*
D03*
X241300D02*
D03*
D89*
X351700Y294790D02*
D03*
Y281790D02*
D03*
X372200Y281790D02*
D03*
Y288290D02*
D03*
Y294790D02*
D03*
M02*
