G04*
G04 #@! TF.GenerationSoftware,Altium Limited,Altium Designer,24.2.2 (26)*
G04*
G04 Layer_Color=32896*
%FSLAX44Y44*%
%MOMM*%
G71*
G04*
G04 #@! TF.SameCoordinates,1E054471-4286-4940-991A-2DB9724D60F8*
G04*
G04*
G04 #@! TF.FilePolarity,Positive*
G04*
G01*
G75*
%ADD10C,0.2500*%
%ADD14C,0.2000*%
%ADD16C,0.1500*%
G36*
X203944Y50361D02*
Y28798D01*
Y8479D01*
X13037D01*
Y29273D01*
X65514D01*
Y50361D01*
Y69900D01*
X203944D01*
Y50361D01*
D02*
G37*
G36*
X66040Y159372D02*
X45671D01*
Y218440D01*
X66040D01*
Y159372D01*
D02*
G37*
%LPC*%
G36*
X94299Y67692D02*
X94114D01*
X93975Y67669D01*
X93813D01*
X93628Y67646D01*
X93189Y67553D01*
X92703Y67437D01*
X92194Y67252D01*
X91685Y66975D01*
X91430Y66813D01*
X91199Y66628D01*
X91175Y66604D01*
X91152Y66581D01*
X91083Y66512D01*
X91013Y66442D01*
X90898Y66327D01*
X90805Y66188D01*
X90551Y65864D01*
X90296Y65447D01*
X90065Y64938D01*
X89857Y64360D01*
X89718Y63712D01*
X91685Y63550D01*
Y63573D01*
X91708Y63596D01*
X91731Y63735D01*
X91800Y63943D01*
X91893Y64198D01*
X91985Y64476D01*
X92124Y64753D01*
X92286Y65008D01*
X92448Y65216D01*
X92494Y65262D01*
X92587Y65355D01*
X92749Y65494D01*
X92980Y65656D01*
X93281Y65795D01*
X93605Y65933D01*
X93998Y66026D01*
X94415Y66072D01*
X94577D01*
X94762Y66049D01*
X94970Y66003D01*
X95248Y65933D01*
X95526Y65841D01*
X95803Y65725D01*
X96081Y65540D01*
X96127Y65517D01*
X96243Y65424D01*
X96405Y65262D01*
X96613Y65031D01*
X96845Y64753D01*
X97099Y64429D01*
X97331Y64013D01*
X97562Y63550D01*
Y63527D01*
X97585Y63481D01*
X97608Y63411D01*
X97654Y63319D01*
X97678Y63180D01*
X97724Y63018D01*
X97770Y62833D01*
X97816Y62601D01*
X97886Y62347D01*
X97932Y62069D01*
X97978Y61768D01*
X98002Y61444D01*
X98048Y61074D01*
X98071Y60704D01*
X98094Y60287D01*
Y59871D01*
X98071Y59894D01*
X97978Y60033D01*
X97816Y60218D01*
X97608Y60449D01*
X97377Y60727D01*
X97076Y60981D01*
X96752Y61236D01*
X96382Y61467D01*
X96359D01*
X96336Y61491D01*
X96197Y61560D01*
X95989Y61629D01*
X95711Y61745D01*
X95387Y61838D01*
X95017Y61907D01*
X94623Y61976D01*
X94207Y62000D01*
X94022D01*
X93883Y61976D01*
X93698Y61953D01*
X93513Y61930D01*
X93281Y61884D01*
X93050Y61815D01*
X92518Y61653D01*
X92240Y61537D01*
X91962Y61375D01*
X91685Y61213D01*
X91384Y61028D01*
X91106Y60796D01*
X90852Y60542D01*
X90828Y60519D01*
X90782Y60472D01*
X90713Y60403D01*
X90643Y60287D01*
X90528Y60125D01*
X90412Y59963D01*
X90296Y59755D01*
X90157Y59524D01*
X90019Y59269D01*
X89903Y58992D01*
X89787Y58668D01*
X89671Y58344D01*
X89602Y57997D01*
X89533Y57603D01*
X89486Y57210D01*
X89463Y56793D01*
Y56539D01*
X89486Y56400D01*
Y56261D01*
X89556Y55891D01*
X89625Y55451D01*
X89741Y54988D01*
X89903Y54479D01*
X90134Y53993D01*
Y53970D01*
X90157Y53947D01*
X90204Y53878D01*
X90250Y53785D01*
X90389Y53554D01*
X90597Y53253D01*
X90852Y52929D01*
X91152Y52605D01*
X91523Y52281D01*
X91916Y52003D01*
X91939D01*
X91962Y51980D01*
X92032Y51934D01*
X92124Y51911D01*
X92356Y51795D01*
X92656Y51680D01*
X93050Y51541D01*
X93489Y51448D01*
X93975Y51356D01*
X94508Y51332D01*
X94623D01*
X94739Y51356D01*
X94924D01*
X95132Y51379D01*
X95364Y51425D01*
X95641Y51494D01*
X95919Y51564D01*
X96243Y51656D01*
X96567Y51772D01*
X96891Y51911D01*
X97238Y52096D01*
X97562Y52304D01*
X97886Y52536D01*
X98210Y52813D01*
X98511Y53137D01*
X98534Y53160D01*
X98580Y53230D01*
X98650Y53322D01*
X98742Y53484D01*
X98881Y53693D01*
X98997Y53924D01*
X99136Y54225D01*
X99274Y54549D01*
X99436Y54942D01*
X99575Y55382D01*
X99691Y55868D01*
X99806Y56400D01*
X99922Y57002D01*
X99992Y57649D01*
X100038Y58344D01*
X100061Y59084D01*
Y59292D01*
X100038Y59524D01*
Y59848D01*
X100015Y60218D01*
X99969Y60658D01*
X99922Y61143D01*
X99853Y61676D01*
X99760Y62208D01*
X99644Y62786D01*
X99506Y63342D01*
X99344Y63897D01*
X99136Y64429D01*
X98904Y64938D01*
X98650Y65424D01*
X98349Y65841D01*
X98326Y65864D01*
X98279Y65910D01*
X98187Y66003D01*
X98071Y66142D01*
X97932Y66280D01*
X97747Y66419D01*
X97516Y66604D01*
X97284Y66766D01*
X97007Y66928D01*
X96706Y67113D01*
X96359Y67252D01*
X96012Y67414D01*
X95618Y67530D01*
X95202Y67622D01*
X94762Y67669D01*
X94299Y67692D01*
D02*
G37*
G36*
X81850D02*
X81665D01*
X81526Y67669D01*
X81364D01*
X81179Y67646D01*
X80740Y67553D01*
X80254Y67437D01*
X79745Y67252D01*
X79236Y66975D01*
X78981Y66813D01*
X78750Y66628D01*
X78727Y66604D01*
X78703Y66581D01*
X78634Y66512D01*
X78565Y66442D01*
X78449Y66327D01*
X78356Y66188D01*
X78102Y65864D01*
X77847Y65447D01*
X77616Y64938D01*
X77408Y64360D01*
X77269Y63712D01*
X79236Y63550D01*
Y63573D01*
X79259Y63596D01*
X79282Y63735D01*
X79351Y63943D01*
X79444Y64198D01*
X79536Y64476D01*
X79675Y64753D01*
X79837Y65008D01*
X79999Y65216D01*
X80045Y65262D01*
X80138Y65355D01*
X80300Y65494D01*
X80531Y65656D01*
X80832Y65795D01*
X81156Y65933D01*
X81550Y66026D01*
X81966Y66072D01*
X82128D01*
X82313Y66049D01*
X82521Y66003D01*
X82799Y65933D01*
X83077Y65841D01*
X83354Y65725D01*
X83632Y65540D01*
X83678Y65517D01*
X83794Y65424D01*
X83956Y65262D01*
X84164Y65031D01*
X84396Y64753D01*
X84650Y64429D01*
X84882Y64013D01*
X85113Y63550D01*
Y63527D01*
X85136Y63481D01*
X85159Y63411D01*
X85205Y63319D01*
X85229Y63180D01*
X85275Y63018D01*
X85321Y62833D01*
X85367Y62601D01*
X85437Y62347D01*
X85483Y62069D01*
X85529Y61768D01*
X85553Y61444D01*
X85599Y61074D01*
X85622Y60704D01*
X85645Y60287D01*
Y59871D01*
X85622Y59894D01*
X85529Y60033D01*
X85367Y60218D01*
X85159Y60449D01*
X84928Y60727D01*
X84627Y60981D01*
X84303Y61236D01*
X83933Y61467D01*
X83910D01*
X83887Y61491D01*
X83748Y61560D01*
X83539Y61629D01*
X83262Y61745D01*
X82938Y61838D01*
X82568Y61907D01*
X82174Y61976D01*
X81758Y62000D01*
X81573D01*
X81434Y61976D01*
X81249Y61953D01*
X81064Y61930D01*
X80832Y61884D01*
X80601Y61815D01*
X80069Y61653D01*
X79791Y61537D01*
X79513Y61375D01*
X79236Y61213D01*
X78935Y61028D01*
X78657Y60796D01*
X78403Y60542D01*
X78379Y60519D01*
X78333Y60472D01*
X78264Y60403D01*
X78194Y60287D01*
X78079Y60125D01*
X77963Y59963D01*
X77847Y59755D01*
X77708Y59524D01*
X77569Y59269D01*
X77454Y58992D01*
X77338Y58668D01*
X77222Y58344D01*
X77153Y57997D01*
X77084Y57603D01*
X77037Y57210D01*
X77014Y56793D01*
Y56539D01*
X77037Y56400D01*
Y56261D01*
X77107Y55891D01*
X77176Y55451D01*
X77292Y54988D01*
X77454Y54479D01*
X77685Y53993D01*
Y53970D01*
X77708Y53947D01*
X77755Y53878D01*
X77801Y53785D01*
X77940Y53554D01*
X78148Y53253D01*
X78403Y52929D01*
X78703Y52605D01*
X79074Y52281D01*
X79467Y52003D01*
X79490D01*
X79513Y51980D01*
X79583Y51934D01*
X79675Y51911D01*
X79907Y51795D01*
X80207Y51680D01*
X80601Y51541D01*
X81040Y51448D01*
X81526Y51356D01*
X82059Y51332D01*
X82174D01*
X82290Y51356D01*
X82475D01*
X82683Y51379D01*
X82915Y51425D01*
X83192Y51494D01*
X83470Y51564D01*
X83794Y51656D01*
X84118Y51772D01*
X84442Y51911D01*
X84789Y52096D01*
X85113Y52304D01*
X85437Y52536D01*
X85761Y52813D01*
X86062Y53137D01*
X86085Y53160D01*
X86131Y53230D01*
X86201Y53322D01*
X86293Y53484D01*
X86432Y53693D01*
X86548Y53924D01*
X86686Y54225D01*
X86825Y54549D01*
X86987Y54942D01*
X87126Y55382D01*
X87242Y55868D01*
X87358Y56400D01*
X87473Y57002D01*
X87543Y57649D01*
X87589Y58344D01*
X87612Y59084D01*
Y59292D01*
X87589Y59524D01*
Y59848D01*
X87566Y60218D01*
X87520Y60658D01*
X87473Y61143D01*
X87404Y61676D01*
X87311Y62208D01*
X87196Y62786D01*
X87057Y63342D01*
X86895Y63897D01*
X86686Y64429D01*
X86455Y64938D01*
X86201Y65424D01*
X85900Y65841D01*
X85877Y65864D01*
X85830Y65910D01*
X85738Y66003D01*
X85622Y66142D01*
X85483Y66280D01*
X85298Y66419D01*
X85067Y66604D01*
X84835Y66766D01*
X84558Y66928D01*
X84257Y67113D01*
X83910Y67252D01*
X83563Y67414D01*
X83169Y67530D01*
X82753Y67622D01*
X82313Y67669D01*
X81850Y67692D01*
D02*
G37*
G36*
X117878Y67622D02*
X114708D01*
X110913Y56261D01*
Y56238D01*
X110890Y56192D01*
X110867Y56122D01*
X110821Y56007D01*
X110728Y55729D01*
X110613Y55382D01*
X110497Y54988D01*
X110358Y54595D01*
X110242Y54225D01*
X110150Y53901D01*
X110127Y53947D01*
X110104Y54063D01*
X110034Y54271D01*
X109942Y54549D01*
X109826Y54919D01*
X109664Y55359D01*
X109502Y55868D01*
X109294Y56469D01*
X105452Y67622D01*
X102606D01*
Y51610D01*
X104643D01*
Y65008D01*
X109317Y51610D01*
X111214D01*
X115842Y65239D01*
Y51610D01*
X117878D01*
Y67622D01*
D02*
G37*
G36*
X145646Y67276D02*
Y63226D01*
X143656D01*
Y61699D01*
X145646D01*
Y54873D01*
Y54826D01*
Y54734D01*
Y54595D01*
X145623Y54433D01*
X145599Y54063D01*
X145576Y53901D01*
X145553Y53785D01*
X145530Y53739D01*
X145461Y53646D01*
X145368Y53531D01*
X145206Y53415D01*
X145160Y53392D01*
X145044Y53345D01*
X144836Y53299D01*
X144535Y53276D01*
X144304D01*
X144188Y53299D01*
X144026D01*
X143841Y53322D01*
X143656Y53345D01*
X143401Y51610D01*
X143447D01*
X143540Y51587D01*
X143702Y51564D01*
X143910Y51541D01*
X144142Y51494D01*
X144396Y51471D01*
X144905Y51448D01*
X145090D01*
X145275Y51471D01*
X145507Y51494D01*
X145785Y51518D01*
X146062Y51587D01*
X146317Y51656D01*
X146571Y51772D01*
X146594Y51795D01*
X146664Y51842D01*
X146756Y51911D01*
X146895Y52027D01*
X147011Y52142D01*
X147150Y52304D01*
X147289Y52466D01*
X147381Y52674D01*
Y52698D01*
X147427Y52790D01*
X147451Y52952D01*
X147497Y53184D01*
X147543Y53484D01*
X147566Y53670D01*
Y53878D01*
X147589Y54132D01*
X147612Y54387D01*
Y54665D01*
Y54988D01*
Y61699D01*
X149070D01*
Y63226D01*
X147612D01*
Y66095D01*
X145646Y67276D01*
D02*
G37*
G36*
X184080Y63226D02*
X182113D01*
Y56770D01*
Y56747D01*
Y56701D01*
Y56631D01*
Y56516D01*
Y56261D01*
X182090Y55937D01*
Y55590D01*
X182067Y55243D01*
X182044Y54942D01*
X181998Y54688D01*
Y54665D01*
X181951Y54572D01*
X181905Y54433D01*
X181836Y54248D01*
X181720Y54063D01*
X181581Y53855D01*
X181419Y53670D01*
X181211Y53484D01*
X181188Y53461D01*
X181095Y53415D01*
X180979Y53345D01*
X180794Y53276D01*
X180586Y53184D01*
X180332Y53114D01*
X180054Y53068D01*
X179730Y53045D01*
X179568D01*
X179406Y53068D01*
X179198Y53091D01*
X178943Y53160D01*
X178666Y53230D01*
X178365Y53345D01*
X178064Y53484D01*
X178018Y53507D01*
X177925Y53577D01*
X177786Y53670D01*
X177624Y53808D01*
X177439Y53993D01*
X177254Y54202D01*
X177092Y54433D01*
X176953Y54711D01*
X176930Y54757D01*
X176907Y54850D01*
X176861Y55035D01*
X176791Y55289D01*
X176722Y55613D01*
X176676Y56007D01*
X176653Y56469D01*
X176629Y57002D01*
Y63226D01*
X174662D01*
Y51610D01*
X176421D01*
Y53299D01*
X176444Y53276D01*
X176490Y53207D01*
X176560Y53114D01*
X176676Y52998D01*
X176814Y52860D01*
X176976Y52674D01*
X177162Y52512D01*
X177393Y52327D01*
X177647Y52142D01*
X177925Y51980D01*
X178226Y51818D01*
X178550Y51656D01*
X178920Y51541D01*
X179290Y51448D01*
X179707Y51379D01*
X180123Y51356D01*
X180285D01*
X180494Y51379D01*
X180748Y51402D01*
X181049Y51448D01*
X181373Y51518D01*
X181697Y51610D01*
X182044Y51749D01*
X182090Y51772D01*
X182183Y51818D01*
X182345Y51911D01*
X182530Y52027D01*
X182761Y52165D01*
X182969Y52327D01*
X183178Y52512D01*
X183363Y52721D01*
X183386Y52744D01*
X183432Y52836D01*
X183502Y52952D01*
X183594Y53137D01*
X183710Y53345D01*
X183803Y53600D01*
X183895Y53878D01*
X183965Y54179D01*
Y54202D01*
X183988Y54294D01*
X184011Y54433D01*
Y54618D01*
X184034Y54896D01*
X184057Y55197D01*
X184080Y55590D01*
Y63226D01*
D02*
G37*
G36*
X166841Y63481D02*
X166610D01*
X166448Y63457D01*
X166263Y63434D01*
X166031Y63388D01*
X165777Y63342D01*
X165476Y63272D01*
X165198Y63203D01*
X164874Y63087D01*
X164574Y62972D01*
X164250Y62810D01*
X163926Y62624D01*
X163602Y62416D01*
X163301Y62162D01*
X163023Y61884D01*
X163000Y61861D01*
X162954Y61815D01*
X162885Y61722D01*
X162792Y61583D01*
X162676Y61421D01*
X162561Y61236D01*
X162422Y61005D01*
X162283Y60727D01*
X162144Y60426D01*
X162005Y60102D01*
X161889Y59732D01*
X161774Y59339D01*
X161681Y58899D01*
X161612Y58436D01*
X161566Y57950D01*
X161542Y57418D01*
Y57140D01*
X161566Y56909D01*
X170243D01*
Y56886D01*
Y56816D01*
X170220Y56724D01*
Y56585D01*
X170197Y56423D01*
X170150Y56238D01*
X170081Y55821D01*
X169942Y55359D01*
X169757Y54850D01*
X169502Y54387D01*
X169178Y53970D01*
X169155D01*
X169132Y53924D01*
X168993Y53808D01*
X168785Y53646D01*
X168507Y53484D01*
X168137Y53299D01*
X167721Y53137D01*
X167258Y53022D01*
X167003Y52998D01*
X166726Y52975D01*
X166541D01*
X166332Y52998D01*
X166078Y53045D01*
X165800Y53114D01*
X165476Y53207D01*
X165175Y53345D01*
X164874Y53531D01*
X164851Y53554D01*
X164736Y53646D01*
X164597Y53785D01*
X164435Y53970D01*
X164250Y54225D01*
X164042Y54549D01*
X163833Y54919D01*
X163648Y55359D01*
X161612Y55104D01*
Y55081D01*
X161635Y55035D01*
X161658Y54942D01*
X161704Y54803D01*
X161774Y54665D01*
X161843Y54479D01*
X162028Y54086D01*
X162260Y53646D01*
X162584Y53184D01*
X162954Y52744D01*
X163417Y52327D01*
X163440D01*
X163486Y52281D01*
X163556Y52235D01*
X163648Y52165D01*
X163787Y52096D01*
X163926Y52027D01*
X164111Y51934D01*
X164319Y51842D01*
X164550Y51749D01*
X164782Y51656D01*
X165360Y51518D01*
X166008Y51402D01*
X166726Y51356D01*
X166980D01*
X167142Y51379D01*
X167350Y51402D01*
X167605Y51448D01*
X167883Y51494D01*
X168183Y51541D01*
X168831Y51726D01*
X169178Y51865D01*
X169502Y52003D01*
X169849Y52189D01*
X170173Y52397D01*
X170474Y52628D01*
X170775Y52906D01*
X170798Y52929D01*
X170844Y52975D01*
X170914Y53068D01*
X171006Y53207D01*
X171122Y53369D01*
X171238Y53554D01*
X171377Y53785D01*
X171516Y54040D01*
X171654Y54341D01*
X171793Y54665D01*
X171909Y55035D01*
X172025Y55428D01*
X172117Y55845D01*
X172187Y56307D01*
X172233Y56793D01*
X172256Y57302D01*
Y57580D01*
X172233Y57788D01*
X172210Y58043D01*
X172187Y58320D01*
X172140Y58644D01*
X172071Y58968D01*
X171886Y59709D01*
X171770Y60079D01*
X171631Y60472D01*
X171446Y60843D01*
X171238Y61190D01*
X171006Y61537D01*
X170752Y61861D01*
X170729Y61884D01*
X170683Y61930D01*
X170590Y62000D01*
X170474Y62115D01*
X170335Y62231D01*
X170150Y62370D01*
X169942Y62532D01*
X169688Y62671D01*
X169433Y62833D01*
X169132Y62972D01*
X168808Y63110D01*
X168461Y63226D01*
X168091Y63342D01*
X167698Y63411D01*
X167281Y63457D01*
X166841Y63481D01*
D02*
G37*
G36*
X154439D02*
X154254D01*
X154115Y63457D01*
X153976D01*
X153791Y63434D01*
X153351Y63365D01*
X152865Y63249D01*
X152356Y63064D01*
X151847Y62833D01*
X151361Y62509D01*
X151338D01*
X151315Y62463D01*
X151176Y62324D01*
X150968Y62115D01*
X150713Y61815D01*
X150459Y61444D01*
X150204Y60981D01*
X149973Y60449D01*
X149811Y59825D01*
X151731Y59524D01*
Y59547D01*
X151755Y59570D01*
X151778Y59709D01*
X151847Y59917D01*
X151963Y60172D01*
X152078Y60449D01*
X152263Y60750D01*
X152472Y61028D01*
X152703Y61259D01*
X152726Y61282D01*
X152819Y61352D01*
X152981Y61444D01*
X153166Y61560D01*
X153420Y61676D01*
X153698Y61768D01*
X154022Y61838D01*
X154369Y61861D01*
X154508D01*
X154624Y61838D01*
X154878Y61815D01*
X155225Y61722D01*
X155596Y61606D01*
X156012Y61421D01*
X156405Y61143D01*
X156591Y60981D01*
X156776Y60796D01*
Y60773D01*
X156822Y60750D01*
X156868Y60681D01*
X156915Y60588D01*
X156984Y60472D01*
X157077Y60334D01*
X157146Y60172D01*
X157239Y59987D01*
X157331Y59755D01*
X157401Y59501D01*
X157493Y59223D01*
X157562Y58922D01*
X157609Y58598D01*
X157655Y58228D01*
X157701Y57835D01*
Y57418D01*
Y57395D01*
Y57326D01*
Y57187D01*
X157678Y57048D01*
Y56840D01*
X157655Y56631D01*
X157586Y56122D01*
X157493Y55567D01*
X157331Y54988D01*
X157123Y54479D01*
X156984Y54225D01*
X156822Y54017D01*
X156776Y53970D01*
X156660Y53855D01*
X156452Y53693D01*
X156197Y53507D01*
X155850Y53299D01*
X155457Y53137D01*
X154994Y53022D01*
X154739Y52998D01*
X154485Y52975D01*
X154439D01*
X154300Y52998D01*
X154068Y53022D01*
X153814Y53068D01*
X153513Y53137D01*
X153189Y53276D01*
X152865Y53438D01*
X152564Y53670D01*
X152518Y53693D01*
X152449Y53808D01*
X152310Y53970D01*
X152148Y54225D01*
X151986Y54526D01*
X151801Y54896D01*
X151662Y55359D01*
X151569Y55868D01*
X149626Y55613D01*
Y55590D01*
X149649Y55521D01*
X149672Y55428D01*
X149695Y55289D01*
X149741Y55104D01*
X149788Y54919D01*
X149950Y54456D01*
X150158Y53970D01*
X150459Y53438D01*
X150829Y52929D01*
X151037Y52698D01*
X151269Y52466D01*
X151292Y52443D01*
X151338Y52420D01*
X151407Y52374D01*
X151500Y52304D01*
X151616Y52212D01*
X151778Y52119D01*
X151963Y52027D01*
X152148Y51911D01*
X152611Y51703D01*
X153166Y51541D01*
X153768Y51402D01*
X154115Y51379D01*
X154462Y51356D01*
X154693D01*
X154855Y51379D01*
X155063Y51402D01*
X155295Y51448D01*
X155549Y51494D01*
X155827Y51541D01*
X156452Y51726D01*
X156753Y51865D01*
X157077Y52003D01*
X157401Y52189D01*
X157701Y52397D01*
X158002Y52628D01*
X158280Y52906D01*
X158303Y52929D01*
X158349Y52975D01*
X158419Y53068D01*
X158511Y53184D01*
X158604Y53345D01*
X158743Y53554D01*
X158858Y53785D01*
X158997Y54040D01*
X159136Y54341D01*
X159252Y54688D01*
X159390Y55035D01*
X159483Y55451D01*
X159576Y55868D01*
X159645Y56354D01*
X159691Y56840D01*
X159714Y57372D01*
Y57696D01*
X159691Y57858D01*
Y58043D01*
X159668Y58251D01*
X159645Y58482D01*
X159576Y58992D01*
X159460Y59547D01*
X159321Y60102D01*
X159113Y60658D01*
Y60681D01*
X159090Y60727D01*
X159043Y60796D01*
X158997Y60889D01*
X158858Y61143D01*
X158650Y61444D01*
X158372Y61791D01*
X158048Y62139D01*
X157655Y62486D01*
X157215Y62763D01*
X157192D01*
X157146Y62786D01*
X157077Y62833D01*
X156984Y62879D01*
X156868Y62925D01*
X156729Y62995D01*
X156382Y63134D01*
X155989Y63249D01*
X155503Y63365D01*
X154994Y63457D01*
X154439Y63481D01*
D02*
G37*
G36*
X136968D02*
X136737D01*
X136575Y63457D01*
X136390Y63434D01*
X136159Y63388D01*
X135904Y63342D01*
X135603Y63272D01*
X135325Y63203D01*
X135001Y63087D01*
X134701Y62972D01*
X134377Y62810D01*
X134053Y62624D01*
X133729Y62416D01*
X133428Y62162D01*
X133150Y61884D01*
X133127Y61861D01*
X133081Y61815D01*
X133012Y61722D01*
X132919Y61583D01*
X132803Y61421D01*
X132688Y61236D01*
X132549Y61005D01*
X132410Y60727D01*
X132271Y60426D01*
X132132Y60102D01*
X132017Y59732D01*
X131901Y59339D01*
X131808Y58899D01*
X131739Y58436D01*
X131693Y57950D01*
X131670Y57418D01*
Y57140D01*
X131693Y56909D01*
X140370D01*
Y56886D01*
Y56816D01*
X140347Y56724D01*
Y56585D01*
X140324Y56423D01*
X140277Y56238D01*
X140208Y55821D01*
X140069Y55359D01*
X139884Y54850D01*
X139629Y54387D01*
X139305Y53970D01*
X139282D01*
X139259Y53924D01*
X139120Y53808D01*
X138912Y53646D01*
X138634Y53484D01*
X138264Y53299D01*
X137848Y53137D01*
X137385Y53022D01*
X137130Y52998D01*
X136853Y52975D01*
X136668D01*
X136459Y52998D01*
X136205Y53045D01*
X135927Y53114D01*
X135603Y53207D01*
X135302Y53345D01*
X135001Y53531D01*
X134978Y53554D01*
X134863Y53646D01*
X134724Y53785D01*
X134562Y53970D01*
X134377Y54225D01*
X134169Y54549D01*
X133960Y54919D01*
X133775Y55359D01*
X131739Y55104D01*
Y55081D01*
X131762Y55035D01*
X131785Y54942D01*
X131831Y54803D01*
X131901Y54665D01*
X131970Y54479D01*
X132155Y54086D01*
X132387Y53646D01*
X132711Y53184D01*
X133081Y52744D01*
X133544Y52327D01*
X133567D01*
X133613Y52281D01*
X133683Y52235D01*
X133775Y52165D01*
X133914Y52096D01*
X134053Y52027D01*
X134238Y51934D01*
X134446Y51842D01*
X134678Y51749D01*
X134909Y51656D01*
X135487Y51518D01*
X136135Y51402D01*
X136853Y51356D01*
X137107D01*
X137269Y51379D01*
X137477Y51402D01*
X137732Y51448D01*
X138010Y51494D01*
X138310Y51541D01*
X138958Y51726D01*
X139305Y51865D01*
X139629Y52003D01*
X139977Y52189D01*
X140301Y52397D01*
X140601Y52628D01*
X140902Y52906D01*
X140925Y52929D01*
X140971Y52975D01*
X141041Y53068D01*
X141133Y53207D01*
X141249Y53369D01*
X141365Y53554D01*
X141504Y53785D01*
X141643Y54040D01*
X141781Y54341D01*
X141920Y54665D01*
X142036Y55035D01*
X142152Y55428D01*
X142244Y55845D01*
X142314Y56307D01*
X142360Y56793D01*
X142383Y57302D01*
Y57580D01*
X142360Y57788D01*
X142337Y58043D01*
X142314Y58320D01*
X142267Y58644D01*
X142198Y58968D01*
X142013Y59709D01*
X141897Y60079D01*
X141758Y60472D01*
X141573Y60843D01*
X141365Y61190D01*
X141133Y61537D01*
X140879Y61861D01*
X140856Y61884D01*
X140809Y61930D01*
X140717Y62000D01*
X140601Y62115D01*
X140462Y62231D01*
X140277Y62370D01*
X140069Y62532D01*
X139815Y62671D01*
X139560Y62833D01*
X139259Y62972D01*
X138935Y63110D01*
X138588Y63226D01*
X138218Y63342D01*
X137824Y63411D01*
X137408Y63457D01*
X136968Y63481D01*
D02*
G37*
G36*
X129309Y67622D02*
X127342D01*
Y51610D01*
X129309D01*
Y67622D01*
D02*
G37*
G36*
X194701Y67900D02*
X194076D01*
X193914Y67877D01*
X193706D01*
X193498Y67854D01*
X193220Y67808D01*
X192943Y67761D01*
X192341Y67646D01*
X191647Y67461D01*
X190976Y67183D01*
X190629Y67021D01*
X190282Y66836D01*
X190258Y66813D01*
X190212Y66789D01*
X190120Y66720D01*
X189981Y66651D01*
X189842Y66535D01*
X189657Y66396D01*
X189263Y66072D01*
X188847Y65656D01*
X188384Y65147D01*
X187945Y64545D01*
X187574Y63874D01*
Y63851D01*
X187528Y63781D01*
X187482Y63689D01*
X187435Y63550D01*
X187343Y63365D01*
X187273Y63157D01*
X187181Y62902D01*
X187088Y62624D01*
X187019Y62324D01*
X186926Y62000D01*
X186834Y61653D01*
X186764Y61282D01*
X186672Y60472D01*
X186625Y59616D01*
Y59593D01*
Y59524D01*
Y59431D01*
Y59292D01*
X186649Y59107D01*
Y58899D01*
X186672Y58668D01*
X186695Y58436D01*
X186764Y57881D01*
X186880Y57279D01*
X187019Y56655D01*
X187227Y56053D01*
Y56030D01*
X187250Y55983D01*
X187297Y55891D01*
X187343Y55798D01*
X187412Y55659D01*
X187482Y55497D01*
X187667Y55127D01*
X187921Y54688D01*
X188245Y54225D01*
X188615Y53762D01*
X189032Y53299D01*
X189009D01*
X188963Y53253D01*
X188893Y53207D01*
X188778Y53137D01*
X188662Y53045D01*
X188500Y52952D01*
X188153Y52744D01*
X187736Y52489D01*
X187273Y52235D01*
X186787Y52027D01*
X186325Y51818D01*
X186950Y50361D01*
X186973D01*
X187019Y50384D01*
X187111Y50430D01*
X187250Y50476D01*
X187412Y50546D01*
X187597Y50638D01*
X187806Y50731D01*
X188037Y50847D01*
X188546Y51124D01*
X189125Y51448D01*
X189749Y51865D01*
X190397Y52327D01*
X190420D01*
X190467Y52281D01*
X190582Y52235D01*
X190698Y52165D01*
X190883Y52096D01*
X191068Y52003D01*
X191300Y51934D01*
X191554Y51842D01*
X191832Y51749D01*
X192133Y51656D01*
X192804Y51494D01*
X193544Y51379D01*
X193938Y51356D01*
X194331Y51332D01*
X194539D01*
X194701Y51356D01*
X194886D01*
X195118Y51379D01*
X195372Y51425D01*
X195650Y51471D01*
X196252Y51587D01*
X196923Y51772D01*
X197617Y52027D01*
X197941Y52189D01*
X198288Y52374D01*
X198311Y52397D01*
X198357Y52420D01*
X198450Y52489D01*
X198566Y52559D01*
X198727Y52674D01*
X198889Y52813D01*
X199283Y53137D01*
X199722Y53554D01*
X200162Y54063D01*
X200602Y54641D01*
X200995Y55312D01*
Y55335D01*
X201041Y55405D01*
X201088Y55497D01*
X201134Y55636D01*
X201203Y55821D01*
X201296Y56030D01*
X201388Y56284D01*
X201458Y56562D01*
X201550Y56863D01*
X201643Y57187D01*
X201712Y57534D01*
X201805Y57927D01*
X201898Y58737D01*
X201944Y59593D01*
Y59825D01*
X201921Y59987D01*
Y60195D01*
X201898Y60449D01*
X201874Y60727D01*
X201828Y61028D01*
X201712Y61699D01*
X201550Y62416D01*
X201319Y63180D01*
X200995Y63920D01*
X200972Y63943D01*
X200949Y64013D01*
X200903Y64105D01*
X200810Y64244D01*
X200717Y64406D01*
X200602Y64591D01*
X200278Y65031D01*
X199908Y65494D01*
X199422Y65980D01*
X198889Y66466D01*
X198265Y66882D01*
X198242Y66905D01*
X198172Y66928D01*
X198079Y66975D01*
X197941Y67044D01*
X197779Y67113D01*
X197594Y67206D01*
X197362Y67299D01*
X197108Y67391D01*
X196807Y67484D01*
X196506Y67576D01*
X195835Y67738D01*
X195095Y67854D01*
X194701Y67900D01*
D02*
G37*
G36*
X102375Y47158D02*
X101102D01*
Y31076D01*
X103069D01*
Y43595D01*
X103092Y43572D01*
X103208Y43479D01*
X103347Y43340D01*
X103578Y43178D01*
X103833Y42970D01*
X104157Y42738D01*
X104527Y42484D01*
X104944Y42229D01*
X104967D01*
X104990Y42206D01*
X105129Y42114D01*
X105360Y41998D01*
X105638Y41859D01*
X105962Y41697D01*
X106309Y41535D01*
X106656Y41373D01*
X107003Y41234D01*
Y43132D01*
X106980D01*
X106933Y43178D01*
X106841Y43201D01*
X106725Y43271D01*
X106586Y43340D01*
X106424Y43433D01*
X106031Y43664D01*
X105568Y43919D01*
X105105Y44243D01*
X104620Y44613D01*
X104134Y45006D01*
X104110Y45029D01*
X104087Y45052D01*
X104018Y45122D01*
X103925Y45191D01*
X103717Y45423D01*
X103439Y45700D01*
X103162Y46024D01*
X102861Y46395D01*
X102606Y46765D01*
X102375Y47158D01*
D02*
G37*
G36*
X156544Y42947D02*
X156290D01*
X156035Y42924D01*
X155688Y42900D01*
X155295Y42854D01*
X154901Y42785D01*
X154508Y42692D01*
X154138Y42576D01*
X154092Y42553D01*
X153976Y42507D01*
X153814Y42438D01*
X153606Y42345D01*
X153374Y42206D01*
X153143Y42067D01*
X152935Y41882D01*
X152750Y41697D01*
X152726Y41674D01*
X152680Y41605D01*
X152611Y41489D01*
X152518Y41350D01*
X152402Y41142D01*
X152310Y40934D01*
X152217Y40679D01*
X152148Y40378D01*
Y40355D01*
X152125Y40286D01*
X152101Y40147D01*
X152078Y39962D01*
Y39707D01*
X152055Y39406D01*
X152032Y39013D01*
Y38573D01*
Y35935D01*
Y35912D01*
Y35820D01*
Y35681D01*
Y35496D01*
Y35288D01*
Y35033D01*
X152009Y34478D01*
Y33899D01*
X151986Y33321D01*
X151963Y33066D01*
Y32835D01*
X151940Y32627D01*
X151916Y32465D01*
Y32441D01*
X151893Y32349D01*
X151870Y32210D01*
X151801Y32025D01*
X151755Y31817D01*
X151662Y31585D01*
X151546Y31331D01*
X151431Y31076D01*
X153490D01*
X153513Y31099D01*
X153536Y31192D01*
X153582Y31308D01*
X153652Y31493D01*
X153721Y31701D01*
X153768Y31955D01*
X153814Y32233D01*
X153860Y32534D01*
X153883D01*
X153906Y32488D01*
X154045Y32372D01*
X154254Y32210D01*
X154531Y32002D01*
X154878Y31793D01*
X155225Y31562D01*
X155596Y31354D01*
X155989Y31192D01*
X156035Y31169D01*
X156174Y31146D01*
X156382Y31076D01*
X156637Y31007D01*
X156961Y30937D01*
X157331Y30891D01*
X157748Y30845D01*
X158164Y30822D01*
X158349D01*
X158488Y30845D01*
X158650D01*
X158835Y30868D01*
X159252Y30937D01*
X159714Y31053D01*
X160224Y31215D01*
X160686Y31446D01*
X161103Y31747D01*
X161149Y31793D01*
X161265Y31909D01*
X161427Y32118D01*
X161612Y32395D01*
X161797Y32742D01*
X161959Y33136D01*
X162075Y33621D01*
X162098Y33853D01*
X162121Y34131D01*
Y34269D01*
X162098Y34431D01*
X162075Y34640D01*
X162028Y34894D01*
X161959Y35149D01*
X161866Y35426D01*
X161751Y35681D01*
X161728Y35704D01*
X161681Y35797D01*
X161589Y35935D01*
X161473Y36097D01*
X161334Y36283D01*
X161149Y36468D01*
X160964Y36653D01*
X160732Y36815D01*
X160709Y36838D01*
X160617Y36884D01*
X160501Y36977D01*
X160316Y37069D01*
X160108Y37162D01*
X159853Y37278D01*
X159599Y37370D01*
X159298Y37463D01*
X159275D01*
X159182Y37486D01*
X159043Y37532D01*
X158858Y37555D01*
X158627Y37601D01*
X158326Y37648D01*
X157979Y37717D01*
X157562Y37764D01*
X157539D01*
X157447Y37787D01*
X157331D01*
X157169Y37810D01*
X156984Y37833D01*
X156753Y37879D01*
X156498Y37902D01*
X156220Y37949D01*
X155665Y38064D01*
X155063Y38180D01*
X154531Y38319D01*
X154277Y38388D01*
X154045Y38458D01*
Y38481D01*
Y38527D01*
X154022Y38666D01*
Y38828D01*
Y38920D01*
Y38967D01*
Y38990D01*
Y39013D01*
Y39152D01*
X154045Y39383D01*
X154092Y39638D01*
X154161Y39915D01*
X154277Y40193D01*
X154416Y40448D01*
X154601Y40656D01*
X154624Y40679D01*
X154739Y40772D01*
X154925Y40864D01*
X155156Y41003D01*
X155480Y41119D01*
X155850Y41234D01*
X156313Y41304D01*
X156845Y41327D01*
X157077D01*
X157308Y41304D01*
X157632Y41258D01*
X157956Y41211D01*
X158303Y41119D01*
X158627Y41003D01*
X158904Y40841D01*
X158928Y40818D01*
X159020Y40749D01*
X159136Y40633D01*
X159275Y40448D01*
X159414Y40216D01*
X159576Y39915D01*
X159714Y39545D01*
X159853Y39129D01*
X161774Y39383D01*
Y39406D01*
X161751Y39430D01*
Y39499D01*
X161728Y39592D01*
X161658Y39800D01*
X161566Y40101D01*
X161450Y40401D01*
X161311Y40725D01*
X161126Y41049D01*
X160918Y41350D01*
X160895Y41373D01*
X160802Y41466D01*
X160663Y41605D01*
X160478Y41790D01*
X160224Y41975D01*
X159923Y42160D01*
X159576Y42368D01*
X159182Y42530D01*
X159159D01*
X159136Y42553D01*
X159066Y42576D01*
X158974Y42600D01*
X158743Y42669D01*
X158419Y42738D01*
X158048Y42808D01*
X157586Y42877D01*
X157100Y42924D01*
X156544Y42947D01*
D02*
G37*
G36*
X124288Y47089D02*
X121974D01*
X117809Y35450D01*
Y35426D01*
X117786Y35380D01*
X117763Y35311D01*
X117716Y35218D01*
X117693Y35079D01*
X117647Y34941D01*
X117531Y34593D01*
X117393Y34200D01*
X117254Y33760D01*
X116976Y32835D01*
Y32858D01*
X116953Y32904D01*
X116930Y32974D01*
X116906Y33066D01*
X116837Y33321D01*
X116721Y33668D01*
X116606Y34061D01*
X116467Y34501D01*
X116305Y34964D01*
X116120Y35450D01*
X111770Y47089D01*
X109618D01*
X115865Y31076D01*
X118087D01*
X124288Y47089D01*
D02*
G37*
G36*
X196529Y42947D02*
X196298D01*
X196136Y42924D01*
X195951Y42900D01*
X195719Y42854D01*
X195465Y42808D01*
X195164Y42738D01*
X194886Y42669D01*
X194562Y42553D01*
X194261Y42438D01*
X193938Y42276D01*
X193614Y42091D01*
X193290Y41882D01*
X192989Y41628D01*
X192711Y41350D01*
X192688Y41327D01*
X192642Y41281D01*
X192572Y41188D01*
X192480Y41049D01*
X192364Y40887D01*
X192248Y40702D01*
X192110Y40471D01*
X191971Y40193D01*
X191832Y39892D01*
X191693Y39568D01*
X191577Y39198D01*
X191462Y38805D01*
X191369Y38365D01*
X191300Y37902D01*
X191253Y37416D01*
X191230Y36884D01*
Y36607D01*
X191253Y36375D01*
X199931D01*
Y36352D01*
Y36283D01*
X199908Y36190D01*
Y36051D01*
X199884Y35889D01*
X199838Y35704D01*
X199769Y35288D01*
X199630Y34825D01*
X199445Y34316D01*
X199190Y33853D01*
X198866Y33436D01*
X198843D01*
X198820Y33390D01*
X198681Y33274D01*
X198473Y33112D01*
X198195Y32950D01*
X197825Y32765D01*
X197409Y32603D01*
X196946Y32488D01*
X196691Y32465D01*
X196413Y32441D01*
X196228D01*
X196020Y32465D01*
X195766Y32511D01*
X195488Y32580D01*
X195164Y32673D01*
X194863Y32812D01*
X194562Y32997D01*
X194539Y33020D01*
X194424Y33112D01*
X194285Y33251D01*
X194123Y33436D01*
X193938Y33691D01*
X193729Y34015D01*
X193521Y34385D01*
X193336Y34825D01*
X191300Y34570D01*
Y34547D01*
X191323Y34501D01*
X191346Y34408D01*
X191392Y34269D01*
X191462Y34131D01*
X191531Y33946D01*
X191716Y33552D01*
X191948Y33112D01*
X192271Y32650D01*
X192642Y32210D01*
X193105Y31793D01*
X193128D01*
X193174Y31747D01*
X193243Y31701D01*
X193336Y31632D01*
X193475Y31562D01*
X193614Y31493D01*
X193799Y31400D01*
X194007Y31308D01*
X194238Y31215D01*
X194470Y31123D01*
X195048Y30984D01*
X195696Y30868D01*
X196413Y30822D01*
X196668D01*
X196830Y30845D01*
X197038Y30868D01*
X197293Y30914D01*
X197570Y30961D01*
X197871Y31007D01*
X198519Y31192D01*
X198866Y31331D01*
X199190Y31470D01*
X199537Y31655D01*
X199861Y31863D01*
X200162Y32094D01*
X200463Y32372D01*
X200486Y32395D01*
X200532Y32441D01*
X200602Y32534D01*
X200694Y32673D01*
X200810Y32835D01*
X200926Y33020D01*
X201064Y33251D01*
X201203Y33506D01*
X201342Y33807D01*
X201481Y34131D01*
X201597Y34501D01*
X201712Y34894D01*
X201805Y35311D01*
X201874Y35773D01*
X201921Y36259D01*
X201944Y36769D01*
Y37046D01*
X201921Y37254D01*
X201898Y37509D01*
X201874Y37787D01*
X201828Y38111D01*
X201759Y38435D01*
X201574Y39175D01*
X201458Y39545D01*
X201319Y39939D01*
X201134Y40309D01*
X200926Y40656D01*
X200694Y41003D01*
X200440Y41327D01*
X200417Y41350D01*
X200370Y41396D01*
X200278Y41466D01*
X200162Y41582D01*
X200023Y41697D01*
X199838Y41836D01*
X199630Y41998D01*
X199375Y42137D01*
X199121Y42299D01*
X198820Y42438D01*
X198496Y42576D01*
X198149Y42692D01*
X197779Y42808D01*
X197385Y42877D01*
X196969Y42924D01*
X196529Y42947D01*
D02*
G37*
G36*
X188662Y47089D02*
X182368D01*
X182206Y47066D01*
X182021D01*
X181604Y47019D01*
X181141Y46973D01*
X180656Y46880D01*
X180170Y46765D01*
X179730Y46603D01*
X179707D01*
X179684Y46580D01*
X179545Y46510D01*
X179337Y46395D01*
X179105Y46233D01*
X178828Y46024D01*
X178527Y45770D01*
X178249Y45446D01*
X177994Y45099D01*
X177971Y45052D01*
X177902Y44914D01*
X177786Y44728D01*
X177671Y44451D01*
X177555Y44127D01*
X177439Y43780D01*
X177370Y43386D01*
X177347Y42993D01*
Y42947D01*
Y42831D01*
X177370Y42623D01*
X177416Y42368D01*
X177486Y42067D01*
X177601Y41743D01*
X177740Y41420D01*
X177925Y41072D01*
X177948Y41026D01*
X178018Y40934D01*
X178157Y40749D01*
X178342Y40563D01*
X178573Y40332D01*
X178851Y40077D01*
X179198Y39846D01*
X179591Y39615D01*
X179568D01*
X179522Y39592D01*
X179452Y39568D01*
X179360Y39522D01*
X179082Y39430D01*
X178758Y39267D01*
X178411Y39059D01*
X178018Y38805D01*
X177671Y38504D01*
X177347Y38134D01*
X177323Y38087D01*
X177231Y37949D01*
X177092Y37740D01*
X176953Y37463D01*
X176814Y37092D01*
X176676Y36699D01*
X176583Y36236D01*
X176560Y35727D01*
Y35542D01*
X176583Y35311D01*
X176629Y35033D01*
X176676Y34709D01*
X176768Y34362D01*
X176884Y33992D01*
X177046Y33621D01*
X177069Y33575D01*
X177138Y33459D01*
X177231Y33298D01*
X177370Y33066D01*
X177555Y32835D01*
X177740Y32580D01*
X177971Y32326D01*
X178226Y32118D01*
X178249Y32094D01*
X178342Y32025D01*
X178504Y31932D01*
X178712Y31840D01*
X178966Y31701D01*
X179267Y31562D01*
X179591Y31446D01*
X179984Y31331D01*
X180031D01*
X180170Y31284D01*
X180401Y31261D01*
X180702Y31215D01*
X181072Y31169D01*
X181512Y31123D01*
X181998Y31099D01*
X182553Y31076D01*
X188662D01*
Y47089D01*
D02*
G37*
G36*
X144743Y42947D02*
X144581D01*
X144373Y42924D01*
X144118Y42877D01*
X143818Y42785D01*
X143494Y42669D01*
X143124Y42507D01*
X142730Y42299D01*
X143447Y40494D01*
X143471Y40517D01*
X143563Y40563D01*
X143702Y40633D01*
X143887Y40702D01*
X144095Y40772D01*
X144350Y40841D01*
X144604Y40887D01*
X144859Y40910D01*
X144975D01*
X145090Y40887D01*
X145252Y40864D01*
X145414Y40818D01*
X145623Y40749D01*
X145831Y40656D01*
X146016Y40517D01*
X146039Y40494D01*
X146108Y40448D01*
X146178Y40355D01*
X146294Y40239D01*
X146409Y40077D01*
X146525Y39892D01*
X146641Y39684D01*
X146733Y39430D01*
X146756Y39383D01*
X146779Y39244D01*
X146826Y39036D01*
X146895Y38758D01*
X146965Y38411D01*
X147011Y38018D01*
X147034Y37601D01*
X147057Y37139D01*
Y31076D01*
X149024D01*
Y42692D01*
X147242D01*
Y40934D01*
X147219Y40957D01*
X147127Y41119D01*
X147011Y41327D01*
X146826Y41582D01*
X146641Y41836D01*
X146432Y42114D01*
X146224Y42345D01*
X146016Y42530D01*
X145993Y42553D01*
X145923Y42600D01*
X145785Y42669D01*
X145646Y42738D01*
X145461Y42808D01*
X145229Y42877D01*
X144998Y42924D01*
X144743Y42947D01*
D02*
G37*
G36*
X94947Y33321D02*
X92703D01*
Y31076D01*
X94947D01*
Y33321D01*
D02*
G37*
G36*
X169202Y42947D02*
X168970D01*
X168808Y42924D01*
X168600Y42900D01*
X168368Y42854D01*
X168114Y42808D01*
X167813Y42762D01*
X167188Y42553D01*
X166864Y42438D01*
X166541Y42276D01*
X166217Y42114D01*
X165893Y41882D01*
X165592Y41651D01*
X165291Y41373D01*
X165268Y41350D01*
X165222Y41304D01*
X165152Y41211D01*
X165060Y41095D01*
X164944Y40934D01*
X164805Y40725D01*
X164666Y40494D01*
X164527Y40239D01*
X164389Y39962D01*
X164250Y39615D01*
X164111Y39267D01*
X163995Y38874D01*
X163903Y38458D01*
X163833Y38018D01*
X163787Y37555D01*
X163764Y37046D01*
Y36676D01*
X163787Y36491D01*
X163810Y36259D01*
Y36028D01*
X163856Y35773D01*
X163926Y35195D01*
X164065Y34616D01*
X164227Y34038D01*
X164458Y33506D01*
Y33483D01*
X164481Y33459D01*
X164527Y33390D01*
X164574Y33298D01*
X164736Y33066D01*
X164944Y32789D01*
X165222Y32465D01*
X165569Y32141D01*
X165962Y31817D01*
X166425Y31516D01*
X166448D01*
X166471Y31493D01*
X166541Y31446D01*
X166656Y31400D01*
X166772Y31354D01*
X166911Y31308D01*
X167258Y31169D01*
X167651Y31053D01*
X168137Y30937D01*
X168646Y30845D01*
X169202Y30822D01*
X169433D01*
X169618Y30845D01*
X169826Y30868D01*
X170058Y30914D01*
X170335Y30961D01*
X170613Y31007D01*
X171238Y31192D01*
X171585Y31331D01*
X171909Y31470D01*
X172233Y31655D01*
X172557Y31863D01*
X172858Y32094D01*
X173158Y32372D01*
X173181Y32395D01*
X173228Y32441D01*
X173297Y32534D01*
X173390Y32673D01*
X173505Y32835D01*
X173621Y33020D01*
X173760Y33251D01*
X173899Y33529D01*
X174038Y33830D01*
X174177Y34177D01*
X174292Y34547D01*
X174408Y34941D01*
X174501Y35380D01*
X174570Y35843D01*
X174616Y36352D01*
X174639Y36884D01*
Y37023D01*
X174616Y37185D01*
Y37416D01*
X174593Y37671D01*
X174547Y37995D01*
X174501Y38319D01*
X174408Y38689D01*
X174315Y39059D01*
X174200Y39453D01*
X174061Y39869D01*
X173876Y40262D01*
X173691Y40633D01*
X173436Y41003D01*
X173181Y41350D01*
X172858Y41651D01*
X172834Y41674D01*
X172788Y41697D01*
X172696Y41767D01*
X172580Y41859D01*
X172441Y41952D01*
X172256Y42067D01*
X172071Y42183D01*
X171840Y42299D01*
X171585Y42414D01*
X171307Y42530D01*
X170683Y42738D01*
X169965Y42900D01*
X169595Y42924D01*
X169202Y42947D01*
D02*
G37*
G36*
X134192Y47089D02*
X132225D01*
Y31076D01*
X134053D01*
Y32534D01*
X134076Y32511D01*
X134099Y32465D01*
X134169Y32372D01*
X134261Y32256D01*
X134377Y32141D01*
X134516Y32002D01*
X134678Y31840D01*
X134886Y31678D01*
X135094Y31516D01*
X135325Y31354D01*
X135603Y31215D01*
X135904Y31099D01*
X136205Y30984D01*
X136552Y30891D01*
X136922Y30845D01*
X137316Y30822D01*
X137454D01*
X137547Y30845D01*
X137824Y30868D01*
X138148Y30914D01*
X138542Y31007D01*
X138982Y31146D01*
X139421Y31331D01*
X139861Y31585D01*
X139884D01*
X139907Y31632D01*
X140046Y31724D01*
X140254Y31909D01*
X140509Y32141D01*
X140809Y32441D01*
X141110Y32812D01*
X141411Y33228D01*
X141666Y33714D01*
Y33737D01*
X141689Y33784D01*
X141712Y33853D01*
X141758Y33946D01*
X141805Y34084D01*
X141874Y34246D01*
X141920Y34408D01*
X141966Y34616D01*
X142082Y35079D01*
X142198Y35612D01*
X142267Y36213D01*
X142290Y36861D01*
Y37162D01*
X142267Y37301D01*
Y37486D01*
X142221Y37902D01*
X142152Y38388D01*
X142036Y38920D01*
X141897Y39476D01*
X141712Y40008D01*
Y40031D01*
X141689Y40077D01*
X141643Y40147D01*
X141596Y40239D01*
X141457Y40494D01*
X141272Y40818D01*
X141041Y41165D01*
X140740Y41512D01*
X140393Y41882D01*
X139977Y42183D01*
X139953D01*
X139930Y42206D01*
X139861Y42252D01*
X139768Y42299D01*
X139537Y42414D01*
X139213Y42576D01*
X138843Y42715D01*
X138403Y42831D01*
X137917Y42924D01*
X137408Y42947D01*
X137223D01*
X137038Y42924D01*
X136783Y42900D01*
X136482Y42831D01*
X136159Y42762D01*
X135835Y42646D01*
X135534Y42484D01*
X135487Y42461D01*
X135395Y42414D01*
X135256Y42299D01*
X135071Y42183D01*
X134840Y42021D01*
X134631Y41813D01*
X134400Y41605D01*
X134192Y41350D01*
Y47089D01*
D02*
G37*
G36*
X84604Y47158D02*
X84396D01*
X84141Y47135D01*
X83840Y47089D01*
X83493Y47019D01*
X83123Y46927D01*
X82730Y46811D01*
X82359Y46626D01*
X82336D01*
X82313Y46603D01*
X82197Y46533D01*
X82012Y46418D01*
X81781Y46256D01*
X81526Y46024D01*
X81249Y45770D01*
X80994Y45469D01*
X80740Y45122D01*
X80716Y45075D01*
X80624Y44960D01*
X80531Y44752D01*
X80369Y44451D01*
X80231Y44104D01*
X80045Y43710D01*
X79883Y43247D01*
X79745Y42738D01*
Y42715D01*
X79721Y42669D01*
X79698Y42600D01*
X79675Y42484D01*
X79652Y42345D01*
X79629Y42183D01*
X79583Y41975D01*
X79559Y41743D01*
X79513Y41489D01*
X79490Y41211D01*
X79467Y40887D01*
X79421Y40563D01*
X79398Y40193D01*
Y39823D01*
X79374Y39406D01*
Y38504D01*
X79398Y38249D01*
Y37972D01*
X79421Y37671D01*
X79444Y37347D01*
X79513Y36607D01*
X79629Y35843D01*
X79768Y35102D01*
X79860Y34755D01*
X79976Y34408D01*
Y34385D01*
X79999Y34339D01*
X80045Y34246D01*
X80092Y34131D01*
X80138Y33969D01*
X80231Y33807D01*
X80416Y33413D01*
X80647Y32997D01*
X80948Y32534D01*
X81295Y32118D01*
X81712Y31724D01*
X81735D01*
X81758Y31678D01*
X81827Y31632D01*
X81920Y31585D01*
X82035Y31516D01*
X82151Y31423D01*
X82498Y31261D01*
X82915Y31099D01*
X83401Y30937D01*
X83979Y30845D01*
X84604Y30798D01*
X84835D01*
X84997Y30822D01*
X85182Y30845D01*
X85414Y30891D01*
X85668Y30937D01*
X85946Y31007D01*
X86224Y31099D01*
X86524Y31192D01*
X86825Y31331D01*
X87126Y31493D01*
X87427Y31678D01*
X87728Y31909D01*
X88005Y32164D01*
X88260Y32441D01*
X88283Y32465D01*
X88329Y32534D01*
X88399Y32650D01*
X88514Y32835D01*
X88630Y33043D01*
X88746Y33321D01*
X88908Y33645D01*
X89047Y34015D01*
X89185Y34431D01*
X89324Y34917D01*
X89463Y35450D01*
X89579Y36051D01*
X89695Y36699D01*
X89764Y37393D01*
X89810Y38157D01*
X89833Y38967D01*
Y39430D01*
X89810Y39684D01*
Y39962D01*
X89787Y40262D01*
X89764Y40610D01*
X89695Y41327D01*
X89579Y42091D01*
X89440Y42854D01*
X89347Y43201D01*
X89255Y43548D01*
Y43572D01*
X89232Y43618D01*
X89185Y43710D01*
X89139Y43826D01*
X89093Y43988D01*
X89000Y44150D01*
X88815Y44543D01*
X88584Y44960D01*
X88283Y45399D01*
X87936Y45839D01*
X87520Y46209D01*
X87496D01*
X87473Y46256D01*
X87404Y46302D01*
X87311Y46348D01*
X87196Y46441D01*
X87057Y46510D01*
X86710Y46695D01*
X86293Y46857D01*
X85807Y47019D01*
X85229Y47112D01*
X84604Y47158D01*
D02*
G37*
G36*
X191371Y27051D02*
X189797D01*
Y25255D01*
X191371D01*
Y27051D01*
D02*
G37*
G36*
X162522D02*
X160948D01*
Y22477D01*
X160930Y22496D01*
X160911Y22533D01*
X160856Y22588D01*
X160763Y22681D01*
X160670Y22773D01*
X160559Y22885D01*
X160411Y22996D01*
X160263Y23107D01*
X159893Y23348D01*
X159467Y23533D01*
X159226Y23625D01*
X158967Y23681D01*
X158689Y23718D01*
X158411Y23736D01*
X158263D01*
X158097Y23718D01*
X157893Y23699D01*
X157652Y23644D01*
X157374Y23588D01*
X157078Y23496D01*
X156800Y23385D01*
X156763Y23366D01*
X156671Y23329D01*
X156523Y23236D01*
X156356Y23125D01*
X156152Y22996D01*
X155949Y22829D01*
X155726Y22625D01*
X155541Y22403D01*
X155523Y22385D01*
X155467Y22292D01*
X155375Y22162D01*
X155264Y21996D01*
X155134Y21774D01*
X155004Y21514D01*
X154875Y21218D01*
X154763Y20903D01*
Y20885D01*
X154745Y20866D01*
X154726Y20811D01*
X154708Y20755D01*
X154671Y20570D01*
X154615Y20329D01*
X154560Y20052D01*
X154504Y19737D01*
X154486Y19385D01*
X154467Y19015D01*
Y18793D01*
X154486Y18626D01*
X154504Y18422D01*
X154523Y18200D01*
X154560Y17941D01*
X154615Y17663D01*
X154763Y17070D01*
X154856Y16756D01*
X154967Y16459D01*
X155097Y16145D01*
X155264Y15867D01*
X155449Y15589D01*
X155652Y15330D01*
X155671Y15311D01*
X155708Y15274D01*
X155763Y15219D01*
X155856Y15126D01*
X155986Y15034D01*
X156115Y14922D01*
X156263Y14811D01*
X156448Y14682D01*
X156652Y14571D01*
X156856Y14441D01*
X157356Y14237D01*
X157615Y14145D01*
X157893Y14089D01*
X158189Y14052D01*
X158485Y14034D01*
X158559D01*
X158652Y14052D01*
X158763D01*
X158893Y14071D01*
X159059Y14108D01*
X159430Y14200D01*
X159633Y14274D01*
X159837Y14367D01*
X160059Y14478D01*
X160263Y14608D01*
X160485Y14774D01*
X160689Y14959D01*
X160874Y15163D01*
X161059Y15404D01*
Y14237D01*
X162522D01*
Y27051D01*
D02*
G37*
G36*
X182409D02*
X180835D01*
Y22459D01*
X180816Y22477D01*
X180779Y22514D01*
X180724Y22570D01*
X180631Y22662D01*
X180539Y22755D01*
X180409Y22866D01*
X180242Y22977D01*
X180076Y23107D01*
X179890Y23218D01*
X179687Y23329D01*
X179205Y23533D01*
X178946Y23625D01*
X178668Y23681D01*
X178372Y23718D01*
X178076Y23736D01*
X177909D01*
X177706Y23718D01*
X177465Y23681D01*
X177187Y23644D01*
X176891Y23570D01*
X176595Y23459D01*
X176298Y23329D01*
X176261Y23310D01*
X176169Y23255D01*
X176039Y23162D01*
X175872Y23033D01*
X175706Y22866D01*
X175521Y22681D01*
X175354Y22459D01*
X175206Y22199D01*
X175187Y22162D01*
X175150Y22070D01*
X175095Y21903D01*
X175039Y21662D01*
X174984Y21366D01*
X174928Y21014D01*
X174891Y20589D01*
X174872Y20107D01*
Y14237D01*
X176446D01*
Y20126D01*
Y20144D01*
Y20181D01*
Y20237D01*
Y20311D01*
X176465Y20515D01*
X176502Y20774D01*
X176576Y21051D01*
X176669Y21329D01*
X176798Y21607D01*
X176965Y21829D01*
X176983Y21848D01*
X177057Y21922D01*
X177169Y22014D01*
X177335Y22107D01*
X177539Y22218D01*
X177780Y22292D01*
X178076Y22366D01*
X178409Y22385D01*
X178520D01*
X178650Y22366D01*
X178835Y22348D01*
X179020Y22292D01*
X179242Y22237D01*
X179465Y22144D01*
X179705Y22014D01*
X179724Y21996D01*
X179798Y21940D01*
X179909Y21866D01*
X180039Y21755D01*
X180187Y21607D01*
X180335Y21440D01*
X180465Y21237D01*
X180576Y21014D01*
X180594Y20977D01*
X180613Y20903D01*
X180650Y20755D01*
X180705Y20570D01*
X180761Y20329D01*
X180798Y20033D01*
X180816Y19700D01*
X180835Y19311D01*
Y14237D01*
X182409D01*
Y27051D01*
D02*
G37*
G36*
X197926Y23736D02*
X197759D01*
X197648Y23718D01*
X197518Y23699D01*
X197352Y23662D01*
X197167Y23625D01*
X196963Y23570D01*
X196759Y23496D01*
X196537Y23403D01*
X196315Y23292D01*
X196074Y23162D01*
X195852Y23014D01*
X195630Y22829D01*
X195408Y22625D01*
X195204Y22385D01*
Y23533D01*
X193759D01*
Y15145D01*
X193778Y14978D01*
Y14774D01*
X193797Y14552D01*
X193815Y14311D01*
X193871Y13812D01*
X193945Y13293D01*
X194000Y13052D01*
X194056Y12830D01*
X194130Y12626D01*
X194204Y12441D01*
Y12423D01*
X194222Y12404D01*
X194296Y12293D01*
X194389Y12126D01*
X194537Y11923D01*
X194741Y11701D01*
X194982Y11460D01*
X195278Y11219D01*
X195611Y11015D01*
X195630D01*
X195648Y10997D01*
X195704Y10960D01*
X195778Y10941D01*
X195870Y10886D01*
X195982Y10849D01*
X196259Y10756D01*
X196593Y10645D01*
X197000Y10571D01*
X197463Y10497D01*
X197963Y10479D01*
X198129D01*
X198241Y10497D01*
X198389D01*
X198537Y10516D01*
X198722Y10534D01*
X198926Y10571D01*
X199352Y10664D01*
X199796Y10793D01*
X200240Y10978D01*
X200648Y11238D01*
X200666Y11256D01*
X200685Y11275D01*
X200814Y11386D01*
X200962Y11552D01*
X201148Y11793D01*
X201333Y12108D01*
X201499Y12497D01*
X201555Y12719D01*
X201592Y12960D01*
X201629Y13201D01*
Y13478D01*
X200092Y13275D01*
Y13238D01*
X200074Y13163D01*
X200037Y13034D01*
X200000Y12867D01*
X199925Y12701D01*
X199833Y12534D01*
X199722Y12367D01*
X199574Y12238D01*
X199537Y12219D01*
X199463Y12163D01*
X199333Y12090D01*
X199148Y12015D01*
X198926Y11923D01*
X198648Y11849D01*
X198315Y11793D01*
X197963Y11775D01*
X197778D01*
X197592Y11793D01*
X197333Y11830D01*
X197074Y11886D01*
X196796Y11960D01*
X196518Y12071D01*
X196278Y12219D01*
X196259Y12238D01*
X196185Y12293D01*
X196074Y12404D01*
X195944Y12534D01*
X195815Y12719D01*
X195685Y12923D01*
X195556Y13163D01*
X195463Y13441D01*
Y13460D01*
X195445Y13534D01*
X195426Y13682D01*
X195408Y13867D01*
X195389Y13997D01*
Y14145D01*
X195370Y14311D01*
Y14497D01*
Y14700D01*
X195352Y14941D01*
Y15182D01*
Y15460D01*
X195370Y15441D01*
X195408Y15404D01*
X195463Y15348D01*
X195537Y15274D01*
X195630Y15182D01*
X195759Y15071D01*
X195907Y14959D01*
X196056Y14848D01*
X196444Y14626D01*
X196870Y14423D01*
X197111Y14348D01*
X197370Y14293D01*
X197648Y14256D01*
X197926Y14237D01*
X198018D01*
X198111Y14256D01*
X198241D01*
X198407Y14274D01*
X198592Y14311D01*
X198796Y14348D01*
X199018Y14404D01*
X199259Y14478D01*
X199500Y14571D01*
X199740Y14682D01*
X200000Y14811D01*
X200240Y14978D01*
X200481Y15163D01*
X200703Y15367D01*
X200907Y15608D01*
X200925Y15626D01*
X200944Y15663D01*
X201000Y15756D01*
X201073Y15848D01*
X201148Y15997D01*
X201240Y16145D01*
X201333Y16330D01*
X201425Y16552D01*
X201518Y16774D01*
X201611Y17033D01*
X201703Y17293D01*
X201777Y17589D01*
X201907Y18218D01*
X201925Y18570D01*
X201944Y18922D01*
Y19144D01*
X201925Y19274D01*
Y19404D01*
X201888Y19737D01*
X201833Y20107D01*
X201740Y20515D01*
X201629Y20940D01*
X201462Y21366D01*
Y21385D01*
X201444Y21422D01*
X201407Y21477D01*
X201370Y21551D01*
X201259Y21755D01*
X201111Y22014D01*
X200907Y22292D01*
X200666Y22570D01*
X200388Y22866D01*
X200074Y23107D01*
X200055D01*
X200037Y23125D01*
X199981Y23162D01*
X199907Y23199D01*
X199722Y23310D01*
X199463Y23422D01*
X199148Y23533D01*
X198778Y23644D01*
X198370Y23718D01*
X197926Y23736D01*
D02*
G37*
G36*
X124415D02*
X124248D01*
X124045Y23718D01*
X123822Y23681D01*
X123545Y23625D01*
X123267Y23551D01*
X122989Y23440D01*
X122730Y23292D01*
X122693Y23273D01*
X122619Y23218D01*
X122508Y23125D01*
X122360Y22977D01*
X122211Y22811D01*
X122045Y22607D01*
X121897Y22366D01*
X121785Y22088D01*
X121767Y22107D01*
X121730Y22162D01*
X121674Y22237D01*
X121582Y22348D01*
X121471Y22477D01*
X121341Y22607D01*
X121193Y22755D01*
X121008Y22922D01*
X120804Y23070D01*
X120600Y23218D01*
X120360Y23348D01*
X120100Y23477D01*
X119823Y23588D01*
X119526Y23662D01*
X119230Y23718D01*
X118897Y23736D01*
X118767D01*
X118675Y23718D01*
X118545D01*
X118415Y23699D01*
X118101Y23644D01*
X117767Y23551D01*
X117416Y23403D01*
X117064Y23218D01*
X116768Y22959D01*
X116730Y22922D01*
X116656Y22811D01*
X116527Y22644D01*
X116471Y22514D01*
X116397Y22385D01*
X116323Y22218D01*
X116267Y22051D01*
X116193Y21866D01*
X116138Y21644D01*
X116101Y21422D01*
X116064Y21163D01*
X116027Y20903D01*
Y14237D01*
X117601D01*
Y20070D01*
Y20089D01*
Y20107D01*
Y20218D01*
Y20385D01*
X117619Y20589D01*
X117638Y20811D01*
X117656Y21033D01*
X117693Y21255D01*
X117749Y21422D01*
Y21440D01*
X117786Y21496D01*
X117823Y21570D01*
X117879Y21662D01*
X117952Y21774D01*
X118045Y21885D01*
X118156Y21996D01*
X118304Y22107D01*
X118323Y22125D01*
X118378Y22144D01*
X118453Y22181D01*
X118582Y22237D01*
X118712Y22292D01*
X118878Y22329D01*
X119045Y22348D01*
X119249Y22366D01*
X119341D01*
X119415Y22348D01*
X119600Y22329D01*
X119823Y22292D01*
X120082Y22199D01*
X120360Y22088D01*
X120637Y21922D01*
X120897Y21700D01*
X120915Y21662D01*
X120989Y21570D01*
X121100Y21422D01*
X121211Y21200D01*
X121341Y20903D01*
X121434Y20552D01*
X121508Y20126D01*
X121545Y19626D01*
Y14237D01*
X123119D01*
Y20255D01*
Y20274D01*
Y20311D01*
Y20348D01*
Y20422D01*
X123137Y20626D01*
X123174Y20848D01*
X123211Y21107D01*
X123285Y21366D01*
X123378Y21607D01*
X123507Y21829D01*
X123526Y21848D01*
X123582Y21922D01*
X123674Y21996D01*
X123804Y22107D01*
X123970Y22199D01*
X124193Y22292D01*
X124452Y22348D01*
X124767Y22366D01*
X124878D01*
X125007Y22348D01*
X125155Y22329D01*
X125341Y22274D01*
X125563Y22218D01*
X125766Y22125D01*
X125989Y22014D01*
X126007Y21996D01*
X126081Y21940D01*
X126174Y21866D01*
X126304Y21755D01*
X126433Y21607D01*
X126563Y21422D01*
X126692Y21218D01*
X126804Y20977D01*
X126822Y20940D01*
X126840Y20848D01*
X126877Y20700D01*
X126933Y20496D01*
X126989Y20218D01*
X127026Y19885D01*
X127044Y19496D01*
X127063Y19052D01*
Y14237D01*
X128637D01*
Y23533D01*
X127229D01*
Y22199D01*
X127211Y22237D01*
X127155Y22311D01*
X127044Y22440D01*
X126915Y22588D01*
X126748Y22773D01*
X126544Y22959D01*
X126322Y23144D01*
X126063Y23310D01*
X126026Y23329D01*
X125933Y23385D01*
X125785Y23440D01*
X125581Y23533D01*
X125341Y23607D01*
X125063Y23662D01*
X124748Y23718D01*
X124415Y23736D01*
D02*
G37*
G36*
X22018Y26884D02*
X15648D01*
Y25384D01*
X20777D01*
X21463Y21922D01*
X21444Y21940D01*
X21407Y21959D01*
X21351Y21996D01*
X21259Y22051D01*
X21148Y22107D01*
X21018Y22181D01*
X20722Y22329D01*
X20352Y22477D01*
X19944Y22607D01*
X19500Y22699D01*
X19278Y22736D01*
X18870D01*
X18759Y22718D01*
X18611Y22699D01*
X18444Y22681D01*
X18259Y22644D01*
X18055Y22588D01*
X17611Y22459D01*
X17370Y22366D01*
X17130Y22237D01*
X16889Y22107D01*
X16648Y21959D01*
X16426Y21774D01*
X16204Y21570D01*
X16185Y21551D01*
X16148Y21514D01*
X16093Y21459D01*
X16019Y21366D01*
X15926Y21237D01*
X15833Y21107D01*
X15722Y20940D01*
X15611Y20755D01*
X15519Y20552D01*
X15408Y20329D01*
X15315Y20070D01*
X15222Y19811D01*
X15148Y19533D01*
X15093Y19218D01*
X15056Y18904D01*
X15037Y18570D01*
Y18404D01*
X15056Y18274D01*
X15074Y18126D01*
X15093Y17959D01*
X15130Y17756D01*
X15167Y17552D01*
X15278Y17070D01*
X15463Y16571D01*
X15574Y16311D01*
X15722Y16070D01*
X15870Y15811D01*
X16056Y15571D01*
X16074Y15552D01*
X16111Y15496D01*
X16185Y15422D01*
X16278Y15330D01*
X16408Y15219D01*
X16556Y15071D01*
X16741Y14941D01*
X16945Y14793D01*
X17167Y14645D01*
X17426Y14515D01*
X17704Y14385D01*
X18000Y14256D01*
X18315Y14163D01*
X18666Y14089D01*
X19037Y14034D01*
X19426Y14015D01*
X19592D01*
X19722Y14034D01*
X19870Y14052D01*
X20037Y14071D01*
X20240Y14089D01*
X20444Y14145D01*
X20907Y14256D01*
X21370Y14423D01*
X21611Y14534D01*
X21851Y14663D01*
X22074Y14811D01*
X22296Y14978D01*
X22314Y14997D01*
X22351Y15015D01*
X22388Y15089D01*
X22462Y15163D01*
X22555Y15256D01*
X22648Y15367D01*
X22759Y15515D01*
X22851Y15682D01*
X22962Y15848D01*
X23073Y16052D01*
X23277Y16496D01*
X23444Y17015D01*
X23499Y17293D01*
X23536Y17589D01*
X21888Y17718D01*
Y17700D01*
Y17663D01*
X21870Y17607D01*
X21851Y17515D01*
X21796Y17311D01*
X21722Y17033D01*
X21611Y16756D01*
X21463Y16441D01*
X21277Y16163D01*
X21055Y15904D01*
X21018Y15885D01*
X20944Y15811D01*
X20796Y15719D01*
X20592Y15608D01*
X20370Y15496D01*
X20092Y15404D01*
X19777Y15330D01*
X19426Y15311D01*
X19315D01*
X19240Y15330D01*
X19018Y15348D01*
X18759Y15422D01*
X18444Y15515D01*
X18130Y15663D01*
X17796Y15885D01*
X17648Y16015D01*
X17500Y16163D01*
X17481Y16182D01*
X17463Y16200D01*
X17426Y16256D01*
X17370Y16311D01*
X17241Y16515D01*
X17093Y16774D01*
X16963Y17089D01*
X16833Y17478D01*
X16741Y17941D01*
X16704Y18181D01*
Y18441D01*
Y18459D01*
Y18496D01*
Y18570D01*
X16722Y18663D01*
Y18774D01*
X16741Y18904D01*
X16796Y19200D01*
X16889Y19552D01*
X17019Y19904D01*
X17204Y20237D01*
X17463Y20552D01*
Y20570D01*
X17500Y20589D01*
X17593Y20681D01*
X17759Y20811D01*
X17981Y20959D01*
X18278Y21089D01*
X18611Y21218D01*
X19000Y21311D01*
X19222Y21348D01*
X19574D01*
X19722Y21329D01*
X19907Y21311D01*
X20129Y21255D01*
X20352Y21200D01*
X20592Y21107D01*
X20833Y20996D01*
X20852Y20977D01*
X20926Y20940D01*
X21037Y20848D01*
X21185Y20755D01*
X21333Y20626D01*
X21481Y20459D01*
X21648Y20292D01*
X21777Y20089D01*
X23259Y20292D01*
X22018Y26884D01*
D02*
G37*
G36*
X104787Y23736D02*
X104584D01*
X104380Y23718D01*
X104102Y23699D01*
X103787Y23662D01*
X103472Y23607D01*
X103158Y23533D01*
X102861Y23440D01*
X102824Y23422D01*
X102732Y23385D01*
X102602Y23329D01*
X102436Y23255D01*
X102250Y23144D01*
X102065Y23033D01*
X101899Y22885D01*
X101750Y22736D01*
X101732Y22718D01*
X101695Y22662D01*
X101639Y22570D01*
X101565Y22459D01*
X101473Y22292D01*
X101399Y22125D01*
X101325Y21922D01*
X101269Y21681D01*
Y21662D01*
X101250Y21607D01*
X101232Y21496D01*
X101214Y21348D01*
Y21144D01*
X101195Y20903D01*
X101177Y20589D01*
Y20237D01*
Y18126D01*
Y18107D01*
Y18033D01*
Y17922D01*
Y17774D01*
Y17607D01*
Y17404D01*
X101158Y16959D01*
Y16496D01*
X101139Y16034D01*
X101121Y15830D01*
Y15645D01*
X101102Y15478D01*
X101084Y15348D01*
Y15330D01*
X101065Y15256D01*
X101047Y15145D01*
X100991Y14997D01*
X100954Y14830D01*
X100880Y14645D01*
X100788Y14441D01*
X100695Y14237D01*
X102343D01*
X102361Y14256D01*
X102380Y14330D01*
X102417Y14423D01*
X102473Y14571D01*
X102528Y14737D01*
X102565Y14941D01*
X102602Y15163D01*
X102639Y15404D01*
X102658D01*
X102676Y15367D01*
X102787Y15274D01*
X102954Y15145D01*
X103176Y14978D01*
X103454Y14811D01*
X103732Y14626D01*
X104028Y14460D01*
X104343Y14330D01*
X104380Y14311D01*
X104491Y14293D01*
X104658Y14237D01*
X104861Y14182D01*
X105120Y14126D01*
X105417Y14089D01*
X105750Y14052D01*
X106083Y14034D01*
X106231D01*
X106343Y14052D01*
X106472D01*
X106620Y14071D01*
X106954Y14126D01*
X107324Y14219D01*
X107731Y14348D01*
X108102Y14534D01*
X108435Y14774D01*
X108472Y14811D01*
X108565Y14904D01*
X108694Y15071D01*
X108842Y15293D01*
X108990Y15571D01*
X109120Y15885D01*
X109213Y16274D01*
X109231Y16459D01*
X109250Y16682D01*
Y16793D01*
X109231Y16922D01*
X109213Y17089D01*
X109176Y17293D01*
X109120Y17496D01*
X109046Y17718D01*
X108954Y17922D01*
X108935Y17941D01*
X108898Y18015D01*
X108824Y18126D01*
X108731Y18255D01*
X108620Y18404D01*
X108472Y18552D01*
X108324Y18700D01*
X108139Y18829D01*
X108120Y18848D01*
X108046Y18885D01*
X107954Y18959D01*
X107805Y19033D01*
X107639Y19107D01*
X107435Y19200D01*
X107231Y19274D01*
X106991Y19348D01*
X106972D01*
X106898Y19367D01*
X106787Y19404D01*
X106639Y19422D01*
X106454Y19459D01*
X106213Y19496D01*
X105935Y19552D01*
X105602Y19589D01*
X105583D01*
X105509Y19607D01*
X105417D01*
X105287Y19626D01*
X105139Y19644D01*
X104954Y19681D01*
X104750Y19700D01*
X104528Y19737D01*
X104084Y19829D01*
X103602Y19922D01*
X103176Y20033D01*
X102973Y20089D01*
X102787Y20144D01*
Y20163D01*
Y20200D01*
X102769Y20311D01*
Y20440D01*
Y20515D01*
Y20552D01*
Y20570D01*
Y20589D01*
Y20700D01*
X102787Y20885D01*
X102824Y21089D01*
X102880Y21311D01*
X102973Y21533D01*
X103084Y21737D01*
X103232Y21903D01*
X103250Y21922D01*
X103343Y21996D01*
X103491Y22070D01*
X103676Y22181D01*
X103935Y22274D01*
X104232Y22366D01*
X104602Y22422D01*
X105028Y22440D01*
X105213D01*
X105398Y22422D01*
X105658Y22385D01*
X105917Y22348D01*
X106194Y22274D01*
X106454Y22181D01*
X106676Y22051D01*
X106694Y22033D01*
X106769Y21977D01*
X106861Y21885D01*
X106972Y21737D01*
X107083Y21551D01*
X107213Y21311D01*
X107324Y21014D01*
X107435Y20681D01*
X108972Y20885D01*
Y20903D01*
X108954Y20922D01*
Y20977D01*
X108935Y21051D01*
X108879Y21218D01*
X108805Y21459D01*
X108713Y21700D01*
X108602Y21959D01*
X108454Y22218D01*
X108287Y22459D01*
X108268Y22477D01*
X108194Y22551D01*
X108083Y22662D01*
X107935Y22811D01*
X107731Y22959D01*
X107491Y23107D01*
X107213Y23273D01*
X106898Y23403D01*
X106880D01*
X106861Y23422D01*
X106805Y23440D01*
X106732Y23459D01*
X106546Y23514D01*
X106287Y23570D01*
X105991Y23625D01*
X105620Y23681D01*
X105232Y23718D01*
X104787Y23736D01*
D02*
G37*
G36*
X98621Y27051D02*
X96918D01*
Y20681D01*
X90585Y27051D01*
X88270D01*
X93640Y21848D01*
X88030Y14237D01*
X90270D01*
X94825Y20700D01*
X96918Y18681D01*
Y14237D01*
X98621D01*
Y27051D01*
D02*
G37*
G36*
X82882Y23736D02*
X82678D01*
X82475Y23718D01*
X82197Y23699D01*
X81882Y23662D01*
X81567Y23607D01*
X81253Y23533D01*
X80956Y23440D01*
X80919Y23422D01*
X80827Y23385D01*
X80697Y23329D01*
X80531Y23255D01*
X80345Y23144D01*
X80160Y23033D01*
X79994Y22885D01*
X79845Y22736D01*
X79827Y22718D01*
X79790Y22662D01*
X79734Y22570D01*
X79660Y22459D01*
X79568Y22292D01*
X79493Y22125D01*
X79419Y21922D01*
X79364Y21681D01*
Y21662D01*
X79345Y21607D01*
X79327Y21496D01*
X79308Y21348D01*
Y21144D01*
X79290Y20903D01*
X79271Y20589D01*
Y20237D01*
Y18126D01*
Y18107D01*
Y18033D01*
Y17922D01*
Y17774D01*
Y17607D01*
Y17404D01*
X79253Y16959D01*
Y16496D01*
X79234Y16034D01*
X79216Y15830D01*
Y15645D01*
X79197Y15478D01*
X79179Y15348D01*
Y15330D01*
X79160Y15256D01*
X79142Y15145D01*
X79086Y14997D01*
X79049Y14830D01*
X78975Y14645D01*
X78882Y14441D01*
X78790Y14237D01*
X80438D01*
X80456Y14256D01*
X80475Y14330D01*
X80512Y14423D01*
X80568Y14571D01*
X80623Y14737D01*
X80660Y14941D01*
X80697Y15163D01*
X80734Y15404D01*
X80753D01*
X80771Y15367D01*
X80882Y15274D01*
X81049Y15145D01*
X81271Y14978D01*
X81549Y14811D01*
X81827Y14626D01*
X82123Y14460D01*
X82438Y14330D01*
X82475Y14311D01*
X82586Y14293D01*
X82753Y14237D01*
X82956Y14182D01*
X83215Y14126D01*
X83512Y14089D01*
X83845Y14052D01*
X84178Y14034D01*
X84326D01*
X84438Y14052D01*
X84567D01*
X84715Y14071D01*
X85049Y14126D01*
X85419Y14219D01*
X85826Y14348D01*
X86197Y14534D01*
X86530Y14774D01*
X86567Y14811D01*
X86659Y14904D01*
X86789Y15071D01*
X86937Y15293D01*
X87085Y15571D01*
X87215Y15885D01*
X87308Y16274D01*
X87326Y16459D01*
X87345Y16682D01*
Y16793D01*
X87326Y16922D01*
X87308Y17089D01*
X87270Y17293D01*
X87215Y17496D01*
X87141Y17718D01*
X87048Y17922D01*
X87030Y17941D01*
X86993Y18015D01*
X86919Y18126D01*
X86826Y18255D01*
X86715Y18404D01*
X86567Y18552D01*
X86419Y18700D01*
X86234Y18829D01*
X86215Y18848D01*
X86141Y18885D01*
X86048Y18959D01*
X85900Y19033D01*
X85734Y19107D01*
X85530Y19200D01*
X85326Y19274D01*
X85086Y19348D01*
X85067D01*
X84993Y19367D01*
X84882Y19404D01*
X84734Y19422D01*
X84549Y19459D01*
X84308Y19496D01*
X84030Y19552D01*
X83697Y19589D01*
X83678D01*
X83604Y19607D01*
X83512D01*
X83382Y19626D01*
X83234Y19644D01*
X83049Y19681D01*
X82845Y19700D01*
X82623Y19737D01*
X82178Y19829D01*
X81697Y19922D01*
X81271Y20033D01*
X81067Y20089D01*
X80882Y20144D01*
Y20163D01*
Y20200D01*
X80864Y20311D01*
Y20440D01*
Y20515D01*
Y20552D01*
Y20570D01*
Y20589D01*
Y20700D01*
X80882Y20885D01*
X80919Y21089D01*
X80975Y21311D01*
X81067Y21533D01*
X81179Y21737D01*
X81327Y21903D01*
X81345Y21922D01*
X81438Y21996D01*
X81586Y22070D01*
X81771Y22181D01*
X82030Y22274D01*
X82327Y22366D01*
X82697Y22422D01*
X83123Y22440D01*
X83308D01*
X83493Y22422D01*
X83752Y22385D01*
X84012Y22348D01*
X84289Y22274D01*
X84549Y22181D01*
X84771Y22051D01*
X84789Y22033D01*
X84863Y21977D01*
X84956Y21885D01*
X85067Y21737D01*
X85178Y21551D01*
X85308Y21311D01*
X85419Y21014D01*
X85530Y20681D01*
X87067Y20885D01*
Y20903D01*
X87048Y20922D01*
Y20977D01*
X87030Y21051D01*
X86974Y21218D01*
X86900Y21459D01*
X86808Y21700D01*
X86697Y21959D01*
X86548Y22218D01*
X86382Y22459D01*
X86363Y22477D01*
X86289Y22551D01*
X86178Y22662D01*
X86030Y22811D01*
X85826Y22959D01*
X85585Y23107D01*
X85308Y23273D01*
X84993Y23403D01*
X84974D01*
X84956Y23422D01*
X84900Y23440D01*
X84826Y23459D01*
X84641Y23514D01*
X84382Y23570D01*
X84086Y23625D01*
X83715Y23681D01*
X83327Y23718D01*
X82882Y23736D01*
D02*
G37*
G36*
X39090D02*
X38887D01*
X38683Y23718D01*
X38405Y23699D01*
X38090Y23662D01*
X37776Y23607D01*
X37461Y23533D01*
X37165Y23440D01*
X37128Y23422D01*
X37035Y23385D01*
X36905Y23329D01*
X36739Y23255D01*
X36553Y23144D01*
X36368Y23033D01*
X36202Y22885D01*
X36054Y22736D01*
X36035Y22718D01*
X35998Y22662D01*
X35942Y22570D01*
X35868Y22459D01*
X35776Y22292D01*
X35702Y22125D01*
X35628Y21922D01*
X35572Y21681D01*
Y21662D01*
X35554Y21607D01*
X35535Y21496D01*
X35517Y21348D01*
Y21144D01*
X35498Y20903D01*
X35480Y20589D01*
Y20237D01*
Y18126D01*
Y18107D01*
Y18033D01*
Y17922D01*
Y17774D01*
Y17607D01*
Y17404D01*
X35461Y16959D01*
Y16496D01*
X35443Y16034D01*
X35424Y15830D01*
Y15645D01*
X35405Y15478D01*
X35387Y15348D01*
Y15330D01*
X35368Y15256D01*
X35350Y15145D01*
X35294Y14997D01*
X35257Y14830D01*
X35183Y14645D01*
X35091Y14441D01*
X34998Y14237D01*
X36646D01*
X36665Y14256D01*
X36683Y14330D01*
X36720Y14423D01*
X36776Y14571D01*
X36831Y14737D01*
X36868Y14941D01*
X36905Y15163D01*
X36942Y15404D01*
X36961D01*
X36979Y15367D01*
X37090Y15274D01*
X37257Y15145D01*
X37479Y14978D01*
X37757Y14811D01*
X38035Y14626D01*
X38331Y14460D01*
X38646Y14330D01*
X38683Y14311D01*
X38794Y14293D01*
X38961Y14237D01*
X39164Y14182D01*
X39424Y14126D01*
X39720Y14089D01*
X40053Y14052D01*
X40387Y14034D01*
X40535D01*
X40646Y14052D01*
X40775D01*
X40924Y14071D01*
X41257Y14126D01*
X41627Y14219D01*
X42035Y14348D01*
X42405Y14534D01*
X42738Y14774D01*
X42775Y14811D01*
X42868Y14904D01*
X42997Y15071D01*
X43145Y15293D01*
X43294Y15571D01*
X43423Y15885D01*
X43516Y16274D01*
X43534Y16459D01*
X43553Y16682D01*
Y16793D01*
X43534Y16922D01*
X43516Y17089D01*
X43479Y17293D01*
X43423Y17496D01*
X43349Y17718D01*
X43257Y17922D01*
X43238Y17941D01*
X43201Y18015D01*
X43127Y18126D01*
X43034Y18255D01*
X42923Y18404D01*
X42775Y18552D01*
X42627Y18700D01*
X42442Y18829D01*
X42423Y18848D01*
X42349Y18885D01*
X42257Y18959D01*
X42108Y19033D01*
X41942Y19107D01*
X41738Y19200D01*
X41535Y19274D01*
X41294Y19348D01*
X41275D01*
X41201Y19367D01*
X41090Y19404D01*
X40942Y19422D01*
X40757Y19459D01*
X40516Y19496D01*
X40238Y19552D01*
X39905Y19589D01*
X39887D01*
X39813Y19607D01*
X39720D01*
X39590Y19626D01*
X39442Y19644D01*
X39257Y19681D01*
X39053Y19700D01*
X38831Y19737D01*
X38387Y19829D01*
X37905Y19922D01*
X37479Y20033D01*
X37276Y20089D01*
X37090Y20144D01*
Y20163D01*
Y20200D01*
X37072Y20311D01*
Y20440D01*
Y20515D01*
Y20552D01*
Y20570D01*
Y20589D01*
Y20700D01*
X37090Y20885D01*
X37128Y21089D01*
X37183Y21311D01*
X37276Y21533D01*
X37387Y21737D01*
X37535Y21903D01*
X37553Y21922D01*
X37646Y21996D01*
X37794Y22070D01*
X37979Y22181D01*
X38239Y22274D01*
X38535Y22366D01*
X38905Y22422D01*
X39331Y22440D01*
X39516D01*
X39701Y22422D01*
X39961Y22385D01*
X40220Y22348D01*
X40498Y22274D01*
X40757Y22181D01*
X40979Y22051D01*
X40998Y22033D01*
X41072Y21977D01*
X41164Y21885D01*
X41275Y21737D01*
X41386Y21551D01*
X41516Y21311D01*
X41627Y21014D01*
X41738Y20681D01*
X43275Y20885D01*
Y20903D01*
X43257Y20922D01*
Y20977D01*
X43238Y21051D01*
X43183Y21218D01*
X43108Y21459D01*
X43016Y21700D01*
X42905Y21959D01*
X42757Y22218D01*
X42590Y22459D01*
X42571Y22477D01*
X42497Y22551D01*
X42386Y22662D01*
X42238Y22811D01*
X42035Y22959D01*
X41794Y23107D01*
X41516Y23273D01*
X41201Y23403D01*
X41183D01*
X41164Y23422D01*
X41109Y23440D01*
X41035Y23459D01*
X40849Y23514D01*
X40590Y23570D01*
X40294Y23625D01*
X39924Y23681D01*
X39535Y23718D01*
X39090Y23736D01*
D02*
G37*
G36*
X185557Y26773D02*
Y23533D01*
X183964D01*
Y22311D01*
X185557D01*
Y16848D01*
Y16811D01*
Y16737D01*
Y16626D01*
X185538Y16496D01*
X185520Y16200D01*
X185501Y16070D01*
X185483Y15978D01*
X185464Y15941D01*
X185408Y15867D01*
X185334Y15774D01*
X185205Y15682D01*
X185168Y15663D01*
X185075Y15626D01*
X184909Y15589D01*
X184668Y15571D01*
X184483D01*
X184390Y15589D01*
X184261D01*
X184112Y15608D01*
X183964Y15626D01*
X183761Y14237D01*
X183797D01*
X183872Y14219D01*
X184001Y14200D01*
X184168Y14182D01*
X184353Y14145D01*
X184557Y14126D01*
X184964Y14108D01*
X185112D01*
X185260Y14126D01*
X185445Y14145D01*
X185668Y14163D01*
X185890Y14219D01*
X186094Y14274D01*
X186297Y14367D01*
X186316Y14385D01*
X186371Y14423D01*
X186445Y14478D01*
X186556Y14571D01*
X186649Y14663D01*
X186760Y14793D01*
X186871Y14922D01*
X186945Y15089D01*
Y15108D01*
X186982Y15182D01*
X187001Y15311D01*
X187038Y15496D01*
X187075Y15737D01*
X187094Y15885D01*
Y16052D01*
X187112Y16256D01*
X187131Y16459D01*
Y16682D01*
Y16941D01*
Y22311D01*
X188297D01*
Y23533D01*
X187131D01*
Y25829D01*
X185557Y26773D01*
D02*
G37*
G36*
X172484Y23533D02*
X170910D01*
Y18367D01*
Y18348D01*
Y18311D01*
Y18255D01*
Y18163D01*
Y17959D01*
X170891Y17700D01*
Y17422D01*
X170873Y17145D01*
X170854Y16904D01*
X170817Y16700D01*
Y16682D01*
X170780Y16608D01*
X170743Y16496D01*
X170688Y16348D01*
X170595Y16200D01*
X170484Y16034D01*
X170354Y15885D01*
X170188Y15737D01*
X170169Y15719D01*
X170095Y15682D01*
X170003Y15626D01*
X169855Y15571D01*
X169688Y15496D01*
X169484Y15441D01*
X169262Y15404D01*
X169003Y15385D01*
X168873D01*
X168744Y15404D01*
X168577Y15422D01*
X168373Y15478D01*
X168151Y15533D01*
X167910Y15626D01*
X167670Y15737D01*
X167633Y15756D01*
X167558Y15811D01*
X167447Y15885D01*
X167318Y15997D01*
X167170Y16145D01*
X167022Y16311D01*
X166892Y16496D01*
X166781Y16719D01*
X166762Y16756D01*
X166744Y16830D01*
X166707Y16978D01*
X166651Y17182D01*
X166596Y17441D01*
X166559Y17756D01*
X166540Y18126D01*
X166522Y18552D01*
Y23533D01*
X164948D01*
Y14237D01*
X166355D01*
Y15589D01*
X166373Y15571D01*
X166411Y15515D01*
X166466Y15441D01*
X166559Y15348D01*
X166670Y15237D01*
X166799Y15089D01*
X166947Y14959D01*
X167133Y14811D01*
X167336Y14663D01*
X167558Y14534D01*
X167799Y14404D01*
X168058Y14274D01*
X168355Y14182D01*
X168651Y14108D01*
X168984Y14052D01*
X169318Y14034D01*
X169447D01*
X169614Y14052D01*
X169818Y14071D01*
X170058Y14108D01*
X170317Y14163D01*
X170577Y14237D01*
X170854Y14348D01*
X170891Y14367D01*
X170965Y14404D01*
X171095Y14478D01*
X171243Y14571D01*
X171429Y14682D01*
X171595Y14811D01*
X171762Y14959D01*
X171910Y15126D01*
X171928Y15145D01*
X171965Y15219D01*
X172021Y15311D01*
X172095Y15460D01*
X172188Y15626D01*
X172262Y15830D01*
X172336Y16052D01*
X172391Y16293D01*
Y16311D01*
X172410Y16385D01*
X172428Y16496D01*
Y16645D01*
X172447Y16867D01*
X172465Y17107D01*
X172484Y17422D01*
Y23533D01*
D02*
G37*
G36*
X143783Y23736D02*
X143635D01*
X143524Y23718D01*
X143413D01*
X143265Y23699D01*
X142913Y23644D01*
X142524Y23551D01*
X142117Y23403D01*
X141709Y23218D01*
X141320Y22959D01*
X141302D01*
X141283Y22922D01*
X141172Y22811D01*
X141006Y22644D01*
X140802Y22403D01*
X140598Y22107D01*
X140395Y21737D01*
X140210Y21311D01*
X140080Y20811D01*
X141617Y20570D01*
Y20589D01*
X141635Y20607D01*
X141654Y20718D01*
X141709Y20885D01*
X141802Y21089D01*
X141895Y21311D01*
X142043Y21551D01*
X142209Y21774D01*
X142394Y21959D01*
X142413Y21977D01*
X142487Y22033D01*
X142617Y22107D01*
X142765Y22199D01*
X142968Y22292D01*
X143191Y22366D01*
X143450Y22422D01*
X143728Y22440D01*
X143839D01*
X143931Y22422D01*
X144135Y22403D01*
X144413Y22329D01*
X144709Y22237D01*
X145042Y22088D01*
X145357Y21866D01*
X145505Y21737D01*
X145653Y21588D01*
Y21570D01*
X145690Y21551D01*
X145727Y21496D01*
X145765Y21422D01*
X145820Y21329D01*
X145894Y21218D01*
X145950Y21089D01*
X146024Y20940D01*
X146098Y20755D01*
X146153Y20552D01*
X146227Y20329D01*
X146283Y20089D01*
X146320Y19829D01*
X146357Y19533D01*
X146394Y19218D01*
Y18885D01*
Y18866D01*
Y18811D01*
Y18700D01*
X146376Y18589D01*
Y18422D01*
X146357Y18255D01*
X146301Y17848D01*
X146227Y17404D01*
X146098Y16941D01*
X145931Y16533D01*
X145820Y16330D01*
X145690Y16163D01*
X145653Y16126D01*
X145561Y16034D01*
X145394Y15904D01*
X145190Y15756D01*
X144913Y15589D01*
X144598Y15460D01*
X144228Y15367D01*
X144024Y15348D01*
X143820Y15330D01*
X143783D01*
X143672Y15348D01*
X143487Y15367D01*
X143283Y15404D01*
X143042Y15460D01*
X142783Y15571D01*
X142524Y15700D01*
X142283Y15885D01*
X142246Y15904D01*
X142191Y15997D01*
X142080Y16126D01*
X141950Y16330D01*
X141820Y16571D01*
X141672Y16867D01*
X141561Y17237D01*
X141487Y17644D01*
X139932Y17441D01*
Y17422D01*
X139950Y17367D01*
X139969Y17293D01*
X139987Y17182D01*
X140024Y17033D01*
X140061Y16885D01*
X140191Y16515D01*
X140358Y16126D01*
X140598Y15700D01*
X140895Y15293D01*
X141061Y15108D01*
X141246Y14922D01*
X141265Y14904D01*
X141302Y14885D01*
X141357Y14848D01*
X141432Y14793D01*
X141524Y14719D01*
X141654Y14645D01*
X141802Y14571D01*
X141950Y14478D01*
X142320Y14311D01*
X142765Y14182D01*
X143246Y14071D01*
X143524Y14052D01*
X143802Y14034D01*
X143987D01*
X144116Y14052D01*
X144283Y14071D01*
X144468Y14108D01*
X144672Y14145D01*
X144894Y14182D01*
X145394Y14330D01*
X145635Y14441D01*
X145894Y14552D01*
X146153Y14700D01*
X146394Y14867D01*
X146635Y15052D01*
X146857Y15274D01*
X146875Y15293D01*
X146912Y15330D01*
X146968Y15404D01*
X147042Y15496D01*
X147116Y15626D01*
X147227Y15793D01*
X147320Y15978D01*
X147431Y16182D01*
X147542Y16422D01*
X147635Y16700D01*
X147746Y16978D01*
X147820Y17311D01*
X147894Y17644D01*
X147949Y18033D01*
X147986Y18422D01*
X148005Y18848D01*
Y19107D01*
X147986Y19237D01*
Y19385D01*
X147968Y19552D01*
X147949Y19737D01*
X147894Y20144D01*
X147801Y20589D01*
X147690Y21033D01*
X147523Y21477D01*
Y21496D01*
X147505Y21533D01*
X147468Y21588D01*
X147431Y21662D01*
X147320Y21866D01*
X147153Y22107D01*
X146931Y22385D01*
X146672Y22662D01*
X146357Y22940D01*
X146005Y23162D01*
X145987D01*
X145950Y23181D01*
X145894Y23218D01*
X145820Y23255D01*
X145727Y23292D01*
X145616Y23348D01*
X145339Y23459D01*
X145024Y23551D01*
X144635Y23644D01*
X144228Y23718D01*
X143783Y23736D01*
D02*
G37*
G36*
X60125D02*
X59940D01*
X59810Y23718D01*
X59662Y23699D01*
X59477Y23662D01*
X59273Y23625D01*
X59033Y23570D01*
X58811Y23514D01*
X58551Y23422D01*
X58311Y23329D01*
X58051Y23199D01*
X57792Y23051D01*
X57533Y22885D01*
X57292Y22681D01*
X57070Y22459D01*
X57051Y22440D01*
X57014Y22403D01*
X56959Y22329D01*
X56885Y22218D01*
X56792Y22088D01*
X56700Y21940D01*
X56589Y21755D01*
X56477Y21533D01*
X56366Y21292D01*
X56255Y21033D01*
X56163Y20737D01*
X56070Y20422D01*
X55996Y20070D01*
X55940Y19700D01*
X55903Y19311D01*
X55885Y18885D01*
Y18663D01*
X55903Y18478D01*
X62847D01*
Y18459D01*
Y18404D01*
X62829Y18330D01*
Y18218D01*
X62810Y18089D01*
X62773Y17941D01*
X62717Y17607D01*
X62606Y17237D01*
X62458Y16830D01*
X62255Y16459D01*
X61995Y16126D01*
X61977D01*
X61958Y16089D01*
X61847Y15997D01*
X61681Y15867D01*
X61458Y15737D01*
X61162Y15589D01*
X60829Y15460D01*
X60458Y15367D01*
X60255Y15348D01*
X60033Y15330D01*
X59885D01*
X59718Y15348D01*
X59514Y15385D01*
X59292Y15441D01*
X59033Y15515D01*
X58792Y15626D01*
X58551Y15774D01*
X58533Y15793D01*
X58440Y15867D01*
X58329Y15978D01*
X58200Y16126D01*
X58051Y16330D01*
X57885Y16589D01*
X57718Y16885D01*
X57570Y17237D01*
X55940Y17033D01*
Y17015D01*
X55959Y16978D01*
X55978Y16904D01*
X56014Y16793D01*
X56070Y16682D01*
X56126Y16533D01*
X56274Y16219D01*
X56459Y15867D01*
X56718Y15496D01*
X57014Y15145D01*
X57385Y14811D01*
X57403D01*
X57440Y14774D01*
X57496Y14737D01*
X57570Y14682D01*
X57681Y14626D01*
X57792Y14571D01*
X57940Y14497D01*
X58107Y14423D01*
X58292Y14348D01*
X58477Y14274D01*
X58940Y14163D01*
X59459Y14071D01*
X60033Y14034D01*
X60236D01*
X60366Y14052D01*
X60532Y14071D01*
X60736Y14108D01*
X60958Y14145D01*
X61199Y14182D01*
X61718Y14330D01*
X61995Y14441D01*
X62255Y14552D01*
X62532Y14700D01*
X62792Y14867D01*
X63032Y15052D01*
X63273Y15274D01*
X63292Y15293D01*
X63328Y15330D01*
X63384Y15404D01*
X63458Y15515D01*
X63551Y15645D01*
X63643Y15793D01*
X63754Y15978D01*
X63865Y16182D01*
X63977Y16422D01*
X64088Y16682D01*
X64180Y16978D01*
X64273Y17293D01*
X64347Y17626D01*
X64402Y17996D01*
X64440Y18385D01*
X64458Y18793D01*
Y19015D01*
X64440Y19181D01*
X64421Y19385D01*
X64402Y19607D01*
X64366Y19866D01*
X64310Y20126D01*
X64162Y20718D01*
X64069Y21014D01*
X63958Y21329D01*
X63810Y21625D01*
X63643Y21903D01*
X63458Y22181D01*
X63254Y22440D01*
X63236Y22459D01*
X63199Y22496D01*
X63125Y22551D01*
X63032Y22644D01*
X62921Y22736D01*
X62773Y22848D01*
X62606Y22977D01*
X62403Y23088D01*
X62199Y23218D01*
X61958Y23329D01*
X61699Y23440D01*
X61421Y23533D01*
X61125Y23625D01*
X60810Y23681D01*
X60477Y23718D01*
X60125Y23736D01*
D02*
G37*
G36*
X191371Y23533D02*
X189797D01*
Y14237D01*
X191371D01*
Y23533D01*
D02*
G37*
G36*
X152079Y16034D02*
X150282D01*
Y14237D01*
X152079D01*
Y16034D01*
D02*
G37*
G36*
X76624Y27051D02*
X70680D01*
X70532Y27032D01*
X70365D01*
X69976Y27014D01*
X69569Y26958D01*
X69124Y26903D01*
X68717Y26810D01*
X68513Y26755D01*
X68347Y26699D01*
X68328D01*
X68309Y26681D01*
X68198Y26625D01*
X68032Y26551D01*
X67828Y26421D01*
X67606Y26255D01*
X67365Y26033D01*
X67143Y25773D01*
X66921Y25477D01*
Y25458D01*
X66902Y25440D01*
X66828Y25329D01*
X66754Y25144D01*
X66643Y24903D01*
X66550Y24625D01*
X66458Y24292D01*
X66402Y23940D01*
X66384Y23551D01*
Y23533D01*
Y23496D01*
Y23422D01*
X66402Y23329D01*
Y23199D01*
X66421Y23070D01*
X66495Y22755D01*
X66606Y22385D01*
X66754Y21996D01*
X66976Y21607D01*
X67125Y21422D01*
X67273Y21237D01*
X67291Y21218D01*
X67310Y21200D01*
X67365Y21144D01*
X67439Y21089D01*
X67532Y21014D01*
X67643Y20940D01*
X67791Y20848D01*
X67939Y20737D01*
X68124Y20644D01*
X68328Y20552D01*
X68550Y20440D01*
X68791Y20348D01*
X69069Y20274D01*
X69346Y20181D01*
X69661Y20126D01*
X69995Y20070D01*
X69957Y20052D01*
X69883Y20015D01*
X69772Y19941D01*
X69624Y19866D01*
X69291Y19663D01*
X69124Y19533D01*
X68976Y19422D01*
X68939Y19385D01*
X68847Y19292D01*
X68698Y19144D01*
X68513Y18959D01*
X68309Y18700D01*
X68069Y18422D01*
X67828Y18089D01*
X67569Y17718D01*
X65365Y14237D01*
X67476D01*
X69161Y16904D01*
Y16922D01*
X69198Y16959D01*
X69235Y17015D01*
X69291Y17089D01*
X69420Y17293D01*
X69587Y17552D01*
X69791Y17830D01*
X69995Y18126D01*
X70198Y18404D01*
X70383Y18663D01*
X70402Y18681D01*
X70457Y18755D01*
X70550Y18866D01*
X70680Y18996D01*
X70957Y19274D01*
X71105Y19404D01*
X71254Y19515D01*
X71272Y19533D01*
X71309Y19552D01*
X71383Y19589D01*
X71494Y19644D01*
X71606Y19700D01*
X71735Y19755D01*
X72031Y19848D01*
X72050D01*
X72087Y19866D01*
X72161D01*
X72254Y19885D01*
X72383Y19904D01*
X72531D01*
X72735Y19922D01*
X74920D01*
Y14237D01*
X76624D01*
Y27051D01*
D02*
G37*
G36*
X54052D02*
X44849D01*
Y25533D01*
X52089Y16663D01*
X52848Y15756D01*
X44645D01*
Y14237D01*
X54792D01*
Y15811D01*
X48219Y23996D01*
Y24014D01*
X48182Y24033D01*
X48089Y24144D01*
X47960Y24310D01*
X47793Y24514D01*
X47589Y24755D01*
X47367Y25014D01*
X47126Y25273D01*
X46886Y25533D01*
X54052D01*
Y27051D01*
D02*
G37*
G36*
X33387Y26884D02*
X25092D01*
Y25644D01*
X25110Y25625D01*
X25147Y25588D01*
X25221Y25514D01*
X25296Y25403D01*
X25407Y25273D01*
X25555Y25125D01*
X25703Y24940D01*
X25870Y24718D01*
X26036Y24496D01*
X26240Y24236D01*
X26444Y23940D01*
X26647Y23644D01*
X26869Y23310D01*
X27092Y22959D01*
X27314Y22570D01*
X27536Y22181D01*
X27555Y22162D01*
X27592Y22088D01*
X27647Y21977D01*
X27740Y21811D01*
X27832Y21607D01*
X27943Y21385D01*
X28073Y21126D01*
X28203Y20829D01*
X28351Y20496D01*
X28517Y20163D01*
X28665Y19792D01*
X28814Y19404D01*
X29110Y18607D01*
X29388Y17756D01*
Y17737D01*
X29406Y17681D01*
X29425Y17589D01*
X29462Y17478D01*
X29499Y17330D01*
X29536Y17145D01*
X29591Y16941D01*
X29628Y16719D01*
X29684Y16459D01*
X29739Y16182D01*
X29832Y15589D01*
X29925Y14941D01*
X29980Y14237D01*
X31591D01*
Y14256D01*
Y14311D01*
Y14385D01*
X31573Y14497D01*
Y14645D01*
X31554Y14830D01*
X31535Y15034D01*
X31517Y15256D01*
X31480Y15515D01*
X31443Y15774D01*
X31387Y16089D01*
X31332Y16404D01*
X31276Y16737D01*
X31202Y17107D01*
X31017Y17867D01*
Y17885D01*
X30999Y17959D01*
X30961Y18070D01*
X30906Y18237D01*
X30850Y18422D01*
X30776Y18644D01*
X30702Y18904D01*
X30591Y19181D01*
X30480Y19496D01*
X30369Y19811D01*
X30091Y20515D01*
X29758Y21255D01*
X29388Y21996D01*
X29369Y22014D01*
X29332Y22088D01*
X29276Y22181D01*
X29202Y22329D01*
X29110Y22496D01*
X28980Y22699D01*
X28851Y22922D01*
X28702Y23162D01*
X28351Y23699D01*
X27980Y24255D01*
X27555Y24829D01*
X27110Y25366D01*
X33387D01*
Y26884D01*
D02*
G37*
G36*
X134821Y23736D02*
X134636D01*
X134506Y23718D01*
X134340Y23699D01*
X134155Y23662D01*
X133951Y23625D01*
X133710Y23588D01*
X133210Y23422D01*
X132951Y23329D01*
X132692Y23199D01*
X132432Y23070D01*
X132173Y22885D01*
X131933Y22699D01*
X131692Y22477D01*
X131673Y22459D01*
X131636Y22422D01*
X131581Y22348D01*
X131507Y22255D01*
X131414Y22125D01*
X131303Y21959D01*
X131192Y21774D01*
X131081Y21570D01*
X130970Y21348D01*
X130859Y21070D01*
X130747Y20792D01*
X130655Y20477D01*
X130581Y20144D01*
X130525Y19792D01*
X130488Y19422D01*
X130470Y19015D01*
Y18718D01*
X130488Y18570D01*
X130507Y18385D01*
Y18200D01*
X130544Y17996D01*
X130599Y17533D01*
X130710Y17070D01*
X130840Y16608D01*
X131025Y16182D01*
Y16163D01*
X131044Y16145D01*
X131081Y16089D01*
X131118Y16015D01*
X131247Y15830D01*
X131414Y15608D01*
X131636Y15348D01*
X131914Y15089D01*
X132229Y14830D01*
X132599Y14589D01*
X132618D01*
X132636Y14571D01*
X132692Y14534D01*
X132784Y14497D01*
X132877Y14460D01*
X132988Y14423D01*
X133266Y14311D01*
X133581Y14219D01*
X133969Y14126D01*
X134377Y14052D01*
X134821Y14034D01*
X135006D01*
X135154Y14052D01*
X135321Y14071D01*
X135506Y14108D01*
X135729Y14145D01*
X135951Y14182D01*
X136451Y14330D01*
X136728Y14441D01*
X136988Y14552D01*
X137247Y14700D01*
X137506Y14867D01*
X137747Y15052D01*
X137987Y15274D01*
X138006Y15293D01*
X138043Y15330D01*
X138099Y15404D01*
X138173Y15515D01*
X138265Y15645D01*
X138358Y15793D01*
X138469Y15978D01*
X138580Y16200D01*
X138691Y16441D01*
X138802Y16719D01*
X138895Y17015D01*
X138987Y17330D01*
X139061Y17681D01*
X139117Y18052D01*
X139154Y18459D01*
X139172Y18885D01*
Y18996D01*
X139154Y19126D01*
Y19311D01*
X139136Y19515D01*
X139099Y19774D01*
X139061Y20033D01*
X138987Y20329D01*
X138913Y20626D01*
X138821Y20940D01*
X138710Y21274D01*
X138561Y21588D01*
X138413Y21885D01*
X138210Y22181D01*
X138006Y22459D01*
X137747Y22699D01*
X137728Y22718D01*
X137691Y22736D01*
X137617Y22792D01*
X137525Y22866D01*
X137414Y22940D01*
X137265Y23033D01*
X137117Y23125D01*
X136932Y23218D01*
X136728Y23310D01*
X136506Y23403D01*
X136006Y23570D01*
X135432Y23699D01*
X135136Y23718D01*
X134821Y23736D01*
D02*
G37*
G36*
X111157Y27273D02*
X109898D01*
X113620Y14015D01*
X114879D01*
X111157Y27273D01*
D02*
G37*
%LPD*%
G36*
X94831Y60241D02*
X95063Y60218D01*
X95387Y60149D01*
X95734Y60033D01*
X96127Y59848D01*
X96498Y59616D01*
X96868Y59292D01*
X96914Y59246D01*
X97007Y59130D01*
X97169Y58922D01*
X97331Y58621D01*
X97493Y58274D01*
X97654Y57835D01*
X97747Y57349D01*
X97793Y56793D01*
Y56747D01*
Y56631D01*
X97770Y56423D01*
X97747Y56168D01*
X97701Y55868D01*
X97608Y55544D01*
X97516Y55197D01*
X97377Y54850D01*
X97354Y54803D01*
X97284Y54688D01*
X97192Y54526D01*
X97053Y54317D01*
X96891Y54109D01*
X96683Y53855D01*
X96451Y53646D01*
X96174Y53438D01*
X96127Y53415D01*
X96035Y53369D01*
X95873Y53276D01*
X95665Y53207D01*
X95433Y53114D01*
X95155Y53022D01*
X94855Y52975D01*
X94531Y52952D01*
X94415D01*
X94323Y52975D01*
X94091Y52998D01*
X93790Y53068D01*
X93466Y53207D01*
X93096Y53369D01*
X92726Y53623D01*
X92541Y53762D01*
X92379Y53947D01*
Y53970D01*
X92332Y53993D01*
X92240Y54132D01*
X92101Y54364D01*
X91916Y54665D01*
X91754Y55058D01*
X91615Y55521D01*
X91523Y56053D01*
X91476Y56678D01*
Y56701D01*
Y56747D01*
Y56840D01*
X91500Y56955D01*
Y57094D01*
X91523Y57256D01*
X91592Y57626D01*
X91685Y58043D01*
X91847Y58482D01*
X92078Y58899D01*
X92379Y59292D01*
X92425Y59339D01*
X92541Y59454D01*
X92726Y59593D01*
X92980Y59778D01*
X93304Y59963D01*
X93675Y60102D01*
X94114Y60218D01*
X94600Y60264D01*
X94739D01*
X94831Y60241D01*
D02*
G37*
G36*
X82382D02*
X82614Y60218D01*
X82938Y60149D01*
X83285Y60033D01*
X83678Y59848D01*
X84049Y59616D01*
X84419Y59292D01*
X84465Y59246D01*
X84558Y59130D01*
X84720Y58922D01*
X84882Y58621D01*
X85044Y58274D01*
X85205Y57835D01*
X85298Y57349D01*
X85344Y56793D01*
Y56747D01*
Y56631D01*
X85321Y56423D01*
X85298Y56168D01*
X85252Y55868D01*
X85159Y55544D01*
X85067Y55197D01*
X84928Y54850D01*
X84905Y54803D01*
X84835Y54688D01*
X84743Y54526D01*
X84604Y54317D01*
X84442Y54109D01*
X84234Y53855D01*
X84002Y53646D01*
X83725Y53438D01*
X83678Y53415D01*
X83586Y53369D01*
X83424Y53276D01*
X83216Y53207D01*
X82984Y53114D01*
X82706Y53022D01*
X82406Y52975D01*
X82082Y52952D01*
X81966D01*
X81874Y52975D01*
X81642Y52998D01*
X81341Y53068D01*
X81017Y53207D01*
X80647Y53369D01*
X80277Y53623D01*
X80092Y53762D01*
X79930Y53947D01*
Y53970D01*
X79883Y53993D01*
X79791Y54132D01*
X79652Y54364D01*
X79467Y54665D01*
X79305Y55058D01*
X79166Y55521D01*
X79074Y56053D01*
X79027Y56678D01*
Y56701D01*
Y56747D01*
Y56840D01*
X79050Y56955D01*
Y57094D01*
X79074Y57256D01*
X79143Y57626D01*
X79236Y58043D01*
X79398Y58482D01*
X79629Y58899D01*
X79930Y59292D01*
X79976Y59339D01*
X80092Y59454D01*
X80277Y59593D01*
X80531Y59778D01*
X80855Y59963D01*
X81226Y60102D01*
X81665Y60218D01*
X82151Y60264D01*
X82290D01*
X82382Y60241D01*
D02*
G37*
G36*
X167050Y61838D02*
X167304Y61815D01*
X167605Y61745D01*
X167975Y61629D01*
X168368Y61467D01*
X168739Y61236D01*
X169109Y60935D01*
X169155Y60889D01*
X169248Y60773D01*
X169410Y60565D01*
X169572Y60287D01*
X169757Y59963D01*
X169919Y59547D01*
X170058Y59061D01*
X170127Y58529D01*
X163625D01*
Y58552D01*
Y58598D01*
X163648Y58668D01*
Y58760D01*
X163694Y59038D01*
X163764Y59339D01*
X163880Y59709D01*
X163995Y60056D01*
X164180Y60403D01*
X164389Y60704D01*
Y60727D01*
X164435Y60750D01*
X164550Y60889D01*
X164759Y61074D01*
X165037Y61282D01*
X165384Y61491D01*
X165800Y61676D01*
X166286Y61815D01*
X166541Y61838D01*
X166818Y61861D01*
X166957D01*
X167050Y61838D01*
D02*
G37*
G36*
X137177D02*
X137431Y61815D01*
X137732Y61745D01*
X138102Y61629D01*
X138496Y61467D01*
X138866Y61236D01*
X139236Y60935D01*
X139282Y60889D01*
X139375Y60773D01*
X139537Y60565D01*
X139699Y60287D01*
X139884Y59963D01*
X140046Y59547D01*
X140185Y59061D01*
X140254Y58529D01*
X133752D01*
Y58552D01*
Y58598D01*
X133775Y58668D01*
Y58760D01*
X133821Y59038D01*
X133891Y59339D01*
X134007Y59709D01*
X134122Y60056D01*
X134307Y60403D01*
X134516Y60704D01*
Y60727D01*
X134562Y60750D01*
X134678Y60889D01*
X134886Y61074D01*
X135163Y61282D01*
X135511Y61491D01*
X135927Y61676D01*
X136413Y61815D01*
X136668Y61838D01*
X136945Y61861D01*
X137084D01*
X137177Y61838D01*
D02*
G37*
G36*
X194678Y66049D02*
X194886Y66026D01*
X195118Y65980D01*
X195372Y65933D01*
X195650Y65864D01*
X195974Y65771D01*
X196275Y65679D01*
X196599Y65540D01*
X196946Y65378D01*
X197270Y65193D01*
X197594Y64962D01*
X197918Y64730D01*
X198218Y64429D01*
X198242Y64406D01*
X198288Y64360D01*
X198357Y64267D01*
X198450Y64128D01*
X198589Y63966D01*
X198704Y63758D01*
X198843Y63504D01*
X198982Y63226D01*
X199144Y62902D01*
X199283Y62532D01*
X199398Y62139D01*
X199514Y61699D01*
X199630Y61236D01*
X199699Y60727D01*
X199746Y60172D01*
X199769Y59593D01*
Y59547D01*
Y59454D01*
Y59292D01*
X199746Y59084D01*
X199722Y58830D01*
X199676Y58529D01*
X199630Y58182D01*
X199584Y57835D01*
X199398Y57048D01*
X199283Y56655D01*
X199121Y56261D01*
X198959Y55868D01*
X198751Y55497D01*
X198519Y55127D01*
X198242Y54803D01*
X198218Y54780D01*
X198172Y54734D01*
X198079Y54641D01*
X197964Y54549D01*
X197802Y54410D01*
X197617Y54271D01*
X197409Y54132D01*
X197154Y53970D01*
X196899Y53808D01*
X196599Y53670D01*
X196275Y53531D01*
X195928Y53392D01*
X195534Y53299D01*
X195141Y53207D01*
X194724Y53160D01*
X194285Y53137D01*
X194076D01*
X193868Y53160D01*
X193591Y53184D01*
X193243Y53230D01*
X192896Y53322D01*
X192503Y53415D01*
X192133Y53554D01*
X192179Y53577D01*
X192295Y53670D01*
X192503Y53785D01*
X192757Y53924D01*
X193081Y54063D01*
X193428Y54225D01*
X193822Y54364D01*
X194238Y54479D01*
X193706Y56007D01*
X193683D01*
X193614Y55983D01*
X193521Y55960D01*
X193405Y55914D01*
X193243Y55868D01*
X193058Y55798D01*
X192642Y55636D01*
X192156Y55405D01*
X191647Y55150D01*
X191161Y54850D01*
X190675Y54479D01*
X190652Y54503D01*
X190582Y54549D01*
X190490Y54665D01*
X190374Y54803D01*
X190235Y54988D01*
X190073Y55197D01*
X189911Y55451D01*
X189726Y55752D01*
X189564Y56099D01*
X189402Y56493D01*
X189240Y56909D01*
X189102Y57349D01*
X188963Y57858D01*
X188870Y58390D01*
X188824Y58968D01*
X188801Y59593D01*
Y59616D01*
Y59686D01*
Y59778D01*
Y59917D01*
X188824Y60102D01*
Y60287D01*
X188847Y60519D01*
X188893Y60750D01*
X188963Y61282D01*
X189078Y61861D01*
X189240Y62439D01*
X189472Y62995D01*
Y63018D01*
X189495Y63064D01*
X189541Y63134D01*
X189587Y63226D01*
X189749Y63504D01*
X189958Y63828D01*
X190235Y64198D01*
X190582Y64568D01*
X190976Y64938D01*
X191415Y65262D01*
X191439D01*
X191462Y65309D01*
X191531Y65332D01*
X191647Y65401D01*
X191763Y65447D01*
X191901Y65517D01*
X192248Y65679D01*
X192665Y65818D01*
X193151Y65957D01*
X193706Y66049D01*
X194285Y66072D01*
X194516D01*
X194678Y66049D01*
D02*
G37*
G36*
X154068Y36884D02*
X154138Y36861D01*
X154230Y36838D01*
X154346Y36792D01*
X154485Y36745D01*
X154647Y36699D01*
X154832Y36653D01*
X155040Y36583D01*
X155295Y36537D01*
X155549Y36468D01*
X155850Y36398D01*
X156174Y36329D01*
X156498Y36259D01*
X156868Y36213D01*
X157262Y36144D01*
X157308D01*
X157447Y36121D01*
X157678Y36074D01*
X157933Y36028D01*
X158210Y35982D01*
X158488Y35912D01*
X158743Y35843D01*
X158974Y35750D01*
X158997D01*
X159066Y35704D01*
X159159Y35658D01*
X159252Y35588D01*
X159529Y35403D01*
X159761Y35126D01*
Y35102D01*
X159807Y35056D01*
X159830Y34964D01*
X159876Y34848D01*
X159923Y34709D01*
X159969Y34570D01*
X159992Y34385D01*
X160015Y34200D01*
Y34177D01*
Y34061D01*
X159992Y33922D01*
X159946Y33737D01*
X159876Y33529D01*
X159761Y33321D01*
X159622Y33089D01*
X159437Y32881D01*
X159414Y32858D01*
X159321Y32812D01*
X159182Y32719D01*
X158997Y32627D01*
X158743Y32534D01*
X158442Y32441D01*
X158095Y32395D01*
X157678Y32372D01*
X157493D01*
X157262Y32395D01*
X157007Y32441D01*
X156683Y32488D01*
X156359Y32580D01*
X156012Y32696D01*
X155665Y32858D01*
X155619Y32881D01*
X155526Y32950D01*
X155364Y33066D01*
X155179Y33228D01*
X154971Y33413D01*
X154739Y33645D01*
X154554Y33922D01*
X154369Y34223D01*
X154346Y34246D01*
X154323Y34339D01*
X154277Y34501D01*
X154207Y34709D01*
X154138Y34987D01*
X154092Y35311D01*
X154068Y35704D01*
X154045Y36167D01*
X154022Y36907D01*
X154045D01*
X154068Y36884D01*
D02*
G37*
G36*
X196737Y41304D02*
X196992Y41281D01*
X197293Y41211D01*
X197663Y41095D01*
X198056Y40934D01*
X198427Y40702D01*
X198797Y40401D01*
X198843Y40355D01*
X198936Y40239D01*
X199098Y40031D01*
X199260Y39753D01*
X199445Y39430D01*
X199607Y39013D01*
X199746Y38527D01*
X199815Y37995D01*
X193313D01*
Y38018D01*
Y38064D01*
X193336Y38134D01*
Y38226D01*
X193382Y38504D01*
X193452Y38805D01*
X193567Y39175D01*
X193683Y39522D01*
X193868Y39869D01*
X194076Y40170D01*
Y40193D01*
X194123Y40216D01*
X194238Y40355D01*
X194447Y40540D01*
X194724Y40749D01*
X195071Y40957D01*
X195488Y41142D01*
X195974Y41281D01*
X196228Y41304D01*
X196506Y41327D01*
X196645D01*
X196737Y41304D01*
D02*
G37*
G36*
X186533Y40378D02*
X182599D01*
X182299Y40401D01*
X181975Y40424D01*
X181651Y40448D01*
X181327Y40494D01*
X181072Y40540D01*
X181026Y40563D01*
X180933Y40587D01*
X180794Y40656D01*
X180609Y40749D01*
X180424Y40841D01*
X180216Y40980D01*
X180008Y41165D01*
X179846Y41350D01*
X179823Y41373D01*
X179776Y41443D01*
X179707Y41582D01*
X179637Y41743D01*
X179568Y41929D01*
X179499Y42160D01*
X179452Y42438D01*
X179429Y42738D01*
Y42785D01*
Y42877D01*
X179452Y43016D01*
X179475Y43201D01*
X179522Y43433D01*
X179591Y43664D01*
X179684Y43895D01*
X179823Y44127D01*
X179846Y44150D01*
X179892Y44219D01*
X179984Y44335D01*
X180100Y44451D01*
X180262Y44590D01*
X180447Y44728D01*
X180679Y44867D01*
X180933Y44960D01*
X180956D01*
X181072Y45006D01*
X181234Y45029D01*
X181489Y45075D01*
X181836Y45122D01*
X182229Y45145D01*
X182738Y45191D01*
X186533D01*
Y40378D01*
D02*
G37*
G36*
Y32974D02*
X181975D01*
X181489Y32997D01*
X181280Y33020D01*
X181095Y33043D01*
X181072D01*
X180979Y33066D01*
X180841Y33089D01*
X180679Y33136D01*
X180285Y33274D01*
X179892Y33459D01*
X179869Y33483D01*
X179799Y33529D01*
X179707Y33598D01*
X179591Y33691D01*
X179475Y33830D01*
X179314Y33969D01*
X179198Y34154D01*
X179059Y34362D01*
X179036Y34385D01*
X179013Y34455D01*
X178966Y34593D01*
X178897Y34755D01*
X178828Y34941D01*
X178781Y35172D01*
X178758Y35450D01*
X178735Y35727D01*
Y35773D01*
Y35866D01*
X178758Y36051D01*
X178804Y36259D01*
X178851Y36491D01*
X178943Y36745D01*
X179059Y37000D01*
X179221Y37254D01*
X179244Y37278D01*
X179314Y37370D01*
X179406Y37486D01*
X179545Y37625D01*
X179730Y37787D01*
X179961Y37949D01*
X180216Y38087D01*
X180517Y38203D01*
X180563Y38226D01*
X180656Y38249D01*
X180864Y38296D01*
X181118Y38342D01*
X181442Y38388D01*
X181836Y38435D01*
X182322Y38481D01*
X186533D01*
Y32974D01*
D02*
G37*
G36*
X169456Y41304D02*
X169711Y41281D01*
X170058Y41188D01*
X170451Y41049D01*
X170868Y40864D01*
X171261Y40587D01*
X171469Y40401D01*
X171654Y40216D01*
Y40193D01*
X171701Y40170D01*
X171747Y40101D01*
X171816Y40008D01*
X171886Y39892D01*
X171955Y39753D01*
X172048Y39568D01*
X172140Y39383D01*
X172233Y39152D01*
X172325Y38920D01*
X172395Y38643D01*
X172464Y38342D01*
X172534Y38018D01*
X172580Y37671D01*
X172603Y37278D01*
X172626Y36884D01*
Y36861D01*
Y36792D01*
Y36676D01*
X172603Y36514D01*
Y36329D01*
X172580Y36121D01*
X172511Y35635D01*
X172395Y35079D01*
X172210Y34524D01*
X171978Y33992D01*
X171816Y33760D01*
X171654Y33529D01*
X171631D01*
X171608Y33483D01*
X171469Y33367D01*
X171261Y33182D01*
X170983Y32997D01*
X170636Y32789D01*
X170220Y32603D01*
X169734Y32488D01*
X169479Y32465D01*
X169202Y32441D01*
X169063D01*
X168947Y32465D01*
X168692Y32511D01*
X168345Y32580D01*
X167975Y32719D01*
X167559Y32904D01*
X167165Y33182D01*
X166957Y33367D01*
X166772Y33552D01*
X166749Y33575D01*
X166726Y33598D01*
X166679Y33668D01*
X166610Y33760D01*
X166541Y33876D01*
X166448Y34015D01*
X166355Y34200D01*
X166263Y34385D01*
X166170Y34616D01*
X166101Y34871D01*
X166008Y35149D01*
X165939Y35450D01*
X165870Y35797D01*
X165823Y36144D01*
X165777Y36537D01*
Y36954D01*
Y36977D01*
Y37046D01*
Y37162D01*
X165800Y37301D01*
Y37486D01*
X165823Y37694D01*
X165893Y38180D01*
X166008Y38689D01*
X166193Y39244D01*
X166448Y39753D01*
X166587Y40008D01*
X166772Y40216D01*
Y40239D01*
X166818Y40262D01*
X166957Y40401D01*
X167165Y40563D01*
X167443Y40772D01*
X167790Y40980D01*
X168207Y41165D01*
X168669Y41281D01*
X168924Y41304D01*
X169202Y41327D01*
X169340D01*
X169456Y41304D01*
D02*
G37*
G36*
X137408D02*
X137663Y41281D01*
X137963Y41188D01*
X138310Y41072D01*
X138681Y40864D01*
X139051Y40610D01*
X139236Y40424D01*
X139398Y40239D01*
Y40216D01*
X139444Y40193D01*
X139467Y40124D01*
X139537Y40031D01*
X139606Y39915D01*
X139676Y39777D01*
X139745Y39615D01*
X139838Y39430D01*
X139930Y39198D01*
X140000Y38944D01*
X140069Y38666D01*
X140139Y38365D01*
X140185Y38041D01*
X140231Y37671D01*
X140277Y37278D01*
Y36861D01*
Y36838D01*
Y36769D01*
Y36653D01*
X140254Y36491D01*
Y36306D01*
X140231Y36097D01*
X140162Y35612D01*
X140046Y35079D01*
X139884Y34524D01*
X139653Y33992D01*
X139514Y33760D01*
X139352Y33529D01*
X139329D01*
X139305Y33483D01*
X139190Y33367D01*
X138982Y33182D01*
X138727Y32997D01*
X138403Y32789D01*
X138010Y32603D01*
X137593Y32488D01*
X137362Y32465D01*
X137130Y32441D01*
X137015D01*
X136922Y32465D01*
X136668Y32488D01*
X136367Y32580D01*
X136020Y32696D01*
X135649Y32881D01*
X135279Y33136D01*
X135094Y33298D01*
X134932Y33483D01*
Y33506D01*
X134886Y33529D01*
X134840Y33598D01*
X134793Y33691D01*
X134724Y33807D01*
X134631Y33922D01*
X134562Y34107D01*
X134469Y34293D01*
X134377Y34501D01*
X134307Y34732D01*
X134215Y35010D01*
X134145Y35288D01*
X134099Y35612D01*
X134053Y35935D01*
X134007Y36306D01*
Y36699D01*
Y36722D01*
Y36815D01*
Y36930D01*
X134030Y37092D01*
Y37278D01*
X134053Y37509D01*
X134076Y37764D01*
X134122Y38041D01*
X134238Y38596D01*
X134400Y39175D01*
X134631Y39730D01*
X134770Y39962D01*
X134932Y40193D01*
Y40216D01*
X134978Y40239D01*
X135094Y40378D01*
X135302Y40563D01*
X135557Y40772D01*
X135881Y40980D01*
X136274Y41142D01*
X136714Y41281D01*
X136945Y41304D01*
X137200Y41327D01*
X137316D01*
X137408Y41304D01*
D02*
G37*
G36*
X84859Y45515D02*
X85113Y45469D01*
X85414Y45399D01*
X85761Y45261D01*
X86131Y45052D01*
X86316Y44914D01*
X86501Y44775D01*
X86663Y44590D01*
X86825Y44381D01*
Y44358D01*
X86872Y44312D01*
X86918Y44219D01*
X86987Y44104D01*
X87057Y43919D01*
X87149Y43710D01*
X87219Y43456D01*
X87311Y43155D01*
X87404Y42808D01*
X87496Y42414D01*
X87589Y41975D01*
X87658Y41489D01*
X87728Y40934D01*
X87774Y40332D01*
X87797Y39684D01*
X87820Y38967D01*
Y38920D01*
Y38805D01*
Y38596D01*
X87797Y38319D01*
Y38018D01*
X87774Y37648D01*
X87751Y37254D01*
X87705Y36838D01*
X87589Y35935D01*
X87520Y35496D01*
X87427Y35079D01*
X87334Y34686D01*
X87196Y34316D01*
X87057Y33992D01*
X86895Y33714D01*
Y33691D01*
X86848Y33668D01*
X86733Y33506D01*
X86524Y33298D01*
X86270Y33066D01*
X85923Y32835D01*
X85529Y32627D01*
X85090Y32465D01*
X84859Y32441D01*
X84604Y32418D01*
X84465D01*
X84373Y32441D01*
X84141Y32488D01*
X83817Y32580D01*
X83470Y32742D01*
X83077Y32974D01*
X82892Y33112D01*
X82706Y33298D01*
X82521Y33483D01*
X82336Y33714D01*
Y33737D01*
X82290Y33784D01*
X82244Y33853D01*
X82197Y33969D01*
X82105Y34131D01*
X82035Y34339D01*
X81943Y34570D01*
X81850Y34848D01*
X81781Y35195D01*
X81688Y35565D01*
X81596Y36005D01*
X81526Y36468D01*
X81480Y37023D01*
X81434Y37601D01*
X81388Y38249D01*
Y38967D01*
Y38990D01*
Y39013D01*
Y39129D01*
Y39337D01*
X81411Y39615D01*
Y39915D01*
X81434Y40286D01*
X81457Y40679D01*
X81503Y41119D01*
X81619Y41998D01*
X81688Y42438D01*
X81781Y42854D01*
X81874Y43247D01*
X82012Y43618D01*
X82151Y43942D01*
X82313Y44219D01*
Y44243D01*
X82359Y44266D01*
X82406Y44335D01*
X82475Y44428D01*
X82683Y44636D01*
X82938Y44890D01*
X83285Y45122D01*
X83678Y45330D01*
X83887Y45423D01*
X84118Y45492D01*
X84373Y45515D01*
X84627Y45538D01*
X84766D01*
X84859Y45515D01*
D02*
G37*
G36*
X158726Y22422D02*
X158930Y22385D01*
X159171Y22329D01*
X159448Y22218D01*
X159745Y22051D01*
X159893Y21959D01*
X160041Y21829D01*
X160189Y21700D01*
X160337Y21533D01*
Y21514D01*
X160374Y21496D01*
X160411Y21440D01*
X160448Y21366D01*
X160504Y21274D01*
X160578Y21163D01*
X160633Y21033D01*
X160707Y20885D01*
X160781Y20700D01*
X160837Y20515D01*
X160911Y20292D01*
X160967Y20070D01*
X161004Y19811D01*
X161041Y19533D01*
X161078Y19255D01*
Y18941D01*
Y18922D01*
Y18866D01*
Y18774D01*
Y18663D01*
X161059Y18533D01*
Y18367D01*
X161022Y18015D01*
X160967Y17626D01*
X160893Y17219D01*
X160781Y16848D01*
X160707Y16682D01*
X160633Y16533D01*
Y16515D01*
X160596Y16478D01*
X160559Y16422D01*
X160504Y16348D01*
X160337Y16145D01*
X160096Y15941D01*
X159819Y15719D01*
X159467Y15515D01*
X159282Y15441D01*
X159059Y15385D01*
X158856Y15348D01*
X158615Y15330D01*
X158522D01*
X158448Y15348D01*
X158245Y15385D01*
X158004Y15441D01*
X157726Y15552D01*
X157430Y15700D01*
X157134Y15922D01*
X156986Y16070D01*
X156837Y16219D01*
Y16237D01*
X156800Y16256D01*
X156763Y16311D01*
X156726Y16385D01*
X156652Y16478D01*
X156597Y16589D01*
X156523Y16737D01*
X156448Y16885D01*
X156393Y17070D01*
X156319Y17256D01*
X156245Y17478D01*
X156189Y17718D01*
X156152Y17978D01*
X156115Y18255D01*
X156078Y18570D01*
Y18885D01*
Y18904D01*
Y18959D01*
Y19052D01*
X156097Y19181D01*
Y19330D01*
X156115Y19515D01*
X156171Y19904D01*
X156245Y20329D01*
X156375Y20792D01*
X156560Y21200D01*
X156671Y21403D01*
X156800Y21570D01*
Y21588D01*
X156837Y21607D01*
X156930Y21700D01*
X157078Y21848D01*
X157282Y22014D01*
X157541Y22162D01*
X157837Y22311D01*
X158189Y22403D01*
X158374Y22440D01*
X158652D01*
X158726Y22422D01*
D02*
G37*
G36*
X197981D02*
X198185Y22403D01*
X198426Y22329D01*
X198722Y22237D01*
X199018Y22070D01*
X199314Y21866D01*
X199463Y21718D01*
X199611Y21570D01*
Y21551D01*
X199648Y21533D01*
X199685Y21477D01*
X199722Y21403D01*
X199777Y21329D01*
X199833Y21218D01*
X199907Y21089D01*
X199963Y20940D01*
X200037Y20774D01*
X200111Y20570D01*
X200166Y20366D01*
X200222Y20144D01*
X200259Y19885D01*
X200296Y19626D01*
X200333Y19348D01*
Y19033D01*
Y19015D01*
Y18959D01*
Y18866D01*
X200314Y18737D01*
Y18589D01*
X200296Y18404D01*
X200240Y18015D01*
X200148Y17570D01*
X200037Y17145D01*
X199851Y16719D01*
X199740Y16533D01*
X199611Y16367D01*
X199574Y16330D01*
X199481Y16237D01*
X199333Y16108D01*
X199111Y15959D01*
X198852Y15793D01*
X198537Y15663D01*
X198185Y15571D01*
X198000Y15552D01*
X197796Y15533D01*
X197685D01*
X197611Y15552D01*
X197407Y15571D01*
X197148Y15645D01*
X196870Y15737D01*
X196556Y15885D01*
X196259Y16089D01*
X196111Y16219D01*
X195963Y16367D01*
Y16385D01*
X195926Y16404D01*
X195889Y16459D01*
X195852Y16533D01*
X195796Y16608D01*
X195722Y16719D01*
X195667Y16848D01*
X195593Y17015D01*
X195519Y17182D01*
X195463Y17367D01*
X195389Y17589D01*
X195333Y17830D01*
X195296Y18070D01*
X195259Y18348D01*
X195222Y18663D01*
Y18978D01*
Y18996D01*
Y19052D01*
Y19144D01*
X195241Y19255D01*
Y19404D01*
X195259Y19570D01*
X195315Y19941D01*
X195408Y20366D01*
X195537Y20792D01*
X195722Y21218D01*
X195852Y21403D01*
X195982Y21570D01*
Y21588D01*
X196019Y21607D01*
X196111Y21700D01*
X196278Y21848D01*
X196500Y22014D01*
X196759Y22162D01*
X197074Y22311D01*
X197426Y22403D01*
X197611Y22440D01*
X197907D01*
X197981Y22422D01*
D02*
G37*
G36*
X102806Y18885D02*
X102861Y18866D01*
X102936Y18848D01*
X103028Y18811D01*
X103139Y18774D01*
X103269Y18737D01*
X103417Y18700D01*
X103584Y18644D01*
X103787Y18607D01*
X103991Y18552D01*
X104232Y18496D01*
X104491Y18441D01*
X104750Y18385D01*
X105046Y18348D01*
X105361Y18292D01*
X105398D01*
X105509Y18274D01*
X105695Y18237D01*
X105898Y18200D01*
X106120Y18163D01*
X106343Y18107D01*
X106546Y18052D01*
X106732Y17978D01*
X106750D01*
X106805Y17941D01*
X106880Y17904D01*
X106954Y17848D01*
X107176Y17700D01*
X107361Y17478D01*
Y17459D01*
X107398Y17422D01*
X107417Y17348D01*
X107454Y17256D01*
X107491Y17145D01*
X107528Y17033D01*
X107546Y16885D01*
X107565Y16737D01*
Y16719D01*
Y16626D01*
X107546Y16515D01*
X107509Y16367D01*
X107454Y16200D01*
X107361Y16034D01*
X107250Y15848D01*
X107102Y15682D01*
X107083Y15663D01*
X107009Y15626D01*
X106898Y15552D01*
X106750Y15478D01*
X106546Y15404D01*
X106306Y15330D01*
X106028Y15293D01*
X105695Y15274D01*
X105546D01*
X105361Y15293D01*
X105157Y15330D01*
X104898Y15367D01*
X104639Y15441D01*
X104361Y15533D01*
X104084Y15663D01*
X104047Y15682D01*
X103973Y15737D01*
X103843Y15830D01*
X103695Y15959D01*
X103528Y16108D01*
X103343Y16293D01*
X103195Y16515D01*
X103047Y16756D01*
X103028Y16774D01*
X103010Y16848D01*
X102973Y16978D01*
X102917Y17145D01*
X102861Y17367D01*
X102824Y17626D01*
X102806Y17941D01*
X102787Y18311D01*
X102769Y18904D01*
X102787D01*
X102806Y18885D01*
D02*
G37*
G36*
X80901D02*
X80956Y18866D01*
X81030Y18848D01*
X81123Y18811D01*
X81234Y18774D01*
X81364Y18737D01*
X81512Y18700D01*
X81678Y18644D01*
X81882Y18607D01*
X82086Y18552D01*
X82327Y18496D01*
X82586Y18441D01*
X82845Y18385D01*
X83141Y18348D01*
X83456Y18292D01*
X83493D01*
X83604Y18274D01*
X83789Y18237D01*
X83993Y18200D01*
X84215Y18163D01*
X84438Y18107D01*
X84641Y18052D01*
X84826Y17978D01*
X84845D01*
X84900Y17941D01*
X84974Y17904D01*
X85049Y17848D01*
X85271Y17700D01*
X85456Y17478D01*
Y17459D01*
X85493Y17422D01*
X85511Y17348D01*
X85548Y17256D01*
X85585Y17145D01*
X85623Y17033D01*
X85641Y16885D01*
X85660Y16737D01*
Y16719D01*
Y16626D01*
X85641Y16515D01*
X85604Y16367D01*
X85548Y16200D01*
X85456Y16034D01*
X85345Y15848D01*
X85197Y15682D01*
X85178Y15663D01*
X85104Y15626D01*
X84993Y15552D01*
X84845Y15478D01*
X84641Y15404D01*
X84400Y15330D01*
X84123Y15293D01*
X83789Y15274D01*
X83641D01*
X83456Y15293D01*
X83252Y15330D01*
X82993Y15367D01*
X82734Y15441D01*
X82456Y15533D01*
X82178Y15663D01*
X82141Y15682D01*
X82067Y15737D01*
X81938Y15830D01*
X81790Y15959D01*
X81623Y16108D01*
X81438Y16293D01*
X81290Y16515D01*
X81142Y16756D01*
X81123Y16774D01*
X81104Y16848D01*
X81067Y16978D01*
X81012Y17145D01*
X80956Y17367D01*
X80919Y17626D01*
X80901Y17941D01*
X80882Y18311D01*
X80864Y18904D01*
X80882D01*
X80901Y18885D01*
D02*
G37*
G36*
X37109D02*
X37165Y18866D01*
X37239Y18848D01*
X37331Y18811D01*
X37442Y18774D01*
X37572Y18737D01*
X37720Y18700D01*
X37887Y18644D01*
X38090Y18607D01*
X38294Y18552D01*
X38535Y18496D01*
X38794Y18441D01*
X39053Y18385D01*
X39350Y18348D01*
X39664Y18292D01*
X39701D01*
X39813Y18274D01*
X39998Y18237D01*
X40201Y18200D01*
X40423Y18163D01*
X40646Y18107D01*
X40849Y18052D01*
X41035Y17978D01*
X41053D01*
X41109Y17941D01*
X41183Y17904D01*
X41257Y17848D01*
X41479Y17700D01*
X41664Y17478D01*
Y17459D01*
X41701Y17422D01*
X41720Y17348D01*
X41757Y17256D01*
X41794Y17145D01*
X41831Y17033D01*
X41849Y16885D01*
X41868Y16737D01*
Y16719D01*
Y16626D01*
X41849Y16515D01*
X41812Y16367D01*
X41757Y16200D01*
X41664Y16034D01*
X41553Y15848D01*
X41405Y15682D01*
X41386Y15663D01*
X41312Y15626D01*
X41201Y15552D01*
X41053Y15478D01*
X40849Y15404D01*
X40609Y15330D01*
X40331Y15293D01*
X39998Y15274D01*
X39850D01*
X39664Y15293D01*
X39461Y15330D01*
X39201Y15367D01*
X38942Y15441D01*
X38664Y15533D01*
X38387Y15663D01*
X38350Y15682D01*
X38276Y15737D01*
X38146Y15830D01*
X37998Y15959D01*
X37831Y16108D01*
X37646Y16293D01*
X37498Y16515D01*
X37350Y16756D01*
X37331Y16774D01*
X37313Y16848D01*
X37276Y16978D01*
X37220Y17145D01*
X37165Y17367D01*
X37128Y17626D01*
X37109Y17941D01*
X37090Y18311D01*
X37072Y18904D01*
X37090D01*
X37109Y18885D01*
D02*
G37*
G36*
X60292Y22422D02*
X60496Y22403D01*
X60736Y22348D01*
X61033Y22255D01*
X61347Y22125D01*
X61644Y21940D01*
X61940Y21700D01*
X61977Y21662D01*
X62051Y21570D01*
X62181Y21403D01*
X62310Y21181D01*
X62458Y20922D01*
X62588Y20589D01*
X62699Y20200D01*
X62755Y19774D01*
X57551D01*
Y19792D01*
Y19829D01*
X57570Y19885D01*
Y19959D01*
X57607Y20181D01*
X57663Y20422D01*
X57755Y20718D01*
X57848Y20996D01*
X57996Y21274D01*
X58162Y21514D01*
Y21533D01*
X58200Y21551D01*
X58292Y21662D01*
X58459Y21811D01*
X58681Y21977D01*
X58959Y22144D01*
X59292Y22292D01*
X59681Y22403D01*
X59885Y22422D01*
X60107Y22440D01*
X60218D01*
X60292Y22422D01*
D02*
G37*
G36*
X74920Y21385D02*
X71105D01*
X70883Y21403D01*
X70624Y21422D01*
X70328Y21440D01*
X70032Y21477D01*
X69735Y21533D01*
X69476Y21607D01*
X69439Y21625D01*
X69365Y21662D01*
X69254Y21718D01*
X69106Y21792D01*
X68939Y21903D01*
X68772Y22033D01*
X68606Y22199D01*
X68476Y22385D01*
X68458Y22403D01*
X68421Y22477D01*
X68365Y22588D01*
X68291Y22736D01*
X68235Y22903D01*
X68180Y23088D01*
X68143Y23310D01*
X68124Y23533D01*
Y23551D01*
Y23570D01*
X68143Y23681D01*
X68161Y23847D01*
X68198Y24070D01*
X68291Y24292D01*
X68402Y24551D01*
X68569Y24792D01*
X68791Y25033D01*
X68828Y25051D01*
X68921Y25125D01*
X69069Y25218D01*
X69309Y25329D01*
X69587Y25440D01*
X69957Y25533D01*
X70383Y25607D01*
X70883Y25625D01*
X74920D01*
Y21385D01*
D02*
G37*
G36*
X135025Y22422D02*
X135229Y22403D01*
X135506Y22329D01*
X135821Y22218D01*
X136154Y22070D01*
X136469Y21848D01*
X136636Y21700D01*
X136784Y21551D01*
Y21533D01*
X136821Y21514D01*
X136858Y21459D01*
X136913Y21385D01*
X136969Y21292D01*
X137025Y21181D01*
X137099Y21033D01*
X137173Y20885D01*
X137247Y20700D01*
X137321Y20515D01*
X137376Y20292D01*
X137432Y20052D01*
X137487Y19792D01*
X137525Y19515D01*
X137543Y19200D01*
X137562Y18885D01*
Y18866D01*
Y18811D01*
Y18718D01*
X137543Y18589D01*
Y18441D01*
X137525Y18274D01*
X137469Y17885D01*
X137376Y17441D01*
X137228Y16996D01*
X137043Y16571D01*
X136913Y16385D01*
X136784Y16200D01*
X136765D01*
X136747Y16163D01*
X136636Y16070D01*
X136469Y15922D01*
X136247Y15774D01*
X135969Y15608D01*
X135636Y15460D01*
X135247Y15367D01*
X135043Y15348D01*
X134821Y15330D01*
X134710D01*
X134618Y15348D01*
X134414Y15385D01*
X134136Y15441D01*
X133840Y15552D01*
X133506Y15700D01*
X133192Y15922D01*
X133025Y16070D01*
X132877Y16219D01*
X132858Y16237D01*
X132840Y16256D01*
X132803Y16311D01*
X132747Y16385D01*
X132692Y16478D01*
X132618Y16589D01*
X132544Y16737D01*
X132470Y16885D01*
X132395Y17070D01*
X132340Y17274D01*
X132266Y17496D01*
X132210Y17737D01*
X132155Y18015D01*
X132118Y18292D01*
X132081Y18607D01*
Y18941D01*
Y18959D01*
Y19015D01*
Y19107D01*
X132099Y19218D01*
Y19367D01*
X132118Y19533D01*
X132173Y19922D01*
X132266Y20329D01*
X132414Y20774D01*
X132618Y21181D01*
X132729Y21385D01*
X132877Y21551D01*
Y21570D01*
X132914Y21588D01*
X133025Y21700D01*
X133192Y21829D01*
X133414Y21996D01*
X133692Y22162D01*
X134025Y22311D01*
X134395Y22403D01*
X134599Y22422D01*
X134821Y22440D01*
X134932D01*
X135025Y22422D01*
D02*
G37*
%LPC*%
G36*
X60485Y216440D02*
D01*
Y210867D01*
X57411D01*
Y216440D01*
X55967D01*
X47671Y210570D01*
Y209293D01*
X55967D01*
Y207552D01*
X47671D01*
X60485D01*
Y216440D01*
D02*
G37*
G36*
Y206626D02*
Y201664D01*
X47671Y206626D01*
Y204774D01*
X56985Y201442D01*
X57004D01*
X57041Y201423D01*
X57096Y201404D01*
X57170Y201367D01*
X57281Y201349D01*
X57393Y201312D01*
X57670Y201219D01*
X57985Y201108D01*
X58337Y200997D01*
X59078Y200775D01*
X59059D01*
X59022Y200756D01*
X58966Y200738D01*
X58892Y200719D01*
X58689Y200664D01*
X58411Y200571D01*
X58096Y200479D01*
X57744Y200368D01*
X57374Y200238D01*
X56985Y200090D01*
X47671Y196609D01*
Y194887D01*
X60485Y199886D01*
Y206626D01*
D02*
G37*
G36*
X64040Y195016D02*
X60485D01*
X62910D01*
Y184592D01*
X64040D01*
Y195016D01*
D02*
G37*
G36*
X60485Y183369D02*
X47671D01*
Y174093D01*
X49190D01*
Y181666D01*
X53097D01*
Y174574D01*
X54615D01*
Y181666D01*
X58966D01*
Y173796D01*
X47671D01*
X60485D01*
Y183369D01*
D02*
G37*
G36*
Y171463D02*
X47671D01*
Y169723D01*
X57744Y163001D01*
X47671D01*
D01*
Y161372D01*
X60485D01*
Y171463D01*
D02*
G37*
%LPD*%
G36*
X55967Y210867D02*
X50227D01*
X55967Y214903D01*
Y210867D01*
D02*
G37*
G36*
X60485Y207552D02*
X57411D01*
Y209293D01*
X60485D01*
Y207552D01*
D02*
G37*
G36*
Y163131D02*
X50430Y169834D01*
X60485D01*
Y163131D01*
D02*
G37*
D10*
X374720Y302290D02*
G03*
X374720Y302290I-1250J0D01*
G01*
X251050Y365760D02*
G03*
X251050Y365760I-1250J0D01*
G01*
D14*
X242150Y27800D02*
Y30800D01*
X343260Y147740D02*
X346260D01*
X343260Y154520D02*
X346260D01*
X343260Y136740D02*
X346260D01*
X343310Y172300D02*
X346310D01*
X343310Y183300D02*
X346310Y183300D01*
X343260Y165520D02*
X346260D01*
X69700Y189230D02*
X82700D01*
X253150Y27800D02*
Y30800D01*
X271360Y28340D02*
Y31340D01*
X282360Y28340D02*
Y31340D01*
X360220Y277290D02*
Y299290D01*
X366220Y277290D02*
Y299290D01*
X360220Y277290D02*
X366220D01*
X360220Y299290D02*
X366220D01*
X361080Y320460D02*
X364080D01*
X361080Y309460D02*
X364080D01*
X216800Y383760D02*
X224800D01*
X246800Y377760D02*
Y383760D01*
X238800D02*
X246800D01*
X216800Y377760D02*
Y383760D01*
D16*
X227066Y369760D02*
X236534D01*
M02*
