G04*
G04 #@! TF.GenerationSoftware,Altium Limited,Altium Designer,24.2.2 (26)*
G04*
G04 Layer_Color=65535*
%FSLAX44Y44*%
%MOMM*%
G71*
G04*
G04 #@! TF.SameCoordinates,1E054471-4286-4940-991A-2DB9724D60F8*
G04*
G04*
G04 #@! TF.FilePolarity,Positive*
G04*
G01*
G75*
%ADD10C,0.2500*%
%ADD11C,0.2540*%
%ADD12C,0.1270*%
%ADD13C,0.1000*%
%ADD14C,0.2000*%
%ADD15C,0.3000*%
%ADD16C,0.1500*%
%ADD17C,0.1778*%
%ADD18C,0.3048*%
%ADD19C,0.2032*%
%ADD20R,2.8000X1.4000*%
%ADD21R,2.7178X0.9906*%
G36*
X438736Y492760D02*
X396240D01*
Y509574D01*
X438736D01*
Y492760D01*
D02*
G37*
G36*
X436755Y465455D02*
X396240D01*
Y482268D01*
X436755D01*
Y465455D01*
D02*
G37*
G36*
X438125Y438150D02*
X396240D01*
Y455408D01*
X438125D01*
Y438150D01*
D02*
G37*
G36*
X406360Y114502D02*
X389102D01*
Y142240D01*
X406360D01*
Y114502D01*
D02*
G37*
G36*
Y145733D02*
X391102D01*
Y195580D01*
X406360D01*
Y145733D01*
D02*
G37*
G36*
X23608Y468630D02*
Y426745D01*
X6350D01*
Y468630D01*
X23608D01*
D02*
G37*
G36*
X23441Y536948D02*
X6350D01*
Y571500D01*
X23441D01*
Y536948D01*
D02*
G37*
G36*
X179213Y40640D02*
X109220D01*
Y57898D01*
X179213D01*
Y40640D01*
D02*
G37*
G36*
X526168Y652780D02*
X495300D01*
Y670038D01*
X526168D01*
Y652780D01*
D02*
G37*
G36*
X465441D02*
X435610D01*
Y670038D01*
X465441D01*
Y652780D01*
D02*
G37*
G36*
X350322D02*
X325120D01*
Y669594D01*
X350322D01*
Y652780D01*
D02*
G37*
G36*
X268538D02*
X226060D01*
Y670038D01*
X268538D01*
Y652780D01*
D02*
G37*
G36*
X126678D02*
X91440D01*
Y669594D01*
X126678D01*
Y652780D01*
D02*
G37*
G36*
X61540D02*
X29210D01*
Y669594D01*
X61540D01*
Y652780D01*
D02*
G37*
%LPC*%
G36*
X436384Y507574D02*
X434533D01*
X431977Y504166D01*
X431755Y503889D01*
X431570Y503629D01*
X431385Y503370D01*
X431237Y503167D01*
X431107Y502981D01*
X431014Y502833D01*
X430959Y502759D01*
X430940Y502722D01*
X430811Y502944D01*
X430663Y503185D01*
X430496Y503444D01*
X430329Y503703D01*
X430163Y503926D01*
X430051Y504111D01*
X429996Y504185D01*
X429959Y504240D01*
X429922Y504259D01*
Y504277D01*
X427589Y507574D01*
X425570D01*
X429940Y501389D01*
X424996Y494760D01*
X427033D01*
X430274Y499204D01*
X430348Y499315D01*
X430440Y499445D01*
X430644Y499741D01*
X430737Y499889D01*
X430811Y500000D01*
X430866Y500074D01*
X430885Y500093D01*
X431070Y499815D01*
X431237Y499556D01*
X431311Y499463D01*
X431348Y499389D01*
X431385Y499334D01*
X431403Y499315D01*
X434644Y494760D01*
X436736D01*
X431940Y501482D01*
X436384Y507574D01*
D02*
G37*
G36*
X408109Y504259D02*
X407980D01*
X407646Y504240D01*
X407350Y504185D01*
X407054Y504111D01*
X406776Y504000D01*
X406517Y503870D01*
X406276Y503741D01*
X406073Y503592D01*
X405869Y503444D01*
X405684Y503278D01*
X405536Y503130D01*
X405406Y503000D01*
X405295Y502870D01*
X405202Y502759D01*
X405147Y502685D01*
X405110Y502630D01*
X405091Y502611D01*
X404980Y502889D01*
X404832Y503130D01*
X404665Y503333D01*
X404517Y503500D01*
X404369Y503648D01*
X404258Y503741D01*
X404184Y503796D01*
X404147Y503815D01*
X403888Y503963D01*
X403610Y504074D01*
X403332Y504148D01*
X403054Y504203D01*
X402832Y504240D01*
X402628Y504259D01*
X402462D01*
X402128Y504240D01*
X401814Y504185D01*
X401536Y504129D01*
X401295Y504055D01*
X401092Y503963D01*
X400943Y503907D01*
X400851Y503852D01*
X400814Y503833D01*
X400555Y503666D01*
X400332Y503481D01*
X400129Y503296D01*
X399962Y503111D01*
X399832Y502963D01*
X399721Y502833D01*
X399666Y502759D01*
X399647Y502722D01*
Y504055D01*
X398240D01*
Y494760D01*
X399814D01*
Y499574D01*
X399832Y500019D01*
X399851Y500408D01*
X399888Y500741D01*
X399944Y501019D01*
X399999Y501222D01*
X400036Y501370D01*
X400055Y501463D01*
X400073Y501500D01*
X400184Y501741D01*
X400314Y501944D01*
X400443Y502130D01*
X400573Y502278D01*
X400703Y502389D01*
X400795Y502463D01*
X400869Y502519D01*
X400888Y502537D01*
X401110Y502648D01*
X401314Y502741D01*
X401536Y502796D01*
X401721Y502852D01*
X401869Y502870D01*
X401999Y502889D01*
X402110D01*
X402425Y502870D01*
X402684Y502815D01*
X402906Y502722D01*
X403073Y502630D01*
X403202Y502519D01*
X403295Y502444D01*
X403351Y502370D01*
X403369Y502352D01*
X403499Y502130D01*
X403591Y501889D01*
X403665Y501630D01*
X403702Y501370D01*
X403739Y501148D01*
X403758Y500945D01*
Y500871D01*
Y500833D01*
Y500796D01*
Y500778D01*
Y494760D01*
X405332D01*
Y500148D01*
X405369Y500648D01*
X405443Y501074D01*
X405536Y501426D01*
X405665Y501722D01*
X405776Y501944D01*
X405887Y502093D01*
X405961Y502185D01*
X405980Y502222D01*
X406239Y502444D01*
X406517Y502611D01*
X406795Y502722D01*
X407054Y502815D01*
X407276Y502852D01*
X407461Y502870D01*
X407535Y502889D01*
X407628D01*
X407832Y502870D01*
X407998Y502852D01*
X408165Y502815D01*
X408294Y502759D01*
X408424Y502704D01*
X408498Y502667D01*
X408554Y502648D01*
X408572Y502630D01*
X408720Y502519D01*
X408831Y502407D01*
X408924Y502296D01*
X408998Y502185D01*
X409054Y502093D01*
X409091Y502019D01*
X409128Y501963D01*
Y501944D01*
X409183Y501778D01*
X409220Y501556D01*
X409239Y501333D01*
X409257Y501111D01*
X409276Y500908D01*
Y500741D01*
Y500630D01*
Y500611D01*
Y500593D01*
Y494760D01*
X410850D01*
Y501426D01*
X410813Y501685D01*
X410776Y501944D01*
X410739Y502167D01*
X410683Y502389D01*
X410609Y502574D01*
X410554Y502741D01*
X410480Y502907D01*
X410405Y503037D01*
X410350Y503167D01*
X410220Y503333D01*
X410146Y503444D01*
X410109Y503481D01*
X409813Y503741D01*
X409461Y503926D01*
X409109Y504074D01*
X408776Y504166D01*
X408461Y504222D01*
X408331Y504240D01*
X408202D01*
X408109Y504259D01*
D02*
G37*
G36*
X419349Y507574D02*
X413405D01*
Y494760D01*
X415109D01*
Y500445D01*
X417294D01*
X417497Y500426D01*
X417645D01*
X417775Y500408D01*
X417868Y500389D01*
X417942D01*
X417979Y500370D01*
X417997D01*
X418293Y500278D01*
X418423Y500222D01*
X418534Y500167D01*
X418645Y500111D01*
X418719Y500074D01*
X418756Y500056D01*
X418775Y500037D01*
X418923Y499926D01*
X419071Y499796D01*
X419349Y499519D01*
X419478Y499389D01*
X419571Y499278D01*
X419627Y499204D01*
X419645Y499185D01*
X419830Y498926D01*
X420034Y498648D01*
X420238Y498352D01*
X420441Y498074D01*
X420608Y497815D01*
X420738Y497612D01*
X420793Y497537D01*
X420830Y497482D01*
X420867Y497445D01*
Y497426D01*
X422552Y494760D01*
X424663D01*
X422460Y498241D01*
X422201Y498611D01*
X421960Y498945D01*
X421719Y499222D01*
X421515Y499482D01*
X421330Y499667D01*
X421182Y499815D01*
X421090Y499908D01*
X421052Y499945D01*
X420904Y500056D01*
X420738Y500185D01*
X420404Y500389D01*
X420256Y500463D01*
X420145Y500537D01*
X420071Y500574D01*
X420034Y500593D01*
X420367Y500648D01*
X420682Y500704D01*
X420960Y500796D01*
X421238Y500871D01*
X421478Y500963D01*
X421701Y501074D01*
X421904Y501167D01*
X422089Y501259D01*
X422238Y501370D01*
X422386Y501463D01*
X422497Y501537D01*
X422589Y501611D01*
X422663Y501667D01*
X422719Y501722D01*
X422738Y501741D01*
X422756Y501759D01*
X422904Y501944D01*
X423052Y502130D01*
X423274Y502519D01*
X423423Y502907D01*
X423534Y503278D01*
X423608Y503592D01*
X423626Y503722D01*
Y503852D01*
X423645Y503944D01*
Y504018D01*
Y504055D01*
Y504074D01*
X423626Y504463D01*
X423571Y504814D01*
X423478Y505148D01*
X423386Y505426D01*
X423274Y505666D01*
X423200Y505851D01*
X423126Y505962D01*
X423108Y505981D01*
Y506000D01*
X422886Y506296D01*
X422663Y506555D01*
X422423Y506777D01*
X422201Y506944D01*
X421997Y507074D01*
X421830Y507148D01*
X421719Y507203D01*
X421701Y507222D01*
X421682D01*
X421515Y507277D01*
X421312Y507333D01*
X420904Y507425D01*
X420460Y507481D01*
X420053Y507536D01*
X419664Y507555D01*
X419497D01*
X419349Y507574D01*
D02*
G37*
%LPD*%
G36*
X419645Y506129D02*
X420071Y506055D01*
X420441Y505962D01*
X420719Y505851D01*
X420960Y505740D01*
X421108Y505648D01*
X421201Y505574D01*
X421238Y505555D01*
X421460Y505314D01*
X421627Y505074D01*
X421738Y504814D01*
X421830Y504592D01*
X421867Y504370D01*
X421886Y504203D01*
X421904Y504092D01*
Y504074D01*
Y504055D01*
X421886Y503833D01*
X421849Y503611D01*
X421793Y503426D01*
X421738Y503259D01*
X421664Y503111D01*
X421608Y503000D01*
X421571Y502926D01*
X421552Y502907D01*
X421423Y502722D01*
X421256Y502556D01*
X421090Y502426D01*
X420923Y502315D01*
X420775Y502241D01*
X420664Y502185D01*
X420589Y502148D01*
X420552Y502130D01*
X420293Y502056D01*
X419997Y502000D01*
X419701Y501963D01*
X419404Y501944D01*
X419145Y501926D01*
X418923Y501907D01*
X415109D01*
Y506148D01*
X419145D01*
X419645Y506129D01*
D02*
G37*
%LPC*%
G36*
X434403Y480269D02*
X432551D01*
X429996Y476861D01*
X429774Y476584D01*
X429589Y476324D01*
X429403Y476065D01*
X429255Y475862D01*
X429126Y475676D01*
X429033Y475528D01*
X428978Y475454D01*
X428959Y475417D01*
X428829Y475639D01*
X428681Y475880D01*
X428515Y476139D01*
X428348Y476399D01*
X428181Y476621D01*
X428070Y476806D01*
X428015Y476880D01*
X427978Y476936D01*
X427941Y476954D01*
Y476973D01*
X425607Y480269D01*
X423589D01*
X427959Y474084D01*
X423015Y467455D01*
X425052D01*
X428292Y471899D01*
X428367Y472010D01*
X428459Y472140D01*
X428663Y472436D01*
X428755Y472584D01*
X428829Y472695D01*
X428885Y472769D01*
X428904Y472788D01*
X429089Y472510D01*
X429255Y472251D01*
X429329Y472158D01*
X429366Y472084D01*
X429403Y472029D01*
X429422Y472010D01*
X432662Y467455D01*
X434755D01*
X429959Y474176D01*
X434403Y480269D01*
D02*
G37*
G36*
X408109Y476954D02*
X407980D01*
X407646Y476936D01*
X407350Y476880D01*
X407054Y476806D01*
X406776Y476695D01*
X406517Y476565D01*
X406276Y476436D01*
X406073Y476287D01*
X405869Y476139D01*
X405684Y475973D01*
X405536Y475825D01*
X405406Y475695D01*
X405295Y475565D01*
X405202Y475454D01*
X405147Y475380D01*
X405110Y475325D01*
X405091Y475306D01*
X404980Y475584D01*
X404832Y475825D01*
X404665Y476028D01*
X404517Y476195D01*
X404369Y476343D01*
X404258Y476436D01*
X404184Y476491D01*
X404147Y476510D01*
X403888Y476658D01*
X403610Y476769D01*
X403332Y476843D01*
X403054Y476898D01*
X402832Y476936D01*
X402628Y476954D01*
X402462D01*
X402128Y476936D01*
X401814Y476880D01*
X401536Y476824D01*
X401295Y476750D01*
X401092Y476658D01*
X400943Y476602D01*
X400851Y476547D01*
X400814Y476528D01*
X400555Y476362D01*
X400332Y476176D01*
X400129Y475991D01*
X399962Y475806D01*
X399832Y475658D01*
X399721Y475528D01*
X399666Y475454D01*
X399647Y475417D01*
Y476750D01*
X398240D01*
Y467455D01*
X399814D01*
Y472269D01*
X399832Y472714D01*
X399851Y473103D01*
X399888Y473436D01*
X399944Y473714D01*
X399999Y473917D01*
X400036Y474065D01*
X400055Y474158D01*
X400073Y474195D01*
X400184Y474436D01*
X400314Y474639D01*
X400443Y474825D01*
X400573Y474973D01*
X400703Y475084D01*
X400795Y475158D01*
X400869Y475214D01*
X400888Y475232D01*
X401110Y475343D01*
X401314Y475436D01*
X401536Y475491D01*
X401721Y475547D01*
X401869Y475565D01*
X401999Y475584D01*
X402110D01*
X402425Y475565D01*
X402684Y475510D01*
X402906Y475417D01*
X403073Y475325D01*
X403202Y475214D01*
X403295Y475139D01*
X403351Y475065D01*
X403369Y475047D01*
X403499Y474825D01*
X403591Y474584D01*
X403665Y474325D01*
X403702Y474065D01*
X403739Y473843D01*
X403758Y473639D01*
Y473565D01*
Y473528D01*
Y473491D01*
Y473473D01*
Y467455D01*
X405332D01*
Y472843D01*
X405369Y473343D01*
X405443Y473769D01*
X405536Y474121D01*
X405665Y474417D01*
X405776Y474639D01*
X405887Y474788D01*
X405961Y474880D01*
X405980Y474917D01*
X406239Y475139D01*
X406517Y475306D01*
X406795Y475417D01*
X407054Y475510D01*
X407276Y475547D01*
X407461Y475565D01*
X407535Y475584D01*
X407628D01*
X407832Y475565D01*
X407998Y475547D01*
X408165Y475510D01*
X408294Y475454D01*
X408424Y475399D01*
X408498Y475362D01*
X408554Y475343D01*
X408572Y475325D01*
X408720Y475214D01*
X408831Y475102D01*
X408924Y474991D01*
X408998Y474880D01*
X409054Y474788D01*
X409091Y474714D01*
X409128Y474658D01*
Y474639D01*
X409183Y474473D01*
X409220Y474251D01*
X409239Y474028D01*
X409257Y473806D01*
X409276Y473602D01*
Y473436D01*
Y473325D01*
Y473306D01*
Y473288D01*
Y467455D01*
X410850D01*
Y474121D01*
X410813Y474380D01*
X410776Y474639D01*
X410739Y474862D01*
X410683Y475084D01*
X410609Y475269D01*
X410554Y475436D01*
X410480Y475602D01*
X410405Y475732D01*
X410350Y475862D01*
X410220Y476028D01*
X410146Y476139D01*
X410109Y476176D01*
X409813Y476436D01*
X409461Y476621D01*
X409109Y476769D01*
X408776Y476861D01*
X408461Y476917D01*
X408331Y476936D01*
X408202D01*
X408109Y476954D01*
D02*
G37*
G36*
X422571Y480269D02*
X412424D01*
Y478750D01*
X416646D01*
Y467455D01*
X418349D01*
Y478750D01*
X422571D01*
Y480269D01*
D02*
G37*
G36*
X404888Y453408D02*
X404295D01*
X403962Y453371D01*
X403313Y453278D01*
X403017Y453223D01*
X402739Y453149D01*
X402480Y453093D01*
X402240Y453019D01*
X402017Y452945D01*
X401832Y452871D01*
X401666Y452797D01*
X401517Y452741D01*
X401406Y452686D01*
X401332Y452649D01*
X401277Y452630D01*
X401258Y452612D01*
X400999Y452445D01*
X400740Y452278D01*
X400295Y451889D01*
X399907Y451501D01*
X399592Y451093D01*
X399333Y450742D01*
X399240Y450593D01*
X399166Y450445D01*
X399092Y450334D01*
X399055Y450260D01*
X399036Y450205D01*
X399018Y450186D01*
X398759Y449575D01*
X398573Y448964D01*
X398425Y448371D01*
X398388Y448094D01*
X398333Y447834D01*
X398314Y447594D01*
X398277Y447390D01*
X398259Y447186D01*
Y447020D01*
X398240Y446890D01*
Y446705D01*
X398277Y446020D01*
X398370Y445372D01*
X398425Y445075D01*
X398481Y444798D01*
X398555Y444520D01*
X398629Y444279D01*
X398703Y444057D01*
X398777Y443872D01*
X398833Y443687D01*
X398888Y443557D01*
X398944Y443427D01*
X398981Y443353D01*
X399018Y443298D01*
Y443279D01*
X399351Y442742D01*
X399721Y442279D01*
X400110Y441872D01*
X400480Y441539D01*
X400832Y441279D01*
X400962Y441187D01*
X401092Y441094D01*
X401203Y441039D01*
X401277Y440983D01*
X401332Y440965D01*
X401351Y440946D01*
X401647Y440798D01*
X401943Y440687D01*
X402536Y440483D01*
X403110Y440354D01*
X403647Y440243D01*
X403888Y440224D01*
X404110Y440187D01*
X404313Y440168D01*
X404480D01*
X404610Y440150D01*
X404795D01*
X405313Y440168D01*
X405813Y440224D01*
X406276Y440317D01*
X406684Y440409D01*
X406850Y440446D01*
X407017Y440483D01*
X407165Y440539D01*
X407295Y440576D01*
X407387Y440613D01*
X407461Y440631D01*
X407498Y440650D01*
X407517D01*
X408017Y440854D01*
X408480Y441094D01*
X408924Y441354D01*
X409313Y441594D01*
X409480Y441705D01*
X409646Y441816D01*
X409776Y441909D01*
X409887Y441983D01*
X409980Y442057D01*
X410054Y442113D01*
X410091Y442131D01*
X410109Y442150D01*
Y446909D01*
X404665D01*
Y445390D01*
X408443D01*
Y442983D01*
X408220Y442798D01*
X407961Y442631D01*
X407683Y442483D01*
X407424Y442354D01*
X407202Y442242D01*
X406998Y442150D01*
X406924Y442113D01*
X406887Y442094D01*
X406850Y442076D01*
X406832D01*
X406443Y441946D01*
X406054Y441835D01*
X405702Y441761D01*
X405369Y441724D01*
X405091Y441687D01*
X404980D01*
X404869Y441668D01*
X404684D01*
X404221Y441687D01*
X403777Y441761D01*
X403369Y441853D01*
X402999Y441946D01*
X402702Y442057D01*
X402573Y442094D01*
X402480Y442131D01*
X402388Y442168D01*
X402332Y442205D01*
X402295Y442224D01*
X402277D01*
X401888Y442465D01*
X401536Y442724D01*
X401240Y443002D01*
X400999Y443279D01*
X400795Y443539D01*
X400666Y443742D01*
X400610Y443816D01*
X400592Y443872D01*
X400555Y443909D01*
Y443927D01*
X400369Y444390D01*
X400221Y444872D01*
X400129Y445353D01*
X400055Y445816D01*
X400036Y446020D01*
X400018Y446205D01*
X399999Y446390D01*
Y446538D01*
X399981Y446649D01*
Y446742D01*
Y446797D01*
Y446816D01*
X399999Y447334D01*
X400055Y447797D01*
X400129Y448242D01*
X400221Y448631D01*
X400258Y448797D01*
X400314Y448945D01*
X400351Y449075D01*
X400388Y449186D01*
X400425Y449279D01*
X400443Y449334D01*
X400462Y449371D01*
Y449390D01*
X400592Y449649D01*
X400721Y449890D01*
X400851Y450112D01*
X400980Y450297D01*
X401092Y450445D01*
X401184Y450575D01*
X401258Y450649D01*
X401277Y450667D01*
X401480Y450871D01*
X401703Y451056D01*
X401943Y451204D01*
X402165Y451353D01*
X402351Y451445D01*
X402499Y451538D01*
X402610Y451575D01*
X402647Y451593D01*
X402980Y451723D01*
X403313Y451815D01*
X403665Y451871D01*
X403980Y451927D01*
X404258Y451945D01*
X404369D01*
X404462Y451964D01*
X404665D01*
X405017Y451945D01*
X405350Y451908D01*
X405647Y451852D01*
X405906Y451797D01*
X406128Y451723D01*
X406295Y451667D01*
X406387Y451630D01*
X406424Y451612D01*
X406702Y451482D01*
X406943Y451334D01*
X407165Y451186D01*
X407332Y451038D01*
X407461Y450908D01*
X407572Y450816D01*
X407628Y450742D01*
X407646Y450723D01*
X407813Y450501D01*
X407943Y450242D01*
X408072Y450001D01*
X408183Y449742D01*
X408257Y449519D01*
X408313Y449353D01*
X408331Y449279D01*
X408350Y449223D01*
X408369Y449205D01*
Y449186D01*
X409906Y449594D01*
X409776Y450056D01*
X409609Y450464D01*
X409442Y450834D01*
X409294Y451130D01*
X409146Y451371D01*
X409035Y451538D01*
X408961Y451649D01*
X408924Y451686D01*
X408665Y451982D01*
X408387Y452223D01*
X408091Y452445D01*
X407813Y452630D01*
X407554Y452760D01*
X407350Y452871D01*
X407276Y452908D01*
X407220Y452926D01*
X407183Y452945D01*
X407165D01*
X406739Y453093D01*
X406295Y453204D01*
X405887Y453297D01*
X405499Y453352D01*
X405147Y453389D01*
X404999D01*
X404888Y453408D01*
D02*
G37*
G36*
X422682Y453186D02*
X421052D01*
Y443113D01*
X414331Y453186D01*
X412590D01*
Y440372D01*
X414220D01*
Y450427D01*
X420923Y440372D01*
X422682D01*
Y453186D01*
D02*
G37*
G36*
X430459D02*
X425533D01*
Y440372D01*
X430144D01*
X430570Y440391D01*
X430959Y440409D01*
X431311Y440446D01*
X431607Y440483D01*
X431866Y440520D01*
X432051Y440539D01*
X432107Y440557D01*
X432162Y440576D01*
X432199D01*
X432533Y440668D01*
X432829Y440780D01*
X433088Y440872D01*
X433310Y440983D01*
X433496Y441076D01*
X433625Y441150D01*
X433699Y441205D01*
X433736Y441224D01*
X433977Y441391D01*
X434181Y441594D01*
X434384Y441780D01*
X434551Y441965D01*
X434699Y442131D01*
X434810Y442261D01*
X434884Y442354D01*
X434903Y442391D01*
X435088Y442687D01*
X435273Y443002D01*
X435421Y443298D01*
X435532Y443594D01*
X435644Y443853D01*
X435718Y444057D01*
X435736Y444131D01*
X435755Y444187D01*
X435773Y444224D01*
Y444242D01*
X435884Y444687D01*
X435977Y445131D01*
X436032Y445557D01*
X436088Y445964D01*
X436106Y446316D01*
Y446464D01*
X436125Y446594D01*
Y446834D01*
X436106Y447464D01*
X436051Y448038D01*
X435958Y448557D01*
X435921Y448797D01*
X435866Y449001D01*
X435810Y449205D01*
X435773Y449371D01*
X435736Y449519D01*
X435681Y449649D01*
X435662Y449760D01*
X435625Y449834D01*
X435606Y449871D01*
Y449890D01*
X435403Y450371D01*
X435162Y450797D01*
X434903Y451167D01*
X434662Y451482D01*
X434440Y451741D01*
X434255Y451927D01*
X434181Y451982D01*
X434125Y452038D01*
X434107Y452056D01*
X434088Y452075D01*
X433792Y452315D01*
X433477Y452501D01*
X433162Y452667D01*
X432866Y452797D01*
X432607Y452889D01*
X432403Y452945D01*
X432329Y452982D01*
X432273D01*
X432237Y453000D01*
X432218D01*
X431903Y453056D01*
X431533Y453112D01*
X431162Y453149D01*
X430792Y453167D01*
X430459Y453186D01*
D02*
G37*
%LPD*%
G36*
X430440Y451649D02*
X430681D01*
X430903Y451630D01*
X431274Y451575D01*
X431570Y451538D01*
X431811Y451482D01*
X431977Y451427D01*
X432070Y451408D01*
X432107Y451390D01*
X432440Y451223D01*
X432755Y451019D01*
X433033Y450779D01*
X433273Y450538D01*
X433459Y450316D01*
X433607Y450130D01*
X433644Y450056D01*
X433681Y450001D01*
X433718Y449964D01*
Y449945D01*
X433829Y449742D01*
X433940Y449501D01*
X434107Y449019D01*
X434218Y448501D01*
X434310Y448001D01*
X434329Y447779D01*
X434347Y447557D01*
X434366Y447371D01*
Y447205D01*
X434384Y447057D01*
Y446964D01*
Y446890D01*
Y446871D01*
X434366Y446353D01*
X434329Y445872D01*
X434273Y445446D01*
X434218Y445075D01*
X434181Y444927D01*
X434144Y444798D01*
X434107Y444668D01*
X434088Y444576D01*
X434070Y444501D01*
X434051Y444446D01*
X434033Y444409D01*
Y444390D01*
X433903Y444039D01*
X433755Y443724D01*
X433588Y443446D01*
X433440Y443205D01*
X433310Y443020D01*
X433199Y442891D01*
X433125Y442816D01*
X433107Y442779D01*
X432922Y442631D01*
X432736Y442502D01*
X432551Y442391D01*
X432366Y442279D01*
X432199Y442205D01*
X432070Y442150D01*
X431977Y442131D01*
X431940Y442113D01*
X431662Y442039D01*
X431329Y441983D01*
X430996Y441946D01*
X430681Y441928D01*
X430403Y441909D01*
X430274Y441891D01*
X427237D01*
Y451667D01*
X430200D01*
X430440Y451649D01*
D02*
G37*
%LPC*%
G36*
X404138Y140240D02*
X396361D01*
X396009Y140222D01*
X395676Y140203D01*
X395361Y140166D01*
X395083Y140129D01*
X394824Y140092D01*
X394583Y140036D01*
X394361Y139999D01*
X394157Y139962D01*
X393991Y139907D01*
X393842Y139870D01*
X393731Y139833D01*
X393639Y139796D01*
X393565Y139777D01*
X393528Y139759D01*
X393509D01*
X393102Y139555D01*
X392731Y139296D01*
X392435Y139036D01*
X392176Y138759D01*
X391972Y138518D01*
X391824Y138314D01*
X391787Y138240D01*
X391750Y138185D01*
X391713Y138148D01*
Y138129D01*
X391509Y137666D01*
X391361Y137185D01*
X391250Y136685D01*
X391176Y136222D01*
X391157Y136018D01*
X391139Y135815D01*
X391120Y135629D01*
Y135481D01*
X391102Y135352D01*
Y135185D01*
X391139Y134518D01*
X391176Y134222D01*
X391213Y133944D01*
X391269Y133667D01*
X391324Y133426D01*
X391380Y133204D01*
X391454Y133000D01*
X391528Y132815D01*
X391583Y132667D01*
X391639Y132519D01*
X391694Y132408D01*
X391750Y132315D01*
X391768Y132259D01*
X391805Y132222D01*
Y132204D01*
X392083Y131796D01*
X392398Y131463D01*
X392694Y131204D01*
X392991Y130982D01*
X393250Y130815D01*
X393453Y130704D01*
X393528Y130667D01*
X393583Y130630D01*
X393620Y130611D01*
X393639D01*
X393861Y130537D01*
X394102Y130463D01*
X394602Y130352D01*
X395120Y130278D01*
X395620Y130223D01*
X395842Y130204D01*
X396064Y130185D01*
X396250D01*
X396416Y130167D01*
X391102D01*
X404138D01*
Y140240D01*
D02*
G37*
G36*
X398027Y127834D02*
X391102D01*
Y116502D01*
D01*
Y121816D01*
X391120Y121446D01*
X391157Y121094D01*
X391194Y120760D01*
X391269Y120446D01*
X391361Y120149D01*
X391454Y119872D01*
X391546Y119613D01*
X391657Y119372D01*
X391750Y119168D01*
X391842Y118964D01*
X391935Y118816D01*
X392028Y118668D01*
X392102Y118576D01*
X392139Y118483D01*
X392176Y118446D01*
X392194Y118427D01*
X392417Y118168D01*
X392639Y117946D01*
X392898Y117742D01*
X393157Y117539D01*
X393676Y117205D01*
X394194Y116946D01*
X394435Y116835D01*
X394657Y116742D01*
X394861Y116668D01*
X395027Y116613D01*
X395176Y116557D01*
X395287Y116520D01*
X395361Y116502D01*
X391102D01*
X404360D01*
X395379D01*
X395805Y118205D01*
X395509Y118279D01*
X395231Y118372D01*
X394972Y118464D01*
X394731Y118557D01*
X394509Y118668D01*
X394324Y118779D01*
X394139Y118909D01*
X393972Y119020D01*
X393824Y119113D01*
X393713Y119224D01*
X393602Y119316D01*
X393509Y119390D01*
X393453Y119464D01*
X393398Y119520D01*
X393379Y119538D01*
X393361Y119557D01*
X393213Y119742D01*
X393102Y119946D01*
X392898Y120353D01*
X392750Y120742D01*
X392657Y121131D01*
X392583Y121464D01*
X392565Y121594D01*
Y121723D01*
X392546Y121834D01*
Y121964D01*
X392565Y122390D01*
X392639Y122797D01*
X392731Y123168D01*
X392842Y123501D01*
X392953Y123760D01*
X393009Y123871D01*
X393046Y123964D01*
X393083Y124038D01*
X393120Y124094D01*
X393139Y124131D01*
Y124149D01*
X393398Y124501D01*
X393676Y124797D01*
X393991Y125056D01*
X394287Y125260D01*
X394546Y125427D01*
X394768Y125538D01*
X394861Y125575D01*
X394916Y125612D01*
X394953Y125630D01*
X394972D01*
X395453Y125779D01*
X395935Y125890D01*
X396416Y125982D01*
X396861Y126038D01*
X397064Y126056D01*
X397249Y126075D01*
X397416D01*
X397546Y126093D01*
X397657D01*
X397749D01*
X397805D01*
X397823D01*
X398305Y126075D01*
X398749Y126038D01*
X399157Y125964D01*
X399527Y125890D01*
X399842Y125834D01*
X399971Y125797D01*
X400082Y125760D01*
X400175Y125742D01*
X400231Y125723D01*
X400268Y125704D01*
X400286D01*
X400712Y125519D01*
X401101Y125316D01*
X401416Y125093D01*
X401693Y124853D01*
X401916Y124649D01*
X402064Y124482D01*
X402156Y124353D01*
X402193Y124334D01*
Y124316D01*
X402434Y123927D01*
X402619Y123501D01*
X402749Y123094D01*
X402823Y122705D01*
X402878Y122353D01*
X402897Y122205D01*
Y122075D01*
X402915Y121983D01*
Y121834D01*
X402897Y121372D01*
X402823Y120946D01*
X402712Y120594D01*
X402601Y120279D01*
X402471Y120038D01*
X402379Y119853D01*
X402304Y119742D01*
X402267Y119705D01*
X401990Y119409D01*
X401675Y119131D01*
X401342Y118909D01*
X401008Y118724D01*
X400712Y118576D01*
X400564Y118520D01*
X400453Y118483D01*
X400360Y118446D01*
X400286Y118409D01*
X400249Y118390D01*
X400231D01*
X400619Y116724D01*
X400953Y116835D01*
X401249Y116946D01*
X401527Y117094D01*
X401805Y117224D01*
X402045Y117372D01*
X402267Y117539D01*
X402490Y117687D01*
X402675Y117835D01*
X402823Y117983D01*
X402971Y118113D01*
X403101Y118242D01*
X403193Y118335D01*
X403286Y118427D01*
X403341Y118502D01*
X403360Y118539D01*
X403378Y118557D01*
X403545Y118816D01*
X403712Y119075D01*
X403841Y119335D01*
X403952Y119613D01*
X404119Y120168D01*
X404230Y120668D01*
X404286Y120909D01*
X404304Y121112D01*
X404323Y121316D01*
X404341Y121483D01*
X404360Y121612D01*
Y121798D01*
X404323Y122409D01*
X404230Y123001D01*
X404119Y123519D01*
X404045Y123760D01*
X403971Y123982D01*
X403897Y124186D01*
X403823Y124371D01*
X403767Y124519D01*
X403712Y124668D01*
X403656Y124760D01*
X403619Y124834D01*
X403601Y124890D01*
X403582Y124908D01*
X403267Y125408D01*
X402897Y125834D01*
X402527Y126204D01*
X402156Y126519D01*
X401823Y126760D01*
X401675Y126853D01*
X401545Y126927D01*
X401453Y127001D01*
X401379Y127038D01*
X401323Y127056D01*
X401305Y127075D01*
X400731Y127334D01*
X400138Y127519D01*
X399546Y127649D01*
X399008Y127741D01*
X398768Y127778D01*
X398527Y127797D01*
X398342Y127815D01*
X398157D01*
X398027Y127834D01*
D02*
G37*
%LPD*%
G36*
X404138Y131870D02*
X396731D01*
X396305D01*
X395898Y131908D01*
X395546Y131945D01*
X395213Y132000D01*
X394916Y132056D01*
X394639Y132130D01*
X394398Y132185D01*
X394194Y132259D01*
X394027Y132333D01*
X393861Y132408D01*
X393750Y132481D01*
X393639Y132537D01*
X393565Y132593D01*
X393509Y132630D01*
X393490Y132648D01*
X393472Y132667D01*
X393324Y132833D01*
X393194Y133019D01*
X392991Y133426D01*
X392842Y133852D01*
X392750Y134296D01*
X392676Y134704D01*
X392657Y134870D01*
Y135037D01*
X392639Y135148D01*
Y135333D01*
X392657Y135722D01*
X392713Y136074D01*
X392768Y136407D01*
X392861Y136666D01*
X392935Y136889D01*
X392991Y137055D01*
X393046Y137148D01*
X393065Y137185D01*
X393231Y137444D01*
X393435Y137666D01*
X393639Y137851D01*
X393824Y137981D01*
X394009Y138092D01*
X394139Y138185D01*
X394231Y138222D01*
X394268Y138240D01*
X394435Y138296D01*
X394602Y138333D01*
X394990Y138407D01*
X395398Y138462D01*
X395805Y138499D01*
X396157Y138518D01*
X396324D01*
X396453Y138537D01*
X396564D01*
X396657D01*
X396712D01*
X396731D01*
X404138D01*
Y131870D01*
D02*
G37*
G36*
X397157Y127797D02*
X396509Y127723D01*
X395935Y127630D01*
X395657Y127556D01*
X395416Y127501D01*
X395194Y127445D01*
X394990Y127371D01*
X394805Y127315D01*
X394657Y127278D01*
X394546Y127223D01*
X394453Y127204D01*
X394398Y127167D01*
X394379D01*
X393824Y126889D01*
X393324Y126575D01*
X392898Y126242D01*
X392731Y126075D01*
X392565Y125927D01*
X392417Y125779D01*
X392287Y125630D01*
X392176Y125501D01*
X392102Y125390D01*
X392028Y125316D01*
X391972Y125242D01*
X391954Y125204D01*
X391935Y125186D01*
X391787Y124927D01*
X391657Y124668D01*
X391454Y124112D01*
X391306Y123556D01*
X391213Y123020D01*
X391176Y122760D01*
X391139Y122538D01*
X391120Y122334D01*
Y122168D01*
X391102Y122020D01*
Y127834D01*
X397823D01*
X397157Y127797D01*
D02*
G37*
%LPC*%
G36*
X404360Y193580D02*
D01*
Y188454D01*
X404328Y188973D01*
X404250Y189476D01*
X404155Y189917D01*
X404092Y190121D01*
X404030Y190310D01*
X403967Y190483D01*
X403904Y190640D01*
X403857Y190766D01*
X403810Y190891D01*
X403762Y190970D01*
X403731Y191033D01*
X403715Y191080D01*
X403699Y191096D01*
X403432Y191520D01*
X403118Y191882D01*
X402803Y192196D01*
X402489Y192464D01*
X402206Y192668D01*
X402080Y192747D01*
X401970Y192810D01*
X401891Y192873D01*
X401828Y192904D01*
X401781Y192920D01*
X401766Y192935D01*
X401278Y193155D01*
X400775Y193313D01*
X400272Y193423D01*
X399816Y193501D01*
X399612Y193533D01*
X399407Y193549D01*
X399250Y193564D01*
X399093D01*
X398983Y193580D01*
X404360D01*
X393102D01*
X398810D01*
X398244Y193549D01*
X397693Y193486D01*
X397206Y193407D01*
X396970Y193344D01*
X396766Y193297D01*
X396577Y193250D01*
X396404Y193187D01*
X396247Y193140D01*
X396121Y193108D01*
X396027Y193061D01*
X395948Y193045D01*
X395901Y193014D01*
X395885D01*
X395414Y192778D01*
X394989Y192511D01*
X394627Y192228D01*
X394486Y192086D01*
X394344Y191961D01*
X394219Y191835D01*
X394109Y191709D01*
X394014Y191599D01*
X393951Y191505D01*
X393889Y191442D01*
X393841Y191379D01*
X393826Y191347D01*
X393810Y191332D01*
X393684Y191112D01*
X393574Y190891D01*
X393401Y190420D01*
X393275Y189948D01*
X393197Y189492D01*
X393165Y189272D01*
X393134Y189083D01*
X393118Y188910D01*
Y188769D01*
X393102Y188643D01*
Y188470D01*
X393118Y188156D01*
X393150Y187857D01*
X393181Y187574D01*
X393244Y187307D01*
X393322Y187055D01*
X393401Y186819D01*
X393480Y186599D01*
X393574Y186395D01*
X393653Y186222D01*
X393731Y186049D01*
X393810Y185923D01*
X393889Y185797D01*
X393951Y185719D01*
X393983Y185640D01*
X394014Y185609D01*
X394030Y185593D01*
X394219Y185373D01*
X394407Y185184D01*
X394627Y185011D01*
X394848Y184838D01*
X395288Y184555D01*
X395728Y184335D01*
X395933Y184241D01*
X396121Y184162D01*
X396294Y184099D01*
X396436Y184052D01*
X396561Y184005D01*
X396656Y183974D01*
X396719Y183958D01*
X393102D01*
X396734D01*
X397096Y185404D01*
X396844Y185467D01*
X396609Y185546D01*
X396388Y185624D01*
X396184Y185703D01*
X395995Y185797D01*
X395838Y185892D01*
X395681Y186002D01*
X395539Y186096D01*
X395414Y186175D01*
X395319Y186269D01*
X395225Y186348D01*
X395146Y186411D01*
X395099Y186473D01*
X395052Y186521D01*
X395036Y186536D01*
X395020Y186552D01*
X394895Y186709D01*
X394800Y186882D01*
X394627Y187228D01*
X394502Y187558D01*
X394423Y187888D01*
X394360Y188171D01*
X394344Y188281D01*
Y188391D01*
X394329Y188486D01*
Y188596D01*
X394344Y188958D01*
X394407Y189303D01*
X394486Y189618D01*
X394580Y189901D01*
X394675Y190121D01*
X394722Y190215D01*
X394753Y190294D01*
X394785Y190357D01*
X394816Y190404D01*
X394832Y190436D01*
Y190451D01*
X395052Y190750D01*
X395288Y191001D01*
X395555Y191222D01*
X395807Y191395D01*
X396027Y191536D01*
X396216Y191630D01*
X396294Y191662D01*
X396341Y191693D01*
X396373Y191709D01*
X396388D01*
X396797Y191835D01*
X397206Y191929D01*
X397615Y192008D01*
X397992Y192055D01*
X398165Y192071D01*
X398322Y192086D01*
X398464D01*
X398574Y192102D01*
X398668D01*
X398747D01*
X398794D01*
X398810D01*
X399218Y192086D01*
X399596Y192055D01*
X399942Y191992D01*
X400256Y191929D01*
X400523Y191882D01*
X400634Y191850D01*
X400728Y191819D01*
X400807Y191803D01*
X400854Y191788D01*
X400885Y191772D01*
X400901D01*
X401262Y191615D01*
X401593Y191442D01*
X401860Y191253D01*
X402096Y191049D01*
X402284Y190876D01*
X402410Y190734D01*
X402489Y190624D01*
X402520Y190608D01*
Y190593D01*
X402725Y190263D01*
X402882Y189901D01*
X402992Y189555D01*
X403055Y189225D01*
X403102Y188926D01*
X403118Y188800D01*
Y188690D01*
X403133Y188612D01*
Y188486D01*
X403118Y188093D01*
X403055Y187731D01*
X402961Y187432D01*
X402866Y187165D01*
X402756Y186961D01*
X402677Y186804D01*
X402615Y186709D01*
X402583Y186678D01*
X402347Y186426D01*
X402080Y186190D01*
X401797Y186002D01*
X401514Y185844D01*
X401262Y185719D01*
X401137Y185672D01*
X401042Y185640D01*
X400964Y185609D01*
X400901Y185577D01*
X400869Y185562D01*
X400854D01*
X401184Y184146D01*
X401467Y184241D01*
X401718Y184335D01*
X401954Y184461D01*
X402190Y184571D01*
X402394Y184697D01*
X402583Y184838D01*
X402772Y184964D01*
X402929Y185090D01*
X403055Y185216D01*
X403181Y185326D01*
X403291Y185436D01*
X403369Y185514D01*
X403448Y185593D01*
X403495Y185656D01*
X403511Y185687D01*
X403526Y185703D01*
X403668Y185923D01*
X403810Y186143D01*
X403919Y186363D01*
X404014Y186599D01*
X404155Y187071D01*
X404250Y187495D01*
X404297Y187700D01*
X404313Y187873D01*
X404328Y188046D01*
X404344Y188187D01*
X404360Y188297D01*
Y183958D01*
D01*
Y193580D01*
D02*
G37*
G36*
X404171Y182134D02*
X393291D01*
Y180688D01*
X398417D01*
Y175059D01*
X393291D01*
Y173612D01*
X404171D01*
Y182134D01*
D02*
G37*
G36*
X404218Y171741D02*
D01*
Y168581D01*
X404187Y168801D01*
X404108Y169226D01*
X403982Y169587D01*
X403857Y169902D01*
X403778Y170043D01*
X403715Y170153D01*
X403652Y170263D01*
X403589Y170342D01*
X403542Y170405D01*
X403511Y170452D01*
X403495Y170483D01*
X403479Y170499D01*
X403181Y170798D01*
X402850Y171034D01*
X402505Y171222D01*
X402159Y171380D01*
X401860Y171474D01*
X401734Y171521D01*
X401624Y171553D01*
X401530Y171568D01*
X401467Y171584D01*
X401420Y171600D01*
X401404D01*
X401168Y170263D01*
X401514Y170201D01*
X401813Y170106D01*
X402064Y169996D01*
X402269Y169886D01*
X402426Y169776D01*
X402536Y169682D01*
X402615Y169619D01*
X402630Y169603D01*
X402788Y169399D01*
X402913Y169179D01*
X402992Y168974D01*
X403055Y168770D01*
X403086Y168581D01*
X403118Y168440D01*
Y168314D01*
X403102Y168031D01*
X403039Y167779D01*
X402961Y167559D01*
X402882Y167370D01*
X402788Y167229D01*
X402709Y167119D01*
X402646Y167040D01*
X402630Y167024D01*
X402442Y166852D01*
X402237Y166726D01*
X402033Y166647D01*
X401844Y166584D01*
X401671Y166553D01*
X401545Y166521D01*
X401451D01*
X401435D01*
X401420D01*
X401247D01*
X401090Y166553D01*
X400822Y166632D01*
X400586Y166742D01*
X400382Y166867D01*
X400240Y166993D01*
X400130Y167103D01*
X400067Y167182D01*
X400052Y167197D01*
Y167213D01*
X399910Y167481D01*
X399800Y167732D01*
X399722Y167999D01*
X399674Y168235D01*
X399643Y168440D01*
X399612Y168612D01*
Y168817D01*
X399627Y168880D01*
Y168958D01*
X398448Y169116D01*
X398495Y168911D01*
X398527Y168723D01*
X398558Y168565D01*
X398574Y168424D01*
X398590Y168314D01*
Y168172D01*
X398558Y167842D01*
X398495Y167543D01*
X398401Y167276D01*
X398291Y167056D01*
X398181Y166883D01*
X398087Y166757D01*
X398024Y166679D01*
X397992Y166647D01*
X397756Y166443D01*
X397505Y166286D01*
X397253Y166175D01*
X397002Y166113D01*
X396797Y166066D01*
X396624Y166050D01*
X396561Y166034D01*
X396514D01*
X396483D01*
X396467D01*
X396121Y166066D01*
X395807Y166144D01*
X395539Y166238D01*
X395304Y166364D01*
X395115Y166490D01*
X394973Y166584D01*
X394879Y166663D01*
X394848Y166694D01*
X394627Y166946D01*
X394470Y167213D01*
X394360Y167481D01*
X394282Y167732D01*
X394234Y167952D01*
X394219Y168125D01*
X394203Y168188D01*
Y168282D01*
X394219Y168565D01*
X394282Y168833D01*
X394360Y169069D01*
X394454Y169257D01*
X394533Y169414D01*
X394612Y169540D01*
X394675Y169603D01*
X394690Y169634D01*
X394911Y169823D01*
X395162Y169980D01*
X395429Y170122D01*
X395712Y170232D01*
X395948Y170311D01*
X396058Y170342D01*
X396153Y170358D01*
X396231Y170373D01*
X396294Y170389D01*
X396325Y170405D01*
X396341D01*
X396168Y171741D01*
X395917Y171710D01*
X395681Y171663D01*
X395241Y171521D01*
X394863Y171348D01*
X394706Y171254D01*
X394549Y171160D01*
X394407Y171065D01*
X394297Y170971D01*
X394187Y170892D01*
X394109Y170814D01*
X394046Y170767D01*
X393999Y170719D01*
X393967Y170688D01*
X393951Y170672D01*
X393810Y170483D01*
X393668Y170295D01*
X393558Y170106D01*
X393464Y169902D01*
X393307Y169509D01*
X393212Y169131D01*
X393181Y168958D01*
X393150Y168801D01*
X393134Y168660D01*
X393118Y168534D01*
X393102Y168440D01*
Y168298D01*
X393118Y167999D01*
X393150Y167732D01*
X393197Y167465D01*
X393260Y167213D01*
X393338Y166977D01*
X393417Y166773D01*
X393511Y166569D01*
X393605Y166396D01*
X393684Y166223D01*
X393778Y166081D01*
X393857Y165955D01*
X393936Y165861D01*
X393999Y165782D01*
X394046Y165720D01*
X394077Y165688D01*
X394093Y165672D01*
X394282Y165484D01*
X394486Y165326D01*
X394690Y165185D01*
X394895Y165059D01*
X395083Y164965D01*
X395288Y164870D01*
X395665Y164745D01*
X395838Y164713D01*
X395995Y164682D01*
X396137Y164650D01*
X396263Y164635D01*
X396357Y164619D01*
X396498D01*
X396876Y164635D01*
X397222Y164698D01*
X397520Y164792D01*
X397772Y164886D01*
X397976Y164981D01*
X398134Y165075D01*
X398228Y165138D01*
X398259Y165154D01*
X398495Y165374D01*
X398700Y165609D01*
X398857Y165861D01*
X398983Y166113D01*
X399077Y166333D01*
X399140Y166506D01*
X399156Y166569D01*
X399171Y166616D01*
X399187Y166647D01*
Y166663D01*
X399328Y166396D01*
X399470Y166175D01*
X399627Y165987D01*
X399769Y165830D01*
X399895Y165704D01*
X400005Y165609D01*
X400067Y165562D01*
X400099Y165547D01*
X400319Y165421D01*
X400539Y165326D01*
X400759Y165248D01*
X400964Y165201D01*
X401137Y165169D01*
X401262Y165154D01*
X401357D01*
X401388D01*
X401656Y165169D01*
X401923Y165216D01*
X402159Y165279D01*
X402363Y165358D01*
X402536Y165436D01*
X402677Y165499D01*
X402756Y165547D01*
X402788Y165562D01*
X403023Y165720D01*
X403228Y165908D01*
X403401Y166097D01*
X403558Y166286D01*
X403668Y166443D01*
X403762Y166584D01*
X403810Y166679D01*
X403825Y166694D01*
Y166710D01*
X403951Y166993D01*
X404045Y167276D01*
X404124Y167559D01*
X404171Y167811D01*
X404202Y168015D01*
X404218Y168188D01*
Y164619D01*
D01*
Y171741D01*
D02*
G37*
G36*
X404171Y163754D02*
D01*
Y158770D01*
X397127Y163754D01*
X395901D01*
Y159022D01*
X393291D01*
Y157685D01*
X395901D01*
Y156207D01*
X393291D01*
X404171D01*
Y163754D01*
D02*
G37*
G36*
X404218Y154839D02*
D01*
Y151286D01*
X404187Y151711D01*
X404124Y152104D01*
X404014Y152434D01*
X403904Y152717D01*
X403778Y152953D01*
X403731Y153047D01*
X403668Y153126D01*
X403637Y153189D01*
X403605Y153236D01*
X403574Y153251D01*
Y153267D01*
X403322Y153550D01*
X403023Y153786D01*
X402725Y153990D01*
X402442Y154148D01*
X402174Y154274D01*
X402064Y154336D01*
X401954Y154368D01*
X401876Y154399D01*
X401813Y154431D01*
X401781Y154446D01*
X401766D01*
X401530Y154509D01*
X401294Y154572D01*
X400775Y154667D01*
X400256Y154745D01*
X399769Y154792D01*
X399533Y154808D01*
X399328Y154824D01*
X399140D01*
X398967Y154839D01*
X393102D01*
X398652D01*
X398102Y154824D01*
X397583Y154792D01*
X397112Y154745D01*
X396671Y154667D01*
X396263Y154588D01*
X395901Y154494D01*
X395571Y154399D01*
X395288Y154305D01*
X395036Y154211D01*
X394816Y154101D01*
X394627Y154022D01*
X394486Y153943D01*
X394360Y153865D01*
X394282Y153818D01*
X394234Y153786D01*
X394219Y153770D01*
X394030Y153597D01*
X393857Y153409D01*
X393700Y153204D01*
X393574Y153000D01*
X393464Y152796D01*
X393370Y152591D01*
X393307Y152387D01*
X393244Y152198D01*
X393197Y152009D01*
X393165Y151837D01*
X393134Y151679D01*
X393118Y151553D01*
X393102Y151443D01*
Y151286D01*
X393134Y150862D01*
X393197Y150469D01*
X393307Y150139D01*
X393417Y149855D01*
X393527Y149620D01*
X393590Y149541D01*
X393637Y149462D01*
X393668Y149399D01*
X393700Y149352D01*
X393731Y149337D01*
Y149321D01*
X393999Y149038D01*
X394282Y148802D01*
X394596Y148598D01*
X394879Y148440D01*
X395146Y148315D01*
X395256Y148252D01*
X395366Y148220D01*
X395445Y148189D01*
X395508Y148157D01*
X395539Y148142D01*
X395555D01*
X395791Y148063D01*
X396027Y148000D01*
X396530Y147906D01*
X397049Y147827D01*
X397552Y147780D01*
X397772Y147764D01*
X397976Y147749D01*
X398165D01*
X398338Y147733D01*
X404218D01*
Y154839D01*
D02*
G37*
%LPD*%
G36*
X404171Y175059D02*
X399706D01*
Y180688D01*
X404171D01*
Y175059D01*
D02*
G37*
G36*
X402001Y159022D02*
X397127D01*
Y162449D01*
X402001Y159022D01*
D02*
G37*
G36*
X404171Y156207D02*
X397127D01*
Y157685D01*
X404171D01*
Y156207D01*
D02*
G37*
G36*
X399140Y153456D02*
X399580Y153440D01*
X399989Y153409D01*
X400366Y153362D01*
X400696Y153314D01*
X400995Y153251D01*
X401262Y153189D01*
X401498Y153126D01*
X401703Y153063D01*
X401876Y153016D01*
X402017Y152953D01*
X402143Y152906D01*
X402221Y152858D01*
X402284Y152827D01*
X402316Y152796D01*
X402332D01*
X402473Y152685D01*
X402599Y152576D01*
X402693Y152450D01*
X402788Y152324D01*
X402929Y152072D01*
X403023Y151837D01*
X403070Y151632D01*
X403102Y151459D01*
X403118Y151396D01*
Y151302D01*
X403102Y151129D01*
X403086Y150956D01*
X403039Y150799D01*
X402976Y150657D01*
X402835Y150390D01*
X402677Y150154D01*
X402505Y149981D01*
X402363Y149840D01*
X402300Y149793D01*
X402253Y149761D01*
X402237Y149730D01*
X402221D01*
X402033Y149620D01*
X401813Y149525D01*
X401561Y149431D01*
X401294Y149368D01*
X401011Y149305D01*
X400712Y149258D01*
X400115Y149179D01*
X399816Y149148D01*
X399549Y149132D01*
X399297Y149116D01*
X399093D01*
X398904Y149101D01*
X398763D01*
X398684D01*
X398668D01*
X398652D01*
X398165D01*
X397725Y149132D01*
X397332Y149164D01*
X396954Y149195D01*
X396640Y149242D01*
X396341Y149305D01*
X396090Y149368D01*
X395854Y149415D01*
X395665Y149478D01*
X395508Y149541D01*
X395366Y149588D01*
X395256Y149651D01*
X395178Y149683D01*
X395131Y149714D01*
X395099Y149745D01*
X395083D01*
X394926Y149871D01*
X394800Y149997D01*
X394675Y150123D01*
X394580Y150248D01*
X394423Y150516D01*
X394313Y150752D01*
X394250Y150972D01*
X394219Y151129D01*
X394203Y151192D01*
Y151286D01*
X394219Y151459D01*
X394234Y151616D01*
X394344Y151915D01*
X394486Y152182D01*
X394643Y152418D01*
X394800Y152591D01*
X394942Y152733D01*
X395052Y152811D01*
X395068Y152843D01*
X395083D01*
X395272Y152953D01*
X395492Y153047D01*
X395744Y153141D01*
X396011Y153204D01*
X396294Y153267D01*
X396593Y153314D01*
X397206Y153393D01*
X397489Y153425D01*
X397756Y153440D01*
X398008Y153456D01*
X398212D01*
X398401Y153472D01*
X398542D01*
X398621D01*
X398652D01*
X399140Y153456D01*
D02*
G37*
G36*
X404218Y147733D02*
X398951D01*
X399234Y147749D01*
X399486D01*
X399737Y147764D01*
X399957Y147796D01*
X400178Y147811D01*
X400366Y147827D01*
X400539Y147859D01*
X400696Y147874D01*
X400838Y147906D01*
X400948Y147922D01*
X401042Y147937D01*
X401121Y147953D01*
X401168Y147969D01*
X401199Y147985D01*
X401215D01*
X401561Y148079D01*
X401876Y148189D01*
X402143Y148315D01*
X402379Y148409D01*
X402583Y148519D01*
X402725Y148582D01*
X402803Y148645D01*
X402835Y148660D01*
X403070Y148834D01*
X403275Y149006D01*
X403448Y149195D01*
X403605Y149368D01*
X403715Y149525D01*
X403794Y149651D01*
X403841Y149730D01*
X403857Y149745D01*
Y149761D01*
X403982Y150013D01*
X404061Y150280D01*
X404124Y150532D01*
X404171Y150767D01*
X404202Y150972D01*
X404218Y151145D01*
Y147733D01*
D02*
G37*
%LPC*%
G36*
X15090Y466630D02*
X8350D01*
Y454761D01*
Y460075D01*
X8368Y459557D01*
X8424Y459057D01*
X8517Y458594D01*
X8609Y458186D01*
X8646Y458020D01*
X8683Y457853D01*
X8739Y457705D01*
X8776Y457575D01*
X8813Y457483D01*
X8831Y457409D01*
X8850Y457372D01*
Y457353D01*
X9054Y456853D01*
X9294Y456390D01*
X9554Y455946D01*
X9794Y455557D01*
X9905Y455390D01*
X10016Y455224D01*
X10109Y455094D01*
X10183Y454983D01*
X10257Y454891D01*
X10313Y454816D01*
X10331Y454779D01*
X10350Y454761D01*
X15109D01*
Y460205D01*
X13590D01*
Y456427D01*
X11183D01*
X10998Y456650D01*
X10831Y456909D01*
X10683Y457187D01*
X10553Y457446D01*
X10442Y457668D01*
X10350Y457872D01*
X10313Y457946D01*
X10294Y457983D01*
X10276Y458020D01*
Y458038D01*
X10146Y458427D01*
X10035Y458816D01*
X9961Y459168D01*
X9924Y459501D01*
X9887Y459779D01*
Y459890D01*
X9868Y460001D01*
Y460186D01*
X9887Y460649D01*
X9961Y461093D01*
X10053Y461501D01*
X10146Y461871D01*
X10257Y462168D01*
X10294Y462297D01*
X10331Y462390D01*
X10368Y462482D01*
X10405Y462538D01*
X10424Y462575D01*
Y462593D01*
X10665Y462982D01*
X10924Y463334D01*
X11202Y463630D01*
X11479Y463871D01*
X11739Y464075D01*
X11942Y464204D01*
X12016Y464260D01*
X12072Y464278D01*
X12109Y464315D01*
X12127D01*
X12590Y464501D01*
X13072Y464649D01*
X13553Y464741D01*
X14016Y464815D01*
X14220Y464834D01*
X14405Y464852D01*
X14590Y464871D01*
X14738D01*
X14849Y464889D01*
X14942D01*
X14998D01*
X15016D01*
X15534Y464871D01*
X15997Y464815D01*
X16442Y464741D01*
X16831Y464649D01*
X16997Y464612D01*
X17145Y464556D01*
X17275Y464519D01*
X17386Y464482D01*
X17479Y464445D01*
X17534Y464426D01*
X17571Y464408D01*
X17590D01*
X17849Y464278D01*
X18090Y464149D01*
X18312Y464019D01*
X18497Y463890D01*
X18645Y463778D01*
X18775Y463686D01*
X18849Y463612D01*
X18867Y463593D01*
X19071Y463390D01*
X19256Y463167D01*
X19404Y462927D01*
X19553Y462705D01*
X19645Y462519D01*
X19738Y462371D01*
X19775Y462260D01*
X19793Y462223D01*
X19923Y461890D01*
X20015Y461557D01*
X20071Y461205D01*
X20127Y460890D01*
X20145Y460612D01*
Y460501D01*
X20164Y460408D01*
Y460205D01*
X20145Y459853D01*
X20108Y459520D01*
X20052Y459223D01*
X19997Y458964D01*
X19923Y458742D01*
X19867Y458575D01*
X19830Y458483D01*
X19812Y458446D01*
X19682Y458168D01*
X19534Y457927D01*
X19386Y457705D01*
X19238Y457538D01*
X19108Y457409D01*
X19016Y457298D01*
X18942Y457242D01*
X18923Y457224D01*
X18701Y457057D01*
X18441Y456927D01*
X18201Y456798D01*
X17942Y456687D01*
X17719Y456613D01*
X17553Y456557D01*
X17479Y456539D01*
X17423Y456520D01*
X17405Y456501D01*
X17386D01*
X17794Y454964D01*
X18256Y455094D01*
X18664Y455261D01*
X19034Y455428D01*
X19330Y455576D01*
X19571Y455724D01*
X19738Y455835D01*
X19849Y455909D01*
X19886Y455946D01*
X20182Y456205D01*
X20423Y456483D01*
X20645Y456779D01*
X20830Y457057D01*
X20960Y457316D01*
X21071Y457520D01*
X21108Y457594D01*
X21126Y457649D01*
X21145Y457687D01*
Y457705D01*
X21293Y458131D01*
X21404Y458575D01*
X21497Y458983D01*
X21552Y459371D01*
X21589Y459723D01*
Y459871D01*
X21608Y459982D01*
Y460575D01*
X21571Y460908D01*
X21478Y461557D01*
X21423Y461853D01*
X21349Y462131D01*
X21293Y462390D01*
X21219Y462630D01*
X21145Y462853D01*
X21071Y463038D01*
X20997Y463204D01*
X20941Y463353D01*
X20886Y463464D01*
X20849Y463538D01*
X20830Y463593D01*
X20812Y463612D01*
X20645Y463871D01*
X20478Y464130D01*
X20089Y464575D01*
X19701Y464963D01*
X19293Y465278D01*
X18942Y465537D01*
X18793Y465630D01*
X18645Y465704D01*
X18534Y465778D01*
X18460Y465815D01*
X18405Y465834D01*
X18386Y465852D01*
X17775Y466111D01*
X17164Y466297D01*
X16571Y466445D01*
X16294Y466482D01*
X16034Y466537D01*
X15794Y466556D01*
X15590Y466593D01*
X15386Y466612D01*
X15220D01*
X15090Y466630D01*
D02*
G37*
G36*
X21386Y452280D02*
X8572D01*
Y442188D01*
X21386D01*
Y443818D01*
X11313D01*
X21386Y450539D01*
Y452280D01*
D02*
G37*
G36*
Y439337D02*
X8572D01*
Y434726D01*
X8591Y434300D01*
X8609Y433911D01*
X8646Y433559D01*
X8683Y433263D01*
X8720Y433004D01*
X8739Y432819D01*
X8757Y432763D01*
X8776Y432708D01*
Y432671D01*
X8868Y432337D01*
X8980Y432041D01*
X9072Y431782D01*
X9183Y431560D01*
X9276Y431374D01*
X9350Y431245D01*
X9405Y431171D01*
X9424Y431134D01*
X9591Y430893D01*
X9794Y430689D01*
X9980Y430486D01*
X10165Y430319D01*
X10331Y430171D01*
X10461Y430060D01*
X10553Y429986D01*
X10590Y429967D01*
X10887Y429782D01*
X11202Y429597D01*
X11498Y429449D01*
X11794Y429338D01*
X12053Y429226D01*
X12257Y429152D01*
X12331Y429134D01*
X12387Y429115D01*
X12424Y429097D01*
X12442D01*
X12887Y428986D01*
X13331Y428893D01*
X13757Y428838D01*
X14164Y428782D01*
X14516Y428764D01*
X14664D01*
X14794Y428745D01*
X8572D01*
X15035D01*
X15664Y428764D01*
X16238Y428819D01*
X16757Y428912D01*
X16997Y428949D01*
X17201Y429004D01*
X17405Y429060D01*
X17571Y429097D01*
X17719Y429134D01*
X17849Y429189D01*
X17960Y429208D01*
X18034Y429245D01*
X18071Y429263D01*
X18090D01*
X18571Y429467D01*
X18997Y429708D01*
X19367Y429967D01*
X19682Y430208D01*
X19941Y430430D01*
X20127Y430615D01*
X20182Y430689D01*
X20238Y430745D01*
X20256Y430763D01*
X20275Y430782D01*
X20515Y431078D01*
X20701Y431393D01*
X20867Y431708D01*
X20997Y432004D01*
X21089Y432263D01*
X21145Y432467D01*
X21182Y432541D01*
Y432597D01*
X21200Y432634D01*
Y432652D01*
X21256Y432967D01*
X21312Y433337D01*
X21349Y433708D01*
X21367Y434078D01*
X21386Y434411D01*
Y429115D01*
Y439337D01*
D02*
G37*
%LPD*%
G36*
X14220Y466593D02*
X13572Y466500D01*
X13275Y466445D01*
X12998Y466389D01*
X12720Y466315D01*
X12479Y466241D01*
X12257Y466167D01*
X12072Y466093D01*
X11887Y466037D01*
X11757Y465982D01*
X11627Y465926D01*
X11553Y465889D01*
X11498Y465852D01*
X11479D01*
X10942Y465519D01*
X10479Y465149D01*
X10072Y464760D01*
X9739Y464389D01*
X9480Y464038D01*
X9387Y463908D01*
X9294Y463778D01*
X9239Y463667D01*
X9183Y463593D01*
X9165Y463538D01*
X9146Y463519D01*
X8998Y463223D01*
X8887Y462927D01*
X8683Y462334D01*
X8554Y461760D01*
X8443Y461223D01*
X8424Y460982D01*
X8387Y460760D01*
X8368Y460557D01*
Y460390D01*
X8350Y460260D01*
Y466630D01*
X14905D01*
X14220Y466593D01*
D02*
G37*
G36*
X8572Y443947D02*
Y450650D01*
X18627D01*
X8572Y443947D01*
D02*
G37*
G36*
X19867Y434670D02*
X19849Y434430D01*
Y434189D01*
X19830Y433967D01*
X19775Y433596D01*
X19738Y433300D01*
X19682Y433059D01*
X19627Y432893D01*
X19608Y432800D01*
X19590Y432763D01*
X19423Y432430D01*
X19219Y432115D01*
X18979Y431837D01*
X18738Y431597D01*
X18516Y431411D01*
X18330Y431263D01*
X18256Y431226D01*
X18201Y431189D01*
X18164Y431152D01*
X18145D01*
X17942Y431041D01*
X17701Y430930D01*
X17219Y430763D01*
X16701Y430652D01*
X16201Y430560D01*
X15979Y430541D01*
X15757Y430523D01*
X15572Y430504D01*
X15405D01*
X15257Y430486D01*
X15164D01*
X15090D01*
X15072D01*
X14553Y430504D01*
X14072Y430541D01*
X13646Y430597D01*
X13275Y430652D01*
X13127Y430689D01*
X12998Y430726D01*
X12868Y430763D01*
X12775Y430782D01*
X12701Y430800D01*
X12646Y430819D01*
X12609Y430837D01*
X12590D01*
X12239Y430967D01*
X11924Y431115D01*
X11646Y431282D01*
X11405Y431430D01*
X11220Y431560D01*
X11091Y431671D01*
X11016Y431745D01*
X10979Y431763D01*
X10831Y431948D01*
X10702Y432134D01*
X10590Y432319D01*
X10479Y432504D01*
X10405Y432671D01*
X10350Y432800D01*
X10331Y432893D01*
X10313Y432930D01*
X10239Y433208D01*
X10183Y433541D01*
X10146Y433874D01*
X10128Y434189D01*
X10109Y434467D01*
X10091Y434596D01*
Y437633D01*
X19867D01*
Y434670D01*
D02*
G37*
%LPC*%
G36*
X21441Y569500D02*
X8572D01*
Y561001D01*
X10091D01*
Y567315D01*
X10405Y567093D01*
X10535Y566982D01*
X10665Y566889D01*
X10776Y566796D01*
X10850Y566722D01*
X10905Y566667D01*
X10924Y566648D01*
X11016Y566556D01*
X11109Y566445D01*
X11350Y566185D01*
X11627Y565889D01*
X11905Y565574D01*
X12146Y565278D01*
X12257Y565149D01*
X12368Y565037D01*
X12442Y564945D01*
X12498Y564871D01*
X12535Y564834D01*
X12553Y564815D01*
X12812Y564519D01*
X13053Y564223D01*
X13294Y563964D01*
X13498Y563723D01*
X13701Y563501D01*
X13886Y563315D01*
X14053Y563130D01*
X14201Y562982D01*
X14349Y562834D01*
X14461Y562723D01*
X14553Y562630D01*
X14646Y562538D01*
X14757Y562445D01*
X14794Y562408D01*
X15109Y562149D01*
X15386Y561927D01*
X15664Y561741D01*
X15886Y561593D01*
X16090Y561482D01*
X16238Y561408D01*
X16331Y561371D01*
X16368Y561353D01*
X16645Y561241D01*
X16923Y561167D01*
X17182Y561093D01*
X17405Y561056D01*
X17608Y561038D01*
X17756Y561019D01*
X17849D01*
X17886D01*
X18164Y561038D01*
X18423Y561075D01*
X18682Y561112D01*
X18905Y561186D01*
X19349Y561371D01*
X19701Y561556D01*
X19867Y561667D01*
X19997Y561760D01*
X20127Y561853D01*
X20219Y561945D01*
X20293Y562019D01*
X20367Y562056D01*
X20386Y562093D01*
X20404Y562112D01*
X20589Y562315D01*
X20756Y562538D01*
X20886Y562778D01*
X20997Y563019D01*
X21182Y563501D01*
X21312Y563982D01*
X21349Y564186D01*
X21386Y564389D01*
X21404Y564575D01*
X21423Y564723D01*
X21441Y564852D01*
Y565038D01*
X21423Y565371D01*
X21404Y565686D01*
X21349Y565982D01*
X21293Y566259D01*
X21219Y566519D01*
X21145Y566759D01*
X21052Y566982D01*
X20960Y567185D01*
X20867Y567370D01*
X20775Y567519D01*
X20701Y567648D01*
X20626Y567759D01*
X20571Y567852D01*
X20515Y567907D01*
X20497Y567945D01*
X20478Y567963D01*
X20293Y568148D01*
X20089Y568315D01*
X19867Y568481D01*
X19645Y568611D01*
X19201Y568833D01*
X18756Y568982D01*
X18553Y569037D01*
X18349Y569093D01*
X18182Y569130D01*
X18034Y569167D01*
X17905Y569185D01*
X17812D01*
X17756Y569204D01*
X17738D01*
X17571Y567593D01*
X17997Y567556D01*
X18368Y567482D01*
X18701Y567370D01*
X18960Y567241D01*
X19182Y567130D01*
X19330Y567019D01*
X19423Y566945D01*
X19460Y566908D01*
X19682Y566630D01*
X19849Y566334D01*
X19978Y566019D01*
X20052Y565741D01*
X20108Y565482D01*
X20127Y565260D01*
X20145Y565186D01*
Y565075D01*
X20127Y564686D01*
X20052Y564334D01*
X19941Y564038D01*
X19830Y563778D01*
X19701Y563575D01*
X19608Y563445D01*
X19534Y563352D01*
X19497Y563315D01*
X19238Y563093D01*
X18979Y562927D01*
X18719Y562797D01*
X18460Y562723D01*
X18256Y562667D01*
X18071Y562649D01*
X17960Y562630D01*
X17942D01*
X17923D01*
X17590Y562667D01*
X17238Y562741D01*
X16923Y562871D01*
X16627Y563001D01*
X16386Y563149D01*
X16183Y563278D01*
X16108Y563315D01*
X16053Y563352D01*
X16034Y563390D01*
X16016D01*
X15812Y563538D01*
X15609Y563723D01*
X15386Y563927D01*
X15164Y564149D01*
X14720Y564612D01*
X14275Y565075D01*
X14072Y565315D01*
X13886Y565519D01*
X13720Y565723D01*
X13572Y565889D01*
X13461Y566019D01*
X13368Y566130D01*
X13312Y566204D01*
X13294Y566222D01*
X12905Y566685D01*
X12535Y567111D01*
X12201Y567463D01*
X11924Y567741D01*
X11683Y567982D01*
X11516Y568148D01*
X11405Y568241D01*
X11387Y568278D01*
X11368D01*
X11053Y568537D01*
X10757Y568741D01*
X10461Y568926D01*
X10202Y569074D01*
X9980Y569185D01*
X9813Y569259D01*
X9702Y569296D01*
X9683Y569315D01*
X9665D01*
X9461Y569389D01*
X9276Y569426D01*
X9091Y569463D01*
X8924Y569481D01*
X8776Y569500D01*
X21441D01*
Y569500D01*
D02*
G37*
G36*
X21386Y560001D02*
X8572D01*
Y548261D01*
X8572D01*
Y553261D01*
X21386Y548261D01*
X21386D01*
Y549983D01*
X12072Y553465D01*
X11683Y553613D01*
X11313Y553742D01*
X10961Y553853D01*
X10646Y553946D01*
X10368Y554039D01*
X10165Y554094D01*
X10091Y554113D01*
X10035Y554131D01*
X9998Y554150D01*
X9980D01*
X10720Y554372D01*
X11072Y554483D01*
X11387Y554594D01*
X11665Y554687D01*
X11776Y554724D01*
X11887Y554742D01*
X11961Y554779D01*
X12016Y554798D01*
X12053Y554816D01*
X12072D01*
X21386Y558149D01*
Y560001D01*
X8572Y555038D01*
Y560001D01*
X21386D01*
Y560001D01*
D02*
G37*
G36*
X21441Y547391D02*
X8350D01*
Y538948D01*
X8350D01*
Y543169D01*
X8368Y542817D01*
X8406Y542503D01*
X8461Y542188D01*
X8517Y541892D01*
X8609Y541632D01*
X8702Y541373D01*
X8794Y541133D01*
X8906Y540929D01*
X9017Y540744D01*
X9109Y540577D01*
X9202Y540447D01*
X9294Y540318D01*
X9350Y540225D01*
X9405Y540170D01*
X9442Y540133D01*
X9461Y540114D01*
X9683Y539910D01*
X9905Y539725D01*
X10128Y539577D01*
X10368Y539448D01*
X10590Y539318D01*
X10831Y539225D01*
X11257Y539096D01*
X11461Y539040D01*
X11646Y539003D01*
X11813Y538985D01*
X11942Y538966D01*
X12053Y538948D01*
X12220D01*
X12646Y538966D01*
X13035Y539040D01*
X13386Y539151D01*
X13683Y539262D01*
X13923Y539373D01*
X14109Y539484D01*
X14220Y539559D01*
X14238Y539577D01*
X14257D01*
X14553Y539836D01*
X14812Y540114D01*
X15016Y540410D01*
X15201Y540688D01*
X15331Y540947D01*
X15423Y541170D01*
X15460Y541244D01*
X15479Y541299D01*
X15497Y541336D01*
Y541355D01*
X15646Y541021D01*
X15812Y540744D01*
X15979Y540503D01*
X16145Y540299D01*
X16294Y540151D01*
X16405Y540040D01*
X16479Y539966D01*
X16516Y539948D01*
X16775Y539781D01*
X17034Y539670D01*
X17293Y539577D01*
X17553Y539522D01*
X17756Y539484D01*
X17923Y539466D01*
X18034D01*
X18053D01*
X18071D01*
X18330Y539484D01*
X18571Y539503D01*
X19034Y539633D01*
X19441Y539799D01*
X19793Y539985D01*
X20071Y540170D01*
X20182Y540262D01*
X20293Y540336D01*
X20367Y540410D01*
X20423Y540466D01*
X20441Y540484D01*
X20460Y540503D01*
X20626Y540707D01*
X20793Y540910D01*
X20923Y541133D01*
X21034Y541355D01*
X21200Y541799D01*
X21312Y542243D01*
X21367Y542429D01*
X21386Y542614D01*
X21404Y542780D01*
X21423Y542929D01*
X21441Y543040D01*
Y543207D01*
X21423Y543503D01*
X21404Y543799D01*
X21293Y544317D01*
X21219Y544558D01*
X21145Y544780D01*
X21052Y544984D01*
X20960Y545169D01*
X20867Y545317D01*
X20775Y545465D01*
X20701Y545595D01*
X20626Y545688D01*
X20571Y545762D01*
X20515Y545817D01*
X20497Y545854D01*
X20478Y545873D01*
X20293Y546039D01*
X20108Y546206D01*
X19904Y546336D01*
X19701Y546447D01*
X19312Y546632D01*
X18942Y546743D01*
X18627Y546817D01*
X18479Y546836D01*
X18368Y546854D01*
X18256Y546873D01*
X18182D01*
X18145D01*
X18127D01*
X17794Y546854D01*
X17479Y546799D01*
X17201Y546725D01*
X16960Y546632D01*
X16775Y546558D01*
X16627Y546484D01*
X16553Y546428D01*
X16516Y546410D01*
X16294Y546206D01*
X16090Y545984D01*
X15905Y545743D01*
X15757Y545502D01*
X15646Y545280D01*
X15572Y545114D01*
X15534Y545039D01*
X15516Y544984D01*
X15497Y544966D01*
Y544947D01*
X15368Y545373D01*
X15201Y545725D01*
X14998Y546039D01*
X14812Y546299D01*
X14627Y546502D01*
X14479Y546651D01*
X14386Y546725D01*
X14368Y546762D01*
X14349D01*
X14016Y546965D01*
X13664Y547132D01*
X13331Y547243D01*
X12998Y547317D01*
X12701Y547354D01*
X12572Y547373D01*
X12461D01*
X12387Y547391D01*
X21441D01*
Y547391D01*
D02*
G37*
%LPD*%
G36*
X11961Y547373D02*
X11665Y547336D01*
X11387Y547280D01*
X11109Y547206D01*
X10646Y547021D01*
X10424Y546928D01*
X10239Y546817D01*
X10053Y546706D01*
X9905Y546613D01*
X9776Y546502D01*
X9665Y546428D01*
X9572Y546354D01*
X9517Y546299D01*
X9480Y546262D01*
X9461Y546243D01*
X9257Y546021D01*
X9091Y545780D01*
X8942Y545521D01*
X8813Y545262D01*
X8720Y545021D01*
X8628Y544762D01*
X8498Y544262D01*
X8443Y544040D01*
X8406Y543836D01*
X8387Y543651D01*
X8368Y543484D01*
X8350Y543354D01*
Y547391D01*
X12257D01*
X11961Y547373D01*
D02*
G37*
G36*
X18460Y545243D02*
X18719Y545169D01*
X18960Y545077D01*
X19164Y544966D01*
X19330Y544873D01*
X19460Y544780D01*
X19534Y544706D01*
X19553Y544688D01*
X19756Y544447D01*
X19904Y544206D01*
X19997Y543947D01*
X20071Y543706D01*
X20108Y543484D01*
X20145Y543317D01*
Y543169D01*
X20127Y542855D01*
X20052Y542558D01*
X19960Y542318D01*
X19849Y542095D01*
X19738Y541929D01*
X19645Y541799D01*
X19571Y541707D01*
X19553Y541688D01*
X19312Y541484D01*
X19071Y541336D01*
X18830Y541225D01*
X18608Y541151D01*
X18405Y541114D01*
X18238Y541077D01*
X18127D01*
X18108D01*
X18090D01*
X17794Y541096D01*
X17516Y541170D01*
X17275Y541262D01*
X17071Y541373D01*
X16905Y541484D01*
X16794Y541577D01*
X16701Y541651D01*
X16682Y541670D01*
X16497Y541892D01*
X16349Y542151D01*
X16257Y542392D01*
X16183Y542632D01*
X16145Y542855D01*
X16127Y543021D01*
X16108Y543132D01*
Y543169D01*
X16127Y543503D01*
X16201Y543799D01*
X16294Y544058D01*
X16405Y544280D01*
X16497Y544447D01*
X16590Y544577D01*
X16664Y544669D01*
X16682Y544688D01*
X16905Y544873D01*
X17164Y545021D01*
X17405Y545114D01*
X17645Y545188D01*
X17849Y545225D01*
X18016Y545243D01*
X18127Y545262D01*
X18145D01*
X18164D01*
X18460Y545243D01*
D02*
G37*
G36*
X12646Y545743D02*
X12998Y545669D01*
X13312Y545558D01*
X13590Y545410D01*
X13794Y545280D01*
X13960Y545169D01*
X14053Y545095D01*
X14090Y545058D01*
X14331Y544780D01*
X14516Y544465D01*
X14646Y544169D01*
X14738Y543873D01*
X14794Y543614D01*
X14812Y543410D01*
X14831Y543336D01*
Y543225D01*
X14794Y542817D01*
X14720Y542447D01*
X14590Y542114D01*
X14461Y541836D01*
X14312Y541614D01*
X14183Y541447D01*
X14109Y541355D01*
X14072Y541318D01*
X13775Y541059D01*
X13461Y540873D01*
X13146Y540744D01*
X12868Y540651D01*
X12590Y540596D01*
X12387Y540577D01*
X12313Y540559D01*
X12257D01*
X12220D01*
X12201D01*
X11813Y540596D01*
X11442Y540670D01*
X11128Y540799D01*
X10868Y540929D01*
X10665Y541059D01*
X10498Y541188D01*
X10405Y541262D01*
X10368Y541299D01*
X10128Y541595D01*
X9942Y541892D01*
X9831Y542206D01*
X9739Y542503D01*
X9683Y542762D01*
X9665Y542984D01*
X9646Y543058D01*
Y543169D01*
X9665Y543429D01*
X9702Y543688D01*
X9757Y543928D01*
X9813Y544132D01*
X9868Y544299D01*
X9924Y544428D01*
X9961Y544502D01*
X9980Y544540D01*
X10128Y544762D01*
X10276Y544947D01*
X10442Y545114D01*
X10609Y545243D01*
X10739Y545354D01*
X10850Y545428D01*
X10942Y545465D01*
X10961Y545484D01*
X11202Y545577D01*
X11424Y545651D01*
X11646Y545706D01*
X11850Y545743D01*
X12016Y545762D01*
X12146Y545780D01*
X12220D01*
X12257D01*
X12646Y545743D01*
D02*
G37*
%LPC*%
G36*
X152401Y55676D02*
X150679D01*
X148679Y47436D01*
X148531Y46862D01*
X148420Y46343D01*
X148309Y45862D01*
X148216Y45455D01*
X148161Y45269D01*
X148142Y45103D01*
X148105Y44973D01*
X148087Y44862D01*
X148049Y44769D01*
Y44695D01*
X148031Y44658D01*
Y44640D01*
X147901Y45455D01*
X147735Y46251D01*
X147568Y47010D01*
X147494Y47362D01*
X147401Y47713D01*
X147327Y48028D01*
X147253Y48306D01*
X147179Y48547D01*
X147124Y48769D01*
X147087Y48936D01*
X147050Y49065D01*
X147013Y49158D01*
Y49176D01*
X145198Y55676D01*
X143143D01*
X140717Y47010D01*
X140698Y46936D01*
X140661Y46825D01*
X140624Y46677D01*
X140587Y46510D01*
X140532Y46325D01*
X140495Y46121D01*
X140384Y45714D01*
X140291Y45306D01*
X140236Y45121D01*
X140198Y44973D01*
X140180Y44825D01*
X140143Y44732D01*
X140124Y44658D01*
Y44640D01*
X140032Y45121D01*
X139939Y45603D01*
X139847Y46047D01*
X139754Y46436D01*
X139717Y46621D01*
X139680Y46788D01*
X139643Y46917D01*
X139625Y47047D01*
X139606Y47140D01*
X139587Y47214D01*
X139569Y47251D01*
Y47269D01*
X137662Y55676D01*
X135903D01*
X139254Y42862D01*
X141032D01*
X143735Y52620D01*
X143809Y52861D01*
X143865Y53120D01*
X143939Y53380D01*
X143994Y53602D01*
X144050Y53805D01*
X144087Y53972D01*
X144106Y54083D01*
X144124Y54102D01*
Y54120D01*
X144143Y54065D01*
X144161Y53972D01*
X144217Y53769D01*
X144291Y53528D01*
X144365Y53268D01*
X144420Y53028D01*
X144476Y52824D01*
X144494Y52731D01*
X144513Y52676D01*
X144531Y52639D01*
Y52620D01*
X147216Y42862D01*
X148883D01*
X152401Y55676D01*
D02*
G37*
G36*
X171899D02*
X165955D01*
Y42862D01*
X167659D01*
Y48547D01*
X169844D01*
X170047Y48528D01*
X170195D01*
X170325Y48510D01*
X170418Y48491D01*
X170492D01*
X170529Y48473D01*
X170547D01*
X170843Y48380D01*
X170973Y48325D01*
X171084Y48269D01*
X171195Y48214D01*
X171269Y48176D01*
X171306Y48158D01*
X171325Y48139D01*
X171473Y48028D01*
X171621Y47899D01*
X171899Y47621D01*
X172029Y47491D01*
X172121Y47380D01*
X172177Y47306D01*
X172195Y47288D01*
X172380Y47028D01*
X172584Y46751D01*
X172788Y46454D01*
X172991Y46177D01*
X173158Y45917D01*
X173288Y45714D01*
X173343Y45640D01*
X173380Y45584D01*
X173417Y45547D01*
Y45529D01*
X175102Y42862D01*
X177213D01*
X175010Y46343D01*
X174750Y46714D01*
X174510Y47047D01*
X174269Y47325D01*
X174065Y47584D01*
X173880Y47769D01*
X173732Y47917D01*
X173640Y48010D01*
X173602Y48047D01*
X173454Y48158D01*
X173288Y48288D01*
X172954Y48491D01*
X172806Y48565D01*
X172695Y48639D01*
X172621Y48676D01*
X172584Y48695D01*
X172917Y48751D01*
X173232Y48806D01*
X173510Y48899D01*
X173788Y48973D01*
X174028Y49065D01*
X174251Y49176D01*
X174454Y49269D01*
X174639Y49362D01*
X174788Y49473D01*
X174936Y49565D01*
X175047Y49639D01*
X175139Y49713D01*
X175213Y49769D01*
X175269Y49824D01*
X175287Y49843D01*
X175306Y49861D01*
X175454Y50047D01*
X175602Y50232D01*
X175824Y50621D01*
X175972Y51009D01*
X176084Y51380D01*
X176158Y51695D01*
X176176Y51824D01*
Y51954D01*
X176195Y52046D01*
Y52120D01*
Y52158D01*
Y52176D01*
X176176Y52565D01*
X176121Y52917D01*
X176028Y53250D01*
X175935Y53528D01*
X175824Y53769D01*
X175750Y53954D01*
X175676Y54065D01*
X175658Y54083D01*
Y54102D01*
X175436Y54398D01*
X175213Y54657D01*
X174973Y54879D01*
X174750Y55046D01*
X174547Y55176D01*
X174380Y55250D01*
X174269Y55305D01*
X174251Y55324D01*
X174232D01*
X174065Y55379D01*
X173862Y55435D01*
X173454Y55528D01*
X173010Y55583D01*
X172603Y55639D01*
X172214Y55657D01*
X172047D01*
X171899Y55676D01*
D02*
G37*
G36*
X163289D02*
X154012D01*
Y42862D01*
X163585D01*
Y44381D01*
X155715D01*
Y48732D01*
X162807D01*
Y50250D01*
X155715D01*
Y54157D01*
X163289D01*
Y55676D01*
D02*
G37*
G36*
X116479D02*
X111220D01*
Y42862D01*
X112923D01*
Y48065D01*
X116201D01*
X116682Y48084D01*
X117145Y48121D01*
X117553Y48176D01*
X117923Y48250D01*
X118275Y48325D01*
X118571Y48417D01*
X118849Y48528D01*
X119090Y48639D01*
X119293Y48732D01*
X119478Y48843D01*
X119627Y48936D01*
X119738Y49028D01*
X119830Y49084D01*
X119886Y49139D01*
X119923Y49176D01*
X119941Y49195D01*
X120126Y49417D01*
X120293Y49639D01*
X120423Y49861D01*
X120552Y50102D01*
X120663Y50343D01*
X120737Y50565D01*
X120867Y50991D01*
X120904Y51195D01*
X120941Y51380D01*
X120960Y51547D01*
X120978Y51676D01*
X120997Y51806D01*
Y51954D01*
X120978Y52306D01*
X120941Y52639D01*
X120867Y52935D01*
X120812Y53194D01*
X120737Y53417D01*
X120663Y53583D01*
X120626Y53676D01*
X120608Y53713D01*
X120460Y53991D01*
X120275Y54231D01*
X120108Y54454D01*
X119941Y54620D01*
X119793Y54750D01*
X119682Y54861D01*
X119608Y54917D01*
X119571Y54935D01*
X119330Y55083D01*
X119052Y55213D01*
X118793Y55324D01*
X118553Y55416D01*
X118330Y55472D01*
X118164Y55509D01*
X118034Y55546D01*
X117997D01*
X117719Y55583D01*
X117404Y55620D01*
X117071Y55639D01*
X116756Y55657D01*
X116479Y55676D01*
D02*
G37*
G36*
X128940Y55898D02*
X128774D01*
X128274Y55879D01*
X127811Y55824D01*
X127367Y55731D01*
X126941Y55620D01*
X126552Y55472D01*
X126181Y55324D01*
X125848Y55157D01*
X125552Y54991D01*
X125274Y54824D01*
X125033Y54657D01*
X124830Y54509D01*
X124663Y54361D01*
X124533Y54250D01*
X124422Y54157D01*
X124367Y54102D01*
X124348Y54083D01*
X124052Y53731D01*
X123793Y53361D01*
X123552Y52954D01*
X123367Y52546D01*
X123200Y52120D01*
X123052Y51713D01*
X122941Y51306D01*
X122867Y50917D01*
X122793Y50547D01*
X122737Y50195D01*
X122700Y49880D01*
X122663Y49621D01*
Y49399D01*
X122645Y49232D01*
Y49084D01*
X122682Y48454D01*
X122756Y47880D01*
X122867Y47325D01*
X122941Y47084D01*
X123015Y46843D01*
X123071Y46640D01*
X123145Y46454D01*
X123200Y46288D01*
X123256Y46140D01*
X123293Y46028D01*
X123330Y45954D01*
X123367Y45899D01*
Y45880D01*
X123682Y45343D01*
X124015Y44880D01*
X124385Y44473D01*
X124737Y44140D01*
X125052Y43862D01*
X125182Y43751D01*
X125293Y43677D01*
X125404Y43603D01*
X125478Y43547D01*
X125515Y43529D01*
X125533Y43510D01*
X125811Y43362D01*
X126089Y43232D01*
X126644Y43010D01*
X127181Y42862D01*
X127681Y42751D01*
X127922Y42714D01*
X128126Y42695D01*
X128311Y42659D01*
X128477D01*
X128589Y42640D01*
X128774D01*
X129385Y42677D01*
X129959Y42770D01*
X130496Y42881D01*
X130737Y42955D01*
X130959Y43029D01*
X131162Y43103D01*
X131348Y43177D01*
X131496Y43232D01*
X131625Y43288D01*
X131736Y43344D01*
X131829Y43381D01*
X131866Y43418D01*
X131884D01*
X132403Y43751D01*
X132847Y44121D01*
X133218Y44510D01*
X133532Y44880D01*
X133792Y45232D01*
X133884Y45362D01*
X133958Y45492D01*
X134032Y45603D01*
X134069Y45677D01*
X134107Y45732D01*
Y45751D01*
X134255Y46047D01*
X134366Y46343D01*
X134569Y46936D01*
X134718Y47528D01*
X134810Y48065D01*
X134829Y48306D01*
X134866Y48528D01*
X134884Y48732D01*
Y48899D01*
X134903Y49047D01*
Y49232D01*
X134866Y49935D01*
X134792Y50584D01*
X134736Y50880D01*
X134662Y51176D01*
X134588Y51435D01*
X134532Y51676D01*
X134458Y51898D01*
X134384Y52102D01*
X134329Y52269D01*
X134255Y52417D01*
X134218Y52528D01*
X134181Y52602D01*
X134143Y52657D01*
Y52676D01*
X133847Y53213D01*
X133496Y53694D01*
X133125Y54102D01*
X132792Y54435D01*
X132477Y54694D01*
X132329Y54805D01*
X132218Y54898D01*
X132107Y54953D01*
X132033Y55009D01*
X131996Y55028D01*
X131977Y55046D01*
X131699Y55194D01*
X131422Y55324D01*
X130885Y55546D01*
X130329Y55694D01*
X129848Y55787D01*
X129626Y55824D01*
X129403Y55861D01*
X129237Y55879D01*
X129070D01*
X128940Y55898D01*
D02*
G37*
%LPD*%
G36*
X172195Y54231D02*
X172621Y54157D01*
X172991Y54065D01*
X173269Y53954D01*
X173510Y53843D01*
X173658Y53750D01*
X173751Y53676D01*
X173788Y53657D01*
X174010Y53417D01*
X174176Y53176D01*
X174287Y52917D01*
X174380Y52695D01*
X174417Y52472D01*
X174436Y52306D01*
X174454Y52195D01*
Y52176D01*
Y52158D01*
X174436Y51935D01*
X174399Y51713D01*
X174343Y51528D01*
X174287Y51361D01*
X174214Y51213D01*
X174158Y51102D01*
X174121Y51028D01*
X174102Y51009D01*
X173973Y50824D01*
X173806Y50658D01*
X173640Y50528D01*
X173473Y50417D01*
X173325Y50343D01*
X173214Y50287D01*
X173139Y50250D01*
X173102Y50232D01*
X172843Y50158D01*
X172547Y50102D01*
X172251Y50065D01*
X171954Y50047D01*
X171695Y50028D01*
X171473Y50010D01*
X167659D01*
Y54250D01*
X171695D01*
X172195Y54231D01*
D02*
G37*
G36*
X116923Y54139D02*
X117201Y54120D01*
X117423Y54102D01*
X117571Y54065D01*
X117682Y54046D01*
X117756Y54028D01*
X117775D01*
X118016Y53935D01*
X118219Y53824D01*
X118404Y53713D01*
X118571Y53583D01*
X118682Y53454D01*
X118775Y53361D01*
X118830Y53287D01*
X118849Y53268D01*
X118979Y53046D01*
X119090Y52824D01*
X119164Y52583D01*
X119201Y52380D01*
X119238Y52195D01*
X119256Y52028D01*
Y51935D01*
Y51917D01*
Y51898D01*
X119219Y51509D01*
X119145Y51176D01*
X119034Y50880D01*
X118904Y50639D01*
X118775Y50454D01*
X118664Y50306D01*
X118590Y50232D01*
X118553Y50195D01*
X118423Y50084D01*
X118256Y49991D01*
X117905Y49843D01*
X117516Y49732D01*
X117127Y49658D01*
X116775Y49621D01*
X116627Y49602D01*
X116497D01*
X116368Y49584D01*
X112923D01*
Y54157D01*
X116590D01*
X116923Y54139D01*
D02*
G37*
G36*
X129237Y54417D02*
X129681Y54342D01*
X130070Y54231D01*
X130403Y54120D01*
X130681Y53991D01*
X130792Y53935D01*
X130885Y53898D01*
X130977Y53843D01*
X131033Y53824D01*
X131051Y53787D01*
X131070D01*
X131422Y53528D01*
X131736Y53232D01*
X132014Y52935D01*
X132236Y52639D01*
X132403Y52380D01*
X132533Y52158D01*
X132570Y52084D01*
X132607Y52028D01*
X132625Y51991D01*
Y51972D01*
X132810Y51528D01*
X132940Y51047D01*
X133033Y50602D01*
X133088Y50176D01*
X133125Y49973D01*
X133144Y49806D01*
Y49639D01*
X133162Y49510D01*
Y49399D01*
Y49324D01*
Y49269D01*
Y49250D01*
X133144Y48806D01*
X133107Y48380D01*
X133051Y47973D01*
X132977Y47602D01*
X132866Y47269D01*
X132773Y46954D01*
X132662Y46658D01*
X132551Y46399D01*
X132422Y46177D01*
X132310Y45973D01*
X132218Y45806D01*
X132125Y45677D01*
X132033Y45566D01*
X131977Y45473D01*
X131940Y45436D01*
X131922Y45417D01*
X131681Y45177D01*
X131422Y44973D01*
X131162Y44806D01*
X130903Y44640D01*
X130644Y44510D01*
X130366Y44418D01*
X130125Y44325D01*
X129866Y44251D01*
X129644Y44195D01*
X129422Y44158D01*
X129237Y44121D01*
X129070Y44103D01*
X128940D01*
X128848Y44084D01*
X128755D01*
X128403Y44103D01*
X128070Y44140D01*
X127774Y44214D01*
X127478Y44288D01*
X127200Y44399D01*
X126941Y44510D01*
X126700Y44621D01*
X126478Y44751D01*
X126292Y44880D01*
X126126Y44992D01*
X125978Y45103D01*
X125848Y45214D01*
X125756Y45288D01*
X125681Y45362D01*
X125644Y45399D01*
X125626Y45417D01*
X125404Y45677D01*
X125218Y45954D01*
X125052Y46251D01*
X124904Y46547D01*
X124793Y46862D01*
X124682Y47158D01*
X124533Y47751D01*
X124496Y48010D01*
X124459Y48269D01*
X124422Y48491D01*
X124404Y48676D01*
X124385Y48843D01*
Y48973D01*
Y49047D01*
Y49065D01*
X124404Y49584D01*
X124441Y50065D01*
X124496Y50528D01*
X124589Y50935D01*
X124682Y51306D01*
X124793Y51639D01*
X124922Y51954D01*
X125033Y52213D01*
X125163Y52454D01*
X125274Y52657D01*
X125385Y52824D01*
X125478Y52954D01*
X125570Y53065D01*
X125626Y53139D01*
X125663Y53176D01*
X125681Y53194D01*
X125922Y53417D01*
X126181Y53602D01*
X126441Y53769D01*
X126718Y53917D01*
X126978Y54028D01*
X127237Y54139D01*
X127718Y54287D01*
X127941Y54324D01*
X128144Y54361D01*
X128311Y54398D01*
X128477Y54417D01*
X128607Y54435D01*
X128774D01*
X129237Y54417D01*
D02*
G37*
%LPC*%
G36*
X519853Y668038D02*
X509669D01*
D01*
X514650D01*
X514169Y668019D01*
X513743Y667964D01*
X513335Y667890D01*
X512984Y667816D01*
X512706Y667742D01*
X512576Y667705D01*
X512484Y667667D01*
X512410Y667630D01*
X512354Y667612D01*
X512317Y667594D01*
X512298D01*
X511928Y667408D01*
X511595Y667205D01*
X511317Y666982D01*
X511095Y666779D01*
X510928Y666594D01*
X510799Y666445D01*
X510706Y666334D01*
X510687Y666316D01*
Y666297D01*
X510502Y665983D01*
X510373Y665668D01*
X510280Y665353D01*
X510225Y665075D01*
X510187Y664835D01*
X510150Y664649D01*
Y664575D01*
Y664520D01*
Y664501D01*
Y664483D01*
X510169Y664168D01*
X510225Y663872D01*
X510299Y663594D01*
X510373Y663353D01*
X510447Y663168D01*
X510521Y663020D01*
X510576Y662927D01*
X510595Y662890D01*
X510780Y662631D01*
X511002Y662390D01*
X511225Y662187D01*
X511447Y662020D01*
X511632Y661872D01*
X511799Y661779D01*
X511910Y661705D01*
X511928Y661687D01*
X511947D01*
X512095Y661613D01*
X512261Y661539D01*
X512632Y661409D01*
X513058Y661279D01*
X513465Y661150D01*
X513835Y661039D01*
X514002Y661002D01*
X514150Y660965D01*
X514261Y660928D01*
X514354Y660909D01*
X514409Y660891D01*
X514428D01*
X514743Y660816D01*
X515039Y660742D01*
X515298Y660668D01*
X515520Y660613D01*
X515742Y660557D01*
X515928Y660502D01*
X516094Y660465D01*
X516224Y660409D01*
X516354Y660372D01*
X516446Y660353D01*
X516594Y660298D01*
X516687Y660279D01*
X516705Y660261D01*
X516983Y660150D01*
X517224Y660020D01*
X517427Y659891D01*
X517576Y659780D01*
X517705Y659668D01*
X517779Y659594D01*
X517835Y659539D01*
X517853Y659520D01*
X517983Y659354D01*
X518076Y659168D01*
X518131Y658983D01*
X518187Y658835D01*
X518205Y658687D01*
X518224Y658576D01*
Y658483D01*
Y658465D01*
X518205Y658243D01*
X518168Y658039D01*
X518113Y657854D01*
X518039Y657706D01*
X517965Y657558D01*
X517909Y657465D01*
X517872Y657391D01*
X517853Y657372D01*
X517705Y657187D01*
X517520Y657039D01*
X517335Y656909D01*
X517168Y656780D01*
X517002Y656706D01*
X516872Y656632D01*
X516780Y656595D01*
X516742Y656576D01*
X516465Y656484D01*
X516168Y656410D01*
X515872Y656372D01*
X515613Y656335D01*
X515391Y656317D01*
X515205Y656298D01*
X515039D01*
X514632Y656317D01*
X514261Y656354D01*
X513928Y656410D01*
X513632Y656484D01*
X513391Y656558D01*
X513206Y656613D01*
X513150Y656632D01*
X513095Y656650D01*
X513076Y656669D01*
X513058D01*
X512761Y656817D01*
X512484Y656983D01*
X512280Y657150D01*
X512095Y657317D01*
X511947Y657446D01*
X511854Y657576D01*
X511799Y657650D01*
X511780Y657669D01*
X511650Y657909D01*
X511521Y658168D01*
X511447Y658446D01*
X511373Y658687D01*
X511317Y658928D01*
X511280Y659094D01*
Y659168D01*
X511261Y659224D01*
Y659242D01*
Y659261D01*
X509669Y659113D01*
X509706Y658650D01*
X509780Y658206D01*
X509891Y657817D01*
X510021Y657465D01*
X510150Y657187D01*
X510206Y657076D01*
X510243Y656983D01*
X510299Y656909D01*
X510317Y656854D01*
X510354Y656817D01*
Y656798D01*
X510632Y656447D01*
X510928Y656132D01*
X511243Y655872D01*
X511539Y655650D01*
X511799Y655484D01*
X512021Y655372D01*
X512095Y655335D01*
X512150Y655298D01*
X512187Y655280D01*
X512206D01*
X512669Y655113D01*
X513150Y654984D01*
X513632Y654910D01*
X514095Y654836D01*
X514317Y654817D01*
X514502Y654799D01*
X514669D01*
X514817Y654780D01*
X515113D01*
X515613Y654799D01*
X516076Y654854D01*
X516502Y654947D01*
X516853Y655039D01*
X517150Y655113D01*
X517279Y655169D01*
X517391Y655206D01*
X517465Y655243D01*
X517520Y655261D01*
X517557Y655280D01*
X517576D01*
X517965Y655484D01*
X518298Y655706D01*
X518594Y655947D01*
X518835Y656169D01*
X519020Y656354D01*
X519150Y656521D01*
X519242Y656632D01*
X519261Y656650D01*
Y656669D01*
X519464Y657020D01*
X519613Y657354D01*
X519705Y657669D01*
X519779Y657965D01*
X519816Y658224D01*
X519853Y658428D01*
Y658594D01*
X519835Y658965D01*
X519779Y659317D01*
X519687Y659631D01*
X519594Y659891D01*
X519483Y660113D01*
X519409Y660279D01*
X519335Y660372D01*
X519316Y660409D01*
X519094Y660687D01*
X518835Y660946D01*
X518557Y661168D01*
X518279Y661372D01*
X518039Y661520D01*
X517835Y661631D01*
X517761Y661668D01*
X517705Y661705D01*
X517668Y661724D01*
X517650D01*
X517502Y661798D01*
X517316Y661853D01*
X517113Y661927D01*
X516891Y662001D01*
X516428Y662131D01*
X515946Y662261D01*
X515724Y662316D01*
X515520Y662372D01*
X515317Y662427D01*
X515150Y662464D01*
X515020Y662501D01*
X514909Y662520D01*
X514835Y662539D01*
X514817D01*
X514446Y662631D01*
X514113Y662705D01*
X513817Y662798D01*
X513558Y662872D01*
X513317Y662964D01*
X513113Y663038D01*
X512928Y663112D01*
X512761Y663168D01*
X512632Y663242D01*
X512521Y663298D01*
X512447Y663335D01*
X512373Y663390D01*
X512280Y663446D01*
X512261Y663464D01*
X512095Y663649D01*
X511984Y663835D01*
X511891Y664020D01*
X511836Y664205D01*
X511799Y664353D01*
X511780Y664483D01*
Y664557D01*
Y664594D01*
X511817Y664890D01*
X511891Y665149D01*
X512002Y665371D01*
X512132Y665575D01*
X512243Y665723D01*
X512354Y665853D01*
X512428Y665927D01*
X512465Y665946D01*
X512613Y666038D01*
X512761Y666131D01*
X513113Y666279D01*
X513484Y666371D01*
X513854Y666445D01*
X514187Y666482D01*
X514335Y666501D01*
X514446Y666519D01*
X514706D01*
X515224Y666501D01*
X515687Y666427D01*
X516057Y666316D01*
X516372Y666205D01*
X516613Y666094D01*
X516798Y665983D01*
X516891Y665909D01*
X516928Y665890D01*
X517187Y665631D01*
X517391Y665353D01*
X517557Y665057D01*
X517668Y664760D01*
X517742Y664483D01*
X517798Y664279D01*
X517816Y664186D01*
X517835Y664131D01*
Y664094D01*
Y664075D01*
X519464Y664205D01*
X519427Y664612D01*
X519335Y664983D01*
X519242Y665334D01*
X519113Y665631D01*
X519002Y665871D01*
X518909Y666057D01*
X518872Y666112D01*
X518835Y666168D01*
X518816Y666186D01*
Y666205D01*
X518576Y666519D01*
X518316Y666797D01*
X518039Y667038D01*
X517761Y667223D01*
X517520Y667390D01*
X517335Y667482D01*
X517261Y667519D01*
X517205Y667557D01*
X517168Y667575D01*
X517150D01*
X516742Y667723D01*
X516298Y667834D01*
X515891Y667927D01*
X515502Y667982D01*
X515150Y668019D01*
X515020D01*
X514891Y668038D01*
X519853D01*
D02*
G37*
G36*
X524168Y667816D02*
X522464D01*
Y655002D01*
X524168D01*
Y667816D01*
D02*
G37*
G36*
X507392D02*
X497300D01*
Y655002D01*
X502951D01*
X498929D01*
Y665057D01*
X505633Y655002D01*
X507392D01*
Y667816D01*
D02*
G37*
%LPD*%
G36*
X505762Y657743D02*
X499041Y667816D01*
X505762D01*
Y657743D01*
D02*
G37*
%LPC*%
G36*
X459126Y668038D02*
Y658594D01*
X459108Y658965D01*
X459052Y659317D01*
X458960Y659631D01*
X458867Y659891D01*
X458756Y660113D01*
X458682Y660279D01*
X458608Y660372D01*
X458589Y660409D01*
X458367Y660687D01*
X458108Y660946D01*
X457830Y661168D01*
X457552Y661372D01*
X457312Y661520D01*
X457108Y661631D01*
X457034Y661668D01*
X456978Y661705D01*
X456941Y661724D01*
X456923D01*
X456775Y661798D01*
X456590Y661853D01*
X456386Y661927D01*
X456164Y662001D01*
X455701Y662131D01*
X455219Y662261D01*
X454997Y662316D01*
X454793Y662372D01*
X454590Y662427D01*
X454423Y662464D01*
X454294Y662501D01*
X454182Y662520D01*
X454108Y662539D01*
X454090D01*
X453719Y662631D01*
X453386Y662705D01*
X453090Y662798D01*
X452831Y662872D01*
X452590Y662964D01*
X452386Y663038D01*
X452201Y663112D01*
X452034Y663168D01*
X451905Y663242D01*
X451794Y663298D01*
X451720Y663335D01*
X451646Y663390D01*
X451553Y663446D01*
X451535Y663464D01*
X451368Y663649D01*
X451257Y663835D01*
X451164Y664020D01*
X451109Y664205D01*
X451072Y664353D01*
X451053Y664483D01*
Y664557D01*
Y664594D01*
X451090Y664890D01*
X451164Y665149D01*
X451275Y665371D01*
X451405Y665575D01*
X451516Y665723D01*
X451627Y665853D01*
X451701Y665927D01*
X451738Y665946D01*
X451886Y666038D01*
X452034Y666131D01*
X452386Y666279D01*
X452757Y666371D01*
X453127Y666445D01*
X453460Y666482D01*
X453608Y666501D01*
X453719Y666519D01*
X453979D01*
X454497Y666501D01*
X454960Y666427D01*
X455330Y666316D01*
X455645Y666205D01*
X455886Y666094D01*
X456071Y665983D01*
X456164Y665909D01*
X456201Y665890D01*
X456460Y665631D01*
X456664Y665353D01*
X456830Y665057D01*
X456941Y664760D01*
X457015Y664483D01*
X457071Y664279D01*
X457090Y664186D01*
X457108Y664131D01*
Y664094D01*
Y664075D01*
X458737Y664205D01*
X458700Y664612D01*
X458608Y664983D01*
X458515Y665334D01*
X458386Y665631D01*
X458274Y665871D01*
X458182Y666057D01*
X458145Y666112D01*
X458108Y666168D01*
X458089Y666186D01*
Y666205D01*
X457849Y666519D01*
X457589Y666797D01*
X457312Y667038D01*
X457034Y667223D01*
X456793Y667390D01*
X456608Y667482D01*
X456534Y667519D01*
X456478Y667557D01*
X456441Y667575D01*
X456423D01*
X456016Y667723D01*
X455571Y667834D01*
X455164Y667927D01*
X454775Y667982D01*
X454423Y668019D01*
X454294D01*
X454164Y668038D01*
X459126D01*
X453923D01*
X453442Y668019D01*
X453016Y667964D01*
X452608Y667890D01*
X452257Y667816D01*
X451979Y667742D01*
X451849Y667705D01*
X451757Y667667D01*
X451683Y667630D01*
X451627Y667612D01*
X451590Y667594D01*
X451572D01*
X451201Y667408D01*
X450868Y667205D01*
X450590Y666982D01*
X450368Y666779D01*
X450201Y666594D01*
X450072Y666445D01*
X449979Y666334D01*
X449961Y666316D01*
Y666297D01*
X449775Y665983D01*
X449646Y665668D01*
X449553Y665353D01*
X449498Y665075D01*
X449461Y664835D01*
X449424Y664649D01*
Y664575D01*
Y664520D01*
Y664501D01*
Y664483D01*
X449442Y664168D01*
X449498Y663872D01*
X449572Y663594D01*
X449646Y663353D01*
X449720Y663168D01*
X449794Y663020D01*
X449850Y662927D01*
X449868Y662890D01*
X450053Y662631D01*
X450275Y662390D01*
X450498Y662187D01*
X450720Y662020D01*
X450905Y661872D01*
X451072Y661779D01*
X451183Y661705D01*
X451201Y661687D01*
X451220D01*
X451368Y661613D01*
X451535Y661539D01*
X451905Y661409D01*
X452331Y661279D01*
X452738Y661150D01*
X453108Y661039D01*
X453275Y661002D01*
X453423Y660965D01*
X453534Y660928D01*
X453627Y660909D01*
X453682Y660891D01*
X453701D01*
X454016Y660816D01*
X454312Y660742D01*
X454571Y660668D01*
X454793Y660613D01*
X455016Y660557D01*
X455201Y660502D01*
X455367Y660465D01*
X455497Y660409D01*
X455627Y660372D01*
X455719Y660353D01*
X455867Y660298D01*
X455960Y660279D01*
X455979Y660261D01*
X456256Y660150D01*
X456497Y660020D01*
X456701Y659891D01*
X456849Y659780D01*
X456978Y659668D01*
X457052Y659594D01*
X457108Y659539D01*
X457127Y659520D01*
X457256Y659354D01*
X457349Y659168D01*
X457404Y658983D01*
X457460Y658835D01*
X457478Y658687D01*
X457497Y658576D01*
Y658483D01*
Y658465D01*
X457478Y658243D01*
X457441Y658039D01*
X457386Y657854D01*
X457312Y657706D01*
X457238Y657558D01*
X457182Y657465D01*
X457145Y657391D01*
X457127Y657372D01*
X456978Y657187D01*
X456793Y657039D01*
X456608Y656909D01*
X456441Y656780D01*
X456275Y656706D01*
X456145Y656632D01*
X456053Y656595D01*
X456016Y656576D01*
X455738Y656484D01*
X455442Y656410D01*
X455145Y656372D01*
X454886Y656335D01*
X454664Y656317D01*
X454479Y656298D01*
X454312D01*
X453905Y656317D01*
X453534Y656354D01*
X453201Y656410D01*
X452905Y656484D01*
X452664Y656558D01*
X452479Y656613D01*
X452423Y656632D01*
X452368Y656650D01*
X452349Y656669D01*
X452331D01*
X452034Y656817D01*
X451757Y656983D01*
X451553Y657150D01*
X451368Y657317D01*
X451220Y657446D01*
X451127Y657576D01*
X451072Y657650D01*
X451053Y657669D01*
X450923Y657909D01*
X450794Y658168D01*
X450720Y658446D01*
X450646Y658687D01*
X450590Y658928D01*
X450553Y659094D01*
Y659168D01*
X450535Y659224D01*
Y659242D01*
Y659261D01*
X448942Y659113D01*
D01*
X448979Y658650D01*
X449053Y658206D01*
X449164Y657817D01*
X449294Y657465D01*
X449424Y657187D01*
X449479Y657076D01*
X449516Y656983D01*
X449572Y656909D01*
X449590Y656854D01*
X449627Y656817D01*
Y656798D01*
X449905Y656447D01*
X450201Y656132D01*
X450516Y655872D01*
X450812Y655650D01*
X451072Y655484D01*
X451294Y655372D01*
X451368Y655335D01*
X451423Y655298D01*
X451460Y655280D01*
X451479D01*
X451942Y655113D01*
X452423Y654984D01*
X452905Y654910D01*
X453368Y654836D01*
X453590Y654817D01*
X453775Y654799D01*
X453942D01*
X454090Y654780D01*
X459126D01*
Y668038D01*
D02*
G37*
G36*
X463441Y667816D02*
X461737D01*
Y655002D01*
X463441D01*
Y667816D01*
D02*
G37*
G36*
X447757D02*
X437610D01*
Y655002D01*
Y666297D01*
X441832D01*
Y655002D01*
X443535D01*
Y666297D01*
X447757D01*
Y667816D01*
D02*
G37*
%LPD*%
G36*
X459126Y654780D02*
X454386D01*
X454886Y654799D01*
X455349Y654854D01*
X455775Y654947D01*
X456127Y655039D01*
X456423Y655113D01*
X456553Y655169D01*
X456664Y655206D01*
X456738Y655243D01*
X456793Y655261D01*
X456830Y655280D01*
X456849D01*
X457238Y655484D01*
X457571Y655706D01*
X457867Y655947D01*
X458108Y656169D01*
X458293Y656354D01*
X458423Y656521D01*
X458515Y656632D01*
X458534Y656650D01*
Y656669D01*
X458737Y657020D01*
X458886Y657354D01*
X458978Y657669D01*
X459052Y657965D01*
X459089Y658224D01*
X459126Y658428D01*
Y654780D01*
D02*
G37*
%LPC*%
G36*
X348321Y667594D02*
X338174D01*
Y654780D01*
Y666075D01*
X342396D01*
Y654780D01*
X344100D01*
Y666075D01*
X348321D01*
Y667594D01*
D02*
G37*
G36*
X336804D02*
X327120D01*
Y654780D01*
X332008D01*
X332453Y654799D01*
X332842Y654817D01*
X333193Y654854D01*
X333490Y654891D01*
X333730Y654928D01*
X333916Y654947D01*
X334027Y654984D01*
X334064D01*
X334379Y655076D01*
X334638Y655169D01*
X334879Y655280D01*
X335082Y655391D01*
X335249Y655465D01*
X335378Y655539D01*
X335452Y655595D01*
X335471Y655613D01*
X335675Y655780D01*
X335860Y655984D01*
X336008Y656187D01*
X336156Y656372D01*
X336267Y656558D01*
X336341Y656687D01*
X336397Y656780D01*
X336415Y656817D01*
X336545Y657113D01*
X336637Y657409D01*
X336712Y657687D01*
X336749Y657946D01*
X336786Y658168D01*
X336804Y658354D01*
Y658502D01*
X336786Y658909D01*
X336712Y659279D01*
X336600Y659594D01*
X336489Y659891D01*
X336378Y660113D01*
X336267Y660279D01*
X336193Y660390D01*
X336175Y660428D01*
X335915Y660724D01*
X335638Y660965D01*
X335323Y661168D01*
X335045Y661335D01*
X334786Y661464D01*
X334564Y661539D01*
X334490Y661576D01*
X334434Y661594D01*
X334397Y661613D01*
X334379D01*
X334693Y661798D01*
X334971Y661983D01*
X335193Y662187D01*
X335378Y662372D01*
X335527Y662520D01*
X335638Y662668D01*
X335693Y662742D01*
X335712Y662779D01*
X335860Y663057D01*
X335971Y663316D01*
X336063Y663575D01*
X336119Y663816D01*
X336156Y664020D01*
X336175Y664186D01*
Y664279D01*
Y664316D01*
X336156Y664631D01*
X336101Y664946D01*
X336008Y665223D01*
X335915Y665483D01*
X335823Y665705D01*
X335730Y665853D01*
X335675Y665964D01*
X335656Y666001D01*
X335452Y666279D01*
X335230Y666538D01*
X334990Y666742D01*
X334767Y666908D01*
X334582Y667038D01*
X334416Y667131D01*
X334304Y667186D01*
X334286Y667205D01*
X334267D01*
X333916Y667334D01*
X333527Y667427D01*
X333138Y667501D01*
X332768Y667538D01*
X332434Y667575D01*
X332286D01*
X332156Y667594D01*
X336804D01*
D02*
G37*
%LPD*%
G36*
X332268Y666038D02*
X332582Y666020D01*
X332860Y665983D01*
X333064Y665946D01*
X333193Y665927D01*
X333286Y665890D01*
X333304D01*
X333508Y665816D01*
X333693Y665705D01*
X333842Y665594D01*
X333971Y665483D01*
X334064Y665390D01*
X334138Y665297D01*
X334175Y665242D01*
X334193Y665223D01*
X334304Y665038D01*
X334379Y664853D01*
X334434Y664668D01*
X334471Y664483D01*
X334490Y664335D01*
X334508Y664223D01*
Y664149D01*
Y664112D01*
X334490Y663872D01*
X334453Y663649D01*
X334397Y663464D01*
X334342Y663316D01*
X334286Y663186D01*
X334230Y663075D01*
X334193Y663020D01*
X334175Y663001D01*
X334045Y662853D01*
X333879Y662705D01*
X333712Y662594D01*
X333564Y662520D01*
X333416Y662446D01*
X333304Y662390D01*
X333231Y662372D01*
X333193Y662353D01*
X332990Y662316D01*
X332730Y662279D01*
X332471Y662261D01*
X332212Y662242D01*
X331971Y662224D01*
X328824D01*
Y666075D01*
X331860D01*
X332268Y666038D01*
D02*
G37*
G36*
X332582Y660668D02*
X332897Y660631D01*
X333156Y660594D01*
X333360Y660557D01*
X333527Y660520D01*
X333601Y660502D01*
X333638Y660483D01*
X333879Y660390D01*
X334082Y660279D01*
X334267Y660150D01*
X334416Y660020D01*
X334527Y659909D01*
X334601Y659817D01*
X334656Y659742D01*
X334675Y659724D01*
X334804Y659520D01*
X334897Y659317D01*
X334971Y659113D01*
X335008Y658928D01*
X335045Y658761D01*
X335064Y658613D01*
Y658539D01*
Y658502D01*
X335045Y658280D01*
X335027Y658057D01*
X334990Y657872D01*
X334934Y657724D01*
X334879Y657595D01*
X334841Y657483D01*
X334823Y657428D01*
X334804Y657409D01*
X334693Y657243D01*
X334601Y657095D01*
X334471Y656983D01*
X334379Y656872D01*
X334286Y656798D01*
X334212Y656743D01*
X334156Y656706D01*
X334138Y656687D01*
X333823Y656539D01*
X333508Y656428D01*
X333379Y656391D01*
X333268Y656372D01*
X333193Y656354D01*
X333175D01*
X333027Y656335D01*
X332860Y656317D01*
X332471Y656298D01*
X328824D01*
Y660705D01*
X332193D01*
X332582Y660668D01*
D02*
G37*
%LPC*%
G36*
X239929Y664835D02*
D01*
D01*
D01*
D02*
G37*
G36*
X252039Y668038D02*
Y658594D01*
X252020Y658965D01*
X251965Y659317D01*
X251872Y659631D01*
X251780Y659891D01*
X251669Y660113D01*
X251595Y660279D01*
X251521Y660372D01*
X251502Y660409D01*
X251280Y660687D01*
X251021Y660946D01*
X250743Y661168D01*
X250465Y661372D01*
X250224Y661520D01*
X250021Y661631D01*
X249947Y661668D01*
X249891Y661705D01*
X249854Y661724D01*
X249835D01*
X249687Y661798D01*
X249502Y661853D01*
X249298Y661927D01*
X249076Y662001D01*
X248613Y662131D01*
X248132Y662261D01*
X247910Y662316D01*
X247706Y662372D01*
X247502Y662427D01*
X247336Y662464D01*
X247206Y662501D01*
X247095Y662520D01*
X247021Y662539D01*
X247003D01*
X246632Y662631D01*
X246299Y662705D01*
X246003Y662798D01*
X245743Y662872D01*
X245503Y662964D01*
X245299Y663038D01*
X245114Y663112D01*
X244947Y663168D01*
X244818Y663242D01*
X244706Y663298D01*
X244632Y663335D01*
X244558Y663390D01*
X244466Y663446D01*
X244447Y663464D01*
X244280Y663649D01*
X244169Y663835D01*
X244077Y664020D01*
X244021Y664205D01*
X243984Y664353D01*
X243966Y664483D01*
Y664557D01*
Y664594D01*
X244003Y664890D01*
X244077Y665149D01*
X244188Y665371D01*
X244318Y665575D01*
X244429Y665723D01*
X244540Y665853D01*
X244614Y665927D01*
X244651Y665946D01*
X244799Y666038D01*
X244947Y666131D01*
X245299Y666279D01*
X245669Y666371D01*
X246040Y666445D01*
X246373Y666482D01*
X246521Y666501D01*
X246632Y666519D01*
X246891D01*
X247410Y666501D01*
X247873Y666427D01*
X248243Y666316D01*
X248558Y666205D01*
X248799Y666094D01*
X248984Y665983D01*
X249076Y665909D01*
X249113Y665890D01*
X249373Y665631D01*
X249576Y665353D01*
X249743Y665057D01*
X249854Y664760D01*
X249928Y664483D01*
X249984Y664279D01*
X250002Y664186D01*
X250021Y664131D01*
Y664094D01*
Y664075D01*
X251650Y664205D01*
X251613Y664612D01*
X251521Y664983D01*
X251428Y665334D01*
X251298Y665631D01*
X251187Y665871D01*
X251095Y666057D01*
X251058Y666112D01*
X251021Y666168D01*
X251002Y666186D01*
Y666205D01*
X250761Y666519D01*
X250502Y666797D01*
X250224Y667038D01*
X249947Y667223D01*
X249706Y667390D01*
X249521Y667482D01*
X249447Y667519D01*
X249391Y667557D01*
X249354Y667575D01*
X249336D01*
X248928Y667723D01*
X248484Y667834D01*
X248076Y667927D01*
X247688Y667982D01*
X247336Y668019D01*
X247206D01*
X247076Y668038D01*
X252039D01*
X241855D01*
D01*
X246836D01*
X246354Y668019D01*
X245928Y667964D01*
X245521Y667890D01*
X245169Y667816D01*
X244892Y667742D01*
X244762Y667705D01*
X244669Y667667D01*
X244595Y667630D01*
X244540Y667612D01*
X244503Y667594D01*
X244484D01*
X244114Y667408D01*
X243781Y667205D01*
X243503Y666982D01*
X243281Y666779D01*
X243114Y666594D01*
X242984Y666445D01*
X242892Y666334D01*
X242873Y666316D01*
Y666297D01*
X242688Y665983D01*
X242558Y665668D01*
X242466Y665353D01*
X242410Y665075D01*
X242373Y664835D01*
X242336Y664649D01*
Y664575D01*
Y664520D01*
Y664501D01*
Y664483D01*
X242355Y664168D01*
X242410Y663872D01*
X242484Y663594D01*
X242558Y663353D01*
X242633Y663168D01*
X242707Y663020D01*
X242762Y662927D01*
X242781Y662890D01*
X242966Y662631D01*
X243188Y662390D01*
X243410Y662187D01*
X243633Y662020D01*
X243818Y661872D01*
X243984Y661779D01*
X244095Y661705D01*
X244114Y661687D01*
X244132D01*
X244280Y661613D01*
X244447Y661539D01*
X244818Y661409D01*
X245243Y661279D01*
X245651Y661150D01*
X246021Y661039D01*
X246188Y661002D01*
X246336Y660965D01*
X246447Y660928D01*
X246540Y660909D01*
X246595Y660891D01*
X246614D01*
X246928Y660816D01*
X247225Y660742D01*
X247484Y660668D01*
X247706Y660613D01*
X247928Y660557D01*
X248113Y660502D01*
X248280Y660465D01*
X248410Y660409D01*
X248539Y660372D01*
X248632Y660353D01*
X248780Y660298D01*
X248873Y660279D01*
X248891Y660261D01*
X249169Y660150D01*
X249410Y660020D01*
X249613Y659891D01*
X249762Y659780D01*
X249891Y659668D01*
X249965Y659594D01*
X250021Y659539D01*
X250039Y659520D01*
X250169Y659354D01*
X250261Y659168D01*
X250317Y658983D01*
X250373Y658835D01*
X250391Y658687D01*
X250410Y658576D01*
Y658483D01*
Y658465D01*
X250391Y658243D01*
X250354Y658039D01*
X250298Y657854D01*
X250224Y657706D01*
X250150Y657558D01*
X250095Y657465D01*
X250058Y657391D01*
X250039Y657372D01*
X249891Y657187D01*
X249706Y657039D01*
X249521Y656909D01*
X249354Y656780D01*
X249187Y656706D01*
X249058Y656632D01*
X248965Y656595D01*
X248928Y656576D01*
X248650Y656484D01*
X248354Y656410D01*
X248058Y656372D01*
X247799Y656335D01*
X247577Y656317D01*
X247391Y656298D01*
X247225D01*
X246817Y656317D01*
X246447Y656354D01*
X246114Y656410D01*
X245817Y656484D01*
X245577Y656558D01*
X245392Y656613D01*
X245336Y656632D01*
X245280Y656650D01*
X245262Y656669D01*
X245243D01*
X244947Y656817D01*
X244669Y656983D01*
X244466Y657150D01*
X244280Y657317D01*
X244132Y657446D01*
X244040Y657576D01*
X243984Y657650D01*
X243966Y657669D01*
X243836Y657909D01*
X243706Y658168D01*
X243633Y658446D01*
X243558Y658687D01*
X243503Y658928D01*
X243466Y659094D01*
Y659168D01*
X243447Y659224D01*
Y659242D01*
Y659261D01*
X241855Y659113D01*
D01*
X241892Y658650D01*
X241966Y658206D01*
X242077Y657817D01*
X242207Y657465D01*
X242336Y657187D01*
X242392Y657076D01*
X242429Y656983D01*
X242484Y656909D01*
X242503Y656854D01*
X242540Y656817D01*
Y656798D01*
X242818Y656447D01*
X243114Y656132D01*
X243429Y655872D01*
X243725Y655650D01*
X243984Y655484D01*
X244207Y655372D01*
X244280Y655335D01*
X244336Y655298D01*
X244373Y655280D01*
X244392D01*
X244855Y655113D01*
X245336Y654984D01*
X245817Y654910D01*
X246280Y654836D01*
X246502Y654817D01*
X246688Y654799D01*
X246854D01*
X247003Y654780D01*
X247299D01*
X247799Y654799D01*
X248262Y654854D01*
X248687Y654947D01*
X249039Y655039D01*
X249336Y655113D01*
X249465Y655169D01*
X249576Y655206D01*
X249650Y655243D01*
X249706Y655261D01*
X249743Y655280D01*
X249762D01*
X250150Y655484D01*
X250484Y655706D01*
X250780Y655947D01*
X251021Y656169D01*
X251206Y656354D01*
X251335Y656521D01*
X251428Y656632D01*
X251446Y656650D01*
Y656669D01*
X251650Y657020D01*
X251798Y657354D01*
X251891Y657669D01*
X251965Y657965D01*
X252002Y658224D01*
X252039Y658428D01*
Y655243D01*
Y668038D01*
D02*
G37*
G36*
X239929D02*
X228060D01*
D01*
X234115D01*
X233782Y668001D01*
X233134Y667908D01*
X232837Y667853D01*
X232560Y667779D01*
X232300Y667723D01*
X232060Y667649D01*
X231837Y667575D01*
X231652Y667501D01*
X231486Y667427D01*
X231337Y667371D01*
X231226Y667316D01*
X231152Y667279D01*
X231097Y667260D01*
X231078Y667242D01*
X230819Y667075D01*
X230560Y666908D01*
X230115Y666519D01*
X229727Y666131D01*
X229412Y665723D01*
X229153Y665371D01*
X229060Y665223D01*
X228986Y665075D01*
X228912Y664964D01*
X228875Y664890D01*
X228856Y664835D01*
X228838Y664816D01*
X228578Y664205D01*
X228393Y663594D01*
X228245Y663001D01*
X228208Y662724D01*
X228153Y662464D01*
X228134Y662224D01*
X228097Y662020D01*
X228078Y661816D01*
Y661650D01*
X228060Y661520D01*
Y661335D01*
X228097Y660650D01*
X228190Y660002D01*
X228245Y659705D01*
X228301Y659428D01*
X228375Y659150D01*
X228449Y658909D01*
X228523Y658687D01*
X228597Y658502D01*
X228652Y658317D01*
X228708Y658187D01*
X228764Y658057D01*
X228801Y657983D01*
X228838Y657928D01*
Y657909D01*
X229171Y657372D01*
X229541Y656909D01*
X229930Y656502D01*
X230301Y656169D01*
X230652Y655910D01*
X230782Y655817D01*
X230912Y655724D01*
X231023Y655669D01*
X231097Y655613D01*
X231152Y655595D01*
X231171Y655576D01*
X231467Y655428D01*
X231763Y655317D01*
X232356Y655113D01*
X232930Y654984D01*
X233467Y654873D01*
X233708Y654854D01*
X233930Y654817D01*
X234133Y654799D01*
X234300D01*
X234430Y654780D01*
X234615D01*
D01*
X239929D01*
Y654817D01*
Y654780D01*
X234615D01*
X235133Y654799D01*
X235633Y654854D01*
X236096Y654947D01*
X236504Y655039D01*
X236670Y655076D01*
X236837Y655113D01*
X236985Y655169D01*
X237115Y655206D01*
X237207Y655243D01*
X237281Y655261D01*
X237318Y655280D01*
X237337D01*
X237837Y655484D01*
X238300Y655724D01*
X238744Y655984D01*
X239133Y656224D01*
X239300Y656335D01*
X239466Y656447D01*
X239596Y656539D01*
X239707Y656613D01*
X239799Y656687D01*
X239874Y656743D01*
X239911Y656761D01*
X239929Y656780D01*
Y654817D01*
Y661539D01*
X234485D01*
Y660020D01*
X238263D01*
Y657613D01*
X238040Y657428D01*
X237781Y657261D01*
X237504Y657113D01*
X237244Y656983D01*
X237022Y656872D01*
X236818Y656780D01*
X236744Y656743D01*
X236707Y656724D01*
X236670Y656706D01*
X236652D01*
X236263Y656576D01*
X235874Y656465D01*
X235522Y656391D01*
X235189Y656354D01*
X234911Y656317D01*
X234800D01*
X234689Y656298D01*
X234504D01*
X234041Y656317D01*
X233596Y656391D01*
X233189Y656484D01*
X232819Y656576D01*
X232523Y656687D01*
X232393Y656724D01*
X232300Y656761D01*
X232208Y656798D01*
X232152Y656835D01*
X232115Y656854D01*
X232097D01*
X231708Y657095D01*
X231356Y657354D01*
X231060Y657632D01*
X230819Y657909D01*
X230615Y658168D01*
X230486Y658372D01*
X230430Y658446D01*
X230412Y658502D01*
X230375Y658539D01*
Y658557D01*
X230189Y659020D01*
X230041Y659502D01*
X229949Y659983D01*
X229875Y660446D01*
X229856Y660650D01*
X229838Y660835D01*
X229819Y661020D01*
Y661168D01*
X229801Y661279D01*
Y661372D01*
Y661428D01*
Y661446D01*
X229819Y661964D01*
X229875Y662427D01*
X229949Y662872D01*
X230041Y663261D01*
X230078Y663427D01*
X230134Y663575D01*
X230171Y663705D01*
X230208Y663816D01*
X230245Y663909D01*
X230264Y663964D01*
X230282Y664001D01*
Y664020D01*
X230412Y664279D01*
X230541Y664520D01*
X230671Y664742D01*
X230800Y664927D01*
X230912Y665075D01*
X231004Y665205D01*
X231078Y665279D01*
X231097Y665297D01*
X231300Y665501D01*
X231523Y665686D01*
X231763Y665834D01*
X231985Y665983D01*
X232171Y666075D01*
X232319Y666168D01*
X232430Y666205D01*
X232467Y666223D01*
X232800Y666353D01*
X233134Y666445D01*
X233485Y666501D01*
X233800Y666557D01*
X234078Y666575D01*
X234189D01*
X234282Y666594D01*
X234485D01*
X234837Y666575D01*
X235170Y666538D01*
X235467Y666482D01*
X235726Y666427D01*
X235948Y666353D01*
X236115Y666297D01*
X236207Y666260D01*
X236244Y666242D01*
X236522Y666112D01*
X236763Y665964D01*
X236985Y665816D01*
X237152Y665668D01*
X237281Y665538D01*
X237392Y665446D01*
X237448Y665371D01*
X237466Y665353D01*
X237633Y665131D01*
X237763Y664872D01*
X237892Y664631D01*
X238003Y664372D01*
X238078Y664149D01*
X238133Y663983D01*
X238151Y663909D01*
X238170Y663853D01*
X238189Y663835D01*
Y663816D01*
X239725Y664223D01*
X239596Y664686D01*
X239429Y665094D01*
X239263Y665464D01*
X239114Y665760D01*
X238966Y666001D01*
X238855Y666168D01*
X238781Y666279D01*
X238744Y666316D01*
X238485Y666612D01*
X238207Y666853D01*
X237911Y667075D01*
X237633Y667260D01*
X237374Y667390D01*
X237170Y667501D01*
X237096Y667538D01*
X237041Y667557D01*
X237003Y667575D01*
X236985D01*
X236559Y667723D01*
X236115Y667834D01*
X235707Y667927D01*
X235319Y667982D01*
X234967Y668019D01*
X234819D01*
X234708Y668038D01*
X239929D01*
D02*
G37*
G36*
Y661927D02*
Y661872D01*
D01*
Y661927D01*
D02*
G37*
G36*
X266537Y667816D02*
X254317D01*
Y655002D01*
X255946D01*
Y665909D01*
X259649Y655002D01*
X261168D01*
X264908Y665723D01*
Y655002D01*
X266537D01*
Y667816D01*
D02*
G37*
%LPD*%
G36*
X261186Y658891D02*
X261019Y658409D01*
X260890Y658002D01*
X260760Y657650D01*
X260668Y657354D01*
X260594Y657132D01*
X260538Y656965D01*
X260520Y656872D01*
X260501Y656835D01*
X260427Y657095D01*
X260334Y657391D01*
X260223Y657706D01*
X260131Y658020D01*
X260038Y658298D01*
X259964Y658520D01*
X259927Y658613D01*
X259909Y658669D01*
X259890Y658706D01*
Y658724D01*
X256853Y667816D01*
X264260D01*
X261186Y658891D01*
D02*
G37*
%LPC*%
G36*
X101884Y665316D02*
Y661835D01*
D01*
Y665316D01*
D02*
G37*
G36*
X110272Y667594D02*
X103124D01*
Y657854D01*
X108698D01*
Y654780D01*
X112012D01*
Y657854D01*
Y654780D01*
X110272D01*
Y657854D01*
X112012D01*
D01*
D01*
Y659298D01*
X110272D01*
Y667594D01*
D02*
G37*
G36*
X101884Y665316D02*
X93440D01*
X96921D01*
Y661835D01*
X93440D01*
Y660372D01*
X96921D01*
Y656854D01*
X98402D01*
Y660372D01*
X101884D01*
Y661835D01*
X98402D01*
Y665316D01*
X101884D01*
D02*
G37*
G36*
X124677Y667594D02*
X122956D01*
X119474Y658280D01*
X119326Y657891D01*
X119197Y657521D01*
X119086Y657169D01*
X118993Y656854D01*
X118900Y656576D01*
X118845Y656372D01*
X118826Y656298D01*
X118808Y656243D01*
X118789Y656206D01*
Y656187D01*
X118567Y656928D01*
X118456Y657280D01*
X118345Y657595D01*
X118252Y657872D01*
X118215Y657983D01*
X118197Y658094D01*
X118160Y658168D01*
X118141Y658224D01*
X118123Y658261D01*
Y658280D01*
X114790Y667594D01*
X112938D01*
X117900Y654780D01*
X112938D01*
X119678D01*
X124677Y667594D01*
D02*
G37*
%LPD*%
G36*
X108698Y659298D02*
X104661D01*
X108698Y665038D01*
Y659298D01*
D02*
G37*
G36*
X103124D02*
Y667594D01*
X108994D01*
X103124Y659298D01*
D02*
G37*
%LPC*%
G36*
X59540Y667594D02*
X57911D01*
Y657521D01*
X51189Y667594D01*
X49449D01*
Y654780D01*
X59540D01*
Y667594D01*
D02*
G37*
G36*
X42950D02*
X41227D01*
X37746Y658280D01*
X37598Y657891D01*
X37469Y657521D01*
X37357Y657169D01*
X37265Y656854D01*
X37172Y656576D01*
X37117Y656372D01*
X37098Y656298D01*
X37080Y656243D01*
X37061Y656206D01*
Y656187D01*
X36839Y656928D01*
X36728Y657280D01*
X36617Y657595D01*
X36524Y657872D01*
X36487Y657983D01*
X36469Y658094D01*
X36432Y658168D01*
X36413Y658224D01*
X36395Y658261D01*
Y658280D01*
X33062Y667594D01*
X31210D01*
X36172Y654780D01*
X31210D01*
X37950D01*
X42950Y667594D01*
D02*
G37*
G36*
X46468D02*
X44764D01*
Y654780D01*
X46468D01*
Y667594D01*
D02*
G37*
%LPD*%
G36*
X57781Y654780D02*
X51078D01*
Y664835D01*
X57781Y654780D01*
D02*
G37*
D10*
X241180Y194420D02*
G03*
X241180Y194420I-1250J0D01*
G01*
X160000Y143120D02*
G03*
X160000Y143120I-1250J0D01*
G01*
X469660Y568620D02*
G03*
X469660Y568620I-1250J0D01*
G01*
X409970Y567350D02*
G03*
X409970Y567350I-1250J0D01*
G01*
X47210Y195250D02*
G03*
X47210Y195250I-1250J0D01*
G01*
X143390Y353340D02*
G03*
X143390Y353340I-1250J0D01*
G01*
D11*
X262410Y330708D02*
G03*
X262410Y330708I-30000J0D01*
G01*
D12*
X44069Y478633D02*
G03*
X53226Y468390I-1151J-10244D01*
G01*
X379730Y3810D02*
X405130Y29210D01*
X11430D02*
X36830Y3810D01*
X506730Y29210D02*
X530765Y53245D01*
X1365Y29210D02*
X11430D01*
X36830Y3810D02*
X379730D01*
X405130Y29210D02*
X506730D01*
D13*
X225093Y575400D02*
G03*
X225093Y575400I-7353J0D01*
G01*
X310399D02*
G03*
X310399Y575400I-7159J0D01*
G01*
X111960Y226070D02*
G03*
X111960Y226070I-500J0D01*
G01*
X235240Y575650D02*
G03*
X235240Y575650I-17500J0D01*
G01*
X320990D02*
G03*
X320990Y575650I-17500J0D01*
G01*
D14*
X378190Y216020D02*
G03*
X378190Y216020I-1000J0D01*
G01*
X419950Y87350D02*
Y90350D01*
X458173Y87350D02*
Y90350D01*
X443470Y115540D02*
X473470D01*
X255430Y141370D02*
Y191370D01*
X443470Y194340D02*
X473470D01*
X430950Y87350D02*
X430950Y90350D01*
X443470Y115540D02*
Y194340D01*
X450062Y87350D02*
Y90350D01*
X439062Y87350D02*
Y90350D01*
X469173Y87350D02*
X469173Y90350D01*
X275430Y141370D02*
Y191370D01*
X439180Y115540D02*
Y194340D01*
X473470Y115540D02*
Y194340D01*
X101110Y436990D02*
X135110D01*
X409180Y194340D02*
X439180D01*
X409180Y115540D02*
X439180D01*
X255430Y191370D02*
X275430D01*
X409180Y115540D02*
Y194340D01*
X255430Y141370D02*
X275430D01*
X11430Y367380D02*
Y376840D01*
X494030Y189580D02*
Y199040D01*
Y164180D02*
Y173640D01*
X519430Y241926D02*
Y245110D01*
Y214980D02*
Y222894D01*
Y189580D02*
Y199040D01*
X494030Y138780D02*
Y148240D01*
Y113380D02*
Y122840D01*
X11430Y219710D02*
X36830D01*
X11430Y419726D02*
Y422910D01*
Y39370D02*
X36830D01*
X494030Y241926D02*
Y245110D01*
Y214980D02*
Y222894D01*
X519430Y113380D02*
Y122840D01*
X11430Y265780D02*
Y275240D01*
Y240380D02*
Y249840D01*
Y219710D02*
Y224440D01*
X494030Y245110D02*
X519430D01*
Y164180D02*
Y173640D01*
Y138780D02*
Y148240D01*
X11430Y341980D02*
Y351440D01*
Y316580D02*
Y326040D01*
Y291180D02*
Y300640D01*
X101110Y418990D02*
X135110D01*
X101110Y412860D02*
X135110D01*
X72640Y353340D02*
X135640D01*
X101110Y394860D02*
X135110D01*
X122110Y412360D02*
X135110D01*
X72640Y388340D02*
X135640D01*
X122110Y395360D02*
X135110D01*
X46460Y203750D02*
Y217250D01*
X112140Y353340D02*
Y388340D01*
X494030Y408020D02*
Y417480D01*
X11430Y136240D02*
Y145700D01*
Y191770D02*
X36830D01*
X494030Y331820D02*
Y341280D01*
Y458820D02*
Y468280D01*
Y433420D02*
Y442880D01*
X36830Y188586D02*
Y191770D01*
X11430Y422910D02*
X36830D01*
Y136240D02*
Y145700D01*
Y39370D02*
Y44100D01*
Y161640D02*
Y169554D01*
X471410Y579120D02*
Y586120D01*
X494030Y357220D02*
Y366680D01*
X364880Y614870D02*
Y627870D01*
X11430Y39370D02*
Y44100D01*
X381880Y614870D02*
Y627870D01*
X382380Y593870D02*
Y627870D01*
X122110Y419490D02*
X135110D01*
X494030Y514350D02*
X519430D01*
X11430Y60040D02*
Y69500D01*
X494030Y484220D02*
Y492134D01*
Y382620D02*
Y392080D01*
Y511166D02*
Y514350D01*
X11430Y110840D02*
Y120300D01*
Y85440D02*
Y94900D01*
Y188586D02*
Y191770D01*
X219360Y3000D02*
Y13940D01*
X361062Y36830D02*
Y87630D01*
X337400Y36830D02*
Y87630D01*
X309360Y3000D02*
Y13940D01*
X444500Y514580D02*
X469900D01*
Y435380D02*
Y514580D01*
X444500Y435380D02*
X469900D01*
X309360Y39956D02*
Y54924D01*
X219360Y39956D02*
Y54924D01*
X444500Y435380D02*
Y514580D01*
X318960Y112640D02*
X331960D01*
X36830Y60040D02*
Y69500D01*
X11430Y161640D02*
Y169554D01*
X36830Y110840D02*
Y120300D01*
Y85440D02*
Y94900D01*
X297960Y95140D02*
X331960D01*
X318960Y95640D02*
X331960D01*
X297960Y113140D02*
X331960D01*
X364380Y593870D02*
Y627870D01*
X411720Y577850D02*
Y584850D01*
X109970Y59740D02*
Y68740D01*
X441720Y577850D02*
Y584850D01*
X433720D02*
X441720D01*
X171970Y59740D02*
Y68740D01*
X494030Y41910D02*
X519430D01*
X109970Y97740D02*
X171970D01*
X115460Y195320D02*
X133460D01*
X171970Y88740D02*
Y97740D01*
X519430Y62580D02*
Y72040D01*
Y41910D02*
Y46640D01*
X494030Y41910D02*
Y46640D01*
X519430Y87980D02*
Y97440D01*
X493410Y586120D02*
X501410D01*
X11430Y392780D02*
Y400694D01*
X494030Y87980D02*
Y97440D01*
Y62580D02*
Y72040D01*
X169250Y140120D02*
X176250D01*
X501410Y579120D02*
Y586120D01*
X169250Y110120D02*
X176250D01*
Y132120D02*
Y140120D01*
X411720Y584850D02*
X419720D01*
X471410Y586120D02*
X479410D01*
X176250Y110120D02*
Y118120D01*
X36830Y240380D02*
Y249840D01*
Y291180D02*
Y300640D01*
Y265780D02*
Y275240D01*
X122110Y436490D02*
X135110D01*
X115460Y226320D02*
X133460D01*
X494030Y311150D02*
Y315880D01*
X36830Y392780D02*
Y400694D01*
X109970Y59740D02*
X171970D01*
X109970Y88740D02*
Y97740D01*
X36830Y367380D02*
Y376840D01*
Y419726D02*
Y422910D01*
Y316580D02*
Y326040D01*
Y219710D02*
Y224440D01*
Y341980D02*
Y351440D01*
X88050Y616400D02*
X88050Y619400D01*
X14820Y616400D02*
Y619400D01*
X25820Y616400D02*
X25820Y619400D01*
X77050Y616400D02*
Y619400D01*
X30110Y454790D02*
Y552790D01*
X170180Y153520D02*
X170180Y166520D01*
X451700Y578210D02*
Y581210D01*
X425860Y551600D02*
X428860D01*
X399490Y305520D02*
Y348020D01*
X385790D02*
X399490D01*
Y226020D02*
Y268520D01*
X180740Y454400D02*
Y483884D01*
X81070Y270070D02*
X83554D01*
X494030Y260350D02*
Y265080D01*
X147586Y342070D02*
X150070D01*
X304090Y348020D02*
X317790D01*
X385790Y226020D02*
X399490D01*
X494030Y281020D02*
Y290480D01*
X180740Y612400D02*
X197724D01*
X180740Y582916D02*
Y612400D01*
X74610Y454790D02*
Y552790D01*
X494030Y260350D02*
X519430D01*
X494030Y306420D02*
Y311150D01*
X340756Y454400D02*
X357740D01*
X304090Y305520D02*
Y348020D01*
Y226020D02*
Y268520D01*
Y226020D02*
X317790D01*
X480910Y616400D02*
Y619400D01*
X491910Y616400D02*
Y619400D01*
X425860Y540600D02*
X428860Y540600D01*
X462700Y578210D02*
Y581210D01*
X486820Y540600D02*
X489820Y540600D01*
X421220Y616400D02*
Y619400D01*
X432220Y616400D02*
Y619400D01*
X403010Y578210D02*
Y581210D01*
X392010Y578210D02*
X392010Y581210D01*
X486820Y551600D02*
X489820D01*
X442150Y284090D02*
X455150D01*
X45960Y203750D02*
Y240750D01*
X75960Y203750D02*
Y240750D01*
X75460Y203750D02*
Y217250D01*
X132930Y126640D02*
X132930Y123640D01*
X519430Y306420D02*
Y311150D01*
Y281020D02*
Y290480D01*
Y331820D02*
Y341280D01*
Y458820D02*
Y468280D01*
Y357220D02*
Y366680D01*
X37410Y476590D02*
X48510Y459890D01*
X519430Y311150D02*
Y315880D01*
X421150Y266590D02*
X455150D01*
X155330Y445960D02*
Y458960D01*
X172830Y424960D02*
Y458960D01*
X442150Y267090D02*
X455150D01*
X519430Y484220D02*
Y492134D01*
X150070Y270070D02*
Y342070D01*
X340756Y612400D02*
X357740D01*
Y582916D02*
Y612400D01*
X81070Y342070D02*
X83554D01*
X81070Y270070D02*
Y342070D01*
X147586Y270070D02*
X150070D01*
X357740Y454400D02*
Y483884D01*
X519430Y408020D02*
Y417480D01*
Y382620D02*
Y392080D01*
Y511166D02*
Y514350D01*
X180740Y454400D02*
X197724D01*
X519430Y260350D02*
Y265080D01*
Y433420D02*
Y442880D01*
X154830Y424960D02*
Y458960D01*
X107080Y141390D02*
X110080D01*
X107080Y130390D02*
X110080D01*
X143930Y123640D02*
Y126640D01*
X165510Y179920D02*
X168510Y179920D01*
X173570Y251820D02*
Y254820D01*
X184570Y251820D02*
Y254820D01*
X172300Y213720D02*
X172300Y216720D01*
X421150Y284590D02*
X455150D01*
X165510Y190920D02*
X168510D01*
X183300Y216720D02*
X183300Y213720D01*
X172330Y445960D02*
Y458960D01*
X34801Y537493D02*
X33848Y537017D01*
X32896Y536065D01*
X32420Y535113D01*
Y533209D01*
X32896Y532256D01*
X33848Y531304D01*
X34801Y530828D01*
X36229Y530352D01*
X38609D01*
X40038Y530828D01*
X40990Y531304D01*
X41942Y532256D01*
X42418Y533209D01*
Y535113D01*
X41942Y536065D01*
X40990Y537017D01*
X40038Y537493D01*
X32420Y540302D02*
X42418Y542683D01*
X32420Y545063D02*
X42418Y542683D01*
X32420Y545063D02*
X42418Y547444D01*
X32420Y549824D02*
X42418Y547444D01*
D15*
X204541Y478900D02*
G03*
X204541Y478900I-4301J0D01*
G01*
X332740Y158750D02*
Y195580D01*
X30110Y552790D02*
X78610D01*
X370840Y158750D02*
X372110Y160020D01*
X346710Y209550D02*
X372110D01*
X332740Y158750D02*
X370840D01*
X372110Y160020D02*
Y209550D01*
X332740Y195580D02*
X346710Y209550D01*
X30110Y454790D02*
X78610D01*
D16*
X225938Y218550D02*
X262334D01*
X17780Y664210D02*
X22860D01*
X11320Y661670D02*
X29320D01*
X429260Y641350D02*
X435720D01*
X225679Y200550D02*
Y204550D01*
Y200550D02*
X262490D01*
X243840D02*
Y218550D01*
X11320Y642620D02*
X17780D01*
X262490Y200550D02*
Y204550D01*
X417720Y641350D02*
X424180D01*
X435720Y642620D02*
Y681990D01*
X433720D02*
X435720D01*
X488950Y641350D02*
X495410D01*
X417720Y642620D02*
X424180D01*
X20320Y659130D02*
Y661670D01*
X29320Y642620D02*
Y681990D01*
X73550Y642620D02*
X80010D01*
X426720Y661670D02*
X429260Y664210D01*
Y642620D02*
X435720D01*
X82550Y659130D02*
Y661670D01*
X73550D02*
X91550D01*
X417720Y681990D02*
X419720D01*
X424180Y664210D02*
X426720Y661670D01*
X417720Y642620D02*
Y681990D01*
Y661670D02*
X435720D01*
X17780Y664210D02*
X20320Y661670D01*
X89550Y681990D02*
X91550D01*
X73550Y642620D02*
Y681990D01*
X80010Y664210D02*
X82550Y661670D01*
X400160Y365046D02*
Y401442D01*
X91550Y642620D02*
Y681990D01*
X82550Y661670D02*
X85090Y664210D01*
X11320Y642620D02*
Y681990D01*
X13320D01*
X85090Y642620D02*
X91550D01*
X80010Y664210D02*
X85090D01*
X73550Y681990D02*
X75550D01*
X27320Y681990D02*
X29320D01*
X424180Y664210D02*
X429260D01*
X22860Y641350D02*
X29320D01*
X486410Y661670D02*
X488950Y664210D01*
X208390Y196136D02*
Y232532D01*
X20320Y661670D02*
X22860Y664210D01*
X190390Y195980D02*
X194390D01*
X11320Y641350D02*
X17780D01*
X477410Y642620D02*
Y681990D01*
X190390Y214630D02*
X208390D01*
X190390Y195980D02*
Y232791D01*
X426720Y659130D02*
Y661670D01*
X22860Y642620D02*
X29320D01*
X190390Y232791D02*
X194390D01*
X486410Y659130D02*
Y661670D01*
X493410Y681990D02*
X495410D01*
X477410Y642620D02*
X483870D01*
X477410Y661670D02*
X495410D01*
X483870Y664210D02*
X488950D01*
X481676Y572120D02*
X491144D01*
X307340Y118000D02*
Y136000D01*
X289179Y118000D02*
Y122000D01*
Y118000D02*
X325990D01*
X289438Y136000D02*
X325835D01*
X325990Y118000D02*
Y122000D01*
X162250Y120386D02*
Y129854D01*
X495410Y642620D02*
Y681990D01*
X483870Y664210D02*
X486410Y661670D01*
X488950Y642620D02*
X495410D01*
X477410Y641350D02*
X483870D01*
X477410Y681990D02*
X479410D01*
X421986Y570850D02*
X431454D01*
X98920Y247270D02*
X101420Y247270D01*
X265830Y368920D02*
Y382920D01*
X279830Y368920D02*
Y371920D01*
X210850Y397700D02*
Y400700D01*
X78920Y199770D02*
X81420Y199770D01*
X78920Y247270D02*
X78920Y199770D01*
X217340Y386700D02*
X245340D01*
X78920Y223520D02*
X101420D01*
X78920Y247270D02*
X81420Y247270D01*
X101420Y199770D02*
Y247270D01*
X251830Y379920D02*
Y382920D01*
Y368920D02*
Y371920D01*
X73550Y641350D02*
X80010D01*
X85090D02*
X91550D01*
X251830Y386700D02*
Y389700D01*
X182850Y386700D02*
Y389700D01*
Y386700D02*
X210850D01*
X196850D02*
Y400700D01*
X182850Y382920D02*
X210850D01*
Y386700D02*
Y389700D01*
X182850Y400700D02*
X210850D01*
X217340D02*
X245340D01*
X217340Y382920D02*
X245340D01*
Y397700D02*
Y400700D01*
X231340Y386700D02*
Y400700D01*
X245340Y379920D02*
Y382920D01*
X217340Y368920D02*
X245340D01*
X217340Y386700D02*
Y389700D01*
X98920Y199770D02*
X101420D01*
X231340Y368920D02*
Y382920D01*
X251830Y397700D02*
Y400700D01*
X245340Y368920D02*
Y371920D01*
X217340Y397700D02*
Y400700D01*
X251830Y382920D02*
X279830D01*
X265830Y386700D02*
Y400700D01*
X251830Y386700D02*
X279830D01*
X251830Y368920D02*
X279830D01*
X210850Y379920D02*
Y382920D01*
X245340Y386700D02*
Y389700D01*
X279830Y397700D02*
Y400700D01*
X251830D02*
X279830D01*
X182850Y397700D02*
Y400700D01*
X217340Y379920D02*
Y382920D01*
Y368920D02*
Y371920D01*
X304910Y365046D02*
Y401442D01*
X286910Y383540D02*
X304910D01*
X286910Y364890D02*
X290910D01*
X419989Y222140D02*
Y226140D01*
X438150Y222140D02*
Y240140D01*
X419989Y243730D02*
Y247730D01*
X286910Y364890D02*
Y401701D01*
X290910D01*
X99440Y467540D02*
Y470040D01*
X456800Y243730D02*
Y247730D01*
X420248Y261730D02*
X456645D01*
X420248Y240140D02*
X456645D01*
X116459Y234840D02*
Y238840D01*
X456800Y222140D02*
Y226140D01*
X419989Y243730D02*
X456800D01*
X438150D02*
Y261730D01*
X116459Y234840D02*
X153270D01*
X419989Y222140D02*
X456800D01*
X153270Y234840D02*
Y238840D01*
X116718Y252840D02*
X153115D01*
X334535Y383540D02*
X352535D01*
X334535Y401701D02*
X338535D01*
X382160Y383540D02*
X400160D01*
X382160Y364890D02*
X386160D01*
X382160Y401701D02*
X386160D01*
X382160Y364890D02*
Y401701D01*
X334535Y364890D02*
Y401701D01*
X146940Y467540D02*
X146940Y470040D01*
X123190Y494210D02*
Y516710D01*
X334535Y364890D02*
X338535D01*
X352535Y365046D02*
Y401442D01*
X134620Y234840D02*
Y252840D01*
X123190Y442140D02*
Y464640D01*
X99440D02*
X146940D01*
Y442140D02*
X146940Y444640D01*
X99440Y442140D02*
Y444640D01*
Y442140D02*
X146940Y442140D01*
X99440Y467540D02*
X146940D01*
X123190Y467540D02*
Y490040D01*
X146940Y487540D02*
Y490040D01*
X99440Y462140D02*
Y464640D01*
X99440Y494210D02*
X146940D01*
X146940Y496710D01*
Y514210D02*
Y516710D01*
X196850Y368920D02*
Y382920D01*
X182850Y368920D02*
X210850D01*
X99440Y496710D02*
X99440Y494210D01*
X99440Y516710D02*
X146940D01*
X182850Y379920D02*
Y382920D01*
X99440Y487540D02*
Y490040D01*
X146940Y464640D02*
X146940Y462140D01*
X99440Y490040D02*
X146940D01*
X210850Y368920D02*
Y371920D01*
X99440Y514210D02*
Y516710D01*
X279830Y379920D02*
Y382920D01*
X182850Y368920D02*
Y371920D01*
X279830Y386700D02*
Y389700D01*
D17*
X287020Y650000D02*
X295355D01*
X287020Y680480D02*
X317500D01*
X287020Y678145D02*
Y680480D01*
X317500Y678145D02*
Y680480D01*
X187960Y680480D02*
X218440D01*
X187960Y650000D02*
X196295D01*
X218440D02*
Y652335D01*
X187960Y650000D02*
Y652335D01*
X218440Y678145D02*
Y680480D01*
X309165Y650000D02*
X317500D01*
X210105Y650000D02*
X218440D01*
X287020Y650000D02*
Y652335D01*
X317500Y650000D02*
Y652335D01*
X187960Y678145D02*
Y680480D01*
D18*
X146050Y397510D02*
Y410210D01*
Y356870D02*
Y384810D01*
X342900Y97790D02*
Y110490D01*
X146050Y421640D02*
Y434340D01*
X367030Y638810D02*
X379730D01*
X466090Y269240D02*
Y281940D01*
X52070Y194310D02*
X69850D01*
X157480Y469900D02*
X170180D01*
D19*
X337400Y87630D02*
X361062D01*
X337400Y36830D02*
X361062D01*
D20*
X140968Y78740D02*
D03*
D21*
X357759Y500761D02*
D03*
M02*
