G04*
G04 #@! TF.GenerationSoftware,Altium Limited,Altium Designer,24.2.2 (26)*
G04*
G04 Layer_Color=32896*
%FSLAX44Y44*%
%MOMM*%
G71*
G04*
G04 #@! TF.SameCoordinates,92E383DB-29FE-4B3A-A1A2-949DC4B90B9B*
G04*
G04*
G04 #@! TF.FilePolarity,Positive*
G04*
G01*
G75*
%ADD10C,0.2500*%
%ADD15C,0.2000*%
%ADD16C,0.1500*%
G36*
X487154Y52877D02*
Y31339D01*
Y11019D01*
X296247D01*
Y31813D01*
X348724D01*
Y52877D01*
Y72440D01*
X487154D01*
Y52877D01*
D02*
G37*
G36*
X66040Y159372D02*
X45671D01*
Y218440D01*
X66040D01*
Y159372D01*
D02*
G37*
%LPC*%
G36*
X377509Y70209D02*
X377324D01*
X377185Y70186D01*
X377023D01*
X376838Y70163D01*
X376399Y70070D01*
X375913Y69954D01*
X375404Y69769D01*
X374895Y69492D01*
X374640Y69330D01*
X374409Y69144D01*
X374385Y69121D01*
X374362Y69098D01*
X374293Y69029D01*
X374224Y68959D01*
X374108Y68844D01*
X374015Y68705D01*
X373761Y68381D01*
X373506Y67964D01*
X373275Y67455D01*
X373067Y66877D01*
X372928Y66229D01*
X374895Y66067D01*
Y66090D01*
X374918Y66113D01*
X374941Y66252D01*
X375010Y66460D01*
X375103Y66715D01*
X375195Y66992D01*
X375334Y67270D01*
X375496Y67525D01*
X375658Y67733D01*
X375704Y67779D01*
X375797Y67872D01*
X375959Y68011D01*
X376190Y68173D01*
X376491Y68311D01*
X376815Y68450D01*
X377209Y68543D01*
X377625Y68589D01*
X377787D01*
X377972Y68566D01*
X378180Y68520D01*
X378458Y68450D01*
X378736Y68358D01*
X379013Y68242D01*
X379291Y68057D01*
X379337Y68034D01*
X379453Y67941D01*
X379615Y67779D01*
X379823Y67548D01*
X380055Y67270D01*
X380309Y66946D01*
X380541Y66530D01*
X380772Y66067D01*
Y66044D01*
X380795Y65998D01*
X380818Y65928D01*
X380864Y65835D01*
X380888Y65697D01*
X380934Y65535D01*
X380980Y65350D01*
X381026Y65118D01*
X381096Y64864D01*
X381142Y64586D01*
X381189Y64285D01*
X381212Y63961D01*
X381258Y63591D01*
X381281Y63221D01*
X381304Y62804D01*
Y62388D01*
X381281Y62411D01*
X381189Y62550D01*
X381026Y62735D01*
X380818Y62966D01*
X380587Y63244D01*
X380286Y63498D01*
X379962Y63753D01*
X379592Y63984D01*
X379569D01*
X379546Y64008D01*
X379407Y64077D01*
X379198Y64146D01*
X378921Y64262D01*
X378597Y64355D01*
X378227Y64424D01*
X377833Y64493D01*
X377417Y64517D01*
X377232D01*
X377093Y64493D01*
X376908Y64470D01*
X376723Y64447D01*
X376491Y64401D01*
X376260Y64331D01*
X375728Y64169D01*
X375450Y64054D01*
X375172Y63892D01*
X374895Y63730D01*
X374594Y63545D01*
X374316Y63313D01*
X374062Y63059D01*
X374038Y63036D01*
X373992Y62989D01*
X373923Y62920D01*
X373853Y62804D01*
X373738Y62642D01*
X373622Y62480D01*
X373506Y62272D01*
X373367Y62041D01*
X373228Y61786D01*
X373113Y61508D01*
X372997Y61185D01*
X372881Y60861D01*
X372812Y60513D01*
X372743Y60120D01*
X372696Y59727D01*
X372673Y59310D01*
Y59056D01*
X372696Y58917D01*
Y58778D01*
X372766Y58408D01*
X372835Y57968D01*
X372951Y57505D01*
X373113Y56996D01*
X373344Y56510D01*
Y56487D01*
X373367Y56464D01*
X373414Y56395D01*
X373460Y56302D01*
X373599Y56071D01*
X373807Y55770D01*
X374062Y55446D01*
X374362Y55122D01*
X374733Y54798D01*
X375126Y54520D01*
X375149D01*
X375172Y54497D01*
X375242Y54451D01*
X375334Y54428D01*
X375566Y54312D01*
X375866Y54196D01*
X376260Y54057D01*
X376699Y53965D01*
X377185Y53872D01*
X377718Y53849D01*
X377833D01*
X377949Y53872D01*
X378134D01*
X378342Y53896D01*
X378574Y53942D01*
X378851Y54011D01*
X379129Y54081D01*
X379453Y54173D01*
X379777Y54289D01*
X380101Y54428D01*
X380448Y54613D01*
X380772Y54821D01*
X381096Y55052D01*
X381420Y55330D01*
X381721Y55654D01*
X381744Y55677D01*
X381790Y55747D01*
X381860Y55839D01*
X381952Y56001D01*
X382091Y56210D01*
X382207Y56441D01*
X382346Y56742D01*
X382484Y57066D01*
X382646Y57459D01*
X382785Y57899D01*
X382901Y58385D01*
X383017Y58917D01*
X383132Y59518D01*
X383202Y60166D01*
X383248Y60861D01*
X383271Y61601D01*
Y61809D01*
X383248Y62041D01*
Y62365D01*
X383225Y62735D01*
X383178Y63174D01*
X383132Y63660D01*
X383063Y64193D01*
X382970Y64725D01*
X382854Y65303D01*
X382716Y65859D01*
X382554Y66414D01*
X382346Y66946D01*
X382114Y67455D01*
X381860Y67941D01*
X381559Y68358D01*
X381536Y68381D01*
X381489Y68427D01*
X381397Y68520D01*
X381281Y68658D01*
X381142Y68797D01*
X380957Y68936D01*
X380726Y69121D01*
X380494Y69283D01*
X380217Y69445D01*
X379916Y69630D01*
X379569Y69769D01*
X379222Y69931D01*
X378828Y70047D01*
X378412Y70139D01*
X377972Y70186D01*
X377509Y70209D01*
D02*
G37*
G36*
X365060D02*
X364875D01*
X364736Y70186D01*
X364574D01*
X364389Y70163D01*
X363950Y70070D01*
X363464Y69954D01*
X362955Y69769D01*
X362446Y69492D01*
X362191Y69330D01*
X361960Y69144D01*
X361936Y69121D01*
X361913Y69098D01*
X361844Y69029D01*
X361774Y68959D01*
X361659Y68844D01*
X361566Y68705D01*
X361312Y68381D01*
X361057Y67964D01*
X360826Y67455D01*
X360618Y66877D01*
X360479Y66229D01*
X362446Y66067D01*
Y66090D01*
X362469Y66113D01*
X362492Y66252D01*
X362561Y66460D01*
X362654Y66715D01*
X362746Y66992D01*
X362885Y67270D01*
X363047Y67525D01*
X363209Y67733D01*
X363256Y67779D01*
X363348Y67872D01*
X363510Y68011D01*
X363741Y68173D01*
X364042Y68311D01*
X364366Y68450D01*
X364759Y68543D01*
X365176Y68589D01*
X365338D01*
X365523Y68566D01*
X365731Y68520D01*
X366009Y68450D01*
X366287Y68358D01*
X366564Y68242D01*
X366842Y68057D01*
X366888Y68034D01*
X367004Y67941D01*
X367166Y67779D01*
X367374Y67548D01*
X367606Y67270D01*
X367860Y66946D01*
X368092Y66530D01*
X368323Y66067D01*
Y66044D01*
X368346Y65998D01*
X368369Y65928D01*
X368415Y65835D01*
X368439Y65697D01*
X368485Y65535D01*
X368531Y65350D01*
X368577Y65118D01*
X368647Y64864D01*
X368693Y64586D01*
X368740Y64285D01*
X368763Y63961D01*
X368809Y63591D01*
X368832Y63221D01*
X368855Y62804D01*
Y62388D01*
X368832Y62411D01*
X368740Y62550D01*
X368577Y62735D01*
X368369Y62966D01*
X368138Y63244D01*
X367837Y63498D01*
X367513Y63753D01*
X367143Y63984D01*
X367120D01*
X367097Y64008D01*
X366958Y64077D01*
X366749Y64146D01*
X366472Y64262D01*
X366148Y64355D01*
X365778Y64424D01*
X365384Y64493D01*
X364968Y64517D01*
X364783D01*
X364644Y64493D01*
X364459Y64470D01*
X364274Y64447D01*
X364042Y64401D01*
X363811Y64331D01*
X363279Y64169D01*
X363001Y64054D01*
X362723Y63892D01*
X362446Y63730D01*
X362145Y63545D01*
X361867Y63313D01*
X361613Y63059D01*
X361589Y63036D01*
X361543Y62989D01*
X361474Y62920D01*
X361404Y62804D01*
X361289Y62642D01*
X361173Y62480D01*
X361057Y62272D01*
X360918Y62041D01*
X360779Y61786D01*
X360664Y61508D01*
X360548Y61185D01*
X360433Y60861D01*
X360363Y60513D01*
X360294Y60120D01*
X360247Y59727D01*
X360224Y59310D01*
Y59056D01*
X360247Y58917D01*
Y58778D01*
X360317Y58408D01*
X360386Y57968D01*
X360502Y57505D01*
X360664Y56996D01*
X360895Y56510D01*
Y56487D01*
X360918Y56464D01*
X360965Y56395D01*
X361011Y56302D01*
X361150Y56071D01*
X361358Y55770D01*
X361613Y55446D01*
X361913Y55122D01*
X362284Y54798D01*
X362677Y54520D01*
X362700D01*
X362723Y54497D01*
X362793Y54451D01*
X362885Y54428D01*
X363117Y54312D01*
X363417Y54196D01*
X363811Y54057D01*
X364250Y53965D01*
X364736Y53872D01*
X365269Y53849D01*
X365384D01*
X365500Y53872D01*
X365685D01*
X365893Y53896D01*
X366125Y53942D01*
X366402Y54011D01*
X366680Y54081D01*
X367004Y54173D01*
X367328Y54289D01*
X367652Y54428D01*
X367999Y54613D01*
X368323Y54821D01*
X368647Y55052D01*
X368971Y55330D01*
X369272Y55654D01*
X369295Y55677D01*
X369341Y55747D01*
X369411Y55839D01*
X369503Y56001D01*
X369642Y56210D01*
X369758Y56441D01*
X369897Y56742D01*
X370035Y57066D01*
X370197Y57459D01*
X370336Y57899D01*
X370452Y58385D01*
X370568Y58917D01*
X370683Y59518D01*
X370753Y60166D01*
X370799Y60861D01*
X370822Y61601D01*
Y61809D01*
X370799Y62041D01*
Y62365D01*
X370776Y62735D01*
X370729Y63174D01*
X370683Y63660D01*
X370614Y64193D01*
X370521Y64725D01*
X370406Y65303D01*
X370267Y65859D01*
X370105Y66414D01*
X369897Y66946D01*
X369665Y67455D01*
X369411Y67941D01*
X369110Y68358D01*
X369087Y68381D01*
X369040Y68427D01*
X368948Y68520D01*
X368832Y68658D01*
X368693Y68797D01*
X368508Y68936D01*
X368277Y69121D01*
X368045Y69283D01*
X367768Y69445D01*
X367467Y69630D01*
X367120Y69769D01*
X366773Y69931D01*
X366379Y70047D01*
X365963Y70139D01*
X365523Y70186D01*
X365060Y70209D01*
D02*
G37*
G36*
X401088Y70139D02*
X397918D01*
X394123Y58778D01*
Y58755D01*
X394100Y58709D01*
X394077Y58639D01*
X394031Y58523D01*
X393938Y58246D01*
X393823Y57899D01*
X393707Y57505D01*
X393568Y57112D01*
X393452Y56742D01*
X393360Y56418D01*
X393337Y56464D01*
X393313Y56580D01*
X393244Y56788D01*
X393152Y57066D01*
X393036Y57436D01*
X392874Y57875D01*
X392712Y58385D01*
X392504Y58986D01*
X388662Y70139D01*
X385816D01*
Y54127D01*
X387853D01*
Y67525D01*
X392527Y54127D01*
X394424D01*
X399052Y67756D01*
Y54127D01*
X401088D01*
Y70139D01*
D02*
G37*
G36*
X428856Y69792D02*
Y65743D01*
X426866D01*
Y64216D01*
X428856D01*
Y57390D01*
Y57343D01*
Y57251D01*
Y57112D01*
X428833Y56950D01*
X428809Y56580D01*
X428786Y56418D01*
X428763Y56302D01*
X428740Y56256D01*
X428671Y56163D01*
X428578Y56048D01*
X428416Y55932D01*
X428370Y55909D01*
X428254Y55862D01*
X428046Y55816D01*
X427745Y55793D01*
X427514D01*
X427398Y55816D01*
X427236D01*
X427051Y55839D01*
X426866Y55862D01*
X426611Y54127D01*
X426657D01*
X426750Y54104D01*
X426912Y54081D01*
X427120Y54057D01*
X427352Y54011D01*
X427606Y53988D01*
X428115Y53965D01*
X428300D01*
X428485Y53988D01*
X428717Y54011D01*
X428994Y54034D01*
X429272Y54104D01*
X429527Y54173D01*
X429781Y54289D01*
X429804Y54312D01*
X429874Y54358D01*
X429966Y54428D01*
X430105Y54543D01*
X430221Y54659D01*
X430360Y54821D01*
X430499Y54983D01*
X430591Y55191D01*
Y55215D01*
X430637Y55307D01*
X430661Y55469D01*
X430707Y55700D01*
X430753Y56001D01*
X430776Y56186D01*
Y56395D01*
X430799Y56649D01*
X430822Y56904D01*
Y57181D01*
Y57505D01*
Y64216D01*
X432280D01*
Y65743D01*
X430822D01*
Y68612D01*
X428856Y69792D01*
D02*
G37*
G36*
X467290Y65743D02*
X465323D01*
Y59287D01*
Y59264D01*
Y59218D01*
Y59148D01*
Y59033D01*
Y58778D01*
X465300Y58454D01*
Y58107D01*
X465277Y57760D01*
X465254Y57459D01*
X465208Y57204D01*
Y57181D01*
X465161Y57089D01*
X465115Y56950D01*
X465046Y56765D01*
X464930Y56580D01*
X464791Y56371D01*
X464629Y56186D01*
X464421Y56001D01*
X464398Y55978D01*
X464305Y55932D01*
X464189Y55862D01*
X464004Y55793D01*
X463796Y55700D01*
X463542Y55631D01*
X463264Y55585D01*
X462940Y55562D01*
X462778D01*
X462616Y55585D01*
X462408Y55608D01*
X462153Y55677D01*
X461876Y55747D01*
X461575Y55862D01*
X461274Y56001D01*
X461228Y56024D01*
X461135Y56094D01*
X460996Y56186D01*
X460834Y56325D01*
X460649Y56510D01*
X460464Y56719D01*
X460302Y56950D01*
X460163Y57228D01*
X460140Y57274D01*
X460117Y57366D01*
X460071Y57552D01*
X460001Y57806D01*
X459932Y58130D01*
X459886Y58523D01*
X459863Y58986D01*
X459839Y59518D01*
Y65743D01*
X457873D01*
Y54127D01*
X459631D01*
Y55816D01*
X459654Y55793D01*
X459701Y55724D01*
X459770Y55631D01*
X459886Y55515D01*
X460024Y55377D01*
X460186Y55191D01*
X460372Y55029D01*
X460603Y54844D01*
X460857Y54659D01*
X461135Y54497D01*
X461436Y54335D01*
X461760Y54173D01*
X462130Y54057D01*
X462500Y53965D01*
X462917Y53896D01*
X463333Y53872D01*
X463495D01*
X463704Y53896D01*
X463958Y53919D01*
X464259Y53965D01*
X464583Y54034D01*
X464907Y54127D01*
X465254Y54266D01*
X465300Y54289D01*
X465393Y54335D01*
X465555Y54428D01*
X465740Y54543D01*
X465971Y54682D01*
X466180Y54844D01*
X466388Y55029D01*
X466573Y55238D01*
X466596Y55261D01*
X466642Y55353D01*
X466712Y55469D01*
X466804Y55654D01*
X466920Y55862D01*
X467012Y56117D01*
X467105Y56395D01*
X467174Y56695D01*
Y56719D01*
X467198Y56811D01*
X467221Y56950D01*
Y57135D01*
X467244Y57413D01*
X467267Y57713D01*
X467290Y58107D01*
Y65743D01*
D02*
G37*
G36*
X450051Y65998D02*
X449820D01*
X449658Y65974D01*
X449473Y65951D01*
X449241Y65905D01*
X448987Y65859D01*
X448686Y65789D01*
X448409Y65720D01*
X448084Y65604D01*
X447784Y65488D01*
X447460Y65326D01*
X447136Y65141D01*
X446812Y64933D01*
X446511Y64679D01*
X446233Y64401D01*
X446210Y64378D01*
X446164Y64331D01*
X446095Y64239D01*
X446002Y64100D01*
X445886Y63938D01*
X445771Y63753D01*
X445632Y63521D01*
X445493Y63244D01*
X445354Y62943D01*
X445215Y62619D01*
X445099Y62249D01*
X444984Y61856D01*
X444891Y61416D01*
X444822Y60953D01*
X444776Y60467D01*
X444752Y59935D01*
Y59657D01*
X444776Y59426D01*
X453453D01*
Y59403D01*
Y59333D01*
X453430Y59241D01*
Y59102D01*
X453407Y58940D01*
X453360Y58755D01*
X453291Y58338D01*
X453152Y57875D01*
X452967Y57366D01*
X452712Y56904D01*
X452388Y56487D01*
X452365D01*
X452342Y56441D01*
X452203Y56325D01*
X451995Y56163D01*
X451717Y56001D01*
X451347Y55816D01*
X450931Y55654D01*
X450468Y55538D01*
X450213Y55515D01*
X449936Y55492D01*
X449751D01*
X449542Y55515D01*
X449288Y55562D01*
X449010Y55631D01*
X448686Y55724D01*
X448385Y55862D01*
X448084Y56048D01*
X448061Y56071D01*
X447946Y56163D01*
X447807Y56302D01*
X447645Y56487D01*
X447460Y56742D01*
X447252Y57066D01*
X447043Y57436D01*
X446858Y57875D01*
X444822Y57621D01*
Y57598D01*
X444845Y57552D01*
X444868Y57459D01*
X444914Y57320D01*
X444984Y57181D01*
X445053Y56996D01*
X445238Y56603D01*
X445470Y56163D01*
X445794Y55700D01*
X446164Y55261D01*
X446627Y54844D01*
X446650D01*
X446696Y54798D01*
X446766Y54752D01*
X446858Y54682D01*
X446997Y54613D01*
X447136Y54543D01*
X447321Y54451D01*
X447529Y54358D01*
X447761Y54266D01*
X447992Y54173D01*
X448570Y54034D01*
X449218Y53919D01*
X449936Y53872D01*
X450190D01*
X450352Y53896D01*
X450560Y53919D01*
X450815Y53965D01*
X451093Y54011D01*
X451393Y54057D01*
X452041Y54243D01*
X452388Y54381D01*
X452712Y54520D01*
X453060Y54705D01*
X453383Y54914D01*
X453684Y55145D01*
X453985Y55423D01*
X454008Y55446D01*
X454054Y55492D01*
X454124Y55585D01*
X454216Y55724D01*
X454332Y55886D01*
X454448Y56071D01*
X454587Y56302D01*
X454725Y56557D01*
X454864Y56857D01*
X455003Y57181D01*
X455119Y57552D01*
X455235Y57945D01*
X455327Y58362D01*
X455396Y58824D01*
X455443Y59310D01*
X455466Y59819D01*
Y60097D01*
X455443Y60305D01*
X455420Y60560D01*
X455396Y60837D01*
X455350Y61161D01*
X455281Y61485D01*
X455096Y62226D01*
X454980Y62596D01*
X454841Y62989D01*
X454656Y63360D01*
X454448Y63707D01*
X454216Y64054D01*
X453962Y64378D01*
X453939Y64401D01*
X453893Y64447D01*
X453800Y64517D01*
X453684Y64632D01*
X453545Y64748D01*
X453360Y64887D01*
X453152Y65049D01*
X452897Y65188D01*
X452643Y65350D01*
X452342Y65488D01*
X452018Y65627D01*
X451671Y65743D01*
X451301Y65859D01*
X450908Y65928D01*
X450491Y65974D01*
X450051Y65998D01*
D02*
G37*
G36*
X437649D02*
X437463D01*
X437325Y65974D01*
X437186D01*
X437001Y65951D01*
X436561Y65882D01*
X436075Y65766D01*
X435566Y65581D01*
X435057Y65350D01*
X434571Y65026D01*
X434548D01*
X434525Y64979D01*
X434386Y64840D01*
X434178Y64632D01*
X433923Y64331D01*
X433669Y63961D01*
X433414Y63498D01*
X433183Y62966D01*
X433021Y62341D01*
X434941Y62041D01*
Y62064D01*
X434964Y62087D01*
X434988Y62226D01*
X435057Y62434D01*
X435173Y62688D01*
X435288Y62966D01*
X435474Y63267D01*
X435682Y63545D01*
X435913Y63776D01*
X435936Y63799D01*
X436029Y63869D01*
X436191Y63961D01*
X436376Y64077D01*
X436631Y64193D01*
X436908Y64285D01*
X437232Y64355D01*
X437579Y64378D01*
X437718D01*
X437834Y64355D01*
X438088Y64331D01*
X438435Y64239D01*
X438806Y64123D01*
X439222Y63938D01*
X439616Y63660D01*
X439801Y63498D01*
X439986Y63313D01*
Y63290D01*
X440032Y63267D01*
X440078Y63198D01*
X440125Y63105D01*
X440194Y62989D01*
X440286Y62850D01*
X440356Y62688D01*
X440448Y62503D01*
X440541Y62272D01*
X440611Y62017D01*
X440703Y61740D01*
X440772Y61439D01*
X440819Y61115D01*
X440865Y60745D01*
X440911Y60351D01*
Y59935D01*
Y59912D01*
Y59842D01*
Y59703D01*
X440888Y59565D01*
Y59356D01*
X440865Y59148D01*
X440796Y58639D01*
X440703Y58084D01*
X440541Y57505D01*
X440333Y56996D01*
X440194Y56742D01*
X440032Y56533D01*
X439986Y56487D01*
X439870Y56371D01*
X439662Y56210D01*
X439407Y56024D01*
X439060Y55816D01*
X438667Y55654D01*
X438204Y55538D01*
X437949Y55515D01*
X437695Y55492D01*
X437649D01*
X437510Y55515D01*
X437278Y55538D01*
X437024Y55585D01*
X436723Y55654D01*
X436399Y55793D01*
X436075Y55955D01*
X435774Y56186D01*
X435728Y56210D01*
X435659Y56325D01*
X435520Y56487D01*
X435358Y56742D01*
X435196Y57042D01*
X435011Y57413D01*
X434872Y57875D01*
X434779Y58385D01*
X432836Y58130D01*
Y58107D01*
X432859Y58038D01*
X432882Y57945D01*
X432905Y57806D01*
X432951Y57621D01*
X432998Y57436D01*
X433160Y56973D01*
X433368Y56487D01*
X433669Y55955D01*
X434039Y55446D01*
X434247Y55215D01*
X434478Y54983D01*
X434502Y54960D01*
X434548Y54937D01*
X434617Y54890D01*
X434710Y54821D01*
X434826Y54729D01*
X434988Y54636D01*
X435173Y54543D01*
X435358Y54428D01*
X435821Y54219D01*
X436376Y54057D01*
X436978Y53919D01*
X437325Y53896D01*
X437672Y53872D01*
X437903D01*
X438065Y53896D01*
X438273Y53919D01*
X438505Y53965D01*
X438759Y54011D01*
X439037Y54057D01*
X439662Y54243D01*
X439963Y54381D01*
X440286Y54520D01*
X440611Y54705D01*
X440911Y54914D01*
X441212Y55145D01*
X441490Y55423D01*
X441513Y55446D01*
X441559Y55492D01*
X441629Y55585D01*
X441721Y55700D01*
X441814Y55862D01*
X441953Y56071D01*
X442068Y56302D01*
X442207Y56557D01*
X442346Y56857D01*
X442462Y57204D01*
X442601Y57552D01*
X442693Y57968D01*
X442786Y58385D01*
X442855Y58871D01*
X442901Y59356D01*
X442924Y59889D01*
Y60213D01*
X442901Y60375D01*
Y60560D01*
X442878Y60768D01*
X442855Y60999D01*
X442786Y61508D01*
X442670Y62064D01*
X442531Y62619D01*
X442323Y63174D01*
Y63198D01*
X442300Y63244D01*
X442253Y63313D01*
X442207Y63406D01*
X442068Y63660D01*
X441860Y63961D01*
X441582Y64308D01*
X441258Y64655D01*
X440865Y65002D01*
X440425Y65280D01*
X440402D01*
X440356Y65303D01*
X440286Y65350D01*
X440194Y65396D01*
X440078Y65442D01*
X439939Y65511D01*
X439592Y65650D01*
X439199Y65766D01*
X438713Y65882D01*
X438204Y65974D01*
X437649Y65998D01*
D02*
G37*
G36*
X420178D02*
X419947D01*
X419785Y65974D01*
X419600Y65951D01*
X419369Y65905D01*
X419114Y65859D01*
X418813Y65789D01*
X418535Y65720D01*
X418212Y65604D01*
X417911Y65488D01*
X417587Y65326D01*
X417263Y65141D01*
X416939Y64933D01*
X416638Y64679D01*
X416360Y64401D01*
X416337Y64378D01*
X416291Y64331D01*
X416222Y64239D01*
X416129Y64100D01*
X416013Y63938D01*
X415898Y63753D01*
X415759Y63521D01*
X415620Y63244D01*
X415481Y62943D01*
X415342Y62619D01*
X415227Y62249D01*
X415111Y61856D01*
X415018Y61416D01*
X414949Y60953D01*
X414903Y60467D01*
X414879Y59935D01*
Y59657D01*
X414903Y59426D01*
X423580D01*
Y59403D01*
Y59333D01*
X423557Y59241D01*
Y59102D01*
X423534Y58940D01*
X423487Y58755D01*
X423418Y58338D01*
X423279Y57875D01*
X423094Y57366D01*
X422839Y56904D01*
X422515Y56487D01*
X422492D01*
X422469Y56441D01*
X422330Y56325D01*
X422122Y56163D01*
X421844Y56001D01*
X421474Y55816D01*
X421058Y55654D01*
X420595Y55538D01*
X420340Y55515D01*
X420063Y55492D01*
X419878D01*
X419669Y55515D01*
X419415Y55562D01*
X419137Y55631D01*
X418813Y55724D01*
X418512Y55862D01*
X418212Y56048D01*
X418188Y56071D01*
X418073Y56163D01*
X417934Y56302D01*
X417772Y56487D01*
X417587Y56742D01*
X417379Y57066D01*
X417170Y57436D01*
X416985Y57875D01*
X414949Y57621D01*
Y57598D01*
X414972Y57552D01*
X414995Y57459D01*
X415041Y57320D01*
X415111Y57181D01*
X415180Y56996D01*
X415365Y56603D01*
X415597Y56163D01*
X415921Y55700D01*
X416291Y55261D01*
X416754Y54844D01*
X416777D01*
X416823Y54798D01*
X416893Y54752D01*
X416985Y54682D01*
X417124Y54613D01*
X417263Y54543D01*
X417448Y54451D01*
X417656Y54358D01*
X417888Y54266D01*
X418119Y54173D01*
X418698Y54034D01*
X419345Y53919D01*
X420063Y53872D01*
X420317D01*
X420479Y53896D01*
X420687Y53919D01*
X420942Y53965D01*
X421220Y54011D01*
X421521Y54057D01*
X422168Y54243D01*
X422515Y54381D01*
X422839Y54520D01*
X423186Y54705D01*
X423511Y54914D01*
X423811Y55145D01*
X424112Y55423D01*
X424135Y55446D01*
X424182Y55492D01*
X424251Y55585D01*
X424343Y55724D01*
X424459Y55886D01*
X424575Y56071D01*
X424714Y56302D01*
X424852Y56557D01*
X424991Y56857D01*
X425130Y57181D01*
X425246Y57552D01*
X425362Y57945D01*
X425454Y58362D01*
X425524Y58824D01*
X425570Y59310D01*
X425593Y59819D01*
Y60097D01*
X425570Y60305D01*
X425547Y60560D01*
X425524Y60837D01*
X425477Y61161D01*
X425408Y61485D01*
X425223Y62226D01*
X425107Y62596D01*
X424968Y62989D01*
X424783Y63360D01*
X424575Y63707D01*
X424343Y64054D01*
X424089Y64378D01*
X424066Y64401D01*
X424020Y64447D01*
X423927Y64517D01*
X423811Y64632D01*
X423672Y64748D01*
X423487Y64887D01*
X423279Y65049D01*
X423024Y65188D01*
X422770Y65350D01*
X422469Y65488D01*
X422145Y65627D01*
X421798Y65743D01*
X421428Y65859D01*
X421035Y65928D01*
X420618Y65974D01*
X420178Y65998D01*
D02*
G37*
G36*
X412519Y70139D02*
X410552D01*
Y54127D01*
X412519D01*
Y70139D01*
D02*
G37*
G36*
X477911Y70417D02*
X477286D01*
X477124Y70394D01*
X476916D01*
X476708Y70371D01*
X476430Y70325D01*
X476153Y70278D01*
X475551Y70163D01*
X474857Y69977D01*
X474186Y69700D01*
X473839Y69538D01*
X473492Y69353D01*
X473468Y69330D01*
X473422Y69306D01*
X473330Y69237D01*
X473191Y69168D01*
X473052Y69052D01*
X472867Y68913D01*
X472473Y68589D01*
X472057Y68173D01*
X471594Y67663D01*
X471155Y67062D01*
X470784Y66391D01*
Y66368D01*
X470738Y66298D01*
X470692Y66206D01*
X470645Y66067D01*
X470553Y65882D01*
X470483Y65673D01*
X470391Y65419D01*
X470298Y65141D01*
X470229Y64840D01*
X470136Y64517D01*
X470044Y64169D01*
X469974Y63799D01*
X469882Y62989D01*
X469836Y62133D01*
Y62110D01*
Y62041D01*
Y61948D01*
Y61809D01*
X469859Y61624D01*
Y61416D01*
X469882Y61185D01*
X469905Y60953D01*
X469974Y60398D01*
X470090Y59796D01*
X470229Y59171D01*
X470437Y58570D01*
Y58547D01*
X470460Y58500D01*
X470507Y58408D01*
X470553Y58315D01*
X470622Y58176D01*
X470692Y58014D01*
X470877Y57644D01*
X471131Y57204D01*
X471455Y56742D01*
X471825Y56279D01*
X472242Y55816D01*
X472219D01*
X472173Y55770D01*
X472103Y55724D01*
X471987Y55654D01*
X471872Y55562D01*
X471710Y55469D01*
X471363Y55261D01*
X470946Y55006D01*
X470483Y54752D01*
X469997Y54543D01*
X469535Y54335D01*
X470159Y52877D01*
X470183D01*
X470229Y52901D01*
X470322Y52947D01*
X470460Y52993D01*
X470622Y53063D01*
X470807Y53155D01*
X471016Y53248D01*
X471247Y53363D01*
X471756Y53641D01*
X472335Y53965D01*
X472959Y54381D01*
X473607Y54844D01*
X473630D01*
X473677Y54798D01*
X473792Y54752D01*
X473908Y54682D01*
X474093Y54613D01*
X474278Y54520D01*
X474510Y54451D01*
X474764Y54358D01*
X475042Y54266D01*
X475343Y54173D01*
X476014Y54011D01*
X476754Y53896D01*
X477148Y53872D01*
X477541Y53849D01*
X477749D01*
X477911Y53872D01*
X478096D01*
X478328Y53896D01*
X478582Y53942D01*
X478860Y53988D01*
X479462Y54104D01*
X480133Y54289D01*
X480827Y54543D01*
X481151Y54705D01*
X481498Y54890D01*
X481521Y54914D01*
X481567Y54937D01*
X481660Y55006D01*
X481776Y55076D01*
X481937Y55191D01*
X482099Y55330D01*
X482493Y55654D01*
X482932Y56071D01*
X483372Y56580D01*
X483812Y57158D01*
X484205Y57829D01*
Y57852D01*
X484251Y57922D01*
X484298Y58014D01*
X484344Y58153D01*
X484413Y58338D01*
X484506Y58547D01*
X484599Y58801D01*
X484668Y59079D01*
X484760Y59380D01*
X484853Y59703D01*
X484922Y60051D01*
X485015Y60444D01*
X485107Y61254D01*
X485154Y62110D01*
Y62341D01*
X485131Y62503D01*
Y62712D01*
X485107Y62966D01*
X485084Y63244D01*
X485038Y63545D01*
X484922Y64216D01*
X484760Y64933D01*
X484529Y65697D01*
X484205Y66437D01*
X484182Y66460D01*
X484159Y66530D01*
X484113Y66622D01*
X484020Y66761D01*
X483927Y66923D01*
X483812Y67108D01*
X483488Y67548D01*
X483118Y68011D01*
X482632Y68496D01*
X482099Y68982D01*
X481475Y69399D01*
X481451Y69422D01*
X481382Y69445D01*
X481289Y69492D01*
X481151Y69561D01*
X480989Y69630D01*
X480804Y69723D01*
X480572Y69816D01*
X480318Y69908D01*
X480017Y70001D01*
X479716Y70093D01*
X479045Y70255D01*
X478305Y70371D01*
X477911Y70417D01*
D02*
G37*
G36*
X367744Y49675D02*
X367513D01*
X367351Y49652D01*
X367166Y49629D01*
X366935Y49605D01*
X366680Y49559D01*
X366426Y49513D01*
X365824Y49351D01*
X365222Y49120D01*
X364921Y48981D01*
X364621Y48819D01*
X364343Y48611D01*
X364089Y48379D01*
X364065Y48356D01*
X364019Y48333D01*
X363973Y48240D01*
X363880Y48148D01*
X363764Y48032D01*
X363649Y47870D01*
X363533Y47708D01*
X363394Y47500D01*
X363163Y47060D01*
X362932Y46505D01*
X362839Y46227D01*
X362793Y45903D01*
X362746Y45579D01*
X362723Y45232D01*
Y45186D01*
Y45070D01*
X362746Y44885D01*
X362770Y44630D01*
X362816Y44353D01*
X362908Y44029D01*
X363001Y43682D01*
X363140Y43335D01*
X363163Y43288D01*
X363209Y43173D01*
X363302Y42988D01*
X363441Y42733D01*
X363626Y42455D01*
X363857Y42108D01*
X364135Y41761D01*
X364459Y41368D01*
X364505Y41322D01*
X364621Y41183D01*
X364736Y41067D01*
X364852Y40951D01*
X364991Y40813D01*
X365176Y40627D01*
X365361Y40442D01*
X365592Y40234D01*
X365824Y40003D01*
X366102Y39748D01*
X366402Y39494D01*
X366726Y39193D01*
X367097Y38892D01*
X367467Y38568D01*
X367490Y38545D01*
X367536Y38499D01*
X367629Y38429D01*
X367744Y38337D01*
X367883Y38198D01*
X368045Y38059D01*
X368415Y37758D01*
X368809Y37411D01*
X369179Y37064D01*
X369503Y36763D01*
X369642Y36648D01*
X369758Y36532D01*
X369781Y36509D01*
X369850Y36439D01*
X369943Y36347D01*
X370058Y36208D01*
X370174Y36046D01*
X370313Y35884D01*
X370591Y35491D01*
X362700D01*
Y33593D01*
X373321D01*
Y33848D01*
X373298Y34033D01*
X373275Y34241D01*
X373228Y34472D01*
X373182Y34704D01*
X373090Y34958D01*
Y34981D01*
X373067Y35005D01*
X373020Y35143D01*
X372928Y35352D01*
X372789Y35629D01*
X372604Y35953D01*
X372372Y36323D01*
X372118Y36694D01*
X371794Y37087D01*
Y37110D01*
X371748Y37133D01*
X371632Y37272D01*
X371424Y37480D01*
X371123Y37781D01*
X370776Y38128D01*
X370336Y38545D01*
X369804Y39008D01*
X369225Y39494D01*
X369202Y39517D01*
X369110Y39586D01*
X368971Y39702D01*
X368809Y39841D01*
X368601Y40026D01*
X368346Y40234D01*
X368092Y40465D01*
X367791Y40720D01*
X367212Y41275D01*
X366634Y41831D01*
X366356Y42108D01*
X366102Y42386D01*
X365870Y42641D01*
X365685Y42895D01*
Y42918D01*
X365639Y42941D01*
X365592Y43011D01*
X365546Y43103D01*
X365384Y43358D01*
X365199Y43659D01*
X365037Y44029D01*
X364875Y44422D01*
X364783Y44862D01*
X364736Y45278D01*
Y45302D01*
Y45325D01*
X364759Y45464D01*
X364783Y45695D01*
X364852Y45950D01*
X364945Y46273D01*
X365107Y46597D01*
X365315Y46921D01*
X365592Y47245D01*
X365639Y47292D01*
X365755Y47384D01*
X365916Y47500D01*
X366171Y47662D01*
X366495Y47801D01*
X366865Y47940D01*
X367305Y48032D01*
X367791Y48055D01*
X367930D01*
X368022Y48032D01*
X368300Y48009D01*
X368624Y47940D01*
X368971Y47847D01*
X369364Y47685D01*
X369734Y47477D01*
X370082Y47199D01*
X370128Y47153D01*
X370220Y47037D01*
X370359Y46852D01*
X370498Y46574D01*
X370660Y46250D01*
X370799Y45834D01*
X370891Y45371D01*
X370938Y44839D01*
X372951Y45047D01*
Y45070D01*
X372928Y45140D01*
Y45255D01*
X372905Y45417D01*
X372858Y45602D01*
X372812Y45811D01*
X372743Y46065D01*
X372673Y46320D01*
X372488Y46875D01*
X372210Y47430D01*
X372048Y47708D01*
X371840Y47986D01*
X371632Y48240D01*
X371400Y48472D01*
X371377Y48495D01*
X371331Y48518D01*
X371262Y48587D01*
X371146Y48657D01*
X371007Y48749D01*
X370845Y48842D01*
X370660Y48958D01*
X370429Y49073D01*
X370174Y49189D01*
X369897Y49305D01*
X369596Y49397D01*
X369272Y49490D01*
X368925Y49559D01*
X368554Y49629D01*
X368161Y49652D01*
X367744Y49675D01*
D02*
G37*
G36*
X385585D02*
X384312D01*
Y33593D01*
X386279D01*
Y46111D01*
X386302Y46088D01*
X386418Y45996D01*
X386557Y45857D01*
X386788Y45695D01*
X387043Y45487D01*
X387367Y45255D01*
X387737Y45001D01*
X388153Y44746D01*
X388177D01*
X388200Y44723D01*
X388339Y44630D01*
X388570Y44515D01*
X388848Y44376D01*
X389172Y44214D01*
X389519Y44052D01*
X389866Y43890D01*
X390213Y43751D01*
Y45649D01*
X390190D01*
X390143Y45695D01*
X390051Y45718D01*
X389935Y45788D01*
X389796Y45857D01*
X389634Y45950D01*
X389241Y46181D01*
X388778Y46435D01*
X388315Y46759D01*
X387830Y47130D01*
X387344Y47523D01*
X387320Y47546D01*
X387297Y47569D01*
X387228Y47639D01*
X387135Y47708D01*
X386927Y47940D01*
X386649Y48217D01*
X386372Y48541D01*
X386071Y48911D01*
X385816Y49282D01*
X385585Y49675D01*
D02*
G37*
G36*
X439754Y45464D02*
X439500D01*
X439245Y45440D01*
X438898Y45417D01*
X438505Y45371D01*
X438111Y45302D01*
X437718Y45209D01*
X437348Y45093D01*
X437301Y45070D01*
X437186Y45024D01*
X437024Y44955D01*
X436816Y44862D01*
X436584Y44723D01*
X436353Y44584D01*
X436145Y44399D01*
X435960Y44214D01*
X435936Y44191D01*
X435890Y44121D01*
X435821Y44006D01*
X435728Y43867D01*
X435612Y43659D01*
X435520Y43450D01*
X435427Y43196D01*
X435358Y42895D01*
Y42872D01*
X435335Y42803D01*
X435312Y42664D01*
X435288Y42479D01*
Y42224D01*
X435265Y41923D01*
X435242Y41530D01*
Y41090D01*
Y38452D01*
Y38429D01*
Y38337D01*
Y38198D01*
Y38013D01*
Y37804D01*
Y37550D01*
X435219Y36995D01*
Y36416D01*
X435196Y35838D01*
X435173Y35583D01*
Y35352D01*
X435150Y35143D01*
X435126Y34981D01*
Y34958D01*
X435103Y34866D01*
X435080Y34727D01*
X435011Y34542D01*
X434964Y34334D01*
X434872Y34102D01*
X434756Y33848D01*
X434641Y33593D01*
X436700D01*
X436723Y33616D01*
X436746Y33709D01*
X436792Y33824D01*
X436862Y34010D01*
X436931Y34218D01*
X436978Y34472D01*
X437024Y34750D01*
X437070Y35051D01*
X437093D01*
X437116Y35005D01*
X437255Y34889D01*
X437463Y34727D01*
X437741Y34519D01*
X438088Y34310D01*
X438435Y34079D01*
X438806Y33871D01*
X439199Y33709D01*
X439245Y33686D01*
X439384Y33663D01*
X439592Y33593D01*
X439847Y33524D01*
X440171Y33454D01*
X440541Y33408D01*
X440958Y33362D01*
X441374Y33338D01*
X441559D01*
X441698Y33362D01*
X441860D01*
X442045Y33385D01*
X442462Y33454D01*
X442924Y33570D01*
X443433Y33732D01*
X443896Y33963D01*
X444313Y34264D01*
X444359Y34310D01*
X444475Y34426D01*
X444637Y34634D01*
X444822Y34912D01*
X445007Y35259D01*
X445169Y35652D01*
X445285Y36138D01*
X445308Y36370D01*
X445331Y36648D01*
Y36786D01*
X445308Y36948D01*
X445285Y37157D01*
X445238Y37411D01*
X445169Y37666D01*
X445076Y37943D01*
X444961Y38198D01*
X444938Y38221D01*
X444891Y38314D01*
X444799Y38452D01*
X444683Y38614D01*
X444544Y38799D01*
X444359Y38984D01*
X444174Y39170D01*
X443942Y39332D01*
X443919Y39355D01*
X443827Y39401D01*
X443711Y39494D01*
X443526Y39586D01*
X443318Y39679D01*
X443063Y39794D01*
X442809Y39887D01*
X442508Y39980D01*
X442485D01*
X442392Y40003D01*
X442253Y40049D01*
X442068Y40072D01*
X441837Y40118D01*
X441536Y40165D01*
X441189Y40234D01*
X440772Y40280D01*
X440749D01*
X440657Y40304D01*
X440541D01*
X440379Y40327D01*
X440194Y40350D01*
X439963Y40396D01*
X439708Y40419D01*
X439430Y40465D01*
X438875Y40581D01*
X438273Y40697D01*
X437741Y40836D01*
X437487Y40905D01*
X437255Y40974D01*
Y40998D01*
Y41044D01*
X437232Y41183D01*
Y41345D01*
Y41437D01*
Y41484D01*
Y41507D01*
Y41530D01*
Y41669D01*
X437255Y41900D01*
X437301Y42155D01*
X437371Y42432D01*
X437487Y42710D01*
X437626Y42965D01*
X437811Y43173D01*
X437834Y43196D01*
X437949Y43288D01*
X438135Y43381D01*
X438366Y43520D01*
X438690Y43636D01*
X439060Y43751D01*
X439523Y43821D01*
X440055Y43844D01*
X440286D01*
X440518Y43821D01*
X440842Y43774D01*
X441166Y43728D01*
X441513Y43636D01*
X441837Y43520D01*
X442114Y43358D01*
X442138Y43335D01*
X442230Y43265D01*
X442346Y43150D01*
X442485Y42965D01*
X442624Y42733D01*
X442786Y42432D01*
X442924Y42062D01*
X443063Y41646D01*
X444984Y41900D01*
Y41923D01*
X444961Y41946D01*
Y42016D01*
X444938Y42108D01*
X444868Y42317D01*
X444776Y42617D01*
X444660Y42918D01*
X444521Y43242D01*
X444336Y43566D01*
X444128Y43867D01*
X444104Y43890D01*
X444012Y43983D01*
X443873Y44121D01*
X443688Y44307D01*
X443433Y44492D01*
X443133Y44677D01*
X442786Y44885D01*
X442392Y45047D01*
X442369D01*
X442346Y45070D01*
X442276Y45093D01*
X442184Y45117D01*
X441953Y45186D01*
X441629Y45255D01*
X441258Y45325D01*
X440796Y45394D01*
X440310Y45440D01*
X439754Y45464D01*
D02*
G37*
G36*
X407498Y49605D02*
X405184D01*
X401019Y37966D01*
Y37943D01*
X400996Y37897D01*
X400973Y37828D01*
X400926Y37735D01*
X400903Y37596D01*
X400857Y37457D01*
X400741Y37110D01*
X400602Y36717D01*
X400464Y36277D01*
X400186Y35352D01*
Y35375D01*
X400163Y35421D01*
X400140Y35491D01*
X400117Y35583D01*
X400047Y35838D01*
X399931Y36185D01*
X399816Y36578D01*
X399677Y37018D01*
X399515Y37480D01*
X399330Y37966D01*
X394980Y49605D01*
X392828D01*
X399075Y33593D01*
X401297D01*
X407498Y49605D01*
D02*
G37*
G36*
X479739Y45464D02*
X479508D01*
X479346Y45440D01*
X479161Y45417D01*
X478929Y45371D01*
X478675Y45325D01*
X478374Y45255D01*
X478096Y45186D01*
X477772Y45070D01*
X477472Y44955D01*
X477148Y44792D01*
X476824Y44607D01*
X476500Y44399D01*
X476199Y44145D01*
X475921Y43867D01*
X475898Y43844D01*
X475852Y43797D01*
X475782Y43705D01*
X475690Y43566D01*
X475574Y43404D01*
X475458Y43219D01*
X475320Y42988D01*
X475181Y42710D01*
X475042Y42409D01*
X474903Y42085D01*
X474787Y41715D01*
X474672Y41322D01*
X474579Y40882D01*
X474510Y40419D01*
X474463Y39933D01*
X474440Y39401D01*
Y39123D01*
X474463Y38892D01*
X483141D01*
Y38869D01*
Y38799D01*
X483118Y38707D01*
Y38568D01*
X483094Y38406D01*
X483048Y38221D01*
X482979Y37804D01*
X482840Y37342D01*
X482655Y36833D01*
X482400Y36370D01*
X482076Y35953D01*
X482053D01*
X482030Y35907D01*
X481891Y35791D01*
X481683Y35629D01*
X481405Y35467D01*
X481035Y35282D01*
X480619Y35120D01*
X480156Y35005D01*
X479901Y34981D01*
X479623Y34958D01*
X479438D01*
X479230Y34981D01*
X478976Y35028D01*
X478698Y35097D01*
X478374Y35190D01*
X478073Y35329D01*
X477772Y35514D01*
X477749Y35537D01*
X477634Y35629D01*
X477495Y35768D01*
X477333Y35953D01*
X477148Y36208D01*
X476939Y36532D01*
X476731Y36902D01*
X476546Y37342D01*
X474510Y37087D01*
Y37064D01*
X474533Y37018D01*
X474556Y36925D01*
X474602Y36786D01*
X474672Y36648D01*
X474741Y36462D01*
X474926Y36069D01*
X475158Y35629D01*
X475481Y35166D01*
X475852Y34727D01*
X476315Y34310D01*
X476338D01*
X476384Y34264D01*
X476453Y34218D01*
X476546Y34148D01*
X476685Y34079D01*
X476824Y34010D01*
X477009Y33917D01*
X477217Y33824D01*
X477448Y33732D01*
X477680Y33639D01*
X478258Y33500D01*
X478906Y33385D01*
X479623Y33338D01*
X479878D01*
X480040Y33362D01*
X480248Y33385D01*
X480503Y33431D01*
X480780Y33477D01*
X481081Y33524D01*
X481729Y33709D01*
X482076Y33848D01*
X482400Y33986D01*
X482747Y34172D01*
X483071Y34380D01*
X483372Y34611D01*
X483673Y34889D01*
X483696Y34912D01*
X483742Y34958D01*
X483812Y35051D01*
X483904Y35190D01*
X484020Y35352D01*
X484136Y35537D01*
X484274Y35768D01*
X484413Y36023D01*
X484552Y36323D01*
X484691Y36648D01*
X484807Y37018D01*
X484922Y37411D01*
X485015Y37828D01*
X485084Y38290D01*
X485131Y38776D01*
X485154Y39285D01*
Y39563D01*
X485131Y39771D01*
X485107Y40026D01*
X485084Y40304D01*
X485038Y40627D01*
X484969Y40951D01*
X484784Y41692D01*
X484668Y42062D01*
X484529Y42455D01*
X484344Y42826D01*
X484136Y43173D01*
X483904Y43520D01*
X483650Y43844D01*
X483627Y43867D01*
X483580Y43913D01*
X483488Y43983D01*
X483372Y44098D01*
X483233Y44214D01*
X483048Y44353D01*
X482840Y44515D01*
X482585Y44654D01*
X482331Y44816D01*
X482030Y44955D01*
X481706Y45093D01*
X481359Y45209D01*
X480989Y45325D01*
X480595Y45394D01*
X480179Y45440D01*
X479739Y45464D01*
D02*
G37*
G36*
X471872Y49605D02*
X465578D01*
X465416Y49582D01*
X465231D01*
X464814Y49536D01*
X464352Y49490D01*
X463866Y49397D01*
X463380Y49282D01*
X462940Y49120D01*
X462917D01*
X462894Y49096D01*
X462755Y49027D01*
X462547Y48911D01*
X462315Y48749D01*
X462038Y48541D01*
X461737Y48287D01*
X461459Y47963D01*
X461204Y47615D01*
X461181Y47569D01*
X461112Y47430D01*
X460996Y47245D01*
X460881Y46968D01*
X460765Y46644D01*
X460649Y46297D01*
X460580Y45903D01*
X460557Y45510D01*
Y45464D01*
Y45348D01*
X460580Y45140D01*
X460626Y44885D01*
X460695Y44584D01*
X460811Y44260D01*
X460950Y43936D01*
X461135Y43589D01*
X461158Y43543D01*
X461228Y43450D01*
X461367Y43265D01*
X461552Y43080D01*
X461783Y42849D01*
X462061Y42594D01*
X462408Y42363D01*
X462801Y42132D01*
X462778D01*
X462732Y42108D01*
X462662Y42085D01*
X462570Y42039D01*
X462292Y41946D01*
X461968Y41784D01*
X461621Y41576D01*
X461228Y41322D01*
X460881Y41021D01*
X460557Y40651D01*
X460533Y40604D01*
X460441Y40465D01*
X460302Y40257D01*
X460163Y39980D01*
X460024Y39609D01*
X459886Y39216D01*
X459793Y38753D01*
X459770Y38244D01*
Y38059D01*
X459793Y37828D01*
X459839Y37550D01*
X459886Y37226D01*
X459978Y36879D01*
X460094Y36509D01*
X460256Y36138D01*
X460279Y36092D01*
X460348Y35976D01*
X460441Y35814D01*
X460580Y35583D01*
X460765Y35352D01*
X460950Y35097D01*
X461181Y34843D01*
X461436Y34634D01*
X461459Y34611D01*
X461552Y34542D01*
X461714Y34449D01*
X461922Y34357D01*
X462176Y34218D01*
X462477Y34079D01*
X462801Y33963D01*
X463195Y33848D01*
X463241D01*
X463380Y33801D01*
X463611Y33778D01*
X463912Y33732D01*
X464282Y33686D01*
X464722Y33639D01*
X465208Y33616D01*
X465763Y33593D01*
X471872D01*
Y49605D01*
D02*
G37*
G36*
X427953Y45464D02*
X427791D01*
X427583Y45440D01*
X427328Y45394D01*
X427028Y45302D01*
X426704Y45186D01*
X426334Y45024D01*
X425940Y44816D01*
X426657Y43011D01*
X426681Y43034D01*
X426773Y43080D01*
X426912Y43150D01*
X427097Y43219D01*
X427305Y43288D01*
X427560Y43358D01*
X427814Y43404D01*
X428069Y43427D01*
X428185D01*
X428300Y43404D01*
X428462Y43381D01*
X428624Y43335D01*
X428833Y43265D01*
X429041Y43173D01*
X429226Y43034D01*
X429249Y43011D01*
X429318Y42965D01*
X429388Y42872D01*
X429504Y42756D01*
X429619Y42594D01*
X429735Y42409D01*
X429851Y42201D01*
X429943Y41946D01*
X429966Y41900D01*
X429990Y41761D01*
X430036Y41553D01*
X430105Y41275D01*
X430175Y40928D01*
X430221Y40535D01*
X430244Y40118D01*
X430267Y39656D01*
Y33593D01*
X432234D01*
Y45209D01*
X430452D01*
Y43450D01*
X430429Y43474D01*
X430337Y43636D01*
X430221Y43844D01*
X430036Y44098D01*
X429851Y44353D01*
X429642Y44630D01*
X429434Y44862D01*
X429226Y45047D01*
X429203Y45070D01*
X429133Y45117D01*
X428994Y45186D01*
X428856Y45255D01*
X428671Y45325D01*
X428439Y45394D01*
X428208Y45440D01*
X427953Y45464D01*
D02*
G37*
G36*
X378157Y35838D02*
X375913D01*
Y33593D01*
X378157D01*
Y35838D01*
D02*
G37*
G36*
X452412Y45464D02*
X452180D01*
X452018Y45440D01*
X451810Y45417D01*
X451578Y45371D01*
X451324Y45325D01*
X451023Y45278D01*
X450398Y45070D01*
X450075Y44955D01*
X449751Y44792D01*
X449427Y44630D01*
X449103Y44399D01*
X448802Y44168D01*
X448501Y43890D01*
X448478Y43867D01*
X448432Y43821D01*
X448362Y43728D01*
X448270Y43612D01*
X448154Y43450D01*
X448015Y43242D01*
X447876Y43011D01*
X447737Y42756D01*
X447599Y42479D01*
X447460Y42132D01*
X447321Y41784D01*
X447205Y41391D01*
X447113Y40974D01*
X447043Y40535D01*
X446997Y40072D01*
X446974Y39563D01*
Y39193D01*
X446997Y39008D01*
X447020Y38776D01*
Y38545D01*
X447066Y38290D01*
X447136Y37712D01*
X447275Y37133D01*
X447437Y36555D01*
X447668Y36023D01*
Y36000D01*
X447691Y35976D01*
X447737Y35907D01*
X447784Y35814D01*
X447946Y35583D01*
X448154Y35305D01*
X448432Y34981D01*
X448779Y34657D01*
X449172Y34334D01*
X449635Y34033D01*
X449658D01*
X449681Y34010D01*
X449751Y33963D01*
X449866Y33917D01*
X449982Y33871D01*
X450121Y33824D01*
X450468Y33686D01*
X450861Y33570D01*
X451347Y33454D01*
X451856Y33362D01*
X452412Y33338D01*
X452643D01*
X452828Y33362D01*
X453036Y33385D01*
X453268Y33431D01*
X453545Y33477D01*
X453823Y33524D01*
X454448Y33709D01*
X454795Y33848D01*
X455119Y33986D01*
X455443Y34172D01*
X455767Y34380D01*
X456068Y34611D01*
X456368Y34889D01*
X456391Y34912D01*
X456438Y34958D01*
X456507Y35051D01*
X456600Y35190D01*
X456716Y35352D01*
X456831Y35537D01*
X456970Y35768D01*
X457109Y36046D01*
X457248Y36347D01*
X457387Y36694D01*
X457502Y37064D01*
X457618Y37457D01*
X457710Y37897D01*
X457780Y38360D01*
X457826Y38869D01*
X457849Y39401D01*
Y39540D01*
X457826Y39702D01*
Y39933D01*
X457803Y40188D01*
X457757Y40512D01*
X457710Y40836D01*
X457618Y41206D01*
X457525Y41576D01*
X457410Y41969D01*
X457271Y42386D01*
X457086Y42779D01*
X456901Y43150D01*
X456646Y43520D01*
X456391Y43867D01*
X456068Y44168D01*
X456045Y44191D01*
X455998Y44214D01*
X455906Y44283D01*
X455790Y44376D01*
X455651Y44469D01*
X455466Y44584D01*
X455281Y44700D01*
X455050Y44816D01*
X454795Y44931D01*
X454517Y45047D01*
X453893Y45255D01*
X453175Y45417D01*
X452805Y45440D01*
X452412Y45464D01*
D02*
G37*
G36*
X417402Y49605D02*
X415435D01*
Y33593D01*
X417263D01*
Y35051D01*
X417286Y35028D01*
X417309Y34981D01*
X417379Y34889D01*
X417471Y34773D01*
X417587Y34657D01*
X417726Y34519D01*
X417888Y34357D01*
X418096Y34195D01*
X418304Y34033D01*
X418535Y33871D01*
X418813Y33732D01*
X419114Y33616D01*
X419415Y33500D01*
X419762Y33408D01*
X420132Y33362D01*
X420526Y33338D01*
X420664D01*
X420757Y33362D01*
X421035Y33385D01*
X421358Y33431D01*
X421752Y33524D01*
X422192Y33663D01*
X422631Y33848D01*
X423071Y34102D01*
X423094D01*
X423117Y34148D01*
X423256Y34241D01*
X423464Y34426D01*
X423719Y34657D01*
X424020Y34958D01*
X424320Y35329D01*
X424621Y35745D01*
X424876Y36231D01*
Y36254D01*
X424899Y36300D01*
X424922Y36370D01*
X424968Y36462D01*
X425014Y36601D01*
X425084Y36763D01*
X425130Y36925D01*
X425177Y37133D01*
X425292Y37596D01*
X425408Y38128D01*
X425477Y38730D01*
X425500Y39378D01*
Y39679D01*
X425477Y39818D01*
Y40003D01*
X425431Y40419D01*
X425362Y40905D01*
X425246Y41437D01*
X425107Y41993D01*
X424922Y42525D01*
Y42548D01*
X424899Y42594D01*
X424852Y42664D01*
X424806Y42756D01*
X424667Y43011D01*
X424482Y43335D01*
X424251Y43682D01*
X423950Y44029D01*
X423603Y44399D01*
X423186Y44700D01*
X423163D01*
X423140Y44723D01*
X423071Y44769D01*
X422978Y44816D01*
X422747Y44931D01*
X422423Y45093D01*
X422053Y45232D01*
X421613Y45348D01*
X421127Y45440D01*
X420618Y45464D01*
X420433D01*
X420248Y45440D01*
X419993Y45417D01*
X419692Y45348D01*
X419369Y45278D01*
X419045Y45163D01*
X418744Y45001D01*
X418698Y44978D01*
X418605Y44931D01*
X418466Y44816D01*
X418281Y44700D01*
X418050Y44538D01*
X417841Y44330D01*
X417610Y44121D01*
X417402Y43867D01*
Y49605D01*
D02*
G37*
G36*
X474581Y29591D02*
X473007D01*
Y27795D01*
X474581D01*
Y29591D01*
D02*
G37*
G36*
X445732D02*
X444158D01*
Y25017D01*
X444140Y25036D01*
X444121Y25073D01*
X444066Y25128D01*
X443973Y25221D01*
X443880Y25313D01*
X443769Y25425D01*
X443621Y25536D01*
X443473Y25647D01*
X443103Y25888D01*
X442677Y26073D01*
X442436Y26165D01*
X442177Y26221D01*
X441899Y26258D01*
X441621Y26276D01*
X441473D01*
X441306Y26258D01*
X441103Y26239D01*
X440862Y26184D01*
X440584Y26128D01*
X440288Y26036D01*
X440010Y25925D01*
X439973Y25906D01*
X439881Y25869D01*
X439733Y25777D01*
X439566Y25665D01*
X439362Y25536D01*
X439159Y25369D01*
X438936Y25165D01*
X438751Y24943D01*
X438733Y24925D01*
X438677Y24832D01*
X438585Y24702D01*
X438474Y24536D01*
X438344Y24314D01*
X438214Y24054D01*
X438085Y23758D01*
X437974Y23443D01*
Y23425D01*
X437955Y23406D01*
X437937Y23351D01*
X437918Y23295D01*
X437881Y23110D01*
X437825Y22869D01*
X437770Y22592D01*
X437714Y22277D01*
X437696Y21925D01*
X437677Y21555D01*
Y21332D01*
X437696Y21166D01*
X437714Y20962D01*
X437733Y20740D01*
X437770Y20481D01*
X437825Y20203D01*
X437974Y19610D01*
X438066Y19296D01*
X438177Y18999D01*
X438307Y18685D01*
X438474Y18407D01*
X438659Y18129D01*
X438862Y17870D01*
X438881Y17851D01*
X438918Y17814D01*
X438973Y17759D01*
X439066Y17666D01*
X439196Y17574D01*
X439325Y17463D01*
X439473Y17351D01*
X439659Y17222D01*
X439862Y17111D01*
X440066Y16981D01*
X440566Y16777D01*
X440825Y16685D01*
X441103Y16629D01*
X441399Y16592D01*
X441695Y16574D01*
X441769D01*
X441862Y16592D01*
X441973D01*
X442103Y16611D01*
X442269Y16648D01*
X442640Y16740D01*
X442843Y16814D01*
X443047Y16907D01*
X443269Y17018D01*
X443473Y17148D01*
X443695Y17314D01*
X443899Y17500D01*
X444084Y17703D01*
X444269Y17944D01*
Y16777D01*
X445732D01*
Y29591D01*
D02*
G37*
G36*
X465619D02*
X464045D01*
Y24999D01*
X464026Y25017D01*
X463989Y25054D01*
X463934Y25110D01*
X463841Y25202D01*
X463749Y25295D01*
X463619Y25406D01*
X463452Y25517D01*
X463286Y25647D01*
X463101Y25758D01*
X462897Y25869D01*
X462415Y26073D01*
X462156Y26165D01*
X461879Y26221D01*
X461582Y26258D01*
X461286Y26276D01*
X461119D01*
X460916Y26258D01*
X460675Y26221D01*
X460397Y26184D01*
X460101Y26110D01*
X459805Y25999D01*
X459508Y25869D01*
X459471Y25851D01*
X459379Y25795D01*
X459249Y25702D01*
X459082Y25573D01*
X458916Y25406D01*
X458731Y25221D01*
X458564Y24999D01*
X458416Y24739D01*
X458397Y24702D01*
X458360Y24610D01*
X458305Y24443D01*
X458249Y24202D01*
X458194Y23906D01*
X458138Y23554D01*
X458101Y23129D01*
X458083Y22647D01*
Y16777D01*
X459656D01*
Y22666D01*
Y22684D01*
Y22721D01*
Y22777D01*
Y22851D01*
X459675Y23054D01*
X459712Y23314D01*
X459786Y23591D01*
X459879Y23869D01*
X460008Y24147D01*
X460175Y24369D01*
X460193Y24388D01*
X460267Y24462D01*
X460379Y24554D01*
X460545Y24647D01*
X460749Y24758D01*
X460990Y24832D01*
X461286Y24906D01*
X461619Y24925D01*
X461730D01*
X461860Y24906D01*
X462045Y24888D01*
X462230Y24832D01*
X462453Y24777D01*
X462675Y24684D01*
X462915Y24554D01*
X462934Y24536D01*
X463008Y24480D01*
X463119Y24406D01*
X463249Y24295D01*
X463397Y24147D01*
X463545Y23980D01*
X463675Y23777D01*
X463786Y23554D01*
X463804Y23517D01*
X463823Y23443D01*
X463860Y23295D01*
X463915Y23110D01*
X463971Y22869D01*
X464008Y22573D01*
X464026Y22240D01*
X464045Y21851D01*
Y16777D01*
X465619D01*
Y29591D01*
D02*
G37*
G36*
X481136Y26276D02*
X480969D01*
X480858Y26258D01*
X480728Y26239D01*
X480562Y26202D01*
X480377Y26165D01*
X480173Y26110D01*
X479969Y26036D01*
X479747Y25943D01*
X479525Y25832D01*
X479284Y25702D01*
X479062Y25554D01*
X478840Y25369D01*
X478618Y25165D01*
X478414Y24925D01*
Y26073D01*
X476969D01*
Y17685D01*
X476988Y17518D01*
Y17314D01*
X477006Y17092D01*
X477025Y16852D01*
X477081Y16351D01*
X477155Y15833D01*
X477210Y15592D01*
X477266Y15370D01*
X477340Y15166D01*
X477414Y14981D01*
Y14963D01*
X477432Y14944D01*
X477506Y14833D01*
X477599Y14667D01*
X477747Y14463D01*
X477951Y14241D01*
X478192Y14000D01*
X478488Y13759D01*
X478821Y13556D01*
X478840D01*
X478858Y13537D01*
X478914Y13500D01*
X478988Y13481D01*
X479080Y13426D01*
X479192Y13389D01*
X479469Y13296D01*
X479803Y13185D01*
X480210Y13111D01*
X480673Y13037D01*
X481173Y13018D01*
X481339D01*
X481451Y13037D01*
X481599D01*
X481747Y13055D01*
X481932Y13074D01*
X482136Y13111D01*
X482561Y13204D01*
X483006Y13333D01*
X483450Y13519D01*
X483858Y13778D01*
X483876Y13796D01*
X483895Y13815D01*
X484024Y13926D01*
X484172Y14093D01*
X484358Y14333D01*
X484543Y14648D01*
X484709Y15037D01*
X484765Y15259D01*
X484802Y15500D01*
X484839Y15740D01*
Y16018D01*
X483302Y15814D01*
Y15777D01*
X483284Y15703D01*
X483247Y15574D01*
X483210Y15407D01*
X483135Y15240D01*
X483043Y15074D01*
X482932Y14907D01*
X482784Y14778D01*
X482747Y14759D01*
X482673Y14704D01*
X482543Y14629D01*
X482358Y14555D01*
X482136Y14463D01*
X481858Y14389D01*
X481525Y14333D01*
X481173Y14315D01*
X480988D01*
X480802Y14333D01*
X480543Y14370D01*
X480284Y14426D01*
X480006Y14500D01*
X479729Y14611D01*
X479488Y14759D01*
X479469Y14778D01*
X479395Y14833D01*
X479284Y14944D01*
X479154Y15074D01*
X479025Y15259D01*
X478895Y15463D01*
X478766Y15703D01*
X478673Y15981D01*
Y16000D01*
X478655Y16074D01*
X478636Y16222D01*
X478618Y16407D01*
X478599Y16537D01*
Y16685D01*
X478580Y16852D01*
Y17037D01*
Y17240D01*
X478562Y17481D01*
Y17722D01*
Y18000D01*
X478580Y17981D01*
X478618Y17944D01*
X478673Y17888D01*
X478747Y17814D01*
X478840Y17722D01*
X478969Y17611D01*
X479117Y17500D01*
X479266Y17388D01*
X479654Y17166D01*
X480080Y16963D01*
X480321Y16889D01*
X480580Y16833D01*
X480858Y16796D01*
X481136Y16777D01*
X481228D01*
X481321Y16796D01*
X481451D01*
X481617Y16814D01*
X481802Y16852D01*
X482006Y16889D01*
X482228Y16944D01*
X482469Y17018D01*
X482710Y17111D01*
X482950Y17222D01*
X483210Y17351D01*
X483450Y17518D01*
X483691Y17703D01*
X483913Y17907D01*
X484117Y18148D01*
X484135Y18166D01*
X484154Y18203D01*
X484210Y18296D01*
X484283Y18388D01*
X484358Y18536D01*
X484450Y18685D01*
X484543Y18870D01*
X484635Y19092D01*
X484728Y19314D01*
X484821Y19573D01*
X484913Y19833D01*
X484987Y20129D01*
X485117Y20759D01*
X485135Y21110D01*
X485154Y21462D01*
Y21684D01*
X485135Y21814D01*
Y21944D01*
X485098Y22277D01*
X485043Y22647D01*
X484950Y23054D01*
X484839Y23480D01*
X484672Y23906D01*
Y23925D01*
X484654Y23962D01*
X484617Y24017D01*
X484580Y24091D01*
X484469Y24295D01*
X484321Y24554D01*
X484117Y24832D01*
X483876Y25110D01*
X483598Y25406D01*
X483284Y25647D01*
X483265D01*
X483247Y25665D01*
X483191Y25702D01*
X483117Y25739D01*
X482932Y25851D01*
X482673Y25962D01*
X482358Y26073D01*
X481987Y26184D01*
X481580Y26258D01*
X481136Y26276D01*
D02*
G37*
G36*
X407625D02*
X407458D01*
X407254Y26258D01*
X407032Y26221D01*
X406754Y26165D01*
X406477Y26091D01*
X406199Y25980D01*
X405940Y25832D01*
X405903Y25814D01*
X405829Y25758D01*
X405718Y25665D01*
X405569Y25517D01*
X405421Y25351D01*
X405255Y25147D01*
X405107Y24906D01*
X404995Y24628D01*
X404977Y24647D01*
X404940Y24702D01*
X404884Y24777D01*
X404792Y24888D01*
X404681Y25017D01*
X404551Y25147D01*
X404403Y25295D01*
X404218Y25462D01*
X404014Y25610D01*
X403810Y25758D01*
X403570Y25888D01*
X403310Y26017D01*
X403033Y26128D01*
X402736Y26202D01*
X402440Y26258D01*
X402107Y26276D01*
X401977D01*
X401885Y26258D01*
X401755D01*
X401625Y26239D01*
X401311Y26184D01*
X400977Y26091D01*
X400625Y25943D01*
X400274Y25758D01*
X399977Y25499D01*
X399940Y25462D01*
X399866Y25351D01*
X399737Y25184D01*
X399681Y25054D01*
X399607Y24925D01*
X399533Y24758D01*
X399478Y24591D01*
X399403Y24406D01*
X399348Y24184D01*
X399311Y23962D01*
X399274Y23703D01*
X399237Y23443D01*
Y16777D01*
X400811D01*
Y22610D01*
Y22629D01*
Y22647D01*
Y22758D01*
Y22925D01*
X400829Y23129D01*
X400848Y23351D01*
X400866Y23573D01*
X400903Y23795D01*
X400959Y23962D01*
Y23980D01*
X400996Y24036D01*
X401033Y24110D01*
X401088Y24202D01*
X401162Y24314D01*
X401255Y24425D01*
X401366Y24536D01*
X401514Y24647D01*
X401533Y24666D01*
X401588Y24684D01*
X401662Y24721D01*
X401792Y24777D01*
X401922Y24832D01*
X402088Y24869D01*
X402255Y24888D01*
X402459Y24906D01*
X402551D01*
X402625Y24888D01*
X402811Y24869D01*
X403033Y24832D01*
X403292Y24739D01*
X403570Y24628D01*
X403847Y24462D01*
X404107Y24240D01*
X404125Y24202D01*
X404199Y24110D01*
X404310Y23962D01*
X404421Y23740D01*
X404551Y23443D01*
X404644Y23091D01*
X404718Y22666D01*
X404755Y22166D01*
Y16777D01*
X406329D01*
Y22795D01*
Y22814D01*
Y22851D01*
Y22888D01*
Y22962D01*
X406347Y23166D01*
X406384Y23388D01*
X406421Y23647D01*
X406495Y23906D01*
X406588Y24147D01*
X406717Y24369D01*
X406736Y24388D01*
X406792Y24462D01*
X406884Y24536D01*
X407014Y24647D01*
X407180Y24739D01*
X407403Y24832D01*
X407662Y24888D01*
X407977Y24906D01*
X408088D01*
X408217Y24888D01*
X408366Y24869D01*
X408551Y24814D01*
X408773Y24758D01*
X408977Y24666D01*
X409199Y24554D01*
X409217Y24536D01*
X409291Y24480D01*
X409384Y24406D01*
X409514Y24295D01*
X409643Y24147D01*
X409773Y23962D01*
X409902Y23758D01*
X410014Y23517D01*
X410032Y23480D01*
X410051Y23388D01*
X410088Y23240D01*
X410143Y23036D01*
X410199Y22758D01*
X410236Y22425D01*
X410254Y22036D01*
X410273Y21592D01*
Y16777D01*
X411847D01*
Y26073D01*
X410439D01*
Y24739D01*
X410421Y24777D01*
X410365Y24851D01*
X410254Y24980D01*
X410125Y25128D01*
X409958Y25313D01*
X409754Y25499D01*
X409532Y25684D01*
X409273Y25851D01*
X409236Y25869D01*
X409143Y25925D01*
X408995Y25980D01*
X408791Y26073D01*
X408551Y26147D01*
X408273Y26202D01*
X407958Y26258D01*
X407625Y26276D01*
D02*
G37*
G36*
X305228Y29424D02*
X298858D01*
Y27924D01*
X303987D01*
X304673Y24462D01*
X304654Y24480D01*
X304617Y24499D01*
X304561Y24536D01*
X304469Y24591D01*
X304358Y24647D01*
X304228Y24721D01*
X303932Y24869D01*
X303561Y25017D01*
X303154Y25147D01*
X302710Y25240D01*
X302488Y25277D01*
X302080D01*
X301969Y25258D01*
X301821Y25240D01*
X301654Y25221D01*
X301469Y25184D01*
X301266Y25128D01*
X300821Y24999D01*
X300580Y24906D01*
X300340Y24777D01*
X300099Y24647D01*
X299858Y24499D01*
X299636Y24314D01*
X299414Y24110D01*
X299395Y24091D01*
X299358Y24054D01*
X299303Y23999D01*
X299229Y23906D01*
X299136Y23777D01*
X299044Y23647D01*
X298932Y23480D01*
X298821Y23295D01*
X298729Y23091D01*
X298618Y22869D01*
X298525Y22610D01*
X298432Y22351D01*
X298358Y22073D01*
X298303Y21758D01*
X298266Y21444D01*
X298247Y21110D01*
Y20944D01*
X298266Y20814D01*
X298284Y20666D01*
X298303Y20499D01*
X298340Y20296D01*
X298377Y20092D01*
X298488Y19610D01*
X298673Y19110D01*
X298784Y18851D01*
X298932Y18611D01*
X299081Y18351D01*
X299266Y18111D01*
X299284Y18092D01*
X299321Y18037D01*
X299395Y17962D01*
X299488Y17870D01*
X299618Y17759D01*
X299766Y17611D01*
X299951Y17481D01*
X300154Y17333D01*
X300377Y17185D01*
X300636Y17055D01*
X300914Y16925D01*
X301210Y16796D01*
X301525Y16703D01*
X301877Y16629D01*
X302247Y16574D01*
X302636Y16555D01*
X302802D01*
X302932Y16574D01*
X303080Y16592D01*
X303247Y16611D01*
X303450Y16629D01*
X303654Y16685D01*
X304117Y16796D01*
X304580Y16963D01*
X304821Y17074D01*
X305061Y17203D01*
X305284Y17351D01*
X305506Y17518D01*
X305524Y17537D01*
X305561Y17555D01*
X305598Y17629D01*
X305672Y17703D01*
X305765Y17796D01*
X305858Y17907D01*
X305969Y18055D01*
X306061Y18222D01*
X306172Y18388D01*
X306283Y18592D01*
X306487Y19036D01*
X306654Y19555D01*
X306709Y19833D01*
X306746Y20129D01*
X305098Y20259D01*
Y20240D01*
Y20203D01*
X305080Y20147D01*
X305061Y20055D01*
X305006Y19851D01*
X304932Y19573D01*
X304821Y19296D01*
X304673Y18981D01*
X304487Y18703D01*
X304265Y18444D01*
X304228Y18425D01*
X304154Y18351D01*
X304006Y18259D01*
X303802Y18148D01*
X303580Y18037D01*
X303302Y17944D01*
X302987Y17870D01*
X302636Y17851D01*
X302525D01*
X302451Y17870D01*
X302228Y17888D01*
X301969Y17962D01*
X301654Y18055D01*
X301339Y18203D01*
X301006Y18425D01*
X300858Y18555D01*
X300710Y18703D01*
X300691Y18722D01*
X300673Y18740D01*
X300636Y18796D01*
X300580Y18851D01*
X300451Y19055D01*
X300303Y19314D01*
X300173Y19629D01*
X300043Y20018D01*
X299951Y20481D01*
X299914Y20721D01*
Y20981D01*
Y20999D01*
Y21036D01*
Y21110D01*
X299932Y21203D01*
Y21314D01*
X299951Y21444D01*
X300006Y21740D01*
X300099Y22092D01*
X300229Y22443D01*
X300414Y22777D01*
X300673Y23091D01*
Y23110D01*
X300710Y23129D01*
X300802Y23221D01*
X300969Y23351D01*
X301191Y23499D01*
X301488Y23628D01*
X301821Y23758D01*
X302210Y23851D01*
X302432Y23888D01*
X302784D01*
X302932Y23869D01*
X303117Y23851D01*
X303339Y23795D01*
X303561Y23740D01*
X303802Y23647D01*
X304043Y23536D01*
X304062Y23517D01*
X304135Y23480D01*
X304247Y23388D01*
X304395Y23295D01*
X304543Y23166D01*
X304691Y22999D01*
X304858Y22832D01*
X304987Y22629D01*
X306469Y22832D01*
X305228Y29424D01*
D02*
G37*
G36*
X387997Y26276D02*
X387794D01*
X387590Y26258D01*
X387312Y26239D01*
X386997Y26202D01*
X386683Y26147D01*
X386368Y26073D01*
X386072Y25980D01*
X386035Y25962D01*
X385942Y25925D01*
X385812Y25869D01*
X385646Y25795D01*
X385460Y25684D01*
X385275Y25573D01*
X385109Y25425D01*
X384961Y25277D01*
X384942Y25258D01*
X384905Y25202D01*
X384849Y25110D01*
X384775Y24999D01*
X384683Y24832D01*
X384609Y24666D01*
X384535Y24462D01*
X384479Y24221D01*
Y24202D01*
X384460Y24147D01*
X384442Y24036D01*
X384423Y23888D01*
Y23684D01*
X384405Y23443D01*
X384386Y23129D01*
Y22777D01*
Y20666D01*
Y20647D01*
Y20573D01*
Y20462D01*
Y20314D01*
Y20147D01*
Y19944D01*
X384368Y19499D01*
Y19036D01*
X384349Y18573D01*
X384331Y18370D01*
Y18185D01*
X384312Y18018D01*
X384294Y17888D01*
Y17870D01*
X384275Y17796D01*
X384257Y17685D01*
X384201Y17537D01*
X384164Y17370D01*
X384090Y17185D01*
X383998Y16981D01*
X383905Y16777D01*
X385553D01*
X385572Y16796D01*
X385590Y16870D01*
X385627Y16963D01*
X385683Y17111D01*
X385738Y17277D01*
X385775Y17481D01*
X385812Y17703D01*
X385849Y17944D01*
X385868D01*
X385886Y17907D01*
X385997Y17814D01*
X386164Y17685D01*
X386386Y17518D01*
X386664Y17351D01*
X386942Y17166D01*
X387238Y17000D01*
X387553Y16870D01*
X387590Y16852D01*
X387701Y16833D01*
X387868Y16777D01*
X388071Y16722D01*
X388330Y16666D01*
X388627Y16629D01*
X388960Y16592D01*
X389293Y16574D01*
X389441D01*
X389553Y16592D01*
X389682D01*
X389830Y16611D01*
X390164Y16666D01*
X390534Y16759D01*
X390941Y16889D01*
X391312Y17074D01*
X391645Y17314D01*
X391682Y17351D01*
X391775Y17444D01*
X391904Y17611D01*
X392052Y17833D01*
X392201Y18111D01*
X392330Y18425D01*
X392423Y18814D01*
X392441Y18999D01*
X392460Y19222D01*
Y19333D01*
X392441Y19462D01*
X392423Y19629D01*
X392386Y19833D01*
X392330Y20036D01*
X392256Y20259D01*
X392164Y20462D01*
X392145Y20481D01*
X392108Y20555D01*
X392034Y20666D01*
X391941Y20796D01*
X391830Y20944D01*
X391682Y21092D01*
X391534Y21240D01*
X391349Y21370D01*
X391330Y21388D01*
X391256Y21425D01*
X391164Y21499D01*
X391015Y21573D01*
X390849Y21647D01*
X390645Y21740D01*
X390441Y21814D01*
X390201Y21888D01*
X390182D01*
X390108Y21906D01*
X389997Y21944D01*
X389849Y21962D01*
X389664Y21999D01*
X389423Y22036D01*
X389145Y22092D01*
X388812Y22129D01*
X388793D01*
X388719Y22147D01*
X388627D01*
X388497Y22166D01*
X388349Y22184D01*
X388164Y22221D01*
X387960Y22240D01*
X387738Y22277D01*
X387294Y22369D01*
X386812Y22462D01*
X386386Y22573D01*
X386183Y22629D01*
X385997Y22684D01*
Y22703D01*
Y22740D01*
X385979Y22851D01*
Y22980D01*
Y23054D01*
Y23091D01*
Y23110D01*
Y23129D01*
Y23240D01*
X385997Y23425D01*
X386035Y23628D01*
X386090Y23851D01*
X386183Y24073D01*
X386294Y24277D01*
X386442Y24443D01*
X386460Y24462D01*
X386553Y24536D01*
X386701Y24610D01*
X386886Y24721D01*
X387146Y24814D01*
X387442Y24906D01*
X387812Y24962D01*
X388238Y24980D01*
X388423D01*
X388608Y24962D01*
X388867Y24925D01*
X389127Y24888D01*
X389404Y24814D01*
X389664Y24721D01*
X389886Y24591D01*
X389904Y24573D01*
X389978Y24517D01*
X390071Y24425D01*
X390182Y24277D01*
X390293Y24091D01*
X390423Y23851D01*
X390534Y23554D01*
X390645Y23221D01*
X392182Y23425D01*
Y23443D01*
X392164Y23462D01*
Y23517D01*
X392145Y23591D01*
X392089Y23758D01*
X392015Y23999D01*
X391923Y24240D01*
X391812Y24499D01*
X391664Y24758D01*
X391497Y24999D01*
X391478Y25017D01*
X391404Y25091D01*
X391293Y25202D01*
X391145Y25351D01*
X390941Y25499D01*
X390701Y25647D01*
X390423Y25814D01*
X390108Y25943D01*
X390090D01*
X390071Y25962D01*
X390015Y25980D01*
X389941Y25999D01*
X389756Y26054D01*
X389497Y26110D01*
X389201Y26165D01*
X388830Y26221D01*
X388442Y26258D01*
X387997Y26276D01*
D02*
G37*
G36*
X381831Y29591D02*
X380128D01*
Y23221D01*
X373795Y29591D01*
X371480D01*
X376850Y24388D01*
X371240Y16777D01*
X373480D01*
X378035Y23240D01*
X380128Y21221D01*
Y16777D01*
X381831D01*
Y29591D01*
D02*
G37*
G36*
X366092Y26276D02*
X365888D01*
X365685Y26258D01*
X365407Y26239D01*
X365092Y26202D01*
X364777Y26147D01*
X364463Y26073D01*
X364166Y25980D01*
X364129Y25962D01*
X364037Y25925D01*
X363907Y25869D01*
X363741Y25795D01*
X363555Y25684D01*
X363370Y25573D01*
X363204Y25425D01*
X363055Y25277D01*
X363037Y25258D01*
X363000Y25202D01*
X362944Y25110D01*
X362870Y24999D01*
X362778Y24832D01*
X362704Y24666D01*
X362630Y24462D01*
X362574Y24221D01*
Y24202D01*
X362555Y24147D01*
X362537Y24036D01*
X362518Y23888D01*
Y23684D01*
X362500Y23443D01*
X362481Y23129D01*
Y22777D01*
Y20666D01*
Y20647D01*
Y20573D01*
Y20462D01*
Y20314D01*
Y20147D01*
Y19944D01*
X362463Y19499D01*
Y19036D01*
X362444Y18573D01*
X362426Y18370D01*
Y18185D01*
X362407Y18018D01*
X362389Y17888D01*
Y17870D01*
X362370Y17796D01*
X362352Y17685D01*
X362296Y17537D01*
X362259Y17370D01*
X362185Y17185D01*
X362093Y16981D01*
X362000Y16777D01*
X363648D01*
X363666Y16796D01*
X363685Y16870D01*
X363722Y16963D01*
X363778Y17111D01*
X363833Y17277D01*
X363870Y17481D01*
X363907Y17703D01*
X363944Y17944D01*
X363963D01*
X363981Y17907D01*
X364092Y17814D01*
X364259Y17685D01*
X364481Y17518D01*
X364759Y17351D01*
X365037Y17166D01*
X365333Y17000D01*
X365648Y16870D01*
X365685Y16852D01*
X365796Y16833D01*
X365962Y16777D01*
X366166Y16722D01*
X366425Y16666D01*
X366722Y16629D01*
X367055Y16592D01*
X367388Y16574D01*
X367536D01*
X367648Y16592D01*
X367777D01*
X367925Y16611D01*
X368259Y16666D01*
X368629Y16759D01*
X369036Y16889D01*
X369407Y17074D01*
X369740Y17314D01*
X369777Y17351D01*
X369869Y17444D01*
X369999Y17611D01*
X370147Y17833D01*
X370295Y18111D01*
X370425Y18425D01*
X370518Y18814D01*
X370536Y18999D01*
X370555Y19222D01*
Y19333D01*
X370536Y19462D01*
X370518Y19629D01*
X370480Y19833D01*
X370425Y20036D01*
X370351Y20259D01*
X370258Y20462D01*
X370240Y20481D01*
X370203Y20555D01*
X370129Y20666D01*
X370036Y20796D01*
X369925Y20944D01*
X369777Y21092D01*
X369629Y21240D01*
X369444Y21370D01*
X369425Y21388D01*
X369351Y21425D01*
X369258Y21499D01*
X369110Y21573D01*
X368944Y21647D01*
X368740Y21740D01*
X368536Y21814D01*
X368296Y21888D01*
X368277D01*
X368203Y21906D01*
X368092Y21944D01*
X367944Y21962D01*
X367759Y21999D01*
X367518Y22036D01*
X367240Y22092D01*
X366907Y22129D01*
X366888D01*
X366814Y22147D01*
X366722D01*
X366592Y22166D01*
X366444Y22184D01*
X366259Y22221D01*
X366055Y22240D01*
X365833Y22277D01*
X365388Y22369D01*
X364907Y22462D01*
X364481Y22573D01*
X364277Y22629D01*
X364092Y22684D01*
Y22703D01*
Y22740D01*
X364074Y22851D01*
Y22980D01*
Y23054D01*
Y23091D01*
Y23110D01*
Y23129D01*
Y23240D01*
X364092Y23425D01*
X364129Y23628D01*
X364185Y23851D01*
X364277Y24073D01*
X364389Y24277D01*
X364537Y24443D01*
X364555Y24462D01*
X364648Y24536D01*
X364796Y24610D01*
X364981Y24721D01*
X365240Y24814D01*
X365537Y24906D01*
X365907Y24962D01*
X366333Y24980D01*
X366518D01*
X366703Y24962D01*
X366962Y24925D01*
X367222Y24888D01*
X367499Y24814D01*
X367759Y24721D01*
X367981Y24591D01*
X367999Y24573D01*
X368073Y24517D01*
X368166Y24425D01*
X368277Y24277D01*
X368388Y24091D01*
X368518Y23851D01*
X368629Y23554D01*
X368740Y23221D01*
X370277Y23425D01*
Y23443D01*
X370258Y23462D01*
Y23517D01*
X370240Y23591D01*
X370184Y23758D01*
X370110Y23999D01*
X370018Y24240D01*
X369907Y24499D01*
X369758Y24758D01*
X369592Y24999D01*
X369573Y25017D01*
X369499Y25091D01*
X369388Y25202D01*
X369240Y25351D01*
X369036Y25499D01*
X368796Y25647D01*
X368518Y25814D01*
X368203Y25943D01*
X368185D01*
X368166Y25962D01*
X368110Y25980D01*
X368036Y25999D01*
X367851Y26054D01*
X367592Y26110D01*
X367296Y26165D01*
X366925Y26221D01*
X366536Y26258D01*
X366092Y26276D01*
D02*
G37*
G36*
X322300D02*
X322097D01*
X321893Y26258D01*
X321615Y26239D01*
X321300Y26202D01*
X320986Y26147D01*
X320671Y26073D01*
X320375Y25980D01*
X320338Y25962D01*
X320245Y25925D01*
X320115Y25869D01*
X319949Y25795D01*
X319764Y25684D01*
X319578Y25573D01*
X319412Y25425D01*
X319264Y25277D01*
X319245Y25258D01*
X319208Y25202D01*
X319153Y25110D01*
X319078Y24999D01*
X318986Y24832D01*
X318912Y24666D01*
X318838Y24462D01*
X318782Y24221D01*
Y24202D01*
X318764Y24147D01*
X318745Y24036D01*
X318727Y23888D01*
Y23684D01*
X318708Y23443D01*
X318690Y23129D01*
Y22777D01*
Y20666D01*
Y20647D01*
Y20573D01*
Y20462D01*
Y20314D01*
Y20147D01*
Y19944D01*
X318671Y19499D01*
Y19036D01*
X318653Y18573D01*
X318634Y18370D01*
Y18185D01*
X318615Y18018D01*
X318597Y17888D01*
Y17870D01*
X318578Y17796D01*
X318560Y17685D01*
X318504Y17537D01*
X318467Y17370D01*
X318393Y17185D01*
X318301Y16981D01*
X318208Y16777D01*
X319856D01*
X319875Y16796D01*
X319893Y16870D01*
X319930Y16963D01*
X319986Y17111D01*
X320041Y17277D01*
X320078Y17481D01*
X320115Y17703D01*
X320152Y17944D01*
X320171D01*
X320189Y17907D01*
X320300Y17814D01*
X320467Y17685D01*
X320689Y17518D01*
X320967Y17351D01*
X321245Y17166D01*
X321541Y17000D01*
X321856Y16870D01*
X321893Y16852D01*
X322004Y16833D01*
X322171Y16777D01*
X322374Y16722D01*
X322634Y16666D01*
X322930Y16629D01*
X323263Y16592D01*
X323596Y16574D01*
X323745D01*
X323856Y16592D01*
X323985D01*
X324133Y16611D01*
X324467Y16666D01*
X324837Y16759D01*
X325244Y16889D01*
X325615Y17074D01*
X325948Y17314D01*
X325985Y17351D01*
X326078Y17444D01*
X326207Y17611D01*
X326356Y17833D01*
X326504Y18111D01*
X326633Y18425D01*
X326726Y18814D01*
X326744Y18999D01*
X326763Y19222D01*
Y19333D01*
X326744Y19462D01*
X326726Y19629D01*
X326689Y19833D01*
X326633Y20036D01*
X326559Y20259D01*
X326467Y20462D01*
X326448Y20481D01*
X326411Y20555D01*
X326337Y20666D01*
X326244Y20796D01*
X326133Y20944D01*
X325985Y21092D01*
X325837Y21240D01*
X325652Y21370D01*
X325633Y21388D01*
X325559Y21425D01*
X325467Y21499D01*
X325318Y21573D01*
X325152Y21647D01*
X324948Y21740D01*
X324744Y21814D01*
X324504Y21888D01*
X324485D01*
X324411Y21906D01*
X324300Y21944D01*
X324152Y21962D01*
X323967Y21999D01*
X323726Y22036D01*
X323448Y22092D01*
X323115Y22129D01*
X323097D01*
X323022Y22147D01*
X322930D01*
X322800Y22166D01*
X322652Y22184D01*
X322467Y22221D01*
X322263Y22240D01*
X322041Y22277D01*
X321597Y22369D01*
X321115Y22462D01*
X320689Y22573D01*
X320486Y22629D01*
X320300Y22684D01*
Y22703D01*
Y22740D01*
X320282Y22851D01*
Y22980D01*
Y23054D01*
Y23091D01*
Y23110D01*
Y23129D01*
Y23240D01*
X320300Y23425D01*
X320338Y23628D01*
X320393Y23851D01*
X320486Y24073D01*
X320597Y24277D01*
X320745Y24443D01*
X320763Y24462D01*
X320856Y24536D01*
X321004Y24610D01*
X321189Y24721D01*
X321449Y24814D01*
X321745Y24906D01*
X322115Y24962D01*
X322541Y24980D01*
X322726D01*
X322911Y24962D01*
X323171Y24925D01*
X323430Y24888D01*
X323708Y24814D01*
X323967Y24721D01*
X324189Y24591D01*
X324207Y24573D01*
X324282Y24517D01*
X324374Y24425D01*
X324485Y24277D01*
X324596Y24091D01*
X324726Y23851D01*
X324837Y23554D01*
X324948Y23221D01*
X326485Y23425D01*
Y23443D01*
X326467Y23462D01*
Y23517D01*
X326448Y23591D01*
X326393Y23758D01*
X326318Y23999D01*
X326226Y24240D01*
X326115Y24499D01*
X325967Y24758D01*
X325800Y24999D01*
X325781Y25017D01*
X325707Y25091D01*
X325596Y25202D01*
X325448Y25351D01*
X325244Y25499D01*
X325004Y25647D01*
X324726Y25814D01*
X324411Y25943D01*
X324393D01*
X324374Y25962D01*
X324319Y25980D01*
X324245Y25999D01*
X324059Y26054D01*
X323800Y26110D01*
X323504Y26165D01*
X323134Y26221D01*
X322745Y26258D01*
X322300Y26276D01*
D02*
G37*
G36*
X468767Y29313D02*
Y26073D01*
X467174D01*
Y24851D01*
X468767D01*
Y19388D01*
Y19351D01*
Y19277D01*
Y19166D01*
X468748Y19036D01*
X468730Y18740D01*
X468711Y18611D01*
X468693Y18518D01*
X468674Y18481D01*
X468619Y18407D01*
X468544Y18314D01*
X468415Y18222D01*
X468378Y18203D01*
X468285Y18166D01*
X468119Y18129D01*
X467878Y18111D01*
X467693D01*
X467600Y18129D01*
X467471D01*
X467322Y18148D01*
X467174Y18166D01*
X466970Y16777D01*
X467007D01*
X467082Y16759D01*
X467211Y16740D01*
X467378Y16722D01*
X467563Y16685D01*
X467767Y16666D01*
X468174Y16648D01*
X468322D01*
X468470Y16666D01*
X468656Y16685D01*
X468878Y16703D01*
X469100Y16759D01*
X469304Y16814D01*
X469507Y16907D01*
X469526Y16925D01*
X469581Y16963D01*
X469655Y17018D01*
X469767Y17111D01*
X469859Y17203D01*
X469970Y17333D01*
X470081Y17463D01*
X470155Y17629D01*
Y17648D01*
X470192Y17722D01*
X470211Y17851D01*
X470248Y18037D01*
X470285Y18277D01*
X470303Y18425D01*
Y18592D01*
X470322Y18796D01*
X470340Y18999D01*
Y19222D01*
Y19481D01*
Y24851D01*
X471507D01*
Y26073D01*
X470340D01*
Y28369D01*
X468767Y29313D01*
D02*
G37*
G36*
X455694Y26073D02*
X454120D01*
Y20907D01*
Y20888D01*
Y20851D01*
Y20796D01*
Y20703D01*
Y20499D01*
X454101Y20240D01*
Y19962D01*
X454083Y19684D01*
X454064Y19444D01*
X454027Y19240D01*
Y19222D01*
X453990Y19147D01*
X453953Y19036D01*
X453898Y18888D01*
X453805Y18740D01*
X453694Y18573D01*
X453564Y18425D01*
X453398Y18277D01*
X453379Y18259D01*
X453305Y18222D01*
X453213Y18166D01*
X453064Y18111D01*
X452898Y18037D01*
X452694Y17981D01*
X452472Y17944D01*
X452213Y17925D01*
X452083D01*
X451954Y17944D01*
X451787Y17962D01*
X451583Y18018D01*
X451361Y18074D01*
X451120Y18166D01*
X450880Y18277D01*
X450843Y18296D01*
X450769Y18351D01*
X450657Y18425D01*
X450528Y18536D01*
X450380Y18685D01*
X450232Y18851D01*
X450102Y19036D01*
X449991Y19259D01*
X449972Y19296D01*
X449954Y19370D01*
X449917Y19518D01*
X449861Y19721D01*
X449806Y19981D01*
X449769Y20296D01*
X449750Y20666D01*
X449732Y21092D01*
Y26073D01*
X448158D01*
Y16777D01*
X449565D01*
Y18129D01*
X449583Y18111D01*
X449621Y18055D01*
X449676Y17981D01*
X449769Y17888D01*
X449880Y17777D01*
X450009Y17629D01*
X450157Y17500D01*
X450343Y17351D01*
X450546Y17203D01*
X450769Y17074D01*
X451009Y16944D01*
X451268Y16814D01*
X451565Y16722D01*
X451861Y16648D01*
X452194Y16592D01*
X452528Y16574D01*
X452657D01*
X452824Y16592D01*
X453027Y16611D01*
X453268Y16648D01*
X453527Y16703D01*
X453787Y16777D01*
X454064Y16889D01*
X454101Y16907D01*
X454175Y16944D01*
X454305Y17018D01*
X454453Y17111D01*
X454638Y17222D01*
X454805Y17351D01*
X454972Y17500D01*
X455120Y17666D01*
X455138Y17685D01*
X455175Y17759D01*
X455231Y17851D01*
X455305Y18000D01*
X455398Y18166D01*
X455472Y18370D01*
X455546Y18592D01*
X455601Y18833D01*
Y18851D01*
X455620Y18925D01*
X455638Y19036D01*
Y19184D01*
X455657Y19407D01*
X455675Y19648D01*
X455694Y19962D01*
Y26073D01*
D02*
G37*
G36*
X426993Y26276D02*
X426845D01*
X426734Y26258D01*
X426623D01*
X426475Y26239D01*
X426123Y26184D01*
X425734Y26091D01*
X425327Y25943D01*
X424919Y25758D01*
X424530Y25499D01*
X424512D01*
X424493Y25462D01*
X424382Y25351D01*
X424216Y25184D01*
X424012Y24943D01*
X423808Y24647D01*
X423605Y24277D01*
X423419Y23851D01*
X423290Y23351D01*
X424827Y23110D01*
Y23129D01*
X424845Y23147D01*
X424864Y23258D01*
X424919Y23425D01*
X425012Y23628D01*
X425104Y23851D01*
X425253Y24091D01*
X425419Y24314D01*
X425604Y24499D01*
X425623Y24517D01*
X425697Y24573D01*
X425827Y24647D01*
X425975Y24739D01*
X426178Y24832D01*
X426401Y24906D01*
X426660Y24962D01*
X426938Y24980D01*
X427049D01*
X427141Y24962D01*
X427345Y24943D01*
X427623Y24869D01*
X427919Y24777D01*
X428252Y24628D01*
X428567Y24406D01*
X428715Y24277D01*
X428863Y24128D01*
Y24110D01*
X428900Y24091D01*
X428937Y24036D01*
X428974Y23962D01*
X429030Y23869D01*
X429104Y23758D01*
X429160Y23628D01*
X429234Y23480D01*
X429308Y23295D01*
X429363Y23091D01*
X429437Y22869D01*
X429493Y22629D01*
X429530Y22369D01*
X429567Y22073D01*
X429604Y21758D01*
Y21425D01*
Y21407D01*
Y21351D01*
Y21240D01*
X429585Y21129D01*
Y20962D01*
X429567Y20796D01*
X429511Y20388D01*
X429437Y19944D01*
X429308Y19481D01*
X429141Y19073D01*
X429030Y18870D01*
X428900Y18703D01*
X428863Y18666D01*
X428771Y18573D01*
X428604Y18444D01*
X428400Y18296D01*
X428123Y18129D01*
X427808Y18000D01*
X427438Y17907D01*
X427234Y17888D01*
X427030Y17870D01*
X426993D01*
X426882Y17888D01*
X426697Y17907D01*
X426493Y17944D01*
X426253Y18000D01*
X425993Y18111D01*
X425734Y18240D01*
X425493Y18425D01*
X425456Y18444D01*
X425401Y18536D01*
X425290Y18666D01*
X425160Y18870D01*
X425030Y19110D01*
X424882Y19407D01*
X424771Y19777D01*
X424697Y20184D01*
X423142Y19981D01*
Y19962D01*
X423160Y19907D01*
X423179Y19833D01*
X423197Y19721D01*
X423234Y19573D01*
X423271Y19425D01*
X423401Y19055D01*
X423568Y18666D01*
X423808Y18240D01*
X424105Y17833D01*
X424271Y17648D01*
X424456Y17463D01*
X424475Y17444D01*
X424512Y17426D01*
X424567Y17388D01*
X424642Y17333D01*
X424734Y17259D01*
X424864Y17185D01*
X425012Y17111D01*
X425160Y17018D01*
X425530Y16852D01*
X425975Y16722D01*
X426456Y16611D01*
X426734Y16592D01*
X427012Y16574D01*
X427197D01*
X427327Y16592D01*
X427493Y16611D01*
X427678Y16648D01*
X427882Y16685D01*
X428104Y16722D01*
X428604Y16870D01*
X428845Y16981D01*
X429104Y17092D01*
X429363Y17240D01*
X429604Y17407D01*
X429845Y17592D01*
X430067Y17814D01*
X430085Y17833D01*
X430122Y17870D01*
X430178Y17944D01*
X430252Y18037D01*
X430326Y18166D01*
X430437Y18333D01*
X430530Y18518D01*
X430641Y18722D01*
X430752Y18962D01*
X430845Y19240D01*
X430956Y19518D01*
X431030Y19851D01*
X431104Y20184D01*
X431159Y20573D01*
X431196Y20962D01*
X431215Y21388D01*
Y21647D01*
X431196Y21777D01*
Y21925D01*
X431178Y22092D01*
X431159Y22277D01*
X431104Y22684D01*
X431011Y23129D01*
X430900Y23573D01*
X430733Y24017D01*
Y24036D01*
X430715Y24073D01*
X430678Y24128D01*
X430641Y24202D01*
X430530Y24406D01*
X430363Y24647D01*
X430141Y24925D01*
X429882Y25202D01*
X429567Y25480D01*
X429215Y25702D01*
X429197D01*
X429160Y25721D01*
X429104Y25758D01*
X429030Y25795D01*
X428937Y25832D01*
X428826Y25888D01*
X428549Y25999D01*
X428234Y26091D01*
X427845Y26184D01*
X427438Y26258D01*
X426993Y26276D01*
D02*
G37*
G36*
X343335D02*
X343150D01*
X343020Y26258D01*
X342872Y26239D01*
X342687Y26202D01*
X342483Y26165D01*
X342243Y26110D01*
X342020Y26054D01*
X341761Y25962D01*
X341521Y25869D01*
X341261Y25739D01*
X341002Y25591D01*
X340743Y25425D01*
X340502Y25221D01*
X340280Y24999D01*
X340261Y24980D01*
X340224Y24943D01*
X340169Y24869D01*
X340095Y24758D01*
X340002Y24628D01*
X339910Y24480D01*
X339799Y24295D01*
X339687Y24073D01*
X339576Y23832D01*
X339465Y23573D01*
X339373Y23277D01*
X339280Y22962D01*
X339206Y22610D01*
X339150Y22240D01*
X339113Y21851D01*
X339095Y21425D01*
Y21203D01*
X339113Y21018D01*
X346057D01*
Y20999D01*
Y20944D01*
X346039Y20870D01*
Y20759D01*
X346020Y20629D01*
X345983Y20481D01*
X345928Y20147D01*
X345816Y19777D01*
X345668Y19370D01*
X345465Y18999D01*
X345205Y18666D01*
X345187D01*
X345168Y18629D01*
X345057Y18536D01*
X344891Y18407D01*
X344668Y18277D01*
X344372Y18129D01*
X344039Y18000D01*
X343669Y17907D01*
X343465Y17888D01*
X343243Y17870D01*
X343094D01*
X342928Y17888D01*
X342724Y17925D01*
X342502Y17981D01*
X342243Y18055D01*
X342002Y18166D01*
X341761Y18314D01*
X341743Y18333D01*
X341650Y18407D01*
X341539Y18518D01*
X341409Y18666D01*
X341261Y18870D01*
X341095Y19129D01*
X340928Y19425D01*
X340780Y19777D01*
X339150Y19573D01*
Y19555D01*
X339169Y19518D01*
X339188Y19444D01*
X339225Y19333D01*
X339280Y19222D01*
X339336Y19073D01*
X339484Y18759D01*
X339669Y18407D01*
X339928Y18037D01*
X340224Y17685D01*
X340595Y17351D01*
X340613D01*
X340650Y17314D01*
X340706Y17277D01*
X340780Y17222D01*
X340891Y17166D01*
X341002Y17111D01*
X341150Y17037D01*
X341317Y16963D01*
X341502Y16889D01*
X341687Y16814D01*
X342150Y16703D01*
X342669Y16611D01*
X343243Y16574D01*
X343446D01*
X343576Y16592D01*
X343742Y16611D01*
X343946Y16648D01*
X344168Y16685D01*
X344409Y16722D01*
X344928Y16870D01*
X345205Y16981D01*
X345465Y17092D01*
X345742Y17240D01*
X346002Y17407D01*
X346242Y17592D01*
X346483Y17814D01*
X346502Y17833D01*
X346539Y17870D01*
X346594Y17944D01*
X346668Y18055D01*
X346761Y18185D01*
X346853Y18333D01*
X346964Y18518D01*
X347076Y18722D01*
X347187Y18962D01*
X347298Y19222D01*
X347390Y19518D01*
X347483Y19833D01*
X347557Y20166D01*
X347612Y20536D01*
X347649Y20925D01*
X347668Y21332D01*
Y21555D01*
X347649Y21721D01*
X347631Y21925D01*
X347612Y22147D01*
X347575Y22406D01*
X347520Y22666D01*
X347372Y23258D01*
X347279Y23554D01*
X347168Y23869D01*
X347020Y24165D01*
X346853Y24443D01*
X346668Y24721D01*
X346465Y24980D01*
X346446Y24999D01*
X346409Y25036D01*
X346335Y25091D01*
X346242Y25184D01*
X346131Y25277D01*
X345983Y25388D01*
X345816Y25517D01*
X345613Y25628D01*
X345409Y25758D01*
X345168Y25869D01*
X344909Y25980D01*
X344631Y26073D01*
X344335Y26165D01*
X344020Y26221D01*
X343687Y26258D01*
X343335Y26276D01*
D02*
G37*
G36*
X474581Y26073D02*
X473007D01*
Y16777D01*
X474581D01*
Y26073D01*
D02*
G37*
G36*
X435289Y18573D02*
X433493D01*
Y16777D01*
X435289D01*
Y18573D01*
D02*
G37*
G36*
X359833Y29591D02*
X353890D01*
X353741Y29572D01*
X353575D01*
X353186Y29554D01*
X352779Y29498D01*
X352334Y29443D01*
X351927Y29350D01*
X351723Y29295D01*
X351557Y29239D01*
X351538D01*
X351520Y29220D01*
X351408Y29165D01*
X351242Y29091D01*
X351038Y28961D01*
X350816Y28795D01*
X350575Y28572D01*
X350353Y28313D01*
X350131Y28017D01*
Y27998D01*
X350112Y27980D01*
X350038Y27869D01*
X349964Y27684D01*
X349853Y27443D01*
X349760Y27165D01*
X349668Y26832D01*
X349612Y26480D01*
X349594Y26091D01*
Y26073D01*
Y26036D01*
Y25962D01*
X349612Y25869D01*
Y25739D01*
X349631Y25610D01*
X349705Y25295D01*
X349816Y24925D01*
X349964Y24536D01*
X350186Y24147D01*
X350335Y23962D01*
X350483Y23777D01*
X350501Y23758D01*
X350520Y23740D01*
X350575Y23684D01*
X350649Y23628D01*
X350742Y23554D01*
X350853Y23480D01*
X351001Y23388D01*
X351149Y23277D01*
X351334Y23184D01*
X351538Y23091D01*
X351760Y22980D01*
X352001Y22888D01*
X352279Y22814D01*
X352556Y22721D01*
X352871Y22666D01*
X353204Y22610D01*
X353167Y22592D01*
X353093Y22555D01*
X352982Y22480D01*
X352834Y22406D01*
X352501Y22203D01*
X352334Y22073D01*
X352186Y21962D01*
X352149Y21925D01*
X352057Y21832D01*
X351908Y21684D01*
X351723Y21499D01*
X351520Y21240D01*
X351279Y20962D01*
X351038Y20629D01*
X350779Y20259D01*
X348575Y16777D01*
X350686D01*
X352371Y19444D01*
Y19462D01*
X352408Y19499D01*
X352445Y19555D01*
X352501Y19629D01*
X352631Y19833D01*
X352797Y20092D01*
X353001Y20370D01*
X353204Y20666D01*
X353408Y20944D01*
X353593Y21203D01*
X353612Y21221D01*
X353667Y21295D01*
X353760Y21407D01*
X353890Y21536D01*
X354167Y21814D01*
X354315Y21944D01*
X354464Y22055D01*
X354482Y22073D01*
X354519Y22092D01*
X354593Y22129D01*
X354704Y22184D01*
X354815Y22240D01*
X354945Y22295D01*
X355241Y22388D01*
X355260D01*
X355297Y22406D01*
X355371D01*
X355464Y22425D01*
X355593Y22443D01*
X355741D01*
X355945Y22462D01*
X358130D01*
Y16777D01*
X359833D01*
Y29591D01*
D02*
G37*
G36*
X337262D02*
X328059D01*
Y28073D01*
X335299Y19203D01*
X336058Y18296D01*
X327855D01*
Y16777D01*
X338002D01*
Y18351D01*
X331429Y26536D01*
Y26554D01*
X331392Y26573D01*
X331299Y26684D01*
X331170Y26850D01*
X331003Y27054D01*
X330799Y27295D01*
X330577Y27554D01*
X330336Y27813D01*
X330096Y28073D01*
X337262D01*
Y29591D01*
D02*
G37*
G36*
X316597Y29424D02*
X308302D01*
Y28184D01*
X308320Y28165D01*
X308357Y28128D01*
X308431Y28054D01*
X308505Y27943D01*
X308617Y27813D01*
X308765Y27665D01*
X308913Y27480D01*
X309079Y27258D01*
X309246Y27036D01*
X309450Y26776D01*
X309653Y26480D01*
X309857Y26184D01*
X310079Y25851D01*
X310302Y25499D01*
X310524Y25110D01*
X310746Y24721D01*
X310765Y24702D01*
X310802Y24628D01*
X310857Y24517D01*
X310950Y24351D01*
X311042Y24147D01*
X311153Y23925D01*
X311283Y23666D01*
X311413Y23369D01*
X311561Y23036D01*
X311727Y22703D01*
X311875Y22332D01*
X312024Y21944D01*
X312320Y21147D01*
X312598Y20296D01*
Y20277D01*
X312616Y20222D01*
X312635Y20129D01*
X312672Y20018D01*
X312709Y19870D01*
X312746Y19684D01*
X312801Y19481D01*
X312838Y19259D01*
X312894Y18999D01*
X312949Y18722D01*
X313042Y18129D01*
X313135Y17481D01*
X313190Y16777D01*
X314801D01*
Y16796D01*
Y16852D01*
Y16925D01*
X314783Y17037D01*
Y17185D01*
X314764Y17370D01*
X314746Y17574D01*
X314727Y17796D01*
X314690Y18055D01*
X314653Y18314D01*
X314597Y18629D01*
X314542Y18944D01*
X314486Y19277D01*
X314412Y19648D01*
X314227Y20407D01*
Y20425D01*
X314209Y20499D01*
X314172Y20610D01*
X314116Y20777D01*
X314060Y20962D01*
X313986Y21184D01*
X313912Y21444D01*
X313801Y21721D01*
X313690Y22036D01*
X313579Y22351D01*
X313301Y23054D01*
X312968Y23795D01*
X312598Y24536D01*
X312579Y24554D01*
X312542Y24628D01*
X312486Y24721D01*
X312412Y24869D01*
X312320Y25036D01*
X312190Y25240D01*
X312061Y25462D01*
X311912Y25702D01*
X311561Y26239D01*
X311190Y26795D01*
X310765Y27369D01*
X310320Y27906D01*
X316597D01*
Y29424D01*
D02*
G37*
G36*
X418031Y26276D02*
X417846D01*
X417716Y26258D01*
X417550Y26239D01*
X417365Y26202D01*
X417161Y26165D01*
X416920Y26128D01*
X416420Y25962D01*
X416161Y25869D01*
X415902Y25739D01*
X415643Y25610D01*
X415383Y25425D01*
X415143Y25240D01*
X414902Y25017D01*
X414883Y24999D01*
X414846Y24962D01*
X414791Y24888D01*
X414717Y24795D01*
X414624Y24666D01*
X414513Y24499D01*
X414402Y24314D01*
X414291Y24110D01*
X414180Y23888D01*
X414069Y23610D01*
X413957Y23332D01*
X413865Y23017D01*
X413791Y22684D01*
X413735Y22332D01*
X413698Y21962D01*
X413680Y21555D01*
Y21258D01*
X413698Y21110D01*
X413717Y20925D01*
Y20740D01*
X413754Y20536D01*
X413809Y20073D01*
X413921Y19610D01*
X414050Y19147D01*
X414235Y18722D01*
Y18703D01*
X414254Y18685D01*
X414291Y18629D01*
X414328Y18555D01*
X414457Y18370D01*
X414624Y18148D01*
X414846Y17888D01*
X415124Y17629D01*
X415439Y17370D01*
X415809Y17129D01*
X415828D01*
X415846Y17111D01*
X415902Y17074D01*
X415994Y17037D01*
X416087Y17000D01*
X416198Y16963D01*
X416476Y16852D01*
X416791Y16759D01*
X417179Y16666D01*
X417587Y16592D01*
X418031Y16574D01*
X418216D01*
X418364Y16592D01*
X418531Y16611D01*
X418716Y16648D01*
X418938Y16685D01*
X419161Y16722D01*
X419661Y16870D01*
X419938Y16981D01*
X420198Y17092D01*
X420457Y17240D01*
X420716Y17407D01*
X420957Y17592D01*
X421198Y17814D01*
X421216Y17833D01*
X421253Y17870D01*
X421309Y17944D01*
X421383Y18055D01*
X421475Y18185D01*
X421568Y18333D01*
X421679Y18518D01*
X421790Y18740D01*
X421901Y18981D01*
X422012Y19259D01*
X422105Y19555D01*
X422197Y19870D01*
X422271Y20222D01*
X422327Y20592D01*
X422364Y20999D01*
X422383Y21425D01*
Y21536D01*
X422364Y21666D01*
Y21851D01*
X422346Y22055D01*
X422309Y22314D01*
X422271Y22573D01*
X422197Y22869D01*
X422123Y23166D01*
X422031Y23480D01*
X421920Y23814D01*
X421772Y24128D01*
X421623Y24425D01*
X421420Y24721D01*
X421216Y24999D01*
X420957Y25240D01*
X420938Y25258D01*
X420901Y25277D01*
X420827Y25332D01*
X420735Y25406D01*
X420624Y25480D01*
X420475Y25573D01*
X420327Y25665D01*
X420142Y25758D01*
X419938Y25851D01*
X419716Y25943D01*
X419216Y26110D01*
X418642Y26239D01*
X418346Y26258D01*
X418031Y26276D01*
D02*
G37*
G36*
X394367Y29813D02*
X393108D01*
X396830Y16555D01*
X398089D01*
X394367Y29813D01*
D02*
G37*
%LPD*%
G36*
X378041Y62758D02*
X378273Y62735D01*
X378597Y62665D01*
X378944Y62550D01*
X379337Y62365D01*
X379708Y62133D01*
X380078Y61809D01*
X380124Y61763D01*
X380217Y61647D01*
X380379Y61439D01*
X380541Y61138D01*
X380703Y60791D01*
X380864Y60351D01*
X380957Y59865D01*
X381003Y59310D01*
Y59264D01*
Y59148D01*
X380980Y58940D01*
X380957Y58685D01*
X380911Y58385D01*
X380818Y58061D01*
X380726Y57713D01*
X380587Y57366D01*
X380564Y57320D01*
X380494Y57204D01*
X380402Y57042D01*
X380263Y56834D01*
X380101Y56626D01*
X379893Y56371D01*
X379661Y56163D01*
X379384Y55955D01*
X379337Y55932D01*
X379245Y55886D01*
X379083Y55793D01*
X378875Y55724D01*
X378643Y55631D01*
X378366Y55538D01*
X378065Y55492D01*
X377741Y55469D01*
X377625D01*
X377533Y55492D01*
X377301Y55515D01*
X377000Y55585D01*
X376676Y55724D01*
X376306Y55886D01*
X375936Y56140D01*
X375751Y56279D01*
X375589Y56464D01*
Y56487D01*
X375542Y56510D01*
X375450Y56649D01*
X375311Y56880D01*
X375126Y57181D01*
X374964Y57575D01*
X374825Y58038D01*
X374733Y58570D01*
X374686Y59194D01*
Y59218D01*
Y59264D01*
Y59356D01*
X374710Y59472D01*
Y59611D01*
X374733Y59773D01*
X374802Y60143D01*
X374895Y60560D01*
X375057Y60999D01*
X375288Y61416D01*
X375589Y61809D01*
X375635Y61856D01*
X375751Y61971D01*
X375936Y62110D01*
X376190Y62295D01*
X376514Y62480D01*
X376885Y62619D01*
X377324Y62735D01*
X377810Y62781D01*
X377949D01*
X378041Y62758D01*
D02*
G37*
G36*
X365592D02*
X365824Y62735D01*
X366148Y62665D01*
X366495Y62550D01*
X366888Y62365D01*
X367259Y62133D01*
X367629Y61809D01*
X367675Y61763D01*
X367768Y61647D01*
X367930Y61439D01*
X368092Y61138D01*
X368254Y60791D01*
X368415Y60351D01*
X368508Y59865D01*
X368554Y59310D01*
Y59264D01*
Y59148D01*
X368531Y58940D01*
X368508Y58685D01*
X368462Y58385D01*
X368369Y58061D01*
X368277Y57713D01*
X368138Y57366D01*
X368115Y57320D01*
X368045Y57204D01*
X367953Y57042D01*
X367814Y56834D01*
X367652Y56626D01*
X367444Y56371D01*
X367212Y56163D01*
X366935Y55955D01*
X366888Y55932D01*
X366796Y55886D01*
X366634Y55793D01*
X366426Y55724D01*
X366194Y55631D01*
X365916Y55538D01*
X365616Y55492D01*
X365292Y55469D01*
X365176D01*
X365084Y55492D01*
X364852Y55515D01*
X364551Y55585D01*
X364227Y55724D01*
X363857Y55886D01*
X363487Y56140D01*
X363302Y56279D01*
X363140Y56464D01*
Y56487D01*
X363093Y56510D01*
X363001Y56649D01*
X362862Y56880D01*
X362677Y57181D01*
X362515Y57575D01*
X362376Y58038D01*
X362284Y58570D01*
X362237Y59194D01*
Y59218D01*
Y59264D01*
Y59356D01*
X362261Y59472D01*
Y59611D01*
X362284Y59773D01*
X362353Y60143D01*
X362446Y60560D01*
X362608Y60999D01*
X362839Y61416D01*
X363140Y61809D01*
X363186Y61856D01*
X363302Y61971D01*
X363487Y62110D01*
X363741Y62295D01*
X364065Y62480D01*
X364436Y62619D01*
X364875Y62735D01*
X365361Y62781D01*
X365500D01*
X365592Y62758D01*
D02*
G37*
G36*
X450260Y64355D02*
X450514Y64331D01*
X450815Y64262D01*
X451185Y64146D01*
X451578Y63984D01*
X451949Y63753D01*
X452319Y63452D01*
X452365Y63406D01*
X452458Y63290D01*
X452620Y63082D01*
X452782Y62804D01*
X452967Y62480D01*
X453129Y62064D01*
X453268Y61578D01*
X453337Y61046D01*
X446835D01*
Y61069D01*
Y61115D01*
X446858Y61185D01*
Y61277D01*
X446904Y61555D01*
X446974Y61856D01*
X447090Y62226D01*
X447205Y62573D01*
X447390Y62920D01*
X447599Y63221D01*
Y63244D01*
X447645Y63267D01*
X447761Y63406D01*
X447969Y63591D01*
X448246Y63799D01*
X448594Y64008D01*
X449010Y64193D01*
X449496Y64331D01*
X449751Y64355D01*
X450028Y64378D01*
X450167D01*
X450260Y64355D01*
D02*
G37*
G36*
X420387D02*
X420641Y64331D01*
X420942Y64262D01*
X421312Y64146D01*
X421706Y63984D01*
X422076Y63753D01*
X422446Y63452D01*
X422492Y63406D01*
X422585Y63290D01*
X422747Y63082D01*
X422909Y62804D01*
X423094Y62480D01*
X423256Y62064D01*
X423395Y61578D01*
X423464Y61046D01*
X416962D01*
Y61069D01*
Y61115D01*
X416985Y61185D01*
Y61277D01*
X417031Y61555D01*
X417101Y61856D01*
X417216Y62226D01*
X417332Y62573D01*
X417517Y62920D01*
X417726Y63221D01*
Y63244D01*
X417772Y63267D01*
X417888Y63406D01*
X418096Y63591D01*
X418373Y63799D01*
X418721Y64008D01*
X419137Y64193D01*
X419623Y64331D01*
X419878Y64355D01*
X420155Y64378D01*
X420294D01*
X420387Y64355D01*
D02*
G37*
G36*
X477888Y68566D02*
X478096Y68543D01*
X478328Y68496D01*
X478582Y68450D01*
X478860Y68381D01*
X479184Y68288D01*
X479485Y68196D01*
X479809Y68057D01*
X480156Y67895D01*
X480480Y67710D01*
X480804Y67478D01*
X481128Y67247D01*
X481428Y66946D01*
X481451Y66923D01*
X481498Y66877D01*
X481567Y66784D01*
X481660Y66645D01*
X481799Y66483D01*
X481914Y66275D01*
X482053Y66021D01*
X482192Y65743D01*
X482354Y65419D01*
X482493Y65049D01*
X482608Y64655D01*
X482724Y64216D01*
X482840Y63753D01*
X482909Y63244D01*
X482956Y62688D01*
X482979Y62110D01*
Y62064D01*
Y61971D01*
Y61809D01*
X482956Y61601D01*
X482932Y61346D01*
X482886Y61046D01*
X482840Y60698D01*
X482794Y60351D01*
X482608Y59565D01*
X482493Y59171D01*
X482331Y58778D01*
X482169Y58385D01*
X481961Y58014D01*
X481729Y57644D01*
X481451Y57320D01*
X481428Y57297D01*
X481382Y57251D01*
X481289Y57158D01*
X481174Y57066D01*
X481012Y56927D01*
X480827Y56788D01*
X480619Y56649D01*
X480364Y56487D01*
X480109Y56325D01*
X479809Y56186D01*
X479485Y56048D01*
X479138Y55909D01*
X478744Y55816D01*
X478351Y55724D01*
X477934Y55677D01*
X477495Y55654D01*
X477286D01*
X477078Y55677D01*
X476800Y55700D01*
X476453Y55747D01*
X476106Y55839D01*
X475713Y55932D01*
X475343Y56071D01*
X475389Y56094D01*
X475505Y56186D01*
X475713Y56302D01*
X475967Y56441D01*
X476291Y56580D01*
X476638Y56742D01*
X477032Y56880D01*
X477448Y56996D01*
X476916Y58523D01*
X476893D01*
X476824Y58500D01*
X476731Y58477D01*
X476615Y58431D01*
X476453Y58385D01*
X476268Y58315D01*
X475852Y58153D01*
X475366Y57922D01*
X474857Y57667D01*
X474371Y57366D01*
X473885Y56996D01*
X473862Y57019D01*
X473792Y57066D01*
X473700Y57181D01*
X473584Y57320D01*
X473445Y57505D01*
X473283Y57713D01*
X473121Y57968D01*
X472936Y58269D01*
X472774Y58616D01*
X472612Y59009D01*
X472450Y59426D01*
X472312Y59865D01*
X472173Y60375D01*
X472080Y60907D01*
X472034Y61485D01*
X472011Y62110D01*
Y62133D01*
Y62203D01*
Y62295D01*
Y62434D01*
X472034Y62619D01*
Y62804D01*
X472057Y63036D01*
X472103Y63267D01*
X472173Y63799D01*
X472288Y64378D01*
X472450Y64956D01*
X472682Y65511D01*
Y65535D01*
X472705Y65581D01*
X472751Y65650D01*
X472797Y65743D01*
X472959Y66021D01*
X473168Y66344D01*
X473445Y66715D01*
X473792Y67085D01*
X474186Y67455D01*
X474625Y67779D01*
X474649D01*
X474672Y67825D01*
X474741Y67849D01*
X474857Y67918D01*
X474972Y67964D01*
X475111Y68034D01*
X475458Y68196D01*
X475875Y68334D01*
X476361Y68473D01*
X476916Y68566D01*
X477495Y68589D01*
X477726D01*
X477888Y68566D01*
D02*
G37*
G36*
X437278Y39401D02*
X437348Y39378D01*
X437440Y39355D01*
X437556Y39309D01*
X437695Y39262D01*
X437857Y39216D01*
X438042Y39170D01*
X438250Y39100D01*
X438505Y39054D01*
X438759Y38984D01*
X439060Y38915D01*
X439384Y38846D01*
X439708Y38776D01*
X440078Y38730D01*
X440472Y38661D01*
X440518D01*
X440657Y38637D01*
X440888Y38591D01*
X441143Y38545D01*
X441420Y38499D01*
X441698Y38429D01*
X441953Y38360D01*
X442184Y38267D01*
X442207D01*
X442276Y38221D01*
X442369Y38175D01*
X442462Y38105D01*
X442739Y37920D01*
X442971Y37642D01*
Y37619D01*
X443017Y37573D01*
X443040Y37480D01*
X443086Y37365D01*
X443133Y37226D01*
X443179Y37087D01*
X443202Y36902D01*
X443225Y36717D01*
Y36694D01*
Y36578D01*
X443202Y36439D01*
X443156Y36254D01*
X443086Y36046D01*
X442971Y35838D01*
X442832Y35606D01*
X442647Y35398D01*
X442624Y35375D01*
X442531Y35329D01*
X442392Y35236D01*
X442207Y35143D01*
X441953Y35051D01*
X441652Y34958D01*
X441305Y34912D01*
X440888Y34889D01*
X440703D01*
X440472Y34912D01*
X440217Y34958D01*
X439893Y35005D01*
X439569Y35097D01*
X439222Y35213D01*
X438875Y35375D01*
X438829Y35398D01*
X438736Y35467D01*
X438574Y35583D01*
X438389Y35745D01*
X438181Y35930D01*
X437949Y36161D01*
X437764Y36439D01*
X437579Y36740D01*
X437556Y36763D01*
X437533Y36856D01*
X437487Y37018D01*
X437417Y37226D01*
X437348Y37504D01*
X437301Y37828D01*
X437278Y38221D01*
X437255Y38684D01*
X437232Y39424D01*
X437255D01*
X437278Y39401D01*
D02*
G37*
G36*
X479948Y43821D02*
X480202Y43797D01*
X480503Y43728D01*
X480873Y43612D01*
X481266Y43450D01*
X481637Y43219D01*
X482007Y42918D01*
X482053Y42872D01*
X482146Y42756D01*
X482308Y42548D01*
X482470Y42270D01*
X482655Y41946D01*
X482817Y41530D01*
X482956Y41044D01*
X483025Y40512D01*
X476523D01*
Y40535D01*
Y40581D01*
X476546Y40651D01*
Y40743D01*
X476592Y41021D01*
X476662Y41322D01*
X476777Y41692D01*
X476893Y42039D01*
X477078Y42386D01*
X477286Y42687D01*
Y42710D01*
X477333Y42733D01*
X477448Y42872D01*
X477657Y43057D01*
X477934Y43265D01*
X478281Y43474D01*
X478698Y43659D01*
X479184Y43797D01*
X479438Y43821D01*
X479716Y43844D01*
X479855D01*
X479948Y43821D01*
D02*
G37*
G36*
X469743Y42895D02*
X465809D01*
X465508Y42918D01*
X465185Y42941D01*
X464861Y42965D01*
X464537Y43011D01*
X464282Y43057D01*
X464236Y43080D01*
X464143Y43103D01*
X464004Y43173D01*
X463819Y43265D01*
X463634Y43358D01*
X463426Y43497D01*
X463218Y43682D01*
X463056Y43867D01*
X463033Y43890D01*
X462986Y43959D01*
X462917Y44098D01*
X462847Y44260D01*
X462778Y44445D01*
X462709Y44677D01*
X462662Y44955D01*
X462639Y45255D01*
Y45302D01*
Y45394D01*
X462662Y45533D01*
X462686Y45718D01*
X462732Y45950D01*
X462801Y46181D01*
X462894Y46412D01*
X463033Y46644D01*
X463056Y46667D01*
X463102Y46736D01*
X463195Y46852D01*
X463310Y46968D01*
X463472Y47106D01*
X463657Y47245D01*
X463889Y47384D01*
X464143Y47477D01*
X464166D01*
X464282Y47523D01*
X464444Y47546D01*
X464699Y47592D01*
X465046Y47639D01*
X465439Y47662D01*
X465948Y47708D01*
X469743D01*
Y42895D01*
D02*
G37*
G36*
Y35491D02*
X465185D01*
X464699Y35514D01*
X464490Y35537D01*
X464305Y35560D01*
X464282D01*
X464189Y35583D01*
X464051Y35606D01*
X463889Y35652D01*
X463495Y35791D01*
X463102Y35976D01*
X463079Y36000D01*
X463009Y36046D01*
X462917Y36115D01*
X462801Y36208D01*
X462686Y36347D01*
X462523Y36486D01*
X462408Y36671D01*
X462269Y36879D01*
X462246Y36902D01*
X462223Y36971D01*
X462176Y37110D01*
X462107Y37272D01*
X462038Y37457D01*
X461991Y37689D01*
X461968Y37966D01*
X461945Y38244D01*
Y38290D01*
Y38383D01*
X461968Y38568D01*
X462014Y38776D01*
X462061Y39008D01*
X462153Y39262D01*
X462269Y39517D01*
X462431Y39771D01*
X462454Y39794D01*
X462523Y39887D01*
X462616Y40003D01*
X462755Y40142D01*
X462940Y40304D01*
X463171Y40465D01*
X463426Y40604D01*
X463727Y40720D01*
X463773Y40743D01*
X463866Y40766D01*
X464074Y40813D01*
X464328Y40859D01*
X464652Y40905D01*
X465046Y40951D01*
X465532Y40998D01*
X469743D01*
Y35491D01*
D02*
G37*
G36*
X452666Y43821D02*
X452921Y43797D01*
X453268Y43705D01*
X453661Y43566D01*
X454078Y43381D01*
X454471Y43103D01*
X454679Y42918D01*
X454864Y42733D01*
Y42710D01*
X454911Y42687D01*
X454957Y42617D01*
X455026Y42525D01*
X455096Y42409D01*
X455165Y42270D01*
X455258Y42085D01*
X455350Y41900D01*
X455443Y41669D01*
X455535Y41437D01*
X455605Y41160D01*
X455674Y40859D01*
X455744Y40535D01*
X455790Y40188D01*
X455813Y39794D01*
X455836Y39401D01*
Y39378D01*
Y39309D01*
Y39193D01*
X455813Y39031D01*
Y38846D01*
X455790Y38637D01*
X455720Y38152D01*
X455605Y37596D01*
X455420Y37041D01*
X455188Y36509D01*
X455026Y36277D01*
X454864Y36046D01*
X454841D01*
X454818Y36000D01*
X454679Y35884D01*
X454471Y35699D01*
X454193Y35514D01*
X453846Y35305D01*
X453430Y35120D01*
X452944Y35005D01*
X452689Y34981D01*
X452412Y34958D01*
X452273D01*
X452157Y34981D01*
X451903Y35028D01*
X451555Y35097D01*
X451185Y35236D01*
X450769Y35421D01*
X450375Y35699D01*
X450167Y35884D01*
X449982Y36069D01*
X449959Y36092D01*
X449936Y36115D01*
X449889Y36185D01*
X449820Y36277D01*
X449751Y36393D01*
X449658Y36532D01*
X449565Y36717D01*
X449473Y36902D01*
X449380Y37133D01*
X449311Y37388D01*
X449218Y37666D01*
X449149Y37966D01*
X449080Y38314D01*
X449033Y38661D01*
X448987Y39054D01*
Y39471D01*
Y39494D01*
Y39563D01*
Y39679D01*
X449010Y39818D01*
Y40003D01*
X449033Y40211D01*
X449103Y40697D01*
X449218Y41206D01*
X449403Y41761D01*
X449658Y42270D01*
X449797Y42525D01*
X449982Y42733D01*
Y42756D01*
X450028Y42779D01*
X450167Y42918D01*
X450375Y43080D01*
X450653Y43288D01*
X451000Y43497D01*
X451417Y43682D01*
X451879Y43797D01*
X452134Y43821D01*
X452412Y43844D01*
X452550D01*
X452666Y43821D01*
D02*
G37*
G36*
X420618D02*
X420873Y43797D01*
X421173Y43705D01*
X421521Y43589D01*
X421891Y43381D01*
X422261Y43127D01*
X422446Y42941D01*
X422608Y42756D01*
Y42733D01*
X422654Y42710D01*
X422677Y42641D01*
X422747Y42548D01*
X422816Y42432D01*
X422886Y42294D01*
X422955Y42132D01*
X423048Y41946D01*
X423140Y41715D01*
X423210Y41460D01*
X423279Y41183D01*
X423349Y40882D01*
X423395Y40558D01*
X423441Y40188D01*
X423487Y39794D01*
Y39378D01*
Y39355D01*
Y39285D01*
Y39170D01*
X423464Y39008D01*
Y38823D01*
X423441Y38614D01*
X423372Y38128D01*
X423256Y37596D01*
X423094Y37041D01*
X422863Y36509D01*
X422724Y36277D01*
X422562Y36046D01*
X422539D01*
X422515Y36000D01*
X422400Y35884D01*
X422192Y35699D01*
X421937Y35514D01*
X421613Y35305D01*
X421220Y35120D01*
X420803Y35005D01*
X420572Y34981D01*
X420340Y34958D01*
X420225D01*
X420132Y34981D01*
X419878Y35005D01*
X419577Y35097D01*
X419230Y35213D01*
X418859Y35398D01*
X418489Y35652D01*
X418304Y35814D01*
X418142Y36000D01*
Y36023D01*
X418096Y36046D01*
X418050Y36115D01*
X418003Y36208D01*
X417934Y36323D01*
X417841Y36439D01*
X417772Y36624D01*
X417679Y36809D01*
X417587Y37018D01*
X417517Y37249D01*
X417425Y37527D01*
X417355Y37804D01*
X417309Y38128D01*
X417263Y38452D01*
X417216Y38823D01*
Y39216D01*
Y39239D01*
Y39332D01*
Y39447D01*
X417240Y39609D01*
Y39794D01*
X417263Y40026D01*
X417286Y40280D01*
X417332Y40558D01*
X417448Y41113D01*
X417610Y41692D01*
X417841Y42247D01*
X417980Y42479D01*
X418142Y42710D01*
Y42733D01*
X418188Y42756D01*
X418304Y42895D01*
X418512Y43080D01*
X418767Y43288D01*
X419091Y43497D01*
X419484Y43659D01*
X419924Y43797D01*
X420155Y43821D01*
X420410Y43844D01*
X420526D01*
X420618Y43821D01*
D02*
G37*
G36*
X441936Y24962D02*
X442140Y24925D01*
X442380Y24869D01*
X442658Y24758D01*
X442954Y24591D01*
X443103Y24499D01*
X443251Y24369D01*
X443399Y24240D01*
X443547Y24073D01*
Y24054D01*
X443584Y24036D01*
X443621Y23980D01*
X443658Y23906D01*
X443714Y23814D01*
X443788Y23703D01*
X443843Y23573D01*
X443917Y23425D01*
X443991Y23240D01*
X444047Y23054D01*
X444121Y22832D01*
X444177Y22610D01*
X444214Y22351D01*
X444251Y22073D01*
X444288Y21795D01*
Y21481D01*
Y21462D01*
Y21407D01*
Y21314D01*
Y21203D01*
X444269Y21073D01*
Y20907D01*
X444232Y20555D01*
X444177Y20166D01*
X444103Y19759D01*
X443991Y19388D01*
X443917Y19222D01*
X443843Y19073D01*
Y19055D01*
X443806Y19018D01*
X443769Y18962D01*
X443714Y18888D01*
X443547Y18685D01*
X443306Y18481D01*
X443029Y18259D01*
X442677Y18055D01*
X442492Y17981D01*
X442269Y17925D01*
X442066Y17888D01*
X441825Y17870D01*
X441732D01*
X441658Y17888D01*
X441455Y17925D01*
X441214Y17981D01*
X440936Y18092D01*
X440640Y18240D01*
X440344Y18462D01*
X440196Y18611D01*
X440047Y18759D01*
Y18777D01*
X440010Y18796D01*
X439973Y18851D01*
X439936Y18925D01*
X439862Y19018D01*
X439807Y19129D01*
X439733Y19277D01*
X439659Y19425D01*
X439603Y19610D01*
X439529Y19796D01*
X439455Y20018D01*
X439399Y20259D01*
X439362Y20518D01*
X439325Y20796D01*
X439288Y21110D01*
Y21425D01*
Y21444D01*
Y21499D01*
Y21592D01*
X439307Y21721D01*
Y21869D01*
X439325Y22055D01*
X439381Y22443D01*
X439455Y22869D01*
X439585Y23332D01*
X439770Y23740D01*
X439881Y23943D01*
X440010Y24110D01*
Y24128D01*
X440047Y24147D01*
X440140Y24240D01*
X440288Y24388D01*
X440492Y24554D01*
X440751Y24702D01*
X441047Y24851D01*
X441399Y24943D01*
X441584Y24980D01*
X441862D01*
X441936Y24962D01*
D02*
G37*
G36*
X481191D02*
X481395Y24943D01*
X481636Y24869D01*
X481932Y24777D01*
X482228Y24610D01*
X482524Y24406D01*
X482673Y24258D01*
X482821Y24110D01*
Y24091D01*
X482858Y24073D01*
X482895Y24017D01*
X482932Y23943D01*
X482987Y23869D01*
X483043Y23758D01*
X483117Y23628D01*
X483172Y23480D01*
X483247Y23314D01*
X483321Y23110D01*
X483376Y22906D01*
X483432Y22684D01*
X483469Y22425D01*
X483506Y22166D01*
X483543Y21888D01*
Y21573D01*
Y21555D01*
Y21499D01*
Y21407D01*
X483524Y21277D01*
Y21129D01*
X483506Y20944D01*
X483450Y20555D01*
X483358Y20110D01*
X483247Y19684D01*
X483061Y19259D01*
X482950Y19073D01*
X482821Y18907D01*
X482784Y18870D01*
X482691Y18777D01*
X482543Y18648D01*
X482321Y18499D01*
X482062Y18333D01*
X481747Y18203D01*
X481395Y18111D01*
X481210Y18092D01*
X481006Y18074D01*
X480895D01*
X480821Y18092D01*
X480617Y18111D01*
X480358Y18185D01*
X480080Y18277D01*
X479766Y18425D01*
X479469Y18629D01*
X479321Y18759D01*
X479173Y18907D01*
Y18925D01*
X479136Y18944D01*
X479099Y18999D01*
X479062Y19073D01*
X479006Y19147D01*
X478932Y19259D01*
X478877Y19388D01*
X478803Y19555D01*
X478729Y19721D01*
X478673Y19907D01*
X478599Y20129D01*
X478543Y20370D01*
X478506Y20610D01*
X478469Y20888D01*
X478432Y21203D01*
Y21518D01*
Y21536D01*
Y21592D01*
Y21684D01*
X478451Y21795D01*
Y21944D01*
X478469Y22110D01*
X478525Y22480D01*
X478618Y22906D01*
X478747Y23332D01*
X478932Y23758D01*
X479062Y23943D01*
X479192Y24110D01*
Y24128D01*
X479229Y24147D01*
X479321Y24240D01*
X479488Y24388D01*
X479710Y24554D01*
X479969Y24702D01*
X480284Y24851D01*
X480636Y24943D01*
X480821Y24980D01*
X481117D01*
X481191Y24962D01*
D02*
G37*
G36*
X386016Y21425D02*
X386072Y21407D01*
X386146Y21388D01*
X386238Y21351D01*
X386349Y21314D01*
X386479Y21277D01*
X386627Y21240D01*
X386794Y21184D01*
X386997Y21147D01*
X387201Y21092D01*
X387442Y21036D01*
X387701Y20981D01*
X387960Y20925D01*
X388256Y20888D01*
X388571Y20833D01*
X388608D01*
X388719Y20814D01*
X388904Y20777D01*
X389108Y20740D01*
X389330Y20703D01*
X389553Y20647D01*
X389756Y20592D01*
X389941Y20518D01*
X389960D01*
X390015Y20481D01*
X390090Y20444D01*
X390164Y20388D01*
X390386Y20240D01*
X390571Y20018D01*
Y19999D01*
X390608Y19962D01*
X390627Y19888D01*
X390664Y19796D01*
X390701Y19684D01*
X390738Y19573D01*
X390756Y19425D01*
X390775Y19277D01*
Y19259D01*
Y19166D01*
X390756Y19055D01*
X390719Y18907D01*
X390664Y18740D01*
X390571Y18573D01*
X390460Y18388D01*
X390312Y18222D01*
X390293Y18203D01*
X390219Y18166D01*
X390108Y18092D01*
X389960Y18018D01*
X389756Y17944D01*
X389516Y17870D01*
X389238Y17833D01*
X388904Y17814D01*
X388756D01*
X388571Y17833D01*
X388368Y17870D01*
X388108Y17907D01*
X387849Y17981D01*
X387571Y18074D01*
X387294Y18203D01*
X387257Y18222D01*
X387183Y18277D01*
X387053Y18370D01*
X386905Y18499D01*
X386738Y18648D01*
X386553Y18833D01*
X386405Y19055D01*
X386257Y19296D01*
X386238Y19314D01*
X386220Y19388D01*
X386183Y19518D01*
X386127Y19684D01*
X386072Y19907D01*
X386035Y20166D01*
X386016Y20481D01*
X385997Y20851D01*
X385979Y21444D01*
X385997D01*
X386016Y21425D01*
D02*
G37*
G36*
X364111D02*
X364166Y21407D01*
X364240Y21388D01*
X364333Y21351D01*
X364444Y21314D01*
X364574Y21277D01*
X364722Y21240D01*
X364888Y21184D01*
X365092Y21147D01*
X365296Y21092D01*
X365537Y21036D01*
X365796Y20981D01*
X366055Y20925D01*
X366351Y20888D01*
X366666Y20833D01*
X366703D01*
X366814Y20814D01*
X366999Y20777D01*
X367203Y20740D01*
X367425Y20703D01*
X367648Y20647D01*
X367851Y20592D01*
X368036Y20518D01*
X368055D01*
X368110Y20481D01*
X368185Y20444D01*
X368259Y20388D01*
X368481Y20240D01*
X368666Y20018D01*
Y19999D01*
X368703Y19962D01*
X368721Y19888D01*
X368759Y19796D01*
X368796Y19684D01*
X368833Y19573D01*
X368851Y19425D01*
X368870Y19277D01*
Y19259D01*
Y19166D01*
X368851Y19055D01*
X368814Y18907D01*
X368759Y18740D01*
X368666Y18573D01*
X368555Y18388D01*
X368407Y18222D01*
X368388Y18203D01*
X368314Y18166D01*
X368203Y18092D01*
X368055Y18018D01*
X367851Y17944D01*
X367610Y17870D01*
X367333Y17833D01*
X366999Y17814D01*
X366851D01*
X366666Y17833D01*
X366462Y17870D01*
X366203Y17907D01*
X365944Y17981D01*
X365666Y18074D01*
X365388Y18203D01*
X365351Y18222D01*
X365277Y18277D01*
X365148Y18370D01*
X365000Y18499D01*
X364833Y18648D01*
X364648Y18833D01*
X364500Y19055D01*
X364352Y19296D01*
X364333Y19314D01*
X364314Y19388D01*
X364277Y19518D01*
X364222Y19684D01*
X364166Y19907D01*
X364129Y20166D01*
X364111Y20481D01*
X364092Y20851D01*
X364074Y21444D01*
X364092D01*
X364111Y21425D01*
D02*
G37*
G36*
X320319D02*
X320375Y21407D01*
X320449Y21388D01*
X320541Y21351D01*
X320652Y21314D01*
X320782Y21277D01*
X320930Y21240D01*
X321097Y21184D01*
X321300Y21147D01*
X321504Y21092D01*
X321745Y21036D01*
X322004Y20981D01*
X322263Y20925D01*
X322560Y20888D01*
X322874Y20833D01*
X322911D01*
X323022Y20814D01*
X323208Y20777D01*
X323411Y20740D01*
X323633Y20703D01*
X323856Y20647D01*
X324059Y20592D01*
X324245Y20518D01*
X324263D01*
X324319Y20481D01*
X324393Y20444D01*
X324467Y20388D01*
X324689Y20240D01*
X324874Y20018D01*
Y19999D01*
X324911Y19962D01*
X324930Y19888D01*
X324967Y19796D01*
X325004Y19684D01*
X325041Y19573D01*
X325059Y19425D01*
X325078Y19277D01*
Y19259D01*
Y19166D01*
X325059Y19055D01*
X325022Y18907D01*
X324967Y18740D01*
X324874Y18573D01*
X324763Y18388D01*
X324615Y18222D01*
X324596Y18203D01*
X324522Y18166D01*
X324411Y18092D01*
X324263Y18018D01*
X324059Y17944D01*
X323819Y17870D01*
X323541Y17833D01*
X323208Y17814D01*
X323060D01*
X322874Y17833D01*
X322671Y17870D01*
X322411Y17907D01*
X322152Y17981D01*
X321874Y18074D01*
X321597Y18203D01*
X321560Y18222D01*
X321486Y18277D01*
X321356Y18370D01*
X321208Y18499D01*
X321041Y18648D01*
X320856Y18833D01*
X320708Y19055D01*
X320560Y19296D01*
X320541Y19314D01*
X320523Y19388D01*
X320486Y19518D01*
X320430Y19684D01*
X320375Y19907D01*
X320338Y20166D01*
X320319Y20481D01*
X320300Y20851D01*
X320282Y21444D01*
X320300D01*
X320319Y21425D01*
D02*
G37*
G36*
X343502Y24962D02*
X343705Y24943D01*
X343946Y24888D01*
X344243Y24795D01*
X344557Y24666D01*
X344854Y24480D01*
X345150Y24240D01*
X345187Y24202D01*
X345261Y24110D01*
X345391Y23943D01*
X345520Y23721D01*
X345668Y23462D01*
X345798Y23129D01*
X345909Y22740D01*
X345965Y22314D01*
X340761D01*
Y22332D01*
Y22369D01*
X340780Y22425D01*
Y22499D01*
X340817Y22721D01*
X340872Y22962D01*
X340965Y23258D01*
X341058Y23536D01*
X341206Y23814D01*
X341372Y24054D01*
Y24073D01*
X341409Y24091D01*
X341502Y24202D01*
X341669Y24351D01*
X341891Y24517D01*
X342169Y24684D01*
X342502Y24832D01*
X342891Y24943D01*
X343094Y24962D01*
X343317Y24980D01*
X343428D01*
X343502Y24962D01*
D02*
G37*
G36*
X358130Y23925D02*
X354315D01*
X354093Y23943D01*
X353834Y23962D01*
X353538Y23980D01*
X353242Y24017D01*
X352945Y24073D01*
X352686Y24147D01*
X352649Y24165D01*
X352575Y24202D01*
X352464Y24258D01*
X352316Y24332D01*
X352149Y24443D01*
X351982Y24573D01*
X351816Y24739D01*
X351686Y24925D01*
X351668Y24943D01*
X351631Y25017D01*
X351575Y25128D01*
X351501Y25277D01*
X351445Y25443D01*
X351390Y25628D01*
X351353Y25851D01*
X351334Y26073D01*
Y26091D01*
Y26110D01*
X351353Y26221D01*
X351371Y26388D01*
X351408Y26610D01*
X351501Y26832D01*
X351612Y27091D01*
X351779Y27332D01*
X352001Y27573D01*
X352038Y27591D01*
X352131Y27665D01*
X352279Y27758D01*
X352519Y27869D01*
X352797Y27980D01*
X353167Y28073D01*
X353593Y28147D01*
X354093Y28165D01*
X358130D01*
Y23925D01*
D02*
G37*
G36*
X418235Y24962D02*
X418438Y24943D01*
X418716Y24869D01*
X419031Y24758D01*
X419364Y24610D01*
X419679Y24388D01*
X419846Y24240D01*
X419994Y24091D01*
Y24073D01*
X420031Y24054D01*
X420068Y23999D01*
X420123Y23925D01*
X420179Y23832D01*
X420235Y23721D01*
X420309Y23573D01*
X420383Y23425D01*
X420457Y23240D01*
X420531Y23054D01*
X420586Y22832D01*
X420642Y22592D01*
X420698Y22332D01*
X420735Y22055D01*
X420753Y21740D01*
X420772Y21425D01*
Y21407D01*
Y21351D01*
Y21258D01*
X420753Y21129D01*
Y20981D01*
X420735Y20814D01*
X420679Y20425D01*
X420586Y19981D01*
X420438Y19536D01*
X420253Y19110D01*
X420123Y18925D01*
X419994Y18740D01*
X419975D01*
X419957Y18703D01*
X419846Y18611D01*
X419679Y18462D01*
X419457Y18314D01*
X419179Y18148D01*
X418846Y18000D01*
X418457Y17907D01*
X418253Y17888D01*
X418031Y17870D01*
X417920D01*
X417827Y17888D01*
X417624Y17925D01*
X417346Y17981D01*
X417050Y18092D01*
X416716Y18240D01*
X416402Y18462D01*
X416235Y18611D01*
X416087Y18759D01*
X416068Y18777D01*
X416050Y18796D01*
X416013Y18851D01*
X415957Y18925D01*
X415902Y19018D01*
X415828Y19129D01*
X415754Y19277D01*
X415680Y19425D01*
X415606Y19610D01*
X415550Y19814D01*
X415476Y20036D01*
X415420Y20277D01*
X415365Y20555D01*
X415328Y20833D01*
X415291Y21147D01*
Y21481D01*
Y21499D01*
Y21555D01*
Y21647D01*
X415309Y21758D01*
Y21906D01*
X415328Y22073D01*
X415383Y22462D01*
X415476Y22869D01*
X415624Y23314D01*
X415828Y23721D01*
X415939Y23925D01*
X416087Y24091D01*
Y24110D01*
X416124Y24128D01*
X416235Y24240D01*
X416402Y24369D01*
X416624Y24536D01*
X416902Y24702D01*
X417235Y24851D01*
X417605Y24943D01*
X417809Y24962D01*
X418031Y24980D01*
X418142D01*
X418235Y24962D01*
D02*
G37*
%LPC*%
G36*
X60485Y216440D02*
D01*
Y210867D01*
X57411D01*
Y216440D01*
X55967D01*
X47671Y210570D01*
Y209293D01*
X55967D01*
Y207552D01*
X47671D01*
X60485D01*
Y216440D01*
D02*
G37*
G36*
Y206626D02*
Y201664D01*
X47671Y206626D01*
Y204774D01*
X56985Y201442D01*
X57004D01*
X57041Y201423D01*
X57096Y201404D01*
X57170Y201367D01*
X57281Y201349D01*
X57393Y201312D01*
X57670Y201219D01*
X57985Y201108D01*
X58337Y200997D01*
X59078Y200775D01*
X59059D01*
X59022Y200756D01*
X58966Y200738D01*
X58892Y200719D01*
X58689Y200664D01*
X58411Y200571D01*
X58096Y200479D01*
X57744Y200368D01*
X57374Y200238D01*
X56985Y200090D01*
X47671Y196609D01*
Y194887D01*
X60485Y199886D01*
Y206626D01*
D02*
G37*
G36*
X64040Y195016D02*
X60485D01*
X62910D01*
Y184592D01*
X64040D01*
Y195016D01*
D02*
G37*
G36*
X60485Y183369D02*
X47671D01*
Y174093D01*
X49190D01*
Y181666D01*
X53097D01*
Y174574D01*
X54615D01*
Y181666D01*
X58966D01*
Y173796D01*
X47671D01*
X60485D01*
Y183369D01*
D02*
G37*
G36*
Y171463D02*
X47671D01*
Y169723D01*
X57744Y163001D01*
X47671D01*
D01*
Y161372D01*
X60485D01*
Y171463D01*
D02*
G37*
%LPD*%
G36*
X55967Y210867D02*
X50227D01*
X55967Y214903D01*
Y210867D01*
D02*
G37*
G36*
X60485Y207552D02*
X57411D01*
Y209293D01*
X60485D01*
Y207552D01*
D02*
G37*
G36*
Y163131D02*
X50430Y169834D01*
X60485D01*
Y163131D01*
D02*
G37*
D10*
X251050Y365760D02*
G03*
X251050Y365760I-1250J0D01*
G01*
X374720Y302290D02*
G03*
X374720Y302290I-1250J0D01*
G01*
D15*
X343300Y136740D02*
X346300D01*
X242150Y27800D02*
Y30800D01*
X80860Y70260D02*
Y73260D01*
X343260Y154520D02*
X346260D01*
X343310Y183300D02*
X346310Y183300D01*
X343310Y172300D02*
X346310D01*
X343300Y147740D02*
X346300D01*
X91860Y70260D02*
Y73260D01*
X91860Y24530D02*
Y27530D01*
X80860Y24530D02*
Y27530D01*
X343260Y165520D02*
X346260D01*
X216800Y383760D02*
X224800D01*
X361080Y309460D02*
X364080D01*
X361080Y320460D02*
X364080D01*
X216800Y377760D02*
Y383760D01*
X238800D02*
X246800D01*
Y377760D02*
Y383760D01*
X282360Y28340D02*
Y31340D01*
X271360Y28340D02*
Y31340D01*
X253150Y27800D02*
Y30800D01*
X360220Y277290D02*
Y299290D01*
X366220D01*
X360220Y277290D02*
X366220D01*
Y299290D01*
D16*
X101490Y89770D02*
X105490D01*
X119490Y53218D02*
Y89614D01*
X227066Y369760D02*
X236534D01*
X101490Y52959D02*
Y89770D01*
X115490Y8020D02*
X119490D01*
X101490Y8176D02*
Y44572D01*
X119490Y8020D02*
Y44831D01*
X101490Y52959D02*
X105490D01*
X101490Y71120D02*
X119490D01*
X115490Y44831D02*
X119490D01*
X101490Y26670D02*
X119490D01*
M02*
