G04*
G04 #@! TF.GenerationSoftware,Altium Limited,Altium Designer,24.2.2 (26)*
G04*
G04 Layer_Color=16711935*
%FSLAX44Y44*%
%MOMM*%
G71*
G04*
G04 #@! TF.SameCoordinates,D9C0422A-5697-4C54-BB13-8CA43C25D237*
G04*
G04*
G04 #@! TF.FilePolarity,Negative*
G04*
G01*
G75*
%ADD56R,1.4032X1.4032*%
%ADD57R,1.4032X1.4032*%
%ADD78R,1.8032X1.8032*%
%ADD79C,1.8032*%
%ADD80C,0.9032*%
%ADD81O,2.6032X2.0032*%
%ADD82R,2.6032X2.0032*%
%ADD83O,3.2032X1.7032*%
%ADD84R,3.2032X1.7032*%
%ADD85R,1.9812X1.8542*%
%ADD86O,1.9812X1.8542*%
%ADD87C,1.2032*%
%ADD103R,0.9032X0.6032*%
%ADD104R,0.8032X1.8032*%
D56*
X355550Y142240D02*
D03*
X334550D02*
D03*
X334010Y160020D02*
D03*
X355010D02*
D03*
X334060Y177800D02*
D03*
X355060D02*
D03*
X373330Y314960D02*
D03*
X352330D02*
D03*
D57*
X110490Y15916D02*
D03*
Y36916D02*
D03*
Y81874D02*
D03*
Y60874D02*
D03*
X86360Y36780D02*
D03*
Y15780D02*
D03*
Y61010D02*
D03*
Y82010D02*
D03*
X247650Y40050D02*
D03*
Y19050D02*
D03*
X276860Y40590D02*
D03*
Y19590D02*
D03*
D78*
X457200Y449580D02*
D03*
D79*
Y474980D02*
D03*
Y500380D02*
D03*
D80*
X235460Y61740D02*
D03*
X293260D02*
D03*
D81*
X458470Y180340D02*
D03*
Y129540D02*
D03*
X424180Y180340D02*
D03*
Y129540D02*
D03*
D82*
X458470Y154940D02*
D03*
X424180D02*
D03*
D83*
X24130Y232410D02*
D03*
Y257810D02*
D03*
Y283210D02*
D03*
Y308610D02*
D03*
Y334010D02*
D03*
Y359410D02*
D03*
Y384810D02*
D03*
X506730Y207010D02*
D03*
Y181610D02*
D03*
Y156210D02*
D03*
Y130810D02*
D03*
Y105410D02*
D03*
Y80010D02*
D03*
Y54610D02*
D03*
X24130Y52070D02*
D03*
Y77470D02*
D03*
Y102870D02*
D03*
Y128270D02*
D03*
Y153670D02*
D03*
X506730Y476250D02*
D03*
Y450850D02*
D03*
Y425450D02*
D03*
Y400050D02*
D03*
Y374650D02*
D03*
Y349250D02*
D03*
Y323850D02*
D03*
Y298450D02*
D03*
Y273050D02*
D03*
D84*
X24130Y410210D02*
D03*
X506730Y232410D02*
D03*
X24130Y179070D02*
D03*
X506730Y501650D02*
D03*
D85*
X54610Y478790D02*
D03*
D86*
Y504190D02*
D03*
Y529590D02*
D03*
D87*
X222250Y341630D02*
D03*
X241300D02*
D03*
D103*
X352970Y294790D02*
D03*
Y281790D02*
D03*
X373470Y281790D02*
D03*
Y288290D02*
D03*
Y294790D02*
D03*
D104*
X231800Y387760D02*
D03*
X222300Y365760D02*
D03*
X241300D02*
D03*
M02*
