M48
;Layer_Color=9474304
;FILE_FORMAT=4:4
METRIC,LZ
;TYPE=PLATED
T01F00S00C0.5000
T03F00S00C0.8000
T04F00S00C1.0000
T05F00S00C1.0160
T06F00S00C1.1000
%
T01
X0035179Y0024511
X0037719
X0038481Y0028956
X0039116Y0041021
X0034417
X00381922Y0051136
X0032994Y0051019
Y0049819
Y0048619
X0031794
X0030594
Y0049819
X0029394
Y0048619
Y0051019
X0030594
X0031794
Y0049819
X00280288Y00431849
X0028829Y0042164
X0023114Y0035179
X0032512Y0029464
X0032639Y0024511
X0016002Y00211876
X00153848Y00478728
X00054387Y00673134
X0000762Y006731
X0034798Y0062484
X00455564Y00608717
T03
X0005461Y0047879
Y0050419
Y0052959
T04
X0002413Y0005207
Y0007747
Y0010287
Y0012827
X0050673Y0013081
Y0010541
Y0008001
Y0005461
Y0015621
Y0018161
Y0020701
Y0023241
Y0027305
Y0029845
Y0032385
Y0034925
Y0037465
Y0040005
Y0042545
Y0045085
Y0047625
Y0050165
X0002413Y0041021
Y0038481
Y0035941
Y0033401
Y0030861
Y0028321
Y0025781
Y0023241
Y0017907
Y0015367
T05
X0044323Y0009271
Y0011811
X0047371
Y0009271
T06
X0041275Y0009271
Y0011811
M30
